<?xml version="1.0" encoding="utf-8"?>
<!-- Generator: Adobe Illustrator 21.0.0, SVG Export Plug-In . SVG Version: 6.00 Build 0)  -->
<svg version="1.1" id="Capa_4" xmlns="http://www.w3.org/2000/svg" xmlns:xlink="http://www.w3.org/1999/xlink" x="0px" y="0px"
	 viewBox="0 0 40 40" style="enable-background:new 0 0 40 40;" xml:space="preserve" width="40" height="40" >
<style type="text/css">
	.st0{fill:#FFFFFF;}
</style>
<g>
	<g>
		<rect class="st0" width="10" height="10"/>
		<rect x="20" class="st0" width="10" height="10"/>
		<rect x="10" y="10" class="st0" width="10" height="10"/>
		<rect x="30" y="10" class="st0" width="10" height="10"/>
		<rect y="20" class="st0" width="10" height="10"/>
		<rect x="20" y="20" class="st0" width="10" height="10"/>
		<rect x="10" y="30" class="st0" width="10" height="10"/>
		<rect x="30" y="30" class="st0" width="10" height="10"/>
	</g>
	<g>
		<rect x="10" width="10" height="10"/>
		<rect x="30" width="10" height="10"/>
		<rect y="10" width="10" height="10"/>
		<rect x="20" y="10" width="10" height="10"/>
		<rect x="10" y="20" width="10" height="10"/>
		<rect x="30" y="20" width="10" height="10"/>
		<rect y="30" width="10" height="10"/>
		<rect x="20" y="30" width="10" height="10"/>
	</g>
</g>
</svg>
