<?xml version="1.0" encoding="utf-8"?>
<!-- Generator: Adobe Illustrator 21.0.0, SVG Export Plug-In . SVG Version: 6.00 Build 0)  -->
<svg version="1.1" id="Layer_1" xmlns="http://www.w3.org/2000/svg" xmlns:xlink="http://www.w3.org/1999/xlink" x="0px" y="0px"
	 viewBox="0 0 600 600" style="enable-background:new 0 0 600 600;" xml:space="preserve" width="40" height="40">
<style type="text/css">
	.st0{fill:#3E3639;}
	.st1{fill:#A37D73;}
	.st2{fill:#F3C221;}
</style>
<g>
	<ellipse class="st0" cx="207" cy="562.5" rx="55.5" ry="27"/>
	<polygon class="st1" points="192,42 235.5,42 235.5,566 235.5,571.8 235.5,573.2 235.5,573.2 235.5,573.2 235.5,573.2 235.5,573.2 
		234,573.2 234,573.2 234,573.2 234,573.2 234,573.2 234,573.2 234,574.7 232.5,574.7 232.5,574.7 232.5,574.7 232.5,574.7 
		232.5,574.7 232.5,574.7 232.5,574.7 232.5,574.7 232.5,574.7 231,574.7 231,574.7 231,574.7 231,574.7 231,574.7 231,576.1 
		231,576.1 229.5,576.1 229.5,576.1 229.5,576.1 229.5,576.1 229.5,576.1 229.5,576.1 229.5,576.1 229.5,576.1 228,576.1 228,576.1 
		228,576.1 228,576.1 228,576.1 228,576.1 228,576.1 226.5,577.6 226.5,577.6 226.5,577.6 226.5,577.6 226.5,577.6 226.5,577.6 
		226.5,577.6 225,577.6 225,577.6 225,577.6 225,577.6 225,577.6 223.5,577.6 223.5,577.6 223.5,577.6 223.5,577.6 223.5,577.6 
		223.5,577.6 223.5,577.6 222,577.6 222,577.6 222,577.6 222,577.6 222,577.6 220.5,579 220.5,579 220.5,579 220.5,579 220.5,579 
		220.5,579 219,579 219,579 219,579 219,579 219,579 219,579 217.5,579 217.5,579 217.5,579 217.5,579 217.5,579 216,579 216,579 
		216,579 216,579 216,579 214.5,579 214.5,579 214.5,579 214.5,579 214.5,579 213,579 213,579 213,579 213,579 211.5,579 211.5,579 
		211.5,579 211.5,579 211.5,579 210,579 210,579 210,579 210,579 210,579 210,579 210,579 208.5,579 208.5,579 208.5,579 208.5,579 
		208.5,579 208.5,579 208.5,579 207,579 207,579 207,579 207,579 207,579 207,579 207,579 205.5,579 205.5,579 205.5,579 205.5,579 
		205.5,579 205.5,579 204,579 204,579 204,579 204,579 204,579 204,579 202.5,579 202.5,579 202.5,579 202.5,579 202.5,579 
		202.5,579 202.5,579 201,579 201,579 201,579 201,579 201,579 201,579 201,579 201,579 201,579 199.5,579 199.5,577.6 199.5,577.6 
		199.5,577.6 199.5,577.6 199.5,577.6 198,577.6 198,577.6 198,577.6 198,577.6 198,577.6 198,577.6 198,577.6 196.5,577.6 
		196.5,577.6 196.5,577.6 196.5,577.6 196.5,577.6 196.5,577.6 196.5,577.6 195,577.6 195,577.6 195,577.6 193.5,576.1 193.5,576.1 
		193.5,576.1 193.5,576.1 193.5,576.1 193.5,576.1 193.5,576.1 192,576.1 192,576.1 192,566 	"/>
	<path class="st2" d="M192,11l255,121L234,234c-6,3-15,6-21,6c-7.5,0-15-3-21-6C192,168,192,80,192,11z	">
<animate  accumulate="none" additive="replace" attributeName="fill" calcMode="linear" dur="1s" fill="remove" repeatCount="indefinite" restart="always" values="#F3C221; #f20c0c; #F3C221;">
			</animate>
	</path>
</g>
</svg>
