<?xml version="1.0" encoding="utf-8"?>
<!-- Generator: Adobe Illustrator 21.0.0, SVG Export Plug-In . SVG Version: 6.00 Build 0)  -->
<svg version="1.1" id="Layer_1" xmlns="http://www.w3.org/2000/svg" xmlns:xlink="http://www.w3.org/1999/xlink" x="0px" y="0px"
	 viewBox="0 0 40 40" style="enable-background:new 0 0 40 40;" xml:space="preserve" width="40" height="40">
<style type="text/css">
	.st0{fill:#77BE45;}
	.st1{fill:#FFFFFF;}
</style>
<g id="Background">
	<rect class="st0" width="40" height="40"/>
	<path id="XMLID_4_" class="st1" d="M23.5,26.8c0.2-0.1,0.2,0.1,0.3,0c0,0,0.2,0,0.3,0.1c0-0.1,0-0.2,0-0.2c-0.2-0.1,0-0.3,0-0.4
		c0.3-0.1,0.2-0.4,0.4-0.5c0.2-0.2,0.1-0.4,0.2-0.6c0-0.2,0-0.4-0.2-0.5c0.1,0.5-0.1,1-0.4,1.3c-0.3,0.4-0.6,0.7-1,1.1
		c-0.1,0.1-0.1,0.1-0.2,0.2C23,27.1,23.3,26.9,23.5,26.8z M13.8,12.5l-0.1-0.1c0-0.1,0-0.3,0.2-0.3H14c-0.1,0.4-0.1,0.4,0.1,0.4
		c0-0.3,0.1-0.6,0.1-0.9c0,0,0,0,0.1,0c0,0.1,0,0.1,0.1,0.2c0.2-0.1,0.3-0.3,0.4-0.5c-0.1,0-0.3,0.2-0.4,0.1c0,0.1-0.3,0-0.2,0.2
		v0.1c-0.3,0-0.3,0.2-0.5,0.3c0,0.1,0.1,0.1,0.1,0.1c-0.1,0.1,0,0.3-0.1,0.5c-0.1,0.1,0.1,0.1,0.1,0.2
		C13.7,12.6,13.7,12.6,13.8,12.5z M33.9,35.3c0.2,0.2-0.1,0.2,0,0.4l0.1,0.1c0.1,0,0.1,0.1,0.1,0.2c0.1,0.1,0.1,0.2,0.2,0.3
		c-0.1-0.3,0.3-0.1,0.3-0.2L34.5,36c0.1,0,0.1-0.1,0.2-0.1c-0.4-0.2-0.6-0.5-0.8-0.8C33.8,35.1,33.8,35.3,33.9,35.3z M19.7,39
		c-0.3,0.3-0.7,0.5-1,0.9c0,0.2,0.3-0.1,0.3,0.1c0.1,0,0.2-0.1,0.2-0.1c0.1-0.2,0.4-0.3,0.4-0.6c0-0.1,0.1-0.1,0.2,0
		C19.7,39.2,19.8,39.1,19.7,39C19.9,39,19.8,38.9,19.7,39z M14.7,30.7L14.7,30.7C14.7,30.7,14.7,30.8,14.7,30.7
		C14.7,30.8,14.7,30.8,14.7,30.7c0.1,0.1,0.2,0,0.2,0.1c0.1,0.2,0.2,0,0.3,0c0-0.1,0.1-0.2,0.1-0.4c-0.1,0-0.2,0-0.2,0
		c-0.1,0-0.1-0.1-0.1-0.2c0,0,0.1-0.1,0-0.1S14.9,30,14.8,30c-0.1,0.2-0.1,0.4-0.2,0.4c-0.1,0.1,0,0.1-0.1,0.2
		c-0.1,0.1-0.1,0.2,0,0.4C14.6,30.9,14.7,30.9,14.7,30.7C14.7,30.8,14.7,30.8,14.7,30.7z M14.3,34.6c-0.4-0.1-0.4-0.1-0.6,0.2
		c0,0,0,0,0,0.1l0.1,0.1c0.1-0.1,0.2,0,0.2,0c0.1-0.1,0.3-0.1,0.4,0c0.2,0.1,0.2,0,0.3-0.1C14.6,34.6,14.4,34.6,14.3,34.6z
		 M33.6,26.9l0.1,0.1c0,0,0,0,0.1,0.1C34,27,34,27,33.9,26.9c-0.1-0.1,0-0.1,0-0.2s-0.2,0-0.2-0.2c0,0-0.1,0-0.1-0.1v0.1
		c0,0.2,0,0.2-0.1,0.2c-0.1,0-0.1,0-0.2,0c0,0.1,0,0.2,0,0.2c0.3,0.1,0.6,0.2,0.6,0C33.7,27,33.7,26.9,33.6,26.9z M11.5,26.5
		c0-0.1,0.2-0.2,0.1-0.4c-0.1-0.1-0.2-0.1-0.3,0c0,0,0-0.1-0.1-0.1c-0.1,0-0.2,0-0.3,0c0,0.4,0.3,0.4,0.5,0.6L11.5,26.5z M37.9,39.7
		c0,0.1,0,0.1,0.1,0.2l0.1,0.1c0,0,0-0.1,0.1-0.1v-0.1c-0.2-0.2-0.1-0.3,0.1-0.4l0.1-0.1c0-0.1-0.1-0.2-0.1-0.3
		c-0.1,0.2-0.2,0.3-0.3,0.5c-0.2,0.2-0.2,0.5-0.4,0.7 M3.4,30.5c0-0.2,0.1-0.4,0.2-0.6c0-0.1,0-0.2,0-0.3c0-0.1-0.1-0.1-0.2-0.1
		c0.1,0.1-0.3,0-0.1,0.2c0.1,0.1,0,0.2-0.1,0.3c-0.1,0.1-0.1,0.2-0.1,0.3s0.1,0.3,0.1,0.5C3.4,30.6,3.5,30.6,3.4,30.5z M18.5,39.9
		c-0.1,0.1-0.1,0.2-0.2,0.3 M17.1,40.1c-0.1,0-0.2,0-0.3,0 M2.3,3.3L2.3,3.3c-0.1,0.1-0.1,0.1,0,0.1c0.2,0,0.3,0.1,0.4,0.3
		c0.1,0,0.2-0.1,0.3-0.2C2.8,3.4,2.7,3.3,2.7,3.3c0-0.1,0-0.2,0.1-0.3C2.6,3,2.6,3,2.5,3c0.1,0.1,0.1,0.2,0.1,0.2
		C2.5,3.3,2.4,3.1,2.3,3.3z M9.8,14.2c-0.1,0-0.2,0-0.4,0c0.1,0.1,0.1,0.2,0.1,0.2c-0.1,0.2-0.3,0.3-0.3,0.5
		C9.4,14.6,9.8,14.6,9.8,14.2z M31,30.4c0,0.1,0.2,0.2,0,0.2c0.1,0.1,0.2,0.2,0.4,0.1c0-0.3-0.1-0.5-0.5-0.7
		C30.9,30.2,31,30.3,31,30.4z M34.8,30.7c0.2,0,0.3-0.1,0.4-0.1c-0.2-0.2-0.2-0.2-0.6-0.2C34.8,30.4,34.7,30.7,34.8,30.7z M8.8,13.8
		c0-0.1-0.1-0.2-0.1-0.2c0-0.1,0.1-0.1,0.1-0.2h0.1c0-0.1,0.1-0.2,0.1-0.3L8.8,13c-0.1,0.2-0.4,0.1-0.4,0.4c0,0-0.1,0.1-0.2,0.1
		C8.6,13.7,8.7,13.7,8.8,13.8z M16.1,21.4L16.1,21.4c0.2,0,0.3-0.1,0.3-0.2c0-0.1-0.1-0.1-0.2-0.2c-0.2,0-0.3,0-0.4,0.2
		C15.9,21.3,16,21.3,16.1,21.4z M30.1,1.9c0.1-0.1,0.2-0.3,0.4-0.4c-0.1-0.1-0.1-0.1-0.2-0.2c-0.1,0.1-0.2,0.2-0.3,0.3
		C30,1.6,30,1.7,30.1,1.9z M3.3,28.8c-0.1,0-0.2,0-0.3,0.1c0.2,0,0.4,0.1,0.5-0.1c-0.1-0.1-0.1-0.2-0.2-0.3c0,0-0.3,0.2-0.4,0.3
		C3.2,28.6,3.2,28.6,3.3,28.8z M23.9,19.8c-0.1,0-0.2,0.1-0.2,0.2s0.1,0.2,0.1,0.3c0.1-0.1,0.2-0.1,0.4-0.2
		C24.1,20,24.2,19.7,23.9,19.8z M27.1,9.9c0.1,0.1,0.2,0.2,0.4,0.1c-0.1-0.1-0.1-0.3-0.2-0.4C27.1,9.6,27,9.8,27.1,9.9z M7.5,38.1
		c0.1-0.2,0-0.2,0-0.4c-0.3,0.6-0.3,0.6-0.1,0.8C7.6,38.4,7.5,38.2,7.5,38.1z M9.2,9.9c0.2-0.1,0.1-0.3,0.1-0.5
		C9.1,9.6,9,9.8,8.8,9.9V10c0.1-0.1,0.1-0.1,0.3,0C9.1,10,9.1,9.9,9.2,9.9z M2.3,25.5c0.1,0,0-0.2,0.1-0.2c0-0.1,0.1-0.1,0.2-0.1
		c-0.2,0-0.3,0-0.4,0c0,0.1,0,0.2,0,0.4 M22.5,35.6v0.1c0.2-0.2,0.2-0.2,0-0.5c-0.1,0-0.2,0.1-0.3,0.1v0.1c0,0.1,0,0.1,0,0.2
		C22.4,35.6,22.4,35.6,22.5,35.6C22.5,35.5,22.5,35.6,22.5,35.6z M14.9,12.3c-0.1,0.1-0.2,0.2-0.3,0.3c0.1,0.1,0.2,0.3,0.3,0.4
		c0.1-0.1,0.2-0.1,0.4-0.2c-0.1,0-0.2,0-0.3,0C14.9,12.6,14.9,12.4,14.9,12.3z M25.8,21.8C25.8,21.8,25.9,21.8,25.8,21.8
		c0.1,0,0.2-0.1,0.1-0.1c0-0.1-0.1-0.2-0.1-0.2c0.1-0.1,0.1-0.2-0.1-0.1c-0.1,0-0.2,0.1-0.3,0.1C25.6,21.6,25.8,21.6,25.8,21.8z
		 M33.5,6.2c0.2-0.1,0.4-0.3,0.3-0.6c-0.1,0-0.2,0-0.3,0c0,0.1,0.1,0.2,0.1,0.4C33.5,6,33.5,6.1,33.5,6.2
		C33.5,6.1,33.5,6.2,33.5,6.2z M33.5,20.9c0.1-0.1,0.2-0.1,0.3-0.1c0-0.1,0-0.2,0-0.2c-0.1,0-0.3,0-0.5,0
		C33.5,20.6,33.5,20.7,33.5,20.9z M5.4,18.4c-0.1,0-0.1,0.1-0.2,0.1c0,0,0,0,0,0.1l0.1,0.1c0.1-0.1,0.2-0.1,0.3-0.2
		c0.1,0,0.2,0,0.3,0c-0.1-0.1-0.1-0.2-0.1-0.3C5.6,18.3,5.5,18.5,5.4,18.4z M10.1,4.3C10,4.2,10,4.1,10,4C9.8,4.2,9.7,4.3,9.6,4.4
		C9.9,4.5,10,4.5,10.1,4.3z M10.3,39.6c0,0-0.1,0-0.2,0.1c0,0-0.1,0-0.1,0.1L10,39.9c0.1,0.1,0.2-0.2,0.3,0c0.2,0.2,0.2,0,0.3-0.1
		C10.4,39.5,10.5,39.5,10.3,39.6z M13.4,18.6c-0.3,0.1-0.3,0.3-0.2,0.5c0.1,0,0.2,0,0.3,0C13.4,18.9,13.5,18.8,13.4,18.6z
		 M37.7,34.5v-0.1c-0.1-0.1-0.2-0.1-0.3-0.1c0,0.1-0.1,0.2-0.1,0.4C37.4,34.6,37.6,34.6,37.7,34.5z M9.1,32.4c0-0.1,0-0.2,0-0.3
		c-0.1,0-0.2,0-0.3,0c0-0.1,0-0.1-0.1-0.2l0,0c0,0.1,0,0.2,0,0.3C8.8,32.3,8.9,32.3,9.1,32.4z M34.7,29.4c-0.1,0.1-0.3,0-0.4,0.2
		c0.2,0.1,0.3,0.2,0.5,0.1C34.7,29.6,34.9,29.5,34.7,29.4z M11,11.2C11,11.2,10.9,11.1,11,11.2c-0.1-0.1-0.2-0.1-0.2-0.1
		c0,0.2-0.1,0.3-0.2,0.4c0,0.1,0,0.2,0,0.3C10.9,11.7,10.8,11.4,11,11.2z M25.2,28.1c-0.1-0.1-0.1-0.2-0.2-0.2
		c-0.1,0-0.3-0.1-0.4,0.1v0.1C24.8,28.1,25,28.1,25.2,28.1C25.2,28.2,25.2,28.1,25.2,28.1z M27.6,20.5
		C27.6,20.4,27.6,20.4,27.6,20.5c-0.1,0-0.2,0-0.3,0.1c0,0.1,0.1,0.3,0.2,0.3l0.1-0.1c0,0,0,0,0-0.1c-0.1,0-0.1,0-0.2-0.1
		C27.6,20.6,27.6,20.5,27.6,20.5z M9.4,12.9c0,0.1,0,0.2,0.2,0.1c0-0.1,0-0.2,0-0.4c0.1,0,0.1,0,0.2,0c0-0.1,0-0.2,0-0.3
		C9.5,12.5,9.4,12.7,9.4,12.9z M25.7,16.1c0,0,0.1,0,0.3,0c-0.1-0.1-0.1-0.2-0.2-0.3c-0.1,0-0.2,0-0.3-0.1
		C25.5,15.9,25.6,16,25.7,16.1z M31.5,17.2c0.1,0.1,0.1,0.3,0.2,0.5c0-0.2,0-0.3,0-0.4c0.1-0.2,0.1-0.2-0.1-0.3
		C31.5,17,31.5,17.1,31.5,17.2z M7.9,31.5c0,0.1,0,0.2,0,0.3c0.1,0,0.2,0,0.3,0c0-0.1,0-0.2,0-0.3C8.1,31.5,8,31.5,7.9,31.5z
		 M9.7,35.4C9.9,35.3,10,35.2,10,35c-0.2,0.1-0.4,0.2-0.6,0.3C9.5,35.4,9.6,35.4,9.7,35.4z M2.7,16.1c-0.1,0-0.1-0.1-0.1-0.1
		c0,0.2,0.2,0.4,0,0.6c0.1,0,0.1,0,0.2,0c0,0,0-0.1,0.1-0.1c0,0,0.1,0,0.2-0.1C2.8,16.2,2.8,16.2,2.7,16.1z M4.8,8.9
		C4.7,8.9,4.7,9,4.6,9c0.1,0,0.1,0,0.5-0.3c-0.2,0-0.3,0-0.5,0C4.6,8.8,4.7,8.8,4.8,8.9z M18.6,25.4c0,0.1-0.1,0.2-0.1,0.2
		c0.1,0,0.2-0.1,0.3-0.1c0-0.1,0-0.3-0.2-0.4C18.7,25.2,18.7,25.3,18.6,25.4z M23.4,11.7c0.1,0,0.1-0.1,0.2-0.1
		c-0.2-0.1-0.3-0.3-0.5-0.3C23.1,11.5,23.3,11.6,23.4,11.7z M8.1,2.1C8.2,2,8.3,1.9,8.2,1.8C8.1,1.9,8,1.9,7.8,2
		C7.9,2.2,8.1,2,8.1,2.1z M9.1,31.6c0.1,0.2,0.2,0.3,0.3,0.4h0.1c0-0.1,0-0.1,0-0.2C9.4,31.7,9.3,31.7,9.1,31.6z M27.9,5.4
		c-0.1,0.1-0.2,0.1-0.3,0.2c0.1,0.1,0.1,0.1,0.6,0.1C28.1,5.6,28,5.5,27.9,5.4z M2.7,23.7l0.1-0.1l-0.1-0.1l-0.1-0.1
		c-0.2,0.1-0.1,0.3-0.1,0.4C2.6,23.8,2.6,23.7,2.7,23.7z M21.7,38.8c0.1,0.1-0.2,0.1,0,0.2C21.8,39,21.8,38.9,21.7,38.8
		c0.1,0,0.2-0.1,0.2-0.1c-0.1-0.1-0.2-0.2-0.4-0.1c0,0,0,0.1,0,0.2c0.1-0.1,0.1-0.1,0.2-0.1C21.7,38.7,21.7,38.7,21.7,38.8z
		 M23.6,8.2c0,0.1,0,0.2,0,0.3c0.1,0,0.1-0.1,0.1-0.1c0.1,0.1,0.1,0.2,0.2,0.3C23.9,8.5,23.7,8.4,23.6,8.2z M30.2,29
		c0,0,0.1,0.1,0.1,0.2c0.2,0,0-0.3,0.1-0.3c-0.1,0-0.2-0.1-0.2-0.1C30,28.9,30,28.9,30.2,29z M20.2,39.9c-0.1,0-0.2,0-0.3,0
		 M2.5,7.7l0.1,0.1l0.1-0.1c0-0.1-0.1-0.2,0-0.2c0.1-0.2,0-0.1-0.1-0.1S2.5,7.5,2.4,7.6C2.5,7.6,2.5,7.7,2.5,7.7z M28.6,39.8
		C28.5,39.8,28.5,39.8,28.6,39.8c-0.3,0.2-0.1,0.2,0,0.3c0.1-0.1,0.2-0.1,0.3-0.2C28.8,39.8,28.8,39.8,28.6,39.8z M29.8,1.2
		c0.2,0,0.4,0,0.6,0C30.2,1,30.1,1,29.8,1.2z M21.1,6.4c0.4,0.2,0.5,0.2,0.6,0C21.5,6.4,21.3,6.4,21.1,6.4z M13.5,39.6
		c0.3,0.1,0.3-0.1,0.4-0.3C13.5,39.2,13.6,39.5,13.5,39.6z M18.5,39.8c0,0,0.1,0,0.2-0.1c-0.1-0.1-0.2-0.2-0.3-0.2
		c-0.1,0.1-0.1,0.2-0.2,0.3l0.1,0.1C18.5,39.9,18.5,39.8,18.5,39.8z M12.5,7.7c-0.1,0-0.2,0-0.3,0.1c0,0-0.1,0.1-0.1,0.2
		c0.2,0,0.3,0,0.5,0C12.5,7.8,12.5,7.7,12.5,7.7z M16.1,9.8c0-0.1,0-0.1-0.1-0.2c-0.1,0.1-0.1,0.2-0.2,0.3c0.2,0,0.5,0.1,0.6-0.2
		C16.2,9.7,16.2,9.8,16.1,9.8z M8.8,10.4c-0.2,0.1-0.3,0.2-0.5,0.2c0.2,0.1,0.3,0.1,0.4,0.1C8.7,10.7,8.7,10.6,8.8,10.4z M13.8,6.5
		c0,0.2,0.1,0.3,0.2,0.5c0.1-0.2,0.1-0.3,0.2-0.5C14,6.5,13.9,6.5,13.8,6.5z M7.4,36.7c0-0.2-0.1-0.3-0.1-0.4
		C7.1,36.4,7.1,36.5,7.4,36.7z M19.7,0.9C19.7,0.9,19.6,0.9,19.7,0.9c-0.1,0-0.1,0-0.2,0c0,0,0,0.1,0.1,0.1
		c-0.1,0.1-0.2,0.2-0.3,0.3C19.5,1.3,19.7,1.1,19.7,0.9z M34.9,9.7C35,9.9,34.7,10,35,10.2C35.2,9.9,35.2,9.9,34.9,9.7z M12.8,16.5
		c0.1-0.1,0.1-0.2,0.2-0.3c-0.1,0-0.2,0-0.5,0C12.7,16.4,12.7,16.4,12.8,16.5z M2.8,25.1L2.9,25c-0.4,0.1-0.4,0.1-0.5,0.2
		C2.6,25.2,2.7,25.2,2.8,25.1z M11.1,21c-0.1,0.1-0.2,0.2-0.3,0.3c0,0,0.1,0,0.1-0.1c0,0.1,0,0.2,0,0.2c0.1-0.1,0-0.4,0.2-0.3
		C11.2,21.1,11.1,21.1,11.1,21z M15,13.1c-0.1-0.2-0.1,0-0.2,0c0.1,0,0.2,0.1,0.2,0.1c0.1-0.1,0.3-0.2,0.2-0.4
		C15.1,13,15.1,13.1,15,13.1z M10.5,25.3c-0.1,0.1-0.1,0.2-0.2,0.2c0.1,0.1,0.2,0.1,0.3,0.1l0.1-0.1C10.7,25.5,10.6,25.4,10.5,25.3z
		 M31.6,16.4c0,0.1-0.2,0.3-0.1,0.4l0.1-0.1c0.1-0.1,0.1-0.2,0.2-0.3C31.7,16.4,31.6,16.4,31.6,16.4z M26,29.4
		c-0.1,0.1,0.1,0.1,0.1,0.3c0.1-0.2,0.3-0.2,0.2-0.5C26.1,29.2,26.1,29.3,26,29.4z M13.4,35.6c0.2-0.3,0.2-0.3,0-0.5
		C13.4,35.3,13.4,35.5,13.4,35.6z M6.5,35.2c-0.2-0.1-0.4,0-0.5,0.1v0.1C6.3,35.4,6.4,35.3,6.5,35.2z M7.1,4.9V4.8
		C7,4.8,6.8,4.9,6.7,4.9c0,0.1,0.1,0.2,0.1,0.2C6.9,5,6.9,5,7.1,4.9z M7.8,22.5c-0.3,0.1-0.2,0.3-0.2,0.5
		C7.9,22.9,7.8,22.7,7.8,22.5z M9.1,4.5c0,0,0,0.1,0.1,0.1c0,0.2,0.2,0,0.2,0.1l0,0C9.4,4.5,9.3,4.6,9.1,4.5
		C9.3,4.5,9.2,4.5,9.1,4.5L9.1,4.5z M19.4,31.4c-0.1,0.1-0.1,0.1-0.1,0.1c0.1,0.3,0.2,0.3,0.3,0.3C19.5,31.7,19.5,31.6,19.4,31.4z
		 M20.2,17c0-0.1-0.1-0.1-0.1-0.2C20,17,20,17.1,19.9,17.2C20.1,17.2,20.2,17.1,20.2,17z M13.4,32c-0.1,0.1-0.1,0.2-0.2,0.4
		c0.1-0.1,0.2-0.1,0.3-0.1v-0.1C13.5,32.1,13.5,32.1,13.4,32C13.5,32,13.5,32,13.4,32z M6.8,38.5c0.1,0,0.2,0,0.4,0
		c-0.2-0.1-0.3-0.2-0.4-0.3C6.8,38.3,6.8,38.4,6.8,38.5z M23.3,4.3c-0.1-0.1-0.2-0.1-0.3-0.2c-0.1,0.3,0.2,0.2,0.2,0.3
		C23.2,4.4,23.2,4.4,23.3,4.3z M7,30.8c0,0.1,0,0.2,0,0.3c0.2,0,0.2-0.1,0.3-0.3C7.2,30.8,7.1,30.8,7,30.8z M12.4,23
		c0-0.1,0.1-0.2,0.1-0.4c0-0.1-0.1-0.1-0.2-0.1C12.4,22.7,12.4,22.8,12.4,23L12.4,23z M10,33c-0.1,0.1-0.1,0.1,0,0.5
		C10.1,33.2,10.1,33.2,10,33z M10.5,33.2c0,0-0.1,0.1-0.2,0.1c0.2,0,0.3,0.1,0.4,0.1C10.8,33.3,10.7,33.2,10.5,33.2z M7.8,20.4
		c0.1,0.1,0.2,0.2,0.4,0.4C8.1,20.4,8.1,20.4,7.8,20.4z M13.7,14v0.1h0.1c0.1-0.1,0.1-0.2,0.2-0.3C13.8,13.7,13.8,14,13.7,14z
		 M36.2,40.1C36.2,40.2,36.2,40.2,36.2,40.1 M14.7,11.7c0.1,0.1,0.1,0.3,0.3,0.1c-0.1-0.1-0.1-0.2,0-0.4
		C14.9,11.6,14.8,11.7,14.7,11.7z M12.9,39.9C12.9,39.9,12.9,40,12.9,39.9C12.8,40,12.8,40,12.9,39.9c-0.1,0,0,0,0-0.1
		C12.7,40,12.7,40,13,40.1c0-0.1,0-0.3-0.1-0.3C12.9,39.9,12.9,39.9,12.9,39.9z M23.7,24.3c-0.3-0.1-0.4,0.1-0.5,0.3
		C23.5,24.5,23.6,24.4,23.7,24.3z M3.1,3c0,0.1,0.1,0.1,0.2,0.1c0-0.1,0-0.2,0-0.3C3.1,2.8,3.1,2.8,3.1,3z M16.4,11.5
		c0-0.1,0-0.1,0-0.2s0-0.2-0.1-0.1l-0.1,0.1C16.3,11.4,16.3,11.5,16.4,11.5L16.4,11.5z M4.4,10.5c0.2,0.1,0.3,0.1,0.5,0.2
		C4.8,10.4,4.6,10.4,4.4,10.5z M37.2,13.3c-0.2,0.2-0.1,0.3-0.2,0.4c0,0,0.1,0.1,0.2,0.1C37.2,13.7,37.2,13.5,37.2,13.3z M38.5,38.2
		c0,0.1,0,0.2,0,0.3c0.1-0.1,0.3-0.2,0.3-0.4C38.7,38.2,38.6,38.2,38.5,38.2z M11.3,25c0-0.1,0.1-0.2,0.1-0.3c0-0.1-0.1-0.1-0.2-0.1
		C11.2,24.8,11.2,24.9,11.3,25L11.3,25z M32.8,38.9c-0.1,0-0.1,0-0.2,0c-0.1,0-0.1-0.1-0.2-0.1c0,0.1,0,0.1,0,0.2
		C32.5,38.9,32.7,38.9,32.8,38.9L32.8,38.9z M21.3,39.8c-0.1,0.1-0.1,0.1-0.1,0.3c0.1,0.2,0.2,0.1,0.3,0
		C21.2,40.2,21.4,39.9,21.3,39.8z M32.5,36.1c-0.2-0.1-0.1,0.2-0.2,0.2c0,0,0,0,0,0.1h0.1c0,0,0.1,0,0.2,0
		C32.5,36.2,32.5,36.1,32.5,36.1z M21.6,1.2c0,0,0.1,0,0.1-0.1c0,0,0-0.1-0.1-0.1c-0.1,0-0.2,0-0.4,0C21.3,1.3,21.5,1.1,21.6,1.2z
		 M6.3,35.7c0-0.1,0.1-0.1,0.1-0.2c-0.2,0-0.3,0-0.4,0.2C6.2,35.7,6.3,35.9,6.3,35.7z M23.4,14.3c0-0.1,0-0.3,0-0.4
		C23.1,14,23.1,14,23.4,14.3z M14,23.2v-0.1h-0.1c-0.1,0-0.1,0.1-0.1,0.2c0,0,0,0.1,0.1,0.1C13.9,23.3,13.9,23.3,14,23.2z M37.4,18
		c0-0.1,0-0.1,0-0.2s0-0.1,0.1-0.2l-0.1,0.1c0-0.1,0-0.1,0-0.2l0,0C37.4,17.7,37.4,17.9,37.4,18L37.4,18z M10.9,22.7L10.9,22.7
		c0.1,0,0.1,0,0.2,0c-0.2-0.1,0.1-0.3,0-0.4C10.8,22.3,10.9,22.5,10.9,22.7z M23.3,2.5c-0.2,0-0.3,0.1-0.2,0.3
		C23.3,2.8,23.4,2.7,23.3,2.5z M16.9,5.2c-0.2,0-0.3,0-0.6,0C16.8,5.3,16.8,5.3,16.9,5.2z M25.9,22.8c-0.2-0.2-0.2-0.2-0.4,0
		C25.6,22.8,25.7,22.8,25.9,22.8z M14.5,28.7c-0.1,0-0.1,0-0.2,0.1c0,0,0,0.1-0.1,0.1c0.1,0,0.1,0.1,0.1,0
		C14.5,28.9,14.5,28.8,14.5,28.7C14.6,28.7,14.6,28.7,14.5,28.7z M14.8,31.2l-0.1-0.1c-0.1,0-0.1,0.1-0.1,0.2c0,0,0,0.1,0.1,0.2
		C14.7,31.3,14.8,31.2,14.8,31.2z M24.8,38.6c0.1,0,0.2,0,0.2,0c0-0.1-0.1-0.2-0.1-0.3C24.8,38.4,24.7,38.4,24.8,38.6z M8.6,20.8
		c0-0.1,0-0.2,0-0.2c-0.1,0-0.2,0-0.2,0C8.5,20.8,8.6,20.9,8.6,20.8z M30.2,8.1c0.1,0,0.3,0.2,0.5-0.1C30.5,8,30.4,8,30.2,8.1z
		 M5.6,38.4C5.6,38.4,5.6,38.5,5.6,38.4c0.1,0.1,0.1,0.1,0.1,0.1c0-0.1,0.1-0.1,0.1-0.2C5.7,38.2,5.6,38.3,5.6,38.4z M20.1,4.1V4
		c-0.1,0-0.2,0.1-0.4,0.1l0.1,0.1C20,4.2,20,4.1,20.1,4.1z M14.5,12.2c0,0.1-0.1,0.1-0.1,0.2s0,0.2,0,0.3c0.1-0.1,0.1-0.2,0.1-0.2
		C14.5,12.4,14.5,12.3,14.5,12.2C14.6,12.2,14.5,12.2,14.5,12.2z M5.8,0.2l0.1-0.1V0C5.8,0,5.7,0.1,5.7,0.1S5.6,0.2,5.6,0.3
		C5.7,0.3,5.7,0.2,5.8,0.2z M5.3,37.4c-0.1,0-0.1,0-0.1,0.1c0,0,0,0.1,0.1,0.1c0,0,0.1-0.1,0.2-0.1C5.4,37.5,5.4,37.4,5.3,37.4z
		 M8.3,3.3l0.1,0.2c0.1,0,0.1,0,0.2-0.1C8.5,3.4,8.4,3.2,8.3,3.3z M22.1,17.2L22,17.3c0,0.1,0,0.2,0.1,0.1l0.1-0.1
		C22.2,17.3,22.2,17.3,22.1,17.2z M4.3,33.3c-0.1,0-0.2,0.1-0.4,0.2c0.2,0,0.3,0,0.5,0C4.4,33.4,4.3,33.3,4.3,33.3z M24.8,13.8
		c0-0.1-0.1-0.1-0.1-0.1s-0.1,0-0.1,0.1c0,0,0.1,0.1,0.1,0.2C24.8,13.9,24.8,13.8,24.8,13.8z M2.5,24c0.1,0,0.1,0.2,0.2,0.1
		c0,0,0-0.2-0.1-0.3C2.6,24,2.6,24,2.5,24z M2.1,23.4c0-0.1,0-0.2,0-0.4C2,23.2,2,23.2,2.1,23.4z M10.1,12.1c0.3,0,0.3-0.2,0.5-0.3
		C10.4,11.8,10.3,12,10.1,12.1z M11.1,24.3c-0.2,0-0.2,0-0.3,0c-0.1,0-0.1,0-0.2,0c0,0.1,0,0.1,0,0.2C10.8,24.4,10.9,24.4,11.1,24.3
		z M10.9,14.6c0,0-0.1,0.1-0.1,0.2s0,0.2,0,0.3l0,0C10.9,14.9,10.9,14.8,10.9,14.6L10.9,14.6z M2.8,27l0.1,0.1c0.1,0,0.2,0,0.1-0.1
		l-0.1-0.1C2.9,26.9,2.8,27,2.8,27z M12.5,8.2c0.1,0,0.2,0.2,0.3,0C12.8,8.3,12.6,8,12.5,8.2z M11.1,23.2L11.1,23.2l0.1-0.1
		c-0.1,0-0.2-0.1-0.3-0.2C11,23,11,23.1,11.1,23.2z M2.3,2l0.1,0.1c0.1,0,0.2,0,0.1-0.1L2.4,1.9C2.3,1.9,2.3,1.9,2.3,2z M35.4,39.6
		c0.1-0.1,0.1-0.1,0.2-0.2v-0.1h-0.1C35.4,39.4,35.4,39.5,35.4,39.6L35.4,39.6z M38.9,8.9c0,0,0,0.1-0.1,0.2c0,0,0.1,0.1,0.1,0
		 M3,24.8c0.2,0,0.1-0.1,0.1-0.2L3,24.7c-0.1,0-0.1,0.1-0.1,0.2L3,24.8z M23.9,18c0,0,0.1,0,0.1-0.1l-0.1-0.1c0,0-0.1,0-0.2,0
		C23.8,18,23.8,18,23.9,18z M13.9,10.2c-0.2,0-0.3,0-0.5,0c0.1,0.1,0.2,0.1,0.3,0.1C13.7,10.3,13.8,10.2,13.9,10.2z M17.9,12.3
		c0,0,0-0.1,0.1-0.2c0,0-0.1-0.1-0.1,0l-0.1,0.1L17.9,12.3C17.9,12.4,17.9,12.3,17.9,12.3z M8.6,12.2L8.6,12.2c-0.1,0.1,0,0.2,0,0.3
		C8.7,12.4,8.7,12.3,8.6,12.2z M29.1,39.6c-0.2-0.1-0.3,0-0.4,0.2C28.9,39.7,29,39.6,29.1,39.6z M32.2,38.8L32.2,38.8
		c-0.1,0.1,0,0.2,0,0.3C32.3,38.9,32.3,38.8,32.2,38.8z M33.7,38.7c0,0-0.1,0-0.2-0.1c0,0-0.1,0.1,0,0.1l0.1,0.1h0.1
		C33.7,38.7,33.7,38.7,33.7,38.7z M19.4,38.6C19.4,38.7,19.4,38.7,19.4,38.6c0.1,0,0.2,0,0.4,0c-0.1-0.1-0.1-0.1-0.2-0.2
		C19.5,38.6,19.5,38.6,19.4,38.6z M19.1,38.2c-0.2,0-0.4,0-0.5,0C18.7,38.3,18.9,38.4,19.1,38.2z M3.9,38.5c0-0.1,0.1-0.2,0.1-0.4
		C3.8,38.2,3.9,38.4,3.9,38.5z M26,16.5c0-0.2-0.1-0.3-0.3-0.3C25.8,16.3,25.9,16.4,26,16.5z M4.3,37.8l0.1-0.1l-0.1-0.1
		c-0.1,0-0.1,0.1-0.2,0.2C4.2,37.8,4.2,37.9,4.3,37.8z M11.5,0.5c-0.1-0.2-0.1-0.2-0.3,0C11.3,0.5,11.4,0.5,11.5,0.5z M38.5,0.5V0.4
		h-0.1l-0.1,0.1c0,0.1,0,0.1,0,0.2C38.4,0.6,38.4,0.6,38.5,0.5z M19,37.1c0.2,0.2,0.3,0.3,0.5,0.2C19.4,37.2,19.3,37.1,19,37.1z
		 M7.2,37.1L7.2,37.1c0.1-0.1,0-0.2,0-0.3C7.2,36.9,7.1,37,7.2,37.1z M18.4,32.9c-0.1-0.1-0.2-0.1-0.4-0.2
		C18.1,32.9,18.2,32.9,18.4,32.9z M3.6,1.4C3.5,1.5,3.4,1.6,3.5,1.7c0,0,0,0,0.1,0C3.7,1.7,3.6,1.6,3.6,1.4C3.6,1.5,3.6,1.5,3.6,1.4
		L3.6,1.4z M7.8,19.1L7.7,19l-0.1,0.1c0,0.1,0.1,0.1,0.2,0.2C7.8,19.2,7.8,19.1,7.8,19.1z M22.7,4.6c0.1,0,0.1-0.1,0.2-0.1
		c-0.2,0-0.3,0-0.5,0C22.5,4.5,22.6,4.5,22.7,4.6z M28.7,31.4c-0.2,0-0.2,0.1-0.3,0.3C28.5,31.6,28.6,31.5,28.7,31.4z M6.3,30.4
		c-0.1,0.1-0.1,0.1-0.2,0.2c0,0,0,0.1,0.1,0.1l0.1-0.1C6.3,30.5,6.3,30.5,6.3,30.4z M5.7,5.6c0-0.1,0.3,0,0.2-0.3
		C5.9,5.4,5.6,5.4,5.7,5.6z M22.5,30.1l-0.1,0.1c0,0.1,0,0.2,0.1,0.2C22.7,30.4,22.4,30.3,22.5,30.1C22.5,30.2,22.5,30.2,22.5,30.1z
		 M2.8,1.9c0,0,0-0.1-0.1-0.1L2.6,1.9c0,0,0,0.1,0,0.2C2.7,2,2.8,2,2.8,1.9z M22.4,5.7c0-0.1,0-0.2-0.1-0.2c0,0-0.1,0-0.1,0.1
		c0.1,0.1,0.1,0.1,0,0.2c0,0,0,0.1,0.1,0.2C22.4,5.8,22.4,5.7,22.4,5.7z M16.8,30c0.2,0,0.3-0.1,0.3-0.3C17,29.8,16.9,29.9,16.8,30z
		 M22.7,2.2c0,0,0-0.1,0-0.2c-0.1,0-0.2,0-0.3,0C22.5,2.1,22.6,2.4,22.7,2.2z M9.1,14.6c-0.1,0.1-0.2,0.1-0.4,0.2
		C9,14.8,9,14.8,9.1,14.6z M11.1,29.6l0.1-0.1v-0.1c-0.1,0-0.1,0-0.2,0l-0.1,0.1C11,29.6,11.1,29.6,11.1,29.6z M22.3,2.5
		c0.2-0.1,0.2-0.2,0.2-0.5C22.4,2.3,22.4,2.4,22.3,2.5z M37.2,29c-0.1-0.1-0.2-0.1-0.4-0.1c0.1,0.1,0.1,0.2,0.1,0.3
		C37.1,29.1,37.1,29,37.2,29z M19.8,37.9c-0.1,0-0.2,0-0.4,0l0,0C19.5,37.9,19.6,37.9,19.8,37.9L19.8,37.9z M2.6,33.3
		c0,0,0-0.1-0.1-0.1l-0.1-0.1c0,0,0,0-0.1,0.1C2.5,33.2,2.5,33.3,2.6,33.3C2.6,33.4,2.6,33.4,2.6,33.3z M20.1,37.6
		c0,0.1-0.1,0.1-0.1,0.3C20.1,37.8,20.1,37.8,20.1,37.6z M19.3,0.5C19.3,0.4,19.3,0.4,19.3,0.5c-0.1-0.1-0.2,0-0.3,0
		c0.1,0.1,0.1,0.1,0.1,0.1C19.2,0.5,19.2,0.5,19.3,0.5z M4.9,10.8C4.9,10.9,5,10.9,5,11c0.1-0.1,0.1-0.1,0.2-0.2
		C5.1,10.8,5,10.8,4.9,10.8z M11.6,0.6l-0.1,0.1c0,0,0,0.1,0.1,0.1c0,0,0.1,0,0.2-0.1C11.7,0.6,11.6,0.6,11.6,0.6z M6.9,37.2L7,37.3
		c0,0,0,0.1,0.1,0.2C7.2,37.2,7.2,37.2,6.9,37.2z M8.8,36.5c-0.1,0.2,0,0.2,0.1,0.3C8.9,36.7,8.8,36.6,8.8,36.5z M33.2,8l-0.1,0.1
		l0.1,0.1l0.1-0.1L33.2,8z M3.8,20.3c-0.1,0.1-0.2,0.1-0.3,0.2C3.7,20.5,3.7,20.5,3.8,20.3z M20.9,36.3c0.1,0.1,0.1,0.1,0.2,0.2
		c0-0.1,0-0.2,0-0.3C21,36.2,20.9,36.3,20.9,36.3z M14.8,36.3c0-0.2,0-0.2,0-0.4c-0.1,0.1-0.1,0.1-0.2,0.2
		C14.6,36.2,14.7,36.2,14.8,36.3z M15.3,9.9c0.1-0.1,0.1-0.2,0.1-0.2C15.3,9.7,15.1,9.7,15.3,9.9z M9.3,35.8
		c0.1,0.1,0.2,0.1,0.3,0.2C9.6,35.7,9.5,35.8,9.3,35.8z M27.9,25l-0.1-0.1L27.7,25l0.1,0.1C27.9,25.1,27.9,25,27.9,25z M15.7,1.2
		C15.6,1.2,15.6,1.3,15.7,1.2c0,0.1,0,0.2,0,0.2s0.1,0,0.1-0.1C15.7,1.3,15.7,1.2,15.7,1.2z M16.3,35.6
		C16.3,35.6,16.3,35.5,16.3,35.6c-0.2-0.1-0.2,0-0.2,0.1C16.2,35.7,16.3,35.8,16.3,35.6z M27.5,25l-0.1,0.1c0,0,0,0.1,0.1,0.1
		c0,0,0.1,0,0.2-0.1C27.5,25.1,27.5,25,27.5,25z M3.1,18.2c0.1-0.1,0.1-0.2,0.1-0.3C3.2,18,3,18,3.1,18.2z M18.1,23.8
		C18.1,23.8,18.1,23.7,18.1,23.8c-0.1-0.1-0.2,0-0.3,0c0.1,0.1,0.1,0.1,0.1,0.1C18,23.8,18,23.8,18.1,23.8z M32.1,20.1
		c-0.1,0-0.1,0.1-0.2,0.1c0.1,0.1,0.1,0.1,0.2,0.2C32.1,20.3,32.1,20.2,32.1,20.1z M26.8,35.5c0.1-0.2,0-0.2-0.1-0.3
		C26.6,35.4,26.7,35.4,26.8,35.5z M38.9,22.3c0,0,0-0.1-0.1-0.1l-0.1-0.1c0,0,0,0-0.1,0.1C38.8,22.2,38.8,22.3,38.9,22.3L38.9,22.3z
		 M26.9,24.6c0,0-0.1,0-0.2,0.1l0,0c0.1,0,0.2,0,0.4,0C26.9,24.6,26.9,24.6,26.9,24.6z M7.4,35.4c0-0.1,0-0.2,0-0.3c0,0,0,0-0.1,0
		C7.4,35.2,7.4,35.3,7.4,35.4L7.4,35.4z M36.2,35c-0.1-0.1-0.1-0.1-0.2-0.2c0,0.1,0,0.2,0,0.3C36,35.1,36.1,35.1,36.2,35z
		 M11.3,13.9L11.2,14l0.1,0.1l0.1-0.1C11.3,13.9,11.3,13.9,11.3,13.9z M15.8,7.9l-0.1-0.1c0,0-0.1,0-0.1,0.1c0,0,0,0.1,0.1,0.2
		C15.7,7.9,15.8,7.9,15.8,7.9z M6.7,23.3c0.1,0,0.2,0,0.3,0c-0.1-0.1-0.1-0.2-0.1-0.2C6.8,23.1,6.7,23.2,6.7,23.3
		C6.7,23.2,6.7,23.2,6.7,23.3z M2.2,34.4c0,0.1,0,0.2,0,0.3c0.1-0.1,0.1-0.1,0.1-0.1C2.4,34.5,2.3,34.5,2.2,34.4
		C2.3,34.4,2.3,34.4,2.2,34.4z M14.1,2.4c0.1,0.1,0.2,0.1,0.3,0.2C14.3,2.4,14.3,2.4,14.1,2.4z M38.4,7.7c0,0.1,0,0.2,0,0.3
		c0,0,0,0,0.1,0C38.4,7.9,38.4,7.8,38.4,7.7L38.4,7.7z M20.6,2.6c0.1-0.1,0.1-0.2,0.1-0.3C20.6,2.4,20.4,2.5,20.6,2.6z M7,11.6
		l-0.1-0.1c0,0-0.1,0-0.1,0.1c0,0,0,0.1,0.1,0.2C6.9,11.6,7,11.6,7,11.6z M4.6,33c0,0-0.1,0-0.2,0.1l0,0c0.1,0,0.2,0,0.4,0
		C4.7,33,4.6,33,4.6,33z M2.6,34c0.1-0.1,0.2-0.1,0.1-0.3C2.6,33.8,2.5,33.9,2.6,34z M2.7,16.1c0.1,0,0.2,0,0.2-0.1
		c0-0.2-0.1-0.1-0.2-0.1C2.7,16,2.7,16,2.7,16.1z M34.7,7.5l-0.1,0.1l0.1,0.1l0.1-0.1C34.7,7.5,34.7,7.5,34.7,7.5z M34.8,28.2
		C34.8,28.2,34.8,28.3,34.8,28.2c0.1,0,0.2,0,0.2,0s0-0.1-0.1-0.1C34.8,28.1,34.8,28.2,34.8,28.2z M13.5,28.4
		C13.4,28.4,13.4,28.4,13.5,28.4c-0.1,0.1,0,0.2,0,0.2s0.1,0,0.1-0.1C13.5,28.4,13.5,28.4,13.5,28.4z M15.4,6.9
		C15.4,6.9,15.3,7,15.4,6.9c0,0.1,0,0.2,0,0.2s0.1,0,0.1-0.1C15.5,6.9,15.4,6.9,15.4,6.9z M9.8,12.7c0,0.1,0,0.2,0,0.4l0,0
		C9.8,12.9,9.8,12.8,9.8,12.7L9.8,12.7z M36.7,28.9c0.1-0.1,0.1-0.2,0.2-0.3C36.6,28.5,36.7,28.7,36.7,28.9z M17.1,28.9
		c0.1-0.1,0.1-0.2,0.1-0.3C17.2,28.7,17,28.8,17.1,28.9z M38.2,21.8c0-0.2,0.1-0.4-0.2-0.3C38.1,21.6,38.1,21.7,38.2,21.8z
		 M24.1,24.1C24.1,24.1,24,24.1,24.1,24.1c-0.1,0.2,0,0.2,0.1,0.2C24.2,24.2,24.3,24.1,24.1,24.1z M19.9,29.1C20,29,20,28.9,20,28.9
		C19.9,28.9,19.9,29,19.9,29.1z M24.1,15.9c0,0.2,0,0.2,0.3,0.1C24.3,16,24.2,16,24.1,15.9z M3.6,29l-0.1,0.1l0.1,0.1l0.1-0.1
		C3.6,29.1,3.6,29,3.6,29z M8.2,6.4C8.2,6.4,8.2,6.5,8.2,6.4c0,0.1,0,0.2,0,0.2s0.1,0,0.1-0.1C8.3,6.5,8.3,6.4,8.2,6.4z M12.6,29.2
		c-0.1,0-0.1,0.1-0.2,0.1c0.1,0.1,0.1,0.1,0.2,0.2C12.6,29.4,12.6,29.3,12.6,29.2z M14.3,6.5c0.1-0.1,0.1-0.2,0.1-0.2
		C14.4,6.2,14.2,6.3,14.3,6.5z M3.9,17c0,0,0,0.1,0.1,0.1L4,17.2c0,0,0,0,0.1-0.1C4,17.1,3.9,17,3.9,17C3.9,16.9,3.9,17,3.9,17z
		 M8.8,29.7c-0.1-0.1-0.1-0.2-0.2-0.3C8.6,29.7,8.6,29.7,8.8,29.7z M27.9,12.9l-0.1-0.1l-0.1,0.1l0.1,0.1C27.9,13,27.9,13,27.9,12.9
		z M14.2,17.8C14.2,17.8,14.3,17.9,14.2,17.8c0.1,0,0.2,0,0.2,0s0-0.1-0.1-0.1S14.2,17.8,14.2,17.8z M6,16.3c0-0.1-0.1-0.1-0.1-0.2
		c0,0-0.1,0.1-0.2,0.2C5.9,16.3,6,16.3,6,16.3z M4.4,5.7c-0.2-0.1-0.2,0-0.3,0.1C4.3,5.9,4.3,5.8,4.4,5.7z M21.6,39.7L21.6,39.7
		c-0.1,0.1-0.1,0.2-0.1,0.4C21.7,40,21.6,39.9,21.6,39.7z M13.9,39.8l-0.1-0.1l-0.1,0.1l0.1,0.1C13.9,39.9,13.9,39.8,13.9,39.8z
		 M7.6,39.8C7.6,39.8,7.6,39.9,7.6,39.8c0.1,0,0.2,0,0.2,0s0-0.1-0.1-0.1L7.6,39.8z M22.4,39.6l-0.1,0.1c0.3,0,0.2-0.2,0.2-0.3
		C22.4,39.5,22.4,39.5,22.4,39.6z M9.2,5.2c0,0.1-0.1,0.2-0.1,0.3C9.2,5.4,9.4,5.4,9.2,5.2z M14.4,39.4c0-0.2,0-0.2-0.3-0.1
		C14.2,39.3,14.3,39.4,14.4,39.4z M4.9,5c0,0,0,0-0.1,0.1l0.1,0.1L5,5.1C5,5,5,4.9,4.9,5z M23.5,38.9c-0.1,0.1-0.1,0.2-0.2,0.3
		C23.5,39.1,23.5,39.1,23.5,38.9z M3.2,11.9c-0.1,0-0.2,0-0.3,0c0,0,0,0,0,0.1C3,12,3,12,3.1,12C3,12,3.1,12,3.2,11.9
		C3.2,12,3.2,12,3.2,11.9z M38.8,38.9l-0.1-0.1c0,0-0.1,0-0.1,0.1c0,0,0,0.1,0.1,0.2C38.8,38.9,38.8,38.9,38.8,38.9z M12.3,18.2
		C12.2,18.2,12.2,18.3,12.3,18.2c-0.1,0.1,0,0.2,0,0.2s0.1,0,0.1-0.1C12.3,18.3,12.3,18.3,12.3,18.2z M23.9,4.7
		C24,4.6,24,4.6,24.1,4.5c-0.1,0-0.2,0-0.3,0C23.9,4.6,23.9,4.6,23.9,4.7z M23.1,13.2c0.1,0.1,0.1,0.2,0.3,0.1
		C23.3,13.2,23.3,13.1,23.1,13.2z M6.7,4.4C6.7,4.4,6.7,4.5,6.7,4.4c0.2,0.1,0.2,0,0.2-0.1C6.8,4.3,6.7,4.2,6.7,4.4z M25.2,27
		c0,0.1,0,0.2,0,0.3c0,0,0,0,0.1,0C25.3,27.2,25.3,27.1,25.2,27C25.3,27,25.2,27,25.2,27z M9.9,32.2l-0.1-0.1c0,0-0.1,0-0.1,0.1
		c0,0,0,0.1,0.1,0.2C9.9,32.3,9.9,32.2,9.9,32.2z M9.7,13.5l-0.1-0.1l-0.1,0.1l0.1,0.1L9.7,13.5z M2.8,33.1c0-0.2,0-0.2,0-0.4
		c-0.1,0.1-0.1,0.1-0.2,0.2C2.7,32.9,2.7,33,2.8,33.1z M17.2,38.3c0,0,0-0.1-0.1-0.1L17,38.1c0,0,0,0-0.1,0.1
		C17,38.2,17.1,38.2,17.2,38.3C17.1,38.3,17.2,38.3,17.2,38.3z M9,10.3c0.1-0.1,0.3-0.1,0.1-0.3C9.1,10.1,9,10.2,9,10.3z M8.6,0
		c0.1,0.1,0.2,0.1,0.2,0.2c0,0,0.1-0.1,0.2-0.2C8.8,0,8.7,0,8.6,0z M38.9,38C38.9,38,38.9,37.9,38.9,38c-0.2-0.1-0.2,0-0.2,0.1
		C38.8,38.1,38.9,38.2,38.9,38z M22.7,24.9c0.1,0,0.2,0,0.2,0l0,0C22.9,24.9,22.8,24.9,22.7,24.9L22.7,24.9z M31.3,17
		c-0.1,0-0.2,0-0.2,0s0,0.1-0.1,0.2C31.2,17.2,31.2,17.1,31.3,17z M24.9,24c0-0.1,0-0.2,0-0.2l0,0C24.9,23.8,24.9,23.9,24.9,24
		L24.9,24z M24.5,23.8c0.1,0,0.2,0,0.3,0l0,0C24.7,23.7,24.6,23.7,24.5,23.8L24.5,23.8z M34.2,25.8c0.2,0.1,0.3,0,0.2-0.1
		C34.3,25.8,34.3,25.8,34.2,25.8z M4.3,2.8c-0.1,0-0.1,0-0.2,0.1C4.3,2.9,4.3,2.9,4.3,2.8z M3.7,11.7c0-0.1,0-0.2,0-0.2l0,0
		C3.7,11.6,3.7,11.6,3.7,11.7L3.7,11.7z M4.9,23.6c0-0.1-0.1-0.1-0.2-0.3C4.7,23.6,4.8,23.7,4.9,23.6z M10,11.4
		c-0.1,0.2,0,0.3,0.1,0.2C10,11.6,10,11.5,10,11.4z M4.7,23.3c0,0-0.1,0-0.2,0l0,0C4.6,23.4,4.7,23.4,4.7,23.3
		C4.7,23.4,4.7,23.3,4.7,23.3z M2.8,24.3c0,0-0.1,0.1-0.2,0.1C2.8,24.5,2.9,24.4,2.8,24.3z M10.9,8.8c-0.1,0-0.2,0-0.3,0
		c0,0,0,0,0,0.1C10.7,8.9,10.8,8.9,10.9,8.8C10.9,8.9,10.9,8.9,10.9,8.8z M7.3,12.1c0.1-0.2,0-0.2-0.3-0.2C7.2,12,7.2,12.1,7.3,12.1
		z M15.8,26.8c0,0,0.1-0.1,0.2-0.1C15.8,26.7,15.7,26.7,15.8,26.8z M27.4,10.2c0,0.1,0,0.2,0,0.2l0,0C27.5,10.3,27.5,10.3,27.4,10.2
		C27.5,10.2,27.5,10.2,27.4,10.2z M25.3,22.3c0,0,0-0.1-0.1-0.2C25.2,22.3,25.2,22.3,25.3,22.3z M24.2,24.3c0,0.1,0,0.2,0.1,0.2
		C24.4,24.3,24.4,24.3,24.2,24.3z M20.9,12.4c0,0,0.1,0.1,0.1,0.2C21.1,12.4,21,12.3,20.9,12.4z M22,30.7L22,30.7l0.1-0.1
		C22.1,30.6,22.1,30.6,22,30.7C22,30.6,22,30.6,22,30.7L22,30.7z M11.5,38.9c-0.1,0-0.2,0-0.2,0l0,0C11.3,38.9,11.4,38.9,11.5,38.9
		L11.5,38.9z M2.9,5.1C3,5,3,4.9,2.8,4.9C2.9,4.9,2.9,5,2.9,5.1z M30.8,38.9c0-0.1,0-0.2,0-0.2l0,0C30.7,38.8,30.7,38.9,30.8,38.9
		C30.7,38.9,30.8,38.9,30.8,38.9z M15.4,31c-0.1,0-0.1,0.1-0.2,0.1C15.5,31.2,15.4,31.1,15.4,31z M15,31.4c0.1-0.2,0-0.3-0.1-0.2
		C14.9,31.2,15,31.3,15,31.4z M33,38.6v0.1h0.1C33.1,38.7,33.1,38.7,33,38.6C33.1,38.6,33.1,38.6,33,38.6L33,38.6z M13.6,38.6
		c0.1-0.2,0.1-0.3-0.1-0.2C13.5,38.5,13.6,38.5,13.6,38.6z M33.2,21.4L33.2,21.4l0.1-0.1C33.3,21.3,33.3,21.3,33.2,21.4
		C33.2,21.3,33.2,21.3,33.2,21.4L33.2,21.4z M19.9,38.3c0.1,0,0.2,0,0.2,0l0,0C20,38.2,19.9,38.2,19.9,38.3L19.9,38.3z M8.5,13.6
		c0-0.1,0-0.2,0-0.3c0,0,0,0-0.1,0C8.4,13.4,8.4,13.5,8.5,13.6C8.4,13.6,8.4,13.6,8.5,13.6z M18.5,38.2L18.5,38.2l-0.1,0.1
		C18.4,38.3,18.5,38.3,18.5,38.2C18.5,38.3,18.5,38.3,18.5,38.2C18.5,38.3,18.5,38.2,18.5,38.2z M2.6,32.5c0,0.1,0.1,0.1,0.1,0.2
		C2.9,32.4,2.7,32.5,2.6,32.5z M2.7,4c0,0.1,0.1,0.1,0.1,0.2C2.9,4,2.9,4,2.7,4z M22.9,33c-0.1,0-0.2,0-0.2,0s0,0.1-0.1,0.2
		C22.7,33,22.8,33,22.9,33z M33.6,6.9c0.2,0.1,0.3,0,0.2-0.1C33.8,6.8,33.7,6.8,33.6,6.9z M8.3,33.2c0-0.1,0-0.2,0-0.2
		s-0.1,0-0.2-0.1C8.1,33.1,8.2,33.2,8.3,33.2z M15.9,3.7l-0.1,0.1C15.9,3.9,15.9,3.8,15.9,3.7z M25.6,28.1c-0.1,0.2,0,0.3,0.1,0.2
		C25.7,28.3,25.7,28.2,25.6,28.1z M20.3,0.1c0.1,0,0.2,0,0.3,0C20.5,0,20.5,0,20.3,0.1z M20.2,6.7c0,0.1,0.1,0.1,0.1,0.2
		C20.4,6.7,20.3,6.7,20.2,6.7z M17.3,29.7L17.3,29.7l-0.1,0.1C17.2,29.8,17.3,29.8,17.3,29.7C17.3,29.8,17.3,29.7,17.3,29.7
		L17.3,29.7z M14,29l0.1-0.1C14,28.8,14,28.8,14,29z M33.7,33.3L33.7,33.3l0.1-0.1C33.8,33.2,33.7,33.2,33.7,33.3
		C33.7,33.2,33.7,33.2,33.7,33.3L33.7,33.3z M21,17c0.1-0.2,0-0.3-0.1-0.2C20.9,16.8,21,16.9,21,17z M22.7,37.5l0.1-0.1
		C22.7,37.4,22.7,37.4,22.7,37.5z M38.8,37.3C38.8,37.3,38.8,37.4,38.8,37.3 M16.8,33.5c0.2,0.1,0.2,0,0.2-0.2
		C16.9,33.4,16.8,33.5,16.8,33.5z M38.6,37.2c0.2,0.1,0.3,0,0.2-0.1C38.8,37.1,38.7,37.1,38.6,37.2z M12.5,30.1c0,0,0.1-0.1,0.2-0.1
		C12.5,30,12.5,30,12.5,30.1z M15.3,36.5c0.1,0,0.1-0.1,0.2-0.1C15.3,36.3,15.3,36.4,15.3,36.5z M20.1,14.3c-0.1,0-0.1,0-0.2,0.1
		C20.1,14.4,20.2,14.4,20.1,14.3z M28.6,0.9c0,0.1-0.1,0.2-0.1,0.2C28.7,1.2,28.7,1.1,28.6,0.9z M18.2,36.3c0.1,0,0.1-0.1,0.2-0.1
		C18.2,36,18.2,36.1,18.2,36.3z M13.9,36c0,0.1,0.1,0.1,0.1,0.2C14.2,36,14.1,36,13.9,36z M4.7,39.6c-0.1,0-0.2,0-0.2,0l0,0
		C4.6,39.7,4.7,39.7,4.7,39.6C4.7,39.7,4.7,39.6,4.7,39.6z M20.3,1.3c-0.2-0.1-0.3-0.1-0.2,0.1C20.1,1.4,20.2,1.3,20.3,1.3z
		 M15.6,10.5c0-0.1-0.1-0.1-0.1-0.2C15.3,10.6,15.4,10.5,15.6,10.5z M29.8,17.9L29.8,17.9c0,0.1,0,0.1,0.1,0.2
		C29.8,18,29.9,17.9,29.8,17.9z M21.2,1.5c0,0-0.1-0.1-0.1-0.2C21.1,1.5,21.1,1.6,21.2,1.5z M14.8,13.3c0-0.1,0-0.2,0-0.2l0,0
		C14.7,13.1,14.7,13.2,14.8,13.3C14.7,13.3,14.7,13.3,14.8,13.3z M20.1,35.6c0.2,0.1,0.3,0,0.2-0.1C20.3,35.5,20.2,35.5,20.1,35.6z
		 M12.2,39.6v-0.1h-0.1C12.1,39.5,12.1,39.5,12.2,39.6L12.2,39.6L12.2,39.6z M17.7,12.7c0.1,0.1,0.2,0.1,0.2-0.1
		C17.8,12.6,17.8,12.7,17.7,12.7z M30.7,1.8c0.1,0,0.2,0,0.2,0l0,0C30.9,1.7,30.8,1.7,30.7,1.8C30.7,1.7,30.7,1.8,30.7,1.8z
		 M35.4,35l0.1,0.1C35.5,35,35.5,35,35.4,35z M16.3,30.1c-0.1,0.2,0,0.3,0.1,0.2C16.3,30.3,16.3,30.2,16.3,30.1z M34.2,5.4l0.1,0.1
		C34.3,5.4,34.3,5.4,34.2,5.4z M11.3,30.3c-0.1,0-0.1,0.1-0.3,0.2C11.3,30.5,11.4,30.5,11.3,30.3z M24.6,24l0.1-0.1
		C24.6,23.9,24.6,23.9,24.6,24z M32.9,39.3c0,0.1,0,0.2,0,0.2l0,0C33,39.4,33,39.3,32.9,39.3C33,39.3,32.9,39.3,32.9,39.3z
		 M15.9,5.3c0-0.1,0-0.1-0.1-0.2C15.8,5.3,15.8,5.4,15.9,5.3z M24.9,19.9c0-0.1-0.1-0.1-0.1-0.2C24.8,19.9,24.8,19.9,24.9,19.9z
		 M28.1,19.8L28,19.7C27.9,19.8,27.9,19.8,28.1,19.8z M10,11.1c0,0.1,0,0.2,0,0.2l0,0C10.1,11.3,10.1,11.2,10,11.1
		C10.1,11.1,10,11.1,10,11.1z M8.2,33.9c0.1,0,0.2,0,0.2,0l0,0C8.4,33.8,8.3,33.8,8.2,33.9C8.2,33.8,8.2,33.8,8.2,33.9z M36.6,21.8
		l0.1-0.1C36.6,21.7,36.6,21.7,36.6,21.8z M9.3,0c0.1,0,0.1,0,0.2,0 M11.2,0.2c0,0.1,0,0.2,0.1,0.2C11.3,0.3,11.3,0.2,11.2,0.2z
		 M7.6,0.6C7.6,0.6,7.6,0.6,7.6,0.6c0,0.1,0,0.1,0,0.2C7.6,0.7,7.6,0.7,7.6,0.6L7.6,0.6z M34.1,0.6L34.1,0.6c0,0.1,0,0.1,0,0.2
		C34.2,0.7,34.2,0.7,34.1,0.6C34.2,0.6,34.2,0.6,34.1,0.6z M18.5,1L18.5,1c-0.1,0.1,0,0.1,0,0.2h0.1C18.5,1,18.5,1,18.5,1z
		 M16.7,1.7C16.6,1.7,16.6,1.8,16.7,1.7c-0.1,0.1,0,0.1,0,0.2h0.1C16.7,1.8,16.7,1.7,16.7,1.7z M17.3,1.7c0,0.1,0,0.1,0,0.2l0,0
		C17.3,1.8,17.3,1.8,17.3,1.7L17.3,1.7z M38,2c-0.1,0-0.1,0-0.2,0l0,0C37.9,2,37.9,2,38,2L38,2z M10.1,2.3L10.1,2.3
		c-0.1-0.1-0.1,0-0.2,0v0.1C10.1,2.3,10.1,2.3,10.1,2.3z M18,2.3L18,2.3C18.1,2.3,18.1,2.3,18,2.3C18.1,2.4,18.1,2.3,18,2.3
		C18.1,2.3,18.1,2.3,18,2.3z M24.6,2.5l-0.1-0.1c0,0.1,0,0.1,0,0.2C24.6,2.6,24.6,2.6,24.6,2.5z M25.7,2.7
		C25.7,2.8,25.7,2.8,25.7,2.7c0,0.1,0,0.1,0,0.2C25.8,2.9,25.8,2.8,25.7,2.7C25.8,2.8,25.8,2.7,25.7,2.7z M33.7,2.8
		c-0.1,0-0.1,0-0.2,0l0,0C33.6,2.9,33.7,2.9,33.7,2.8C33.7,2.9,33.7,2.8,33.7,2.8z M18.6,4.1c-0.1,0-0.1,0-0.2,0l0,0
		C18.5,4.2,18.6,4.2,18.6,4.1C18.6,4.2,18.6,4.1,18.6,4.1z M26,4.6c0-0.1,0-0.1,0-0.2l0,0C26,4.5,26,4.5,26,4.6L26,4.6z M7.6,4.7
		L7.6,4.7C7.5,4.7,7.5,4.8,7.6,4.7C7.5,4.8,7.6,4.7,7.6,4.7L7.6,4.7z M28.5,5.3L28.5,5.3c0.1,0,0.1,0,0.2,0
		C28.5,5.2,28.5,5.2,28.5,5.3C28.5,5.2,28.5,5.3,28.5,5.3z M20.5,5.9L20.5,5.9C20.4,5.9,20.4,6,20.5,5.9C20.5,6,20.5,6,20.5,5.9
		C20.6,5.9,20.6,5.9,20.5,5.9z M7.6,6.7L7.6,6.7C7.6,6.8,7.6,6.8,7.6,6.7C7.6,6.8,7.6,6.8,7.6,6.7C7.6,6.8,7.6,6.7,7.6,6.7z
		 M27.9,7.9V8C28,8,28,8,27.9,7.9C28,7.9,28,7.9,27.9,7.9L27.9,7.9z M34.2,8.1C34.2,8.1,34.1,8.2,34.2,8.1c-0.1,0.1,0,0.1,0,0.2h0.1
		C34.2,8.2,34.2,8.1,34.2,8.1z M2.2,8.2L2.2,8.2C2.2,8.3,2.2,8.3,2.2,8.2c-0.1,0.1-0.1,0.1,0,0.1C2.2,8.3,2.3,8.3,2.2,8.2z
		 M11.1,8.7L11.1,8.7C11.1,8.7,11.1,8.8,11.1,8.7C11.2,8.8,11.2,8.7,11.1,8.7C11.2,8.7,11.1,8.7,11.1,8.7z M25,9.8
		c0-0.1,0-0.1,0-0.2l0,0C25,9.7,25,9.7,25,9.8L25,9.8z M15.1,9.7c0,0.1,0,0.1,0,0.2l0,0C15.1,9.8,15.1,9.8,15.1,9.7L15.1,9.7z
		 M27,10.1l0.1-0.1c-0.1,0-0.1,0-0.2,0L27,10.1z M36.1,10.1L36.1,10.1c0,0.1,0,0.1,0,0.2C36.1,10.2,36.1,10.2,36.1,10.1
		C36.2,10.1,36.1,10.1,36.1,10.1z M8.9,10.6C8.9,10.6,8.9,10.5,8.9,10.6c-0.1-0.1-0.1,0-0.2,0v0.1C8.9,10.6,8.9,10.6,8.9,10.6z
		 M13.1,10.7c0-0.1,0-0.1,0-0.2l0,0C13,10.6,13,10.7,13.1,10.7C13,10.7,13,10.7,13.1,10.7z M8.7,10.9l-0.1-0.1c0,0.1,0,0.1,0,0.2
		C8.7,11,8.7,10.9,8.7,10.9z M30.1,11.4C30.1,11.4,30,11.4,30.1,11.4c-0.1,0.1,0,0.1,0,0.2h0.1C30.1,11.4,30.1,11.4,30.1,11.4z
		 M2.7,12c0-0.1,0-0.1,0-0.2l0,0C2.6,11.9,2.6,12,2.7,12L2.7,12z M12.2,11.8C12.2,11.9,12.2,11.9,12.2,11.8c-0.1,0.1,0,0.1,0,0.2
		h0.1C12.2,11.9,12.2,11.9,12.2,11.8z M5.6,12.4L5.6,12.4C5.5,12.4,5.5,12.5,5.6,12.4C5.6,12.5,5.6,12.5,5.6,12.4
		C5.7,12.4,5.6,12.4,5.6,12.4z M31.2,12.6c0.1,0,0.1,0,0.2,0l0,0C31.4,12.6,31.3,12.6,31.2,12.6L31.2,12.6z M14.4,13l0.1,0.1
		c0-0.1,0-0.1,0-0.2C14.4,13,14.4,13,14.4,13z M24,13.6v0.1C24.1,13.8,24.1,13.7,24,13.6C24.1,13.7,24.1,13.6,24,13.6
		C24.1,13.6,24,13.6,24,13.6z M19.9,14v0.1C20,14.1,20,14.1,19.9,14C20,14.1,20,14,19.9,14C20,14,19.9,14,19.9,14z M8.1,14.7
		C8.1,14.7,8,14.6,8.1,14.7C8,14.7,8,14.7,8.1,14.7c-0.1,0.1-0.1,0.1,0,0.1C8.1,14.7,8.1,14.7,8.1,14.7z M21.3,15.1L21.3,15.1
		C21.2,15.1,21.2,15.2,21.3,15.1C21.2,15.2,21.3,15.2,21.3,15.1L21.3,15.1z M18.7,15.2c0,0.1,0,0.1,0,0.2l0,0
		C18.7,15.3,18.7,15.2,18.7,15.2L18.7,15.2z M24.4,15.7L24.4,15.7c0,0.1,0,0.1,0,0.2C24.5,15.8,24.5,15.8,24.4,15.7
		C24.5,15.7,24.5,15.7,24.4,15.7z M7.6,16.3C7.7,16.4,7.7,16.4,7.6,16.3c0.1,0,0.1,0,0.2,0C7.8,16.3,7.7,16.3,7.6,16.3
		C7.7,16.3,7.6,16.3,7.6,16.3z M24.4,16.4c0,0.1,0,0.1,0,0.2l0,0C24.5,16.5,24.5,16.4,24.4,16.4L24.4,16.4z M32.1,16.7
		c0,0.1,0,0.1,0,0.2l0,0C32.1,16.8,32.1,16.7,32.1,16.7L32.1,16.7z M11.8,17.9L11.8,17.9C11.7,17.9,11.7,18,11.8,17.9
		C11.8,18,11.8,17.9,11.8,17.9C11.9,17.9,11.8,17.9,11.8,17.9z M12.5,18.3C12.5,18.3,12.5,18.4,12.5,18.3
		C12.5,18.4,12.5,18.4,12.5,18.3C12.5,18.4,12.5,18.3,12.5,18.3C12.5,18.3,12.5,18.3,12.5,18.3z M36.1,18.4
		C36.1,18.4,36.1,18.3,36.1,18.4c-0.1-0.1-0.1,0-0.2,0v0.1C36.1,18.4,36.1,18.4,36.1,18.4z M7.5,19.6C7.5,19.6,7.5,19.7,7.5,19.6
		C7.5,19.7,7.5,19.7,7.5,19.6C7.6,19.7,7.6,19.6,7.5,19.6L7.5,19.6z M24.3,19.7L24.3,19.7c0,0,0,0-0.1-0.1
		C24.2,19.7,24.2,19.7,24.3,19.7z M24.5,20.1v0.1C24.5,20.3,24.6,20.2,24.5,20.1C24.6,20.2,24.6,20.2,24.5,20.1L24.5,20.1z
		 M8.3,20.9l-0.1-0.1c0,0.1,0,0.1,0,0.2C8.2,20.9,8.3,20.9,8.3,20.9z M18.3,21.1c0-0.1,0-0.1,0-0.2l0,0C18.3,21,18.3,21.1,18.3,21.1
		L18.3,21.1z M10.1,21.3C10,21.3,10,21.4,10.1,21.3c0,0.1,0,0.1,0,0.2C10.1,21.5,10.1,21.4,10.1,21.3L10.1,21.3z M13.2,23v0.1
		c0-0.1,0-0.1,0.1-0.2C13.2,23,13.2,23,13.2,23z M16.2,23C16.2,23,16.2,23,16.2,23c0,0.1,0,0.1,0,0.2C16.2,23.1,16.2,23.1,16.2,23
		L16.2,23z M13.6,23.7c-0.1,0-0.1,0-0.2,0l0,0C13.5,23.7,13.6,23.7,13.6,23.7L13.6,23.7z M28.2,24v0.1C28.2,24.2,28.3,24.1,28.2,24
		C28.3,24.1,28.3,24.1,28.2,24L28.2,24z M11.1,24.4v0.1c0-0.1,0-0.1,0.1-0.2C11.2,24.4,11.1,24.4,11.1,24.4z M23.3,24.6l0.1-0.1
		c-0.1,0-0.1,0-0.2,0C23.2,24.6,23.3,24.7,23.3,24.6z M11.9,24.9V25C11.9,25,12,25,11.9,24.9C12,24.9,12,24.9,11.9,24.9L11.9,24.9z
		 M3.1,25C3.1,25,3.2,25,3.1,25c0.1,0,0.1,0,0.2,0C3.2,24.9,3.2,24.9,3.1,25C3.1,24.9,3.1,25,3.1,25z M14.8,25.3
		C14.8,25.2,14.8,25.2,14.8,25.3L14.8,25.3c-0.1,0.1-0.1,0.1,0,0.1C14.8,25.3,14.8,25.3,14.8,25.3z M4.2,26.2L4.2,26.2
		C4.1,26.2,4.1,26.2,4.2,26.2c-0.1,0.1-0.1,0.1,0,0.1V26.2z M34.1,26.2C34,26.2,34,26.2,34.1,26.2c0,0.1,0,0.1,0,0.2
		C34.1,26.3,34.1,26.3,34.1,26.2L34.1,26.2z M14.9,26.5c0-0.1,0-0.1,0-0.2l0,0C14.9,26.4,14.9,26.5,14.9,26.5L14.9,26.5z M9.5,26.7
		L9.5,26.7C9.5,26.8,9.6,26.8,9.5,26.7C9.6,26.8,9.6,26.7,9.5,26.7C9.6,26.7,9.6,26.7,9.5,26.7z M10.8,26.9V27
		C10.8,27,10.9,27,10.8,26.9C10.9,27,10.9,26.9,10.8,26.9L10.8,26.9z M15.8,27c0.1,0,0.1,0,0.2,0l0,0C15.9,27,15.8,27,15.8,27
		L15.8,27z M10.2,27.1C10.2,27.1,10.1,27.1,10.2,27.1c-0.1-0.1-0.1,0-0.2,0v0.1C10.1,27.2,10.2,27.1,10.2,27.1z M24.5,27.6
		L24.5,27.6c0,0,0,0-0.1-0.1C24.5,27.6,24.5,27.6,24.5,27.6z M24.8,27.7l-0.1-0.1c0,0.1,0,0.1,0,0.2C24.7,27.8,24.8,27.8,24.8,27.7z
		 M15.2,27.8C15.2,27.9,15.1,27.9,15.2,27.8c-0.1,0.1,0,0.1,0,0.2h0.1C15.2,27.9,15.2,27.9,15.2,27.8z M23.7,27.8
		C23.7,27.9,23.7,27.9,23.7,27.8c-0.1,0.1,0,0.1,0,0.2h0.1C23.7,27.9,23.7,27.9,23.7,27.8z M24.5,27.8
		C24.5,27.9,24.5,27.9,24.5,27.8c0,0.1,0,0.1,0,0.2C24.6,28,24.6,27.9,24.5,27.8C24.6,27.9,24.5,27.8,24.5,27.8z M13.8,28.1
		L13.8,28.1C13.7,28.1,13.7,28.2,13.8,28.1C13.7,28.2,13.8,28.2,13.8,28.1L13.8,28.1z M35.8,28.4C35.8,28.4,35.7,28.4,35.8,28.4
		C35.7,28.4,35.7,28.5,35.8,28.4c-0.1,0.1-0.1,0.1,0,0.1C35.8,28.5,35.8,28.5,35.8,28.4z M36.9,28.4v0.1c0-0.1,0-0.1,0.1-0.2
		C36.9,28.4,36.9,28.4,36.9,28.4z M3.6,28.8c0.1,0,0.1,0,0.2,0l0,0C3.8,28.8,3.7,28.8,3.6,28.8L3.6,28.8z M8.2,28.8
		C8.1,28.8,8.1,28.8,8.2,28.8c-0.1-0.1-0.1,0-0.2,0v0.1C8.1,28.8,8.1,28.8,8.2,28.8z M18.7,28.9L18.7,28.9L18.7,28.9
		c-0.1,0.1-0.1,0.1,0,0.1C18.7,29,18.7,28.9,18.7,28.9z M17.3,29.2c0-0.1,0-0.1,0-0.2l0,0C17.3,29.1,17.3,29.1,17.3,29.2L17.3,29.2z
		 M5.6,29.8c0-0.1,0-0.1,0-0.2l0,0C5.5,29.6,5.5,29.7,5.6,29.8C5.5,29.8,5.5,29.8,5.6,29.8z M19,29.9c0-0.1,0-0.1,0-0.2l0,0
		C18.9,29.7,18.9,29.8,19,29.9L19,29.9z M9.6,29.9L9.6,29.9c-0.1,0.1,0,0.1,0,0.2h0.1C9.7,29.9,9.6,29.9,9.6,29.9z M31.3,30v-0.1
		c0,0.1,0,0.1-0.1,0.2C31.3,30,31.3,30,31.3,30z M12.7,30C12.8,30,12.8,30,12.7,30c0.1,0,0.1,0,0.2,0C12.9,30,12.8,30,12.7,30
		C12.8,29.9,12.7,30,12.7,30z M24.2,30.1C24.1,30.1,24.1,30.2,24.2,30.1C24.2,30.2,24.2,30.2,24.2,30.1
		C24.3,30.2,24.3,30.1,24.2,30.1C24.2,30.1,24.2,30.1,24.2,30.1z M23.1,30.4C23.1,30.4,23,30.3,23.1,30.4c-0.1-0.1-0.1,0-0.2,0v0.1
		C23,30.4,23.1,30.4,23.1,30.4z M20.2,30.5c0,0.1,0,0.1,0,0.2l0,0C20.3,30.6,20.3,30.6,20.2,30.5C20.3,30.5,20.3,30.5,20.2,30.5z
		 M8.5,30.8C8.5,30.8,8.5,30.9,8.5,30.8c-0.1,0.1,0,0.1,0,0.2h0.1C8.5,30.9,8.5,30.8,8.5,30.8z M11.3,30.8
		C11.3,30.8,11.3,30.9,11.3,30.8c0,0.1,0,0.1,0,0.2C11.3,30.9,11.3,30.9,11.3,30.8L11.3,30.8z M6.5,30.9C6.5,30.9,6.4,30.9,6.5,30.9
		c-0.1-0.1-0.1,0-0.2,0V31C6.4,31,6.5,31,6.5,30.9z M16.5,31v0.1C16.6,31.1,16.6,31.1,16.5,31C16.6,31.1,16.6,31,16.5,31
		C16.6,31,16.5,31,16.5,31z M6,31.2c-0.1,0-0.1,0-0.2,0l0,0C5.8,31.2,5.9,31.2,6,31.2L6,31.2z M5.6,32v0.1C5.6,32.1,5.7,32.1,5.6,32
		C5.7,32,5.7,32,5.6,32C5.6,31.9,5.6,31.9,5.6,32z M12.8,32.1v0.1c0-0.1,0-0.1,0.1-0.2C12.8,32.1,12.8,32.1,12.8,32.1z M5.3,32.2
		L5.3,32.2C5.1,32.2,5.2,32.3,5.3,32.2C5.2,32.3,5.3,32.3,5.3,32.2L5.3,32.2z M12.7,32.4l0.1-0.1c-0.1,0-0.1,0-0.2,0
		C12.7,32.3,12.7,32.4,12.7,32.4z M23,33.3v0.1C23.1,33.5,23.1,33.4,23,33.3C23.1,33.4,23.1,33.3,23,33.3L23,33.3z M15.8,34.4
		L15.8,34.4c0.1,0,0.1,0,0.2,0C15.9,34.3,15.9,34.3,15.8,34.4C15.8,34.3,15.8,34.3,15.8,34.4z M23.6,34.4l0.1,0.1c0-0.1,0-0.1,0-0.2
		C23.6,34.3,23.6,34.4,23.6,34.4z M8.1,34.6C8.1,34.5,8,34.5,8.1,34.6C8,34.6,8,34.6,8.1,34.6c-0.1,0.1-0.1,0.1,0,0.1
		C8.1,34.6,8.1,34.6,8.1,34.6z M28.7,34.7C28.7,34.7,28.6,34.8,28.7,34.7c0,0.1,0,0.1,0,0.2C28.7,34.8,28.7,34.8,28.7,34.7
		L28.7,34.7z M16.5,35.3C16.4,35.3,16.4,35.3,16.5,35.3c0,0.1,0,0.1,0,0.2C16.5,35.4,16.5,35.4,16.5,35.3L16.5,35.3z M9.1,35.5
		c0-0.1,0-0.1,0-0.2l0,0C9,35.4,9,35.5,9.1,35.5C9,35.5,9.1,35.5,9.1,35.5z M21.4,35.3c0,0.1,0,0.1,0,0.2l0,0
		C21.5,35.5,21.5,35.4,21.4,35.3C21.5,35.3,21.5,35.3,21.4,35.3z M26.2,35.4C26.2,35.4,26.2,35.5,26.2,35.4
		C26.2,35.5,26.2,35.5,26.2,35.4C26.3,35.5,26.3,35.4,26.2,35.4C26.3,35.4,26.2,35.4,26.2,35.4z M7.2,35.7c0.1,0,0.1,0,0.2,0l0,0
		C7.3,35.6,7.2,35.6,7.2,35.7L7.2,35.7z M9.2,35.6L9.2,35.6C9.1,35.7,9.1,35.7,9.2,35.6C9.2,35.7,9.2,35.7,9.2,35.6
		C9.3,35.7,9.3,35.6,9.2,35.6z M16.1,35.8l0.1-0.1c-0.1,0-0.1,0-0.2,0C16.1,35.8,16.1,35.8,16.1,35.8z M23.9,35.7c0,0.1,0,0.1,0,0.2
		l0,0C23.9,35.8,23.9,35.8,23.9,35.7L23.9,35.7z M5.7,36.1L5.7,36.1C5.6,36.1,5.6,36.2,5.7,36.1C5.7,36.2,5.7,36.2,5.7,36.1
		L5.7,36.1z M11,36.7c0-0.1,0-0.1,0-0.2l0,0C11,36.6,11,36.7,11,36.7L11,36.7z M18.4,36.6L18.4,36.6C18.4,36.6,18.5,36.6,18.4,36.6
		C18.5,36.7,18.5,36.7,18.4,36.6C18.5,36.6,18.5,36.5,18.4,36.6z M38.7,36.8L38.7,36.8C38.6,36.9,38.6,36.9,38.7,36.8
		C38.6,36.9,38.7,36.9,38.7,36.8C38.7,36.9,38.7,36.8,38.7,36.8z M7.4,37v0.1C7.5,37.1,7.5,37.1,7.4,37C7.5,37,7.5,37,7.4,37
		C7.5,36.9,7.4,37,7.4,37z M4.5,37.4C4.4,37.3,4.4,37.3,4.5,37.4c-0.1-0.1-0.1,0-0.2,0v0.1C4.4,37.4,4.4,37.4,4.5,37.4z M8.8,37.5
		c0,0.1,0,0.1,0,0.2l0,0C8.8,37.6,8.8,37.5,8.8,37.5L8.8,37.5z M19.4,37.5C19.4,37.5,19.3,37.5,19.4,37.5
		C19.3,37.5,19.3,37.6,19.4,37.5c-0.1,0.1-0.1,0.1,0,0.1C19.4,37.6,19.4,37.6,19.4,37.5z M31.3,37.5c0.1,0,0.1,0,0.2,0l0,0
		C31.5,37.5,31.4,37.5,31.3,37.5L31.3,37.5z M4.6,37.7L4.6,37.7C4.5,37.7,4.5,37.8,4.6,37.7C4.6,37.8,4.6,37.7,4.6,37.7L4.6,37.7z
		 M17.2,37.8c0-0.1,0-0.1,0-0.2l0,0C17.2,37.7,17.2,37.8,17.2,37.8L17.2,37.8z M31.2,37.7v0.1C31.2,37.8,31.2,37.8,31.2,37.7
		C31.2,37.8,31.2,37.7,31.2,37.7L31.2,37.7z M11.3,37.9V38C11.4,38,11.4,38,11.3,37.9C11.4,37.9,11.4,37.9,11.3,37.9
		C11.4,37.9,11.3,37.9,11.3,37.9z M2.7,38.3c0-0.1,0-0.1,0-0.2l0,0C2.6,38.2,2.6,38.3,2.7,38.3L2.7,38.3z M8.1,38.1
		C8.1,38.1,8.1,38.2,8.1,38.1C8.1,38.2,8.2,38.2,8.1,38.1C8.2,38.2,8.2,38.1,8.1,38.1C8.2,38.1,8.2,38.1,8.1,38.1z M22.3,38.1
		C22.3,38.2,22.3,38.2,22.3,38.1c-0.1,0.1,0,0.1,0,0.2h0.1C22.3,38.2,22.3,38.2,22.3,38.1z M30.7,38.1l-0.1,0.1c0.1,0,0.1,0,0.2,0
		L30.7,38.1z M19.3,38.2C19.3,38.2,19.3,38.3,19.3,38.2C19.3,38.3,19.4,38.3,19.3,38.2C19.4,38.3,19.4,38.2,19.3,38.2
		C19.4,38.2,19.4,38.2,19.3,38.2z M25,38.2l-0.1,0.1c0.1,0,0.1,0,0.2,0C25,38.2,25,38.2,25,38.2z M22.6,38.3
		C22.6,38.4,22.5,38.4,22.6,38.3c0,0.1,0,0.1,0,0.2C22.6,38.5,22.6,38.4,22.6,38.3C22.6,38.4,22.6,38.3,22.6,38.3z M11.6,38.5
		c0.1,0,0.1,0,0.2,0l0,0C11.7,38.4,11.7,38.4,11.6,38.5C11.6,38.4,11.6,38.5,11.6,38.5z M24,38.6L24,38.6
		C23.9,38.6,23.9,38.7,24,38.6C23.9,38.7,24,38.7,24,38.6L24,38.6z M20.4,38.8c-0.1,0-0.1,0-0.2,0l0,0
		C20.3,38.8,20.3,38.8,20.4,38.8L20.4,38.8z M24,38.8c0,0.1,0,0.1,0,0.2l0,0C24.1,38.9,24.1,38.8,24,38.8
		C24.1,38.8,24.1,38.8,24,38.8z M38.4,39C38.4,38.9,38.3,38.9,38.4,39c-0.1-0.1-0.1,0-0.2,0C38.3,39,38.3,39,38.4,39z M32.6,39.1
		C32.6,39.1,32.5,39.1,32.6,39.1c0,0.1,0,0.1,0,0.2C32.6,39.2,32.6,39.2,32.6,39.1L32.6,39.1z M35,39.1C35,39.1,35,39.2,35,39.1
		c0.1,0,0.1,0,0.2,0C35.1,39.1,35.1,39.1,35,39.1L35,39.1z M33.9,39.3L33.9,39.3c-0.1-0.1-0.1,0-0.2,0v0.1
		C33.9,39.3,33.9,39.3,33.9,39.3z M21.5,39.4C21.5,39.4,21.4,39.5,21.5,39.4C21.5,39.5,21.5,39.5,21.5,39.4
		C21.6,39.5,21.6,39.4,21.5,39.4L21.5,39.4z M2.7,39.5c-0.1,0-0.1,0-0.2,0l0,0C2.6,39.6,2.6,39.6,2.7,39.5
		C2.7,39.6,2.7,39.6,2.7,39.5z M38.8,40l0.1-0.1c-0.1,0-0.1,0-0.2,0C38.8,40,38.8,40,38.8,40z M30.6,29L30.6,29
		C30.6,29.1,30.6,29.1,30.6,29C30.7,29.1,30.7,29.1,30.6,29C30.7,29.1,30.7,29,30.6,29z M28.5,19.8C28.5,19.8,28.5,19.8,28.5,19.8
		C28.5,19.7,28.5,19.8,28.5,19.8C28.5,19.8,28.5,19.8,28.5,19.8C28.5,19.8,28.5,19.8,28.5,19.8z M13.8,6.3L13.8,6.3
		C13.8,6.3,13.7,6.3,13.8,6.3L13.8,6.3L13.8,6.3z M13.5,6.2L13.5,6.2L13.5,6.2L13.5,6.2L13.5,6.2z M15.6,6.2
		C15.6,6.1,15.7,6.1,15.6,6.2C15.7,6.1,15.6,6.1,15.6,6.2C15.6,6.1,15.6,6.1,15.6,6.2C15.6,6.1,15.6,6.1,15.6,6.2z M14.2,6.1
		C14.1,6.1,14.1,6.1,14.2,6.1C14.1,6.1,14.1,6.1,14.2,6.1L14.2,6.1L14.2,6.1z M16.4,19.8C16.4,19.9,16.5,19.9,16.4,19.8
		C16.5,19.9,16.5,19.9,16.4,19.8C16.5,19.9,16.5,19.8,16.4,19.8C16.5,19.8,16.4,19.8,16.4,19.8z M12.5,29.5L12.5,29.5L12.5,29.5
		C12.5,29.5,12.5,29.6,12.5,29.5C12.5,29.6,12.5,29.5,12.5,29.5z M32.4,29.6C32.3,29.6,32.3,29.5,32.4,29.6
		C32.3,29.5,32.3,29.5,32.4,29.6C32.3,29.5,32.3,29.6,32.4,29.6C32.3,29.6,32.3,29.6,32.4,29.6z M20.9,6C20.9,6,20.8,6,20.9,6
		C20.8,6,20.8,6,20.9,6C20.8,6,20.8,6,20.9,6L20.9,6z M28.5,19.8L28.5,19.8C28.5,19.9,28.5,19.9,28.5,19.8
		C28.5,19.9,28.5,19.9,28.5,19.8C28.5,19.9,28.5,19.8,28.5,19.8z M32.4,29.6L32.4,29.6C32.4,29.6,32.4,29.7,32.4,29.6
		C32.4,29.7,32.4,29.6,32.4,29.6L32.4,29.6z M2.9,29.7L2.9,29.7C2.9,29.7,2.9,29.8,2.9,29.7C3,29.7,3,29.7,2.9,29.7
		C3,29.7,3,29.7,2.9,29.7z M14.7,29.8C14.7,29.7,14.7,29.7,14.7,29.8C14.7,29.7,14.7,29.7,14.7,29.8C14.7,29.7,14.7,29.7,14.7,29.8
		C14.7,29.7,14.7,29.8,14.7,29.8z M22.3,29.7L22.3,29.7C22.3,29.8,22.3,29.7,22.3,29.7L22.3,29.7L22.3,29.7z M37.9,29.7L37.9,29.7
		C37.8,29.7,37.8,29.7,37.9,29.7C37.8,29.7,37.9,29.7,37.9,29.7L37.9,29.7z M39,29.7C39,29.7,38.9,29.7,39,29.7L39,29.7 M31.3,29.8
		C31.3,29.8,31.4,29.8,31.3,29.8C31.4,29.8,31.4,29.8,31.3,29.8C31.4,29.8,31.4,29.8,31.3,29.8C31.4,29.8,31.4,29.8,31.3,29.8z
		 M32.6,29.9L32.6,29.9C32.5,29.9,32.6,29.9,32.6,29.9L32.6,29.9L32.6,29.9z M11.6,5.6L11.6,5.6C11.5,5.6,11.5,5.7,11.6,5.6
		C11.6,5.7,11.6,5.7,11.6,5.6L11.6,5.6z M11.6,5.6L11.6,5.6C11.7,5.6,11.7,5.6,11.6,5.6C11.7,5.5,11.7,5.5,11.6,5.6
		C11.6,5.5,11.6,5.5,11.6,5.6z M10.4,5.6L10.4,5.6C10.4,5.5,10.4,5.5,10.4,5.6C10.3,5.5,10.3,5.5,10.4,5.6
		C10.3,5.6,10.3,5.6,10.4,5.6z M10.7,30.2C10.7,30.3,10.7,30.3,10.7,30.2C10.7,30.3,10.7,30.3,10.7,30.2
		C10.7,30.3,10.7,30.3,10.7,30.2C10.7,30.3,10.7,30.2,10.7,30.2z M12.5,30.3C12.5,30.3,12.6,30.3,12.5,30.3
		C12.6,30.3,12.6,30.3,12.5,30.3C12.6,30.3,12.6,30.3,12.5,30.3L12.5,30.3z M20.9,30.4C20.9,30.4,20.8,30.3,20.9,30.4
		C20.8,30.3,20.8,30.4,20.9,30.4C20.8,30.4,20.8,30.4,20.9,30.4C20.8,30.4,20.9,30.4,20.9,30.4z M26.3,5.3
		C26.3,5.3,26.4,5.3,26.3,5.3C26.4,5.3,26.4,5.3,26.3,5.3C26.4,5.3,26.4,5.3,26.3,5.3C26.4,5.2,26.4,5.3,26.3,5.3z M10.6,30.5
		L10.6,30.5C10.7,30.5,10.7,30.5,10.6,30.5C10.7,30.5,10.6,30.4,10.6,30.5C10.6,30.4,10.6,30.5,10.6,30.5z M11.2,30.5L11.2,30.5
		C11.2,30.5,11.2,30.6,11.2,30.5C11.2,30.6,11.2,30.6,11.2,30.5L11.2,30.5z M13.1,30.6C13.1,30.6,13.2,30.6,13.1,30.6
		C13.2,30.5,13.1,30.5,13.1,30.6C13.1,30.5,13.1,30.5,13.1,30.6L13.1,30.6z M11.4,30.6L11.4,30.6C11.3,30.6,11.3,30.6,11.4,30.6
		C11.3,30.7,11.4,30.7,11.4,30.6C11.4,30.7,11.4,30.7,11.4,30.6z M7.3,30.7C7.3,30.8,7.3,30.8,7.3,30.7C7.3,30.8,7.3,30.8,7.3,30.7
		L7.3,30.7L7.3,30.7z M16.6,30.7C16.6,30.8,16.6,30.8,16.6,30.7C16.7,30.8,16.7,30.8,16.6,30.7C16.7,30.7,16.7,30.7,16.6,30.7
		L16.6,30.7z M15.2,30.8C15.2,30.8,15.1,30.8,15.2,30.8C15.1,30.8,15.2,30.9,15.2,30.8C15.2,30.9,15.2,30.9,15.2,30.8L15.2,30.8z
		 M14.2,4.9L14.2,4.9C14.1,4.9,14.1,4.9,14.2,4.9C14.1,4.9,14.1,4.9,14.2,4.9L14.2,4.9z M20.2,31C20.2,31,20.1,31,20.2,31
		C20.1,31,20.2,31.1,20.2,31L20.2,31L20.2,31z M19.5,20.3C19.5,20.3,19.5,20.4,19.5,20.3C19.5,20.4,19.6,20.4,19.5,20.3
		C19.6,20.3,19.5,20.3,19.5,20.3L19.5,20.3z M28.9,4.5C28.9,4.5,29,4.6,28.9,4.5C29,4.6,29,4.6,28.9,4.5C29,4.5,29,4.5,28.9,4.5
		C29,4.5,28.9,4.5,28.9,4.5z M23.5,20.3L23.5,20.3C23.5,20.4,23.5,20.4,23.5,20.3C23.5,20.4,23.5,20.3,23.5,20.3L23.5,20.3z
		 M24.2,31.3C24.2,31.3,24.1,31.3,24.2,31.3C24.1,31.3,24.1,31.3,24.2,31.3L24.2,31.3L24.2,31.3z M23.2,4.5L23.2,4.5
		C23.2,4.5,23.2,4.6,23.2,4.5C23.2,4.6,23.3,4.5,23.2,4.5C23.3,4.5,23.2,4.5,23.2,4.5z M20.1,4.5L20.1,4.5C20,4.6,20.1,4.6,20.1,4.5
		C20.1,4.6,20.1,4.5,20.1,4.5L20.1,4.5z M19.6,31.4L19.6,31.4L19.6,31.4L19.6,31.4C19.7,31.4,19.6,31.4,19.6,31.4z M8.9,4.5
		C8.9,4.5,8.8,4.5,8.9,4.5C8.8,4.5,8.9,4.6,8.9,4.5C8.9,4.6,8.9,4.6,8.9,4.5L8.9,4.5z M5.1,31.5C5.1,31.6,5.1,31.6,5.1,31.5
		C5.1,31.6,5.1,31.6,5.1,31.5C5.1,31.6,5.1,31.6,5.1,31.5C5.1,31.6,5.1,31.5,5.1,31.5z M20.5,31.5C20.4,31.6,20.4,31.6,20.5,31.5
		C20.4,31.6,20.4,31.6,20.5,31.5C20.5,31.6,20.5,31.6,20.5,31.5C20.5,31.6,20.5,31.5,20.5,31.5z M19,31.6C19,31.6,18.9,31.6,19,31.6
		C18.9,31.7,19,31.7,19,31.6C19,31.7,19,31.7,19,31.6C19,31.7,19,31.6,19,31.6z M14.9,31.8L14.9,31.8C14.9,31.9,14.9,31.9,14.9,31.8
		C14.9,31.9,14.9,31.9,14.9,31.8L14.9,31.8z M11.2,31.9L11.2,31.9L11.2,31.9C11.2,32,11.2,32,11.2,31.9C11.2,32,11.2,32,11.2,31.9z
		 M19.2,31.9C19.2,32,19.2,32,19.2,31.9C19.3,32,19.3,32,19.2,31.9C19.3,31.9,19.3,31.9,19.2,31.9L19.2,31.9z M16.4,32.1
		C16.4,32.1,16.4,32,16.4,32.1C16.4,32,16.4,32,16.4,32.1C16.4,32,16.4,32,16.4,32.1L16.4,32.1z M6.9,4.3L6.9,4.3
		C6.9,4.3,7,4.3,6.9,4.3C7,4.2,6.9,4.2,6.9,4.3C6.9,4.2,6.9,4.2,6.9,4.3z M9.4,32.2C9.4,32.2,9.3,32.2,9.4,32.2
		C9.3,32.2,9.3,32.2,9.4,32.2C9.3,32.2,9.3,32.2,9.4,32.2L9.4,32.2z M15.3,32.2C15.3,32.2,15.3,32.3,15.3,32.2
		C15.4,32.3,15.4,32.2,15.3,32.2C15.4,32.2,15.4,32.2,15.3,32.2L15.3,32.2z M15.5,4.1L15.5,4.1C15.5,4.2,15.5,4.2,15.5,4.1
		C15.6,4.2,15.6,4.2,15.5,4.1C15.6,4.2,15.6,4.1,15.5,4.1z M15.3,32.3L15.3,32.3C15.2,32.3,15.2,32.3,15.3,32.3L15.3,32.3L15.3,32.3
		z M8.1,32.4C8.1,32.4,8,32.4,8.1,32.4C8,32.4,8,32.4,8.1,32.4C8,32.4,8,32.4,8.1,32.4L8.1,32.4z M15.9,4C15.8,4,15.8,4,15.9,4
		C15.8,4.1,15.8,4.1,15.9,4C15.8,4.1,15.9,4.1,15.9,4L15.9,4z M13.1,32.6C13.1,32.6,13,32.6,13.1,32.6C13,32.6,13,32.6,13.1,32.6
		C13,32.6,13,32.6,13.1,32.6L13.1,32.6z M3.2,32.7L3.2,32.7C3.2,32.7,3.3,32.7,3.2,32.7L3.2,32.7L3.2,32.7z M15.9,4L15.9,4L15.9,4
		C16,4,15.9,3.9,15.9,4C15.9,3.9,15.9,4,15.9,4z M14,13.6C14,13.6,13.9,13.6,14,13.6C13.9,13.7,13.9,13.7,14,13.6
		C14,13.7,14,13.7,14,13.6L14,13.6z M11.2,32.9L11.2,32.9C11.2,33,11.2,33,11.2,32.9C11.2,33,11.2,33,11.2,32.9
		C11.2,33,11.2,32.9,11.2,32.9z M24.4,16L24.4,16C24.4,16,24.5,16,24.4,16C24.5,15.9,24.5,15.9,24.4,16C24.4,15.9,24.4,16,24.4,16z
		 M7.9,33.1C7.9,33.1,7.9,33,7.9,33.1C7.8,33,7.8,33.1,7.9,33.1C7.8,33.1,7.8,33.1,7.9,33.1L7.9,33.1z M5.2,3.7L5.2,3.7
		C5.3,3.7,5.3,3.7,5.2,3.7C5.3,3.7,5.3,3.7,5.2,3.7C5.3,3.7,5.2,3.7,5.2,3.7z M38.8,3.3L38.8,3.3L38.8,3.3L38.8,3.3L38.8,3.3z
		 M15.1,13.4C15.1,13.4,15,13.4,15.1,13.4C15.1,13.5,15.1,13.5,15.1,13.4C15.1,13.5,15.1,13.5,15.1,13.4L15.1,13.4z M11.1,3.2
		C11.1,3.2,11.1,3.3,11.1,3.2C11.1,3.3,11.1,3.2,11.1,3.2L11.1,3.2L11.1,3.2z M11.7,3.1C11.7,3.1,11.7,3.2,11.7,3.1
		C11.8,3.2,11.8,3.1,11.7,3.1C11.8,3.1,11.8,3.1,11.7,3.1L11.7,3.1z M20.4,2.9L20.4,2.9C20.3,2.9,20.3,2.9,20.4,2.9
		C20.3,3,20.4,3,20.4,2.9C20.4,3,20.4,3,20.4,2.9z M10,33.5L10,33.5L10,33.5C10,33.6,10,33.5,10,33.5L10,33.5z M22.8,13.4
		C22.8,13.4,22.8,13.3,22.8,13.4C22.7,13.3,22.7,13.4,22.8,13.4C22.7,13.4,22.8,13.4,22.8,13.4L22.8,13.4z M20.1,2.8
		C20.1,2.8,20,2.8,20.1,2.8C20.1,2.9,20.1,2.9,20.1,2.8C20.1,2.9,20.1,2.9,20.1,2.8C20.1,2.9,20.1,2.8,20.1,2.8z M16.5,33.6
		C16.5,33.6,16.6,33.6,16.5,33.6C16.6,33.7,16.6,33.6,16.5,33.6C16.6,33.6,16.6,33.6,16.5,33.6L16.5,33.6z M29.3,33.6L29.3,33.6
		L29.3,33.6C29.4,33.7,29.4,33.6,29.3,33.6C29.4,33.6,29.4,33.6,29.3,33.6z M2.3,33.8L2.3,33.8L2.3,33.8L2.3,33.8L2.3,33.8z
		 M6.5,2.8L6.5,2.8C6.6,2.8,6.6,2.8,6.5,2.8C6.6,2.8,6.6,2.7,6.5,2.8C6.5,2.7,6.5,2.8,6.5,2.8z M3.3,2.7L3.3,2.7L3.3,2.7
		C3.4,2.7,3.3,2.6,3.3,2.7C3.3,2.6,3.3,2.7,3.3,2.7z M15.4,13.3C15.4,13.3,15.3,13.4,15.4,13.3C15.3,13.4,15.3,13.4,15.4,13.3
		C15.4,13.4,15.4,13.4,15.4,13.3C15.4,13.4,15.4,13.3,15.4,13.3z M11.3,2.6L11.3,2.6C11.3,2.5,11.3,2.6,11.3,2.6L11.3,2.6L11.3,2.6z
		 M12.5,34.1L12.5,34.1L12.5,34.1C12.5,34,12.5,34.1,12.5,34.1L12.5,34.1z M30.1,34.1L30.1,34.1L30.1,34.1L30.1,34.1L30.1,34.1z
		 M30.2,34.1C30.2,34.1,30.1,34.2,30.2,34.1C30.1,34.2,30.2,34.2,30.2,34.1C30.2,34.2,30.2,34.2,30.2,34.1
		C30.2,34.2,30.2,34.2,30.2,34.1z M3.9,2.4C3.9,2.5,3.8,2.5,3.9,2.4C3.8,2.5,3.9,2.5,3.9,2.4C3.9,2.5,3.9,2.5,3.9,2.4
		C3.9,2.5,3.9,2.5,3.9,2.4z M15.6,13.2C15.5,13.2,15.5,13.3,15.6,13.2C15.5,13.3,15.5,13.3,15.6,13.2C15.5,13.3,15.6,13.3,15.6,13.2
		C15.6,13.3,15.6,13.2,15.6,13.2z M8.5,34.4L8.5,34.4C8.5,34.4,8.5,34.3,8.5,34.4C8.5,34.3,8.5,34.3,8.5,34.4L8.5,34.4z M23.6,16
		L23.6,16L23.6,16C23.6,16,23.6,15.9,23.6,16C23.6,15.9,23.6,16,23.6,16z M24.5,2.4L24.5,2.4C24.5,2.4,24.4,2.4,24.5,2.4
		C24.4,2.4,24.4,2.4,24.5,2.4L24.5,2.4z M3.8,2.4L3.8,2.4L3.8,2.4L3.8,2.4L3.8,2.4z M12.6,34.4C12.6,34.4,12.5,34.4,12.6,34.4
		C12.6,34.5,12.6,34.5,12.6,34.4C12.6,34.5,12.6,34.5,12.6,34.4C12.6,34.5,12.6,34.4,12.6,34.4z M14.7,34.5
		C14.7,34.4,14.6,34.4,14.7,34.5C14.6,34.4,14.6,34.4,14.7,34.5C14.6,34.5,14.6,34.5,14.7,34.5C14.6,34.5,14.6,34.5,14.7,34.5z
		 M9.4,13.2L9.4,13.2C9.4,13.3,9.4,13.3,9.4,13.2C9.4,13.3,9.5,13.3,9.4,13.2C9.5,13.3,9.4,13.2,9.4,13.2z M2.6,34.6
		C2.6,34.5,2.6,34.5,2.6,34.6C2.6,34.5,2.5,34.5,2.6,34.6L2.6,34.6L2.6,34.6z M31.5,17.8L31.5,17.8C31.5,17.8,31.4,17.8,31.5,17.8
		C31.4,17.8,31.4,17.8,31.5,17.8L31.5,17.8z M23.7,34.5L23.7,34.5C23.7,34.6,23.7,34.6,23.7,34.5C23.7,34.6,23.7,34.6,23.7,34.5
		L23.7,34.5z M7.3,2.2C7.4,2.2,7.4,2.2,7.3,2.2C7.4,2.2,7.4,2.2,7.3,2.2C7.4,2.2,7.4,2.2,7.3,2.2C7.4,2.2,7.4,2.2,7.3,2.2z M4.5,2.2
		L4.5,2.2L4.5,2.2L4.5,2.2L4.5,2.2z M35.5,2.1C35.4,2.1,35.4,2.1,35.5,2.1C35.4,2.1,35.4,2.1,35.5,2.1C35.5,2.2,35.5,2.1,35.5,2.1
		L35.5,2.1z M7.5,34.7L7.5,34.7C7.5,34.7,7.5,34.8,7.5,34.7C7.5,34.8,7.5,34.8,7.5,34.7L7.5,34.7z M23.1,34.7
		C23.1,34.7,23.1,34.8,23.1,34.7C23.1,34.8,23.2,34.7,23.1,34.7C23.2,34.7,23.2,34.7,23.1,34.7L23.1,34.7z M37.7,2L37.7,2
		C37.7,2.1,37.7,2,37.7,2L37.7,2L37.7,2z M37.3,2C37.3,2,37.2,2,37.3,2C37.2,2,37.2,2,37.3,2C37.2,2,37.2,2,37.3,2
		C37.2,2,37.2,2,37.3,2z M35.4,2.1C35.4,2,35.4,2,35.4,2.1C35.4,2,35.3,2,35.4,2.1C35.3,2,35.4,2,35.4,2.1L35.4,2.1z M38.5,1.9
		L38.5,1.9C38.5,2,38.5,2,38.5,1.9C38.5,2,38.5,1.9,38.5,1.9L38.5,1.9z M16.2,13.2L16.2,13.2C16.2,13.1,16.2,13.2,16.2,13.2
		L16.2,13.2L16.2,13.2z M6.6,1.9C6.6,1.9,6.6,2,6.6,1.9C6.7,2,6.7,2,6.6,1.9C6.7,1.9,6.7,1.9,6.6,1.9L6.6,1.9z M6.2,1.9L6.2,1.9
		C6.2,2,6.2,2,6.2,1.9C6.2,2,6.2,1.9,6.2,1.9L6.2,1.9z M6.8,1.8L6.8,1.8C6.8,1.9,6.8,1.9,6.8,1.8C6.8,1.9,6.9,1.8,6.8,1.8
		C6.9,1.8,6.8,1.8,6.8,1.8z M23.9,1.7C23.9,1.8,23.9,1.8,23.9,1.7C24,1.8,24,1.8,23.9,1.7C24,1.7,24,1.7,23.9,1.7
		C24,1.7,23.9,1.7,23.9,1.7z M22.9,1.5C22.8,1.5,22.8,1.6,22.9,1.5C22.8,1.6,22.8,1.6,22.9,1.5C22.9,1.6,22.9,1.6,22.9,1.5L22.9,1.5
		z M26.3,35.2L26.3,35.2L26.3,35.2L26.3,35.2L26.3,35.2z M19.9,1.6L19.9,1.6C19.9,1.6,19.9,1.5,19.9,1.6C19.9,1.5,19.9,1.5,19.9,1.6
		L19.9,1.6z M4.9,1.6L4.9,1.6C4.9,1.6,4.9,1.5,4.9,1.6C4.9,1.5,4.9,1.5,4.9,1.6L4.9,1.6z M34.8,35.3L34.8,35.3L34.8,35.3L34.8,35.3
		L34.8,35.3z M2.7,15.9L2.7,15.9C2.7,15.8,2.6,15.9,2.7,15.9C2.6,15.9,2.7,15.9,2.7,15.9L2.7,15.9z M14.5,13.1
		C14.5,13.1,14.5,13.2,14.5,13.1C14.5,13.2,14.5,13.2,14.5,13.1C14.5,13.2,14.6,13.2,14.5,13.1C14.5,13.2,14.5,13.1,14.5,13.1z
		 M6.4,35.5L6.4,35.5C6.5,35.5,6.5,35.5,6.4,35.5C6.5,35.5,6.5,35.5,6.4,35.5C6.5,35.5,6.4,35.5,6.4,35.5z M29.9,1.5L29.9,1.5
		C29.9,1.4,29.9,1.4,29.9,1.5L29.9,1.5L29.9,1.5z M24.9,15.7C24.9,15.8,24.9,15.8,24.9,15.7C24.9,15.8,24.9,15.8,24.9,15.7
		C24.9,15.8,24.9,15.8,24.9,15.7C24.9,15.8,24.9,15.7,24.9,15.7z M6.3,1.4L6.3,1.4C6.3,1.5,6.3,1.5,6.3,1.4C6.3,1.5,6.3,1.5,6.3,1.4
		C6.3,1.5,6.3,1.4,6.3,1.4z M4.6,1.4C4.6,1.4,4.6,1.5,4.6,1.4C4.6,1.5,4.6,1.5,4.6,1.4C4.6,1.5,4.6,1.5,4.6,1.4
		C4.6,1.5,4.6,1.4,4.6,1.4z M9.7,13.2L9.7,13.2L9.7,13.2L9.7,13.2C9.7,13.1,9.7,13.2,9.7,13.2z M11.3,35.6
		C11.3,35.6,11.3,35.7,11.3,35.6C11.3,35.7,11.3,35.7,11.3,35.6C11.3,35.7,11.3,35.7,11.3,35.6C11.3,35.7,11.3,35.6,11.3,35.6z
		 M6.1,35.7L6.1,35.7C6.1,35.7,6.1,35.8,6.1,35.7C6.1,35.8,6.1,35.8,6.1,35.7L6.1,35.7z M9.4,13.2L9.4,13.2
		C9.3,13.1,9.3,13.2,9.4,13.2C9.3,13.2,9.3,13.2,9.4,13.2L9.4,13.2z M15.4,1.2C15.4,1.2,15.4,1.3,15.4,1.2
		C15.4,1.3,15.4,1.3,15.4,1.2C15.5,1.3,15.5,1.3,15.4,1.2C15.5,1.3,15.5,1.2,15.4,1.2z M18.4,13C18.4,13,18.4,13.1,18.4,13
		C18.4,13.1,18.4,13.1,18.4,13C18.4,13.1,18.4,13.1,18.4,13C18.4,13.1,18.4,13.1,18.4,13z M15.3,1.2L15.3,1.2
		C15.2,1.3,15.2,1.3,15.3,1.2C15.3,1.3,15.3,1.3,15.3,1.2C15.3,1.3,15.3,1.2,15.3,1.2z M21.7,1.1C21.7,1.2,21.7,1.2,21.7,1.1
		C21.7,1.2,21.7,1.2,21.7,1.1C21.8,1.2,21.8,1.2,21.7,1.1C21.8,1.2,21.8,1.2,21.7,1.1z M15.4,1.2L15.4,1.2
		C15.4,1.2,15.3,1.2,15.4,1.2C15.3,1.2,15.4,1.2,15.4,1.2z M14.9,36C14.9,36,14.9,36.1,14.9,36C14.9,36.1,14.9,36.1,14.9,36L14.9,36
		L14.9,36z M4.7,1.1C4.7,1.1,4.7,1.2,4.7,1.1C4.7,1.2,4.7,1.2,4.7,1.1C4.7,1.2,4.7,1.2,4.7,1.1C4.7,1.2,4.7,1.2,4.7,1.1z M39,36.1
		L39,36.1C38.9,36.1,39,36.2,39,36.1 M15.5,36.3C15.6,36.3,15.6,36.2,15.5,36.3C15.6,36.2,15.6,36.2,15.5,36.3
		C15.5,36.2,15.5,36.2,15.5,36.3C15.5,36.2,15.5,36.2,15.5,36.3z M4.9,1L4.9,1L4.9,1L4.9,1L4.9,1z M15,36.3L15,36.3L15,36.3
		C15,36.3,15,36.3,15,36.3L15,36.3z M6.1,36.4L6.1,36.4L6.1,36.4L6.1,36.4L6.1,36.4z M35.3,0.9C35.3,0.9,35.2,0.9,35.3,0.9
		C35.2,0.9,35.2,0.9,35.3,0.9L35.3,0.9L35.3,0.9z M20.4,36.5C20.4,36.4,20.4,36.4,20.4,36.5C20.4,36.4,20.4,36.4,20.4,36.5
		C20.3,36.4,20.3,36.4,20.4,36.5C20.3,36.4,20.3,36.4,20.4,36.5z M14.1,36.5L14.1,36.5C14,36.5,14,36.5,14.1,36.5
		C14,36.5,14.1,36.5,14.1,36.5L14.1,36.5z M5.1,0.8L5.1,0.8C5,0.8,5.1,0.8,5.1,0.8L5.1,0.8L5.1,0.8z M22.5,13L22.5,13L22.5,13
		L22.5,13L22.5,13z M3.8,13L3.8,13L3.8,13L3.8,13L3.8,13z M15.2,12.9L15.2,12.9C15.3,12.9,15.3,12.9,15.2,12.9
		C15.3,12.9,15.3,12.9,15.2,12.9C15.3,12.9,15.2,12.9,15.2,12.9z M5.5,36.7C5.5,36.7,5.6,36.7,5.5,36.7C5.6,36.7,5.5,36.7,5.5,36.7
		L5.5,36.7L5.5,36.7z M7,36.7L7,36.7L7,36.7C7.1,36.7,7,36.7,7,36.7L7,36.7z M14.3,36.7L14.3,36.7C14.3,36.7,14.4,36.7,14.3,36.7
		C14.4,36.7,14.3,36.7,14.3,36.7L14.3,36.7z M15.1,36.7L15.1,36.7L15.1,36.7C15,36.7,15.1,36.7,15.1,36.7L15.1,36.7z M13.7,12.9
		L13.7,12.9L13.7,12.9L13.7,12.9L13.7,12.9z M3.8,0.8L3.8,0.8L3.8,0.8L3.8,0.8L3.8,0.8z M15.5,12.8L15.5,12.8
		C15.4,12.8,15.4,12.8,15.5,12.8C15.4,12.8,15.4,12.8,15.5,12.8L15.5,12.8z M20.8,36.9C20.8,36.9,20.8,37,20.8,36.9
		C20.8,37,20.8,37,20.8,36.9C20.8,37,20.8,37,20.8,36.9L20.8,36.9z M2.8,37C2.7,37,2.7,37,2.8,37C2.7,37.1,2.7,37.1,2.8,37
		C2.8,37.1,2.8,37.1,2.8,37C2.8,37.1,2.8,37,2.8,37z M19.4,37.1C19.4,37.1,19.5,37.1,19.4,37.1C19.5,37.1,19.4,37,19.4,37.1
		C19.4,37,19.4,37,19.4,37.1L19.4,37.1z M19.8,37.1L19.8,37.1L19.8,37.1C19.8,37,19.8,37,19.8,37.1C19.8,37,19.8,37,19.8,37.1z
		 M11.4,0.7C11.4,0.7,11.3,0.7,11.4,0.7C11.3,0.7,11.4,0.8,11.4,0.7L11.4,0.7L11.4,0.7z M6.6,37.2C6.6,37.3,6.6,37.3,6.6,37.2
		C6.7,37.3,6.7,37.3,6.6,37.2C6.7,37.2,6.7,37.2,6.6,37.2L6.6,37.2z M24.9,0.6L24.9,0.6C24.9,0.6,24.9,0.7,24.9,0.6
		C24.9,0.7,24.9,0.6,24.9,0.6L24.9,0.6z M23,37.2L23,37.2C23,37.3,23,37.3,23,37.2C23.1,37.3,23.1,37.3,23,37.2
		C23.1,37.2,23.1,37.2,23,37.2z M5.8,37.3C5.8,37.3,5.8,37.4,5.8,37.3C5.8,37.4,5.9,37.3,5.8,37.3L5.8,37.3L5.8,37.3z M19.9,37.3
		C19.9,37.3,19.9,37.4,19.9,37.3C19.9,37.4,19.9,37.3,19.9,37.3L19.9,37.3L19.9,37.3z M20.7,37.3C20.7,37.3,20.7,37.4,20.7,37.3
		C20.8,37.4,20.8,37.3,20.7,37.3C20.8,37.3,20.7,37.3,20.7,37.3L20.7,37.3z M5.4,0.4C5.4,0.5,5.4,0.5,5.4,0.4
		C5.5,0.5,5.5,0.5,5.4,0.4C5.5,0.4,5.5,0.4,5.4,0.4L5.4,0.4z M15.9,15.4C15.8,15.4,15.8,15.4,15.9,15.4
		C15.8,15.4,15.8,15.4,15.9,15.4C15.8,15.4,15.8,15.4,15.9,15.4C15.8,15.4,15.9,15.4,15.9,15.4z M17.2,37.5
		C17.2,37.5,17.1,37.5,17.2,37.5C17.1,37.5,17.1,37.5,17.2,37.5C17.1,37.5,17.1,37.5,17.2,37.5C17.1,37.5,17.1,37.5,17.2,37.5z
		 M17.8,37.6L17.8,37.6C17.7,37.6,17.7,37.6,17.8,37.6C17.7,37.6,17.8,37.6,17.8,37.6L17.8,37.6z M19.7,37.6
		C19.7,37.6,19.6,37.6,19.7,37.6C19.6,37.6,19.6,37.6,19.7,37.6C19.6,37.6,19.6,37.6,19.7,37.6C19.6,37.6,19.6,37.6,19.7,37.6z
		 M23.1,37.6L23.1,37.6C23.1,37.7,23.2,37.6,23.1,37.6C23.2,37.6,23.1,37.6,23.1,37.6L23.1,37.6z M5.6,12.7L5.6,12.7
		C5.6,12.7,5.7,12.7,5.6,12.7C5.7,12.7,5.7,12.7,5.6,12.7L5.6,12.7z M20.6,0.1L20.6,0.1C20.6,0.2,20.6,0.2,20.6,0.1
		C20.7,0.2,20.7,0.2,20.6,0.1C20.7,0.2,20.6,0.1,20.6,0.1z M16.2,37.8L16.2,37.8L16.2,37.8L16.2,37.8L16.2,37.8z M22.4,37.8
		C22.5,37.8,22.5,37.8,22.4,37.8C22.5,37.8,22.5,37.8,22.4,37.8C22.5,37.8,22.5,37.8,22.4,37.8C22.5,37.8,22.5,37.8,22.4,37.8z
		 M24.5,37.8C24.5,37.8,24.6,37.8,24.5,37.8C24.6,37.8,24.5,37.8,24.5,37.8L24.5,37.8L24.5,37.8z M11.2,0.2L11.2,0.2
		C11.2,0.1,11.2,0.1,11.2,0.2L11.2,0.2L11.2,0.2z M35.9,18C35.9,18,35.8,18,35.9,18C35.8,18,35.8,18,35.9,18
		C35.8,18,35.8,18,35.9,18L35.9,18z M11.7,37.8C11.7,37.9,11.7,37.9,11.7,37.8C11.7,37.9,11.7,37.9,11.7,37.8
		C11.8,37.9,11.8,37.9,11.7,37.8C11.8,37.9,11.8,37.9,11.7,37.8z M9.1,0.1L9.1,0.1C9.1,0.2,9.1,0.2,9.1,0.1C9.2,0.2,9.2,0.2,9.1,0.1
		C9.2,0.2,9.2,0.1,9.1,0.1z M24.3,37.9L24.3,37.9C24.3,37.9,24.4,37.9,24.3,37.9C24.4,37.9,24.4,37.9,24.3,37.9L24.3,37.9z M4.4,38
		C4.4,38,4.5,38,4.4,38C4.5,38,4.4,38,4.4,38L4.4,38L4.4,38z M20.1,0.1C20.1,0.1,20.1,0,20.1,0.1C20.1,0,20,0.1,20.1,0.1L20.1,0.1
		L20.1,0.1z M22.7,38.1C22.7,38.1,22.6,38.1,22.7,38.1C22.6,38.1,22.6,38.1,22.7,38.1L22.7,38.1C22.7,38.1,22.7,38,22.7,38.1z
		 M14.2,12.6L14.2,12.6C14.3,12.6,14.3,12.6,14.2,12.6C14.3,12.6,14.3,12.6,14.2,12.6L14.2,12.6z M14.4,38.2
		C14.4,38.2,14.4,38.1,14.4,38.2C14.3,38.1,14.3,38.2,14.4,38.2C14.3,38.2,14.3,38.2,14.4,38.2C14.3,38.2,14.4,38.2,14.4,38.2z
		 M3.1,38.2C3.1,38.2,3.1,38.3,3.1,38.2C3.1,38.3,3.1,38.3,3.1,38.2C3.1,38.3,3.2,38.3,3.1,38.2C3.2,38.2,3.1,38.2,3.1,38.2z
		 M15.1,38.3C15.1,38.3,15.2,38.3,15.1,38.3C15.2,38.3,15.2,38.3,15.1,38.3C15.2,38.3,15.2,38.2,15.1,38.3
		C15.2,38.2,15.1,38.2,15.1,38.3z M10,15.3L10,15.3L10,15.3L10,15.3L10,15.3z M21.4,38.3C21.4,38.3,21.4,38.2,21.4,38.3
		C21.4,38.2,21.3,38.3,21.4,38.3C21.3,38.3,21.4,38.3,21.4,38.3L21.4,38.3z M30.6,38.2C30.6,38.2,30.5,38.2,30.6,38.2
		C30.5,38.3,30.5,38.3,30.6,38.2C30.6,38.3,30.6,38.3,30.6,38.2L30.6,38.2z M31.6,12.5L31.6,12.5C31.5,12.5,31.5,12.5,31.6,12.5
		C31.5,12.5,31.6,12.5,31.6,12.5L31.6,12.5z M15.1,38.4L15.1,38.4C15,38.5,15.1,38.5,15.1,38.4C15.1,38.5,15.1,38.5,15.1,38.4
		L15.1,38.4z M21.1,38.5C21.2,38.5,21.2,38.5,21.1,38.5C21.2,38.5,21.2,38.5,21.1,38.5C21.2,38.4,21.2,38.4,21.1,38.5
		C21.2,38.4,21.2,38.4,21.1,38.5z M33.2,38.5L33.2,38.5C33.2,38.5,33.3,38.5,33.2,38.5C33.3,38.4,33.3,38.4,33.2,38.5
		C33.2,38.4,33.2,38.4,33.2,38.5z M21.1,38.5L21.1,38.5C21.1,38.5,21.1,38.6,21.1,38.5C21.1,38.6,21.1,38.6,21.1,38.5L21.1,38.5z
		 M13.9,22C13.9,22,13.8,22,13.9,22C13.8,22,13.9,22,13.9,22L13.9,22L13.9,22z M12.3,16.5L12.3,16.5L12.3,16.5L12.3,16.5L12.3,16.5z
		 M15.6,12.4C15.6,12.4,15.5,12.4,15.6,12.4C15.5,12.4,15.5,12.4,15.6,12.4C15.5,12.4,15.5,12.5,15.6,12.4
		C15.6,12.5,15.6,12.4,15.6,12.4z M14.3,12.4C14.2,12.4,14.2,12.4,14.3,12.4C14.2,12.4,14.2,12.5,14.3,12.4
		C14.3,12.5,14.3,12.4,14.3,12.4L14.3,12.4z M19.9,38.9C19.9,38.9,19.9,38.9,19.9,38.9C19.9,38.9,19.9,38.9,19.9,38.9
		C19.9,38.9,19.9,38.9,19.9,38.9C19.9,38.9,19.9,38.9,19.9,38.9z M8.3,12.4L8.3,12.4C8.3,12.4,8.3,12.5,8.3,12.4
		C8.3,12.5,8.3,12.5,8.3,12.4L8.3,12.4z M36.5,39C36.5,39,36.6,39,36.5,39C36.6,39,36.6,39,36.5,39C36.6,39,36.6,39,36.5,39
		C36.6,39,36.5,39,36.5,39z M38.4,39L38.4,39L38.4,39C38.4,39,38.4,39,38.4,39C38.4,39,38.4,39,38.4,39z M20.4,39.1
		C20.3,39.1,20.3,39.1,20.4,39.1C20.3,39.1,20.3,39.1,20.4,39.1L20.4,39.1L20.4,39.1z M2.7,22C2.7,22.1,2.6,22.1,2.7,22
		C2.6,22.1,2.7,22.1,2.7,22C2.7,22.1,2.7,22.1,2.7,22C2.7,22.1,2.7,22.1,2.7,22z M32.2,22.1L32.2,22.1L32.2,22.1L32.2,22.1
		L32.2,22.1z M36.8,39.1L36.8,39.1C36.9,39.1,36.9,39.1,36.8,39.1C36.9,39.1,36.9,39.1,36.8,39.1L36.8,39.1z M3.1,39.2L3.1,39.2
		C3.1,39.2,3.2,39.2,3.1,39.2C3.2,39.2,3.2,39.2,3.1,39.2L3.1,39.2z M12.5,39.4C12.5,39.4,12.6,39.4,12.5,39.4
		C12.6,39.4,12.6,39.4,12.5,39.4C12.6,39.4,12.6,39.4,12.5,39.4L12.5,39.4z M15.1,39.4L15.1,39.4C15.2,39.4,15.2,39.4,15.1,39.4
		C15.2,39.4,15.2,39.4,15.1,39.4C15.2,39.4,15.1,39.4,15.1,39.4z M13.1,39.5L13.1,39.5C13.1,39.5,13.2,39.5,13.1,39.5
		C13.2,39.5,13.2,39.5,13.1,39.5L13.1,39.5z M12.3,12.3L12.3,12.3L12.3,12.3C12.3,12.4,12.3,12.4,12.3,12.3
		C12.3,12.4,12.3,12.4,12.3,12.3z M9.8,12.3C9.8,12.4,9.8,12.4,9.8,12.3C9.8,12.4,9.8,12.4,9.8,12.3L9.8,12.3L9.8,12.3z M12.7,39.6
		C12.7,39.6,12.7,39.5,12.7,39.6C12.6,39.5,12.6,39.6,12.7,39.6C12.6,39.6,12.7,39.6,12.7,39.6L12.7,39.6z M14.7,12.2L14.7,12.2
		C14.7,12.3,14.7,12.3,14.7,12.2C14.7,12.3,14.7,12.3,14.7,12.2L14.7,12.2z M3.7,39.6L3.7,39.6C3.7,39.7,3.7,39.7,3.7,39.6
		C3.7,39.7,3.7,39.7,3.7,39.6C3.7,39.7,3.7,39.6,3.7,39.6z M37.2,39.6C37.2,39.6,37.2,39.7,37.2,39.6C37.2,39.7,37.2,39.7,37.2,39.6
		C37.2,39.7,37.2,39.7,37.2,39.6L37.2,39.6z M14.2,12.2L14.2,12.2C14.2,12.3,14.2,12.3,14.2,12.2C14.3,12.3,14.3,12.3,14.2,12.2
		C14.3,12.2,14.3,12.2,14.2,12.2z M3.3,39.8L3.3,39.8C3.3,39.7,3.3,39.7,3.3,39.8C3.3,39.7,3.3,39.7,3.3,39.8L3.3,39.8z M17.1,39.8
		C17.1,39.7,17,39.7,17.1,39.8C17,39.7,17,39.7,17.1,39.8C17,39.8,17,39.8,17.1,39.8C17,39.8,17.1,39.8,17.1,39.8z M20.2,39.8
		C20.2,39.7,20.2,39.7,20.2,39.8C20.1,39.7,20.1,39.7,20.2,39.8C20.1,39.8,20.2,39.8,20.2,39.8L20.2,39.8z M34,39.8
		C34,39.7,34,39.7,34,39.8C34,39.7,33.9,39.7,34,39.8C33.9,39.8,34,39.8,34,39.8L34,39.8z M35.9,39.8C35.9,39.7,35.8,39.7,35.9,39.8
		C35.8,39.7,35.8,39.7,35.9,39.8C35.8,39.8,35.8,39.8,35.9,39.8L35.9,39.8z M23.9,39.8C23.9,39.9,24,39.9,23.9,39.8
		C24,39.9,24,39.9,23.9,39.8C24,39.8,24,39.8,23.9,39.8L23.9,39.8z M8.8,12.2L8.8,12.2C8.8,12.3,8.8,12.3,8.8,12.2
		C8.8,12.3,8.8,12.3,8.8,12.2L8.8,12.2z M35.2,40.1C35.2,40.1,35.2,40.2,35.2,40.1C35.2,40.2,35.2,40.1,35.2,40.1L35.2,40.1
		C35.2,40.1,35.1,40.1,35.2,40.1z M26.9,22.6L26.9,22.6C26.9,22.6,27,22.6,26.9,22.6C27,22.5,27,22.5,26.9,22.6
		C26.9,22.5,26.9,22.5,26.9,22.6z M9.7,22.7L9.7,22.7C9.7,22.8,9.7,22.8,9.7,22.7C9.7,22.8,9.7,22.8,9.7,22.7L9.7,22.7z M13.9,22.7
		L13.9,22.7C13.8,22.7,13.8,22.7,13.9,22.7C13.8,22.8,13.9,22.8,13.9,22.7C13.9,22.8,13.9,22.8,13.9,22.7z M15.9,12
		C15.9,12,15.8,11.9,15.9,12C15.8,11.9,15.8,12,15.9,12C15.8,12,15.8,12,15.9,12C15.8,12,15.8,12,15.9,12z M9.3,12
		C9.3,12,9.2,11.9,9.3,12C9.2,11.9,9.2,12,9.3,12C9.2,12,9.2,12,9.3,12L9.3,12z M4.7,11.9L4.7,11.9C4.7,12,4.7,12,4.7,11.9
		C4.7,12,4.7,12,4.7,11.9C4.7,12,4.7,11.9,4.7,11.9z M18,11.9L18,11.9C18,11.9,18,11.8,18,11.9C17.9,11.8,17.9,11.8,18,11.9
		C17.9,11.9,17.9,11.9,18,11.9z M7.2,11.9C7.2,11.9,7.1,11.9,7.2,11.9C7.1,11.8,7.1,11.9,7.2,11.9C7.1,11.9,7.1,11.9,7.2,11.9
		C7.1,11.9,7.1,11.9,7.2,11.9z M10,23L10,23L10,23C10,23.1,10,23,10,23L10,23z M23.4,11.7C23.3,11.7,23.3,11.7,23.4,11.7
		C23.3,11.8,23.3,11.8,23.4,11.7C23.3,11.8,23.4,11.8,23.4,11.7C23.4,11.8,23.4,11.7,23.4,11.7z M13.1,11.8
		C13.1,11.8,13,11.8,13.1,11.8C13,11.8,13,11.8,13.1,11.8C13,11.8,13,11.8,13.1,11.8L13.1,11.8z M25.1,23.1
		C25.2,23.1,25.2,23.1,25.1,23.1C25.2,23.2,25.2,23.1,25.1,23.1C25.2,23.1,25.2,23.1,25.1,23.1C25.2,23.1,25.1,23.1,25.1,23.1z
		 M33.9,23.1C33.9,23.1,34,23.1,33.9,23.1C34,23.1,34,23.1,33.9,23.1C34,23.1,34,23.1,33.9,23.1C34,23.1,33.9,23.1,33.9,23.1z
		 M6.9,15.1C6.9,15.1,6.9,15.2,6.9,15.1C6.9,15.2,7,15.2,6.9,15.1C7,15.1,6.9,15.1,6.9,15.1L6.9,15.1z M9.8,11.7L9.8,11.7L9.8,11.7
		L9.8,11.7L9.8,11.7z M13.2,23.2C13.2,23.2,13.1,23.2,13.2,23.2C13.1,23.2,13.1,23.2,13.2,23.2C13.1,23.2,13.2,23.2,13.2,23.2
		L13.2,23.2z M30,23.3C30,23.2,30,23.2,30,23.3C30,23.2,30,23.2,30,23.3C30,23.2,30,23.2,30,23.3C30,23.2,30,23.2,30,23.3z
		 M25.3,23.3C25.3,23.3,25.2,23.3,25.3,23.3C25.2,23.3,25.3,23.3,25.3,23.3L25.3,23.3L25.3,23.3z M31.5,11.5
		C31.5,11.5,31.6,11.5,31.5,11.5C31.6,11.5,31.6,11.5,31.5,11.5C31.6,11.5,31.6,11.5,31.5,11.5C31.6,11.5,31.5,11.5,31.5,11.5z
		 M16.2,11.5L16.2,11.5L16.2,11.5L16.2,11.5L16.2,11.5z M5.4,11.5C5.3,11.5,5.3,11.5,5.4,11.5C5.3,11.5,5.3,11.5,5.4,11.5L5.4,11.5
		L5.4,11.5z M24.4,23.6L24.4,23.6C24.4,23.6,24.5,23.6,24.4,23.6C24.5,23.6,24.5,23.6,24.4,23.6L24.4,23.6z M33.7,11.4L33.7,11.4
		L33.7,11.4L33.7,11.4L33.7,11.4z M2.3,23.7L2.3,23.7L2.3,23.7C2.3,23.7,2.3,23.6,2.3,23.7C2.3,23.6,2.3,23.7,2.3,23.7z M12.7,15
		C12.7,15,12.7,15.1,12.7,15C12.8,15.1,12.8,15,12.7,15C12.8,15,12.8,15,12.7,15C12.8,15,12.7,15,12.7,15z M2.6,11.3
		C2.6,11.3,2.6,11.3,2.6,11.3C2.6,11.3,2.6,11.3,2.6,11.3L2.6,11.3L2.6,11.3z M26.1,11L26.1,11C26.1,11,26.1,11.1,26.1,11
		C26.1,11.1,26.1,11,26.1,11L26.1,11z M10.7,10.9L10.7,10.9C10.6,10.9,10.6,10.9,10.7,10.9C10.6,11,10.6,11,10.7,10.9
		C10.6,11,10.7,11,10.7,10.9z M9.3,24.1L9.3,24.1C9.3,24.1,9.4,24.1,9.3,24.1C9.4,24,9.4,24,9.3,24.1C9.3,24,9.3,24,9.3,24.1z
		 M19.9,24C19.9,24.1,19.9,24.1,19.9,24C19.9,24.1,19.9,24.1,19.9,24L19.9,24L19.9,24z M11.7,10.9C11.7,10.8,11.7,10.8,11.7,10.9
		C11.6,10.8,11.6,10.8,11.7,10.9C11.6,10.9,11.6,10.9,11.7,10.9L11.7,10.9z M9.3,24.1C9.3,24.1,9.2,24.1,9.3,24.1
		C9.2,24.1,9.2,24.2,9.3,24.1C9.3,24.2,9.3,24.1,9.3,24.1L9.3,24.1z M14.9,10.8C14.9,10.8,14.9,10.7,14.9,10.8
		C14.9,10.7,14.9,10.8,14.9,10.8L14.9,10.8L14.9,10.8z M27,24.2L27,24.2C27,24.2,27,24.3,27,24.2C27,24.3,27.1,24.3,27,24.2
		C27.1,24.2,27,24.2,27,24.2z M36.7,24.2C36.7,24.2,36.7,24.3,36.7,24.2C36.8,24.3,36.8,24.2,36.7,24.2
		C36.8,24.2,36.8,24.2,36.7,24.2C36.8,24.2,36.7,24.2,36.7,24.2z M16.9,10.6C16.8,10.6,16.8,10.7,16.9,10.6
		C16.8,10.7,16.8,10.7,16.9,10.6C16.8,10.7,16.9,10.7,16.9,10.6C16.9,10.7,16.9,10.6,16.9,10.6z M20,24.4C20,24.3,20,24.3,20,24.4
		C20,24.3,20,24.3,20,24.4C20,24.3,20,24.3,20,24.4C20,24.3,20,24.4,20,24.4z M29.6,10.1L29.6,10.1C29.5,10.1,29.5,10.1,29.6,10.1
		C29.5,10.1,29.5,10.1,29.6,10.1C29.5,10.1,29.6,10.1,29.6,10.1z M3.2,24.4L3.2,24.4C3.2,24.5,3.3,24.4,3.2,24.4L3.2,24.4L3.2,24.4z
		 M26.9,24.5C26.9,24.4,27,24.4,26.9,24.5C27,24.4,26.9,24.4,26.9,24.5C26.9,24.4,26.9,24.4,26.9,24.5
		C26.9,24.4,26.9,24.5,26.9,24.5z M19.3,10.2C19.4,10.1,19.4,10.1,19.3,10.2C19.4,10.1,19.4,10.1,19.3,10.2
		C19.3,10.1,19.3,10.1,19.3,10.2C19.3,10.1,19.3,10.1,19.3,10.2z M8.8,10.1L8.8,10.1C8.8,10.1,8.8,10.1,8.8,10.1L8.8,10.1L8.8,10.1z
		 M27.5,10L27.5,10L27.5,10C27.5,10.1,27.5,10,27.5,10L27.5,10z M3.2,24.6L3.2,24.6L3.2,24.6C3.3,24.6,3.2,24.6,3.2,24.6L3.2,24.6z
		 M3.6,24.6C3.7,24.6,3.7,24.6,3.6,24.6C3.7,24.6,3.7,24.6,3.6,24.6C3.7,24.6,3.7,24.6,3.6,24.6C3.7,24.6,3.7,24.6,3.6,24.6z
		 M10,24.6L10,24.6L10,24.6L10,24.6L10,24.6z M11.1,24.6L11.1,24.6L11.1,24.6L11.1,24.6L11.1,24.6z M19.9,24.6L19.9,24.6L19.9,24.6
		L19.9,24.6L19.9,24.6z M9.6,17.3L9.6,17.3L9.6,17.3C9.7,17.3,9.6,17.2,9.6,17.3C9.6,17.2,9.6,17.3,9.6,17.3z M2.9,9.9
		C2.9,9.9,2.9,10,2.9,9.9C2.9,9.9,3,9.9,2.9,9.9C3,9.9,3,9.9,2.9,9.9L2.9,9.9z M10.7,24.7C10.7,24.7,10.8,24.7,10.7,24.7
		C10.8,24.7,10.7,24.7,10.7,24.7L10.7,24.7L10.7,24.7z M22.5,24.7L22.5,24.7L22.5,24.7L22.5,24.7L22.5,24.7z M11.4,9.9
		C11.4,9.9,11.4,9.8,11.4,9.9C11.4,9.8,11.4,9.8,11.4,9.9C11.4,9.8,11.3,9.8,11.4,9.9L11.4,9.9z M7.3,24.8
		C7.2,24.8,7.2,24.8,7.3,24.8C7.2,24.8,7.2,24.8,7.3,24.8C7.2,24.8,7.2,24.8,7.3,24.8C7.2,24.8,7.2,24.8,7.3,24.8z M7.5,24.8
		L7.5,24.8L7.5,24.8L7.5,24.8L7.5,24.8z M18.3,24.8L18.3,24.8C18.2,24.8,18.2,24.8,18.3,24.8C18.2,24.8,18.2,24.8,18.3,24.8
		C18.2,24.8,18.3,24.8,18.3,24.8z M22.6,24.7C22.6,24.8,22.5,24.8,22.6,24.7C22.6,24.8,22.6,24.8,22.6,24.7
		C22.6,24.8,22.6,24.8,22.6,24.7C22.6,24.8,22.6,24.8,22.6,24.7z M7.3,24.8C7.3,24.8,7.3,24.9,7.3,24.8C7.3,24.9,7.3,24.9,7.3,24.8
		C7.3,24.9,7.3,24.9,7.3,24.8C7.3,24.9,7.3,24.9,7.3,24.8z M24.8,9.7L24.8,9.7C24.8,9.7,24.8,9.8,24.8,9.7
		C24.8,9.8,24.8,9.8,24.8,9.7L24.8,9.7z M26.6,9.6C26.6,9.6,26.5,9.6,26.6,9.6C26.5,9.7,26.6,9.7,26.6,9.6
		C26.6,9.7,26.6,9.7,26.6,9.6L26.6,9.6z M16.7,25C16.6,25,16.6,25.1,16.7,25C16.6,25.1,16.6,25.1,16.7,25
		C16.7,25.1,16.7,25.1,16.7,25L16.7,25z M15.7,9.6C15.7,9.5,15.7,9.5,15.7,9.6C15.6,9.5,15.6,9.5,15.7,9.6
		C15.6,9.6,15.6,9.6,15.7,9.6C15.6,9.6,15.7,9.6,15.7,9.6z M15.6,9.3C15.5,9.3,15.5,9.4,15.6,9.3C15.5,9.4,15.5,9.4,15.6,9.3
		C15.5,9.4,15.6,9.4,15.6,9.3C15.6,9.4,15.6,9.3,15.6,9.3z M4.8,14.8L4.8,14.8L4.8,14.8C4.8,14.7,4.8,14.7,4.8,14.8
		C4.8,14.7,4.8,14.7,4.8,14.8z M21.1,9.1C21.1,9.2,21.1,9.2,21.1,9.1C21.1,9.2,21.1,9.2,21.1,9.1C21.1,9.2,21.1,9.2,21.1,9.1
		C21.1,9.2,21.1,9.1,21.1,9.1z M7.6,25.8C7.6,25.8,7.6,25.9,7.6,25.8C7.6,25.8,7.6,25.8,7.6,25.8C7.6,25.8,7.6,25.8,7.6,25.8
		C7.6,25.8,7.6,25.8,7.6,25.8z M5.1,9.2L5.1,9.2C5.1,9.2,5.1,9.2,5.1,9.2C5.1,9.2,5.1,9.2,5.1,9.2L5.1,9.2z M7.6,25.9L7.6,25.9
		L7.6,25.9L7.6,25.9L7.6,25.9z M11.9,9C11.9,9.1,11.9,9.1,11.9,9C11.9,9.1,11.9,9.1,11.9,9C11.9,9.1,12,9.1,11.9,9
		C12,9.1,11.9,9.1,11.9,9z M34.3,26L34.3,26L34.3,26C34.2,26,34.2,26,34.3,26C34.2,26,34.2,26,34.3,26z M12.3,9L12.3,9L12.3,9
		L12.3,9L12.3,9z M10.9,8.8L10.9,8.8L10.9,8.8C11,8.8,10.9,8.8,10.9,8.8L10.9,8.8z M11.3,18.7L11.3,18.7
		C11.4,18.7,11.4,18.7,11.3,18.7C11.4,18.6,11.4,18.6,11.3,18.7C11.4,18.6,11.3,18.6,11.3,18.7z M27.2,18.7
		C27.1,18.6,27.1,18.6,27.2,18.7C27.1,18.6,27.1,18.6,27.2,18.7C27.1,18.7,27.1,18.7,27.2,18.7C27.1,18.7,27.2,18.7,27.2,18.7z
		 M12.7,8.5C12.7,8.5,12.6,8.5,12.7,8.5C12.6,8.5,12.7,8.5,12.7,8.5C12.7,8.7,12.7,8.5,12.7,8.5L12.7,8.5z M34.5,26.5
		C34.4,26.5,34.4,26.6,34.5,26.5C34.4,26.6,34.4,26.6,34.5,26.5C34.4,26.6,34.5,26.6,34.5,26.5C34.5,26.6,34.5,26.5,34.5,26.5z
		 M38.3,26.5C38.2,26.5,38.2,26.6,38.3,26.5C38.2,26.6,38.2,26.6,38.3,26.5C38.2,26.6,38.3,26.6,38.3,26.5
		C38.3,26.6,38.3,26.5,38.3,26.5z M12.5,8.5L12.5,8.5C12.5,8.4,12.5,8.4,12.5,8.5C12.5,8.4,12.5,8.4,12.5,8.5
		C12.5,8.4,12.5,8.5,12.5,8.5z M2.7,26.7L2.7,26.7C2.8,26.7,2.8,26.7,2.7,26.7C2.8,26.6,2.8,26.6,2.7,26.7
		C2.7,26.6,2.7,26.6,2.7,26.7z M2.7,26.7L2.7,26.7C2.6,26.7,2.6,26.8,2.7,26.7C2.7,26.8,2.7,26.8,2.7,26.7L2.7,26.7z M36,18.7
		L36,18.7C36,18.6,36,18.6,36,18.7C36,18.6,36,18.7,36,18.7L36,18.7z M14.9,26.8L14.9,26.8L14.9,26.8C14.9,26.8,14.9,26.9,14.9,26.8
		C14.9,26.9,14.9,26.9,14.9,26.8z M34,8.3C34,8.3,33.9,8.3,34,8.3C33.9,8.3,34,8.4,34,8.3C34,8.4,34,8.4,34,8.3L34,8.3z M8.4,26.9
		C8.3,26.9,8.3,26.9,8.4,26.9C8.3,26.9,8.3,26.9,8.4,26.9C8.3,26.9,8.3,27,8.4,26.9C8.3,27,8.4,26.9,8.4,26.9z M17.4,26.9
		C17.4,26.9,17.5,27,17.4,26.9C17.5,27,17.5,26.9,17.4,26.9C17.5,26.9,17.5,26.9,17.4,26.9C17.5,26.9,17.5,26.9,17.4,26.9z
		 M2.7,14.5C2.7,14.5,2.6,14.5,2.7,14.5C2.6,14.6,2.7,14.6,2.7,14.5C2.7,14.6,2.7,14.6,2.7,14.5C2.7,14.6,2.7,14.5,2.7,14.5z
		 M31.1,8.3C31.1,8.3,31.1,8.4,31.1,8.3C31.1,8.4,31.1,8.3,31.1,8.3L31.1,8.3L31.1,8.3z M33.9,8.3C33.9,8.3,33.9,8.2,33.9,8.3
		C33.9,8.2,33.9,8.2,33.9,8.3L33.9,8.3L33.9,8.3z M22.7,27.2L22.7,27.2L22.7,27.2z M12.4,8.1L12.4,8.1C12.4,8.2,12.4,8.2,12.4,8.1
		C12.4,8.2,12.4,8.2,12.4,8.1L12.4,8.1z M22.6,27.3L22.6,27.3L22.6,27.3L22.6,27.3L22.6,27.3z M7.5,8.1C7.5,8.1,7.6,8.1,7.5,8.1
		C7.6,8.1,7.6,8.1,7.5,8.1C7.6,8,7.6,8,7.5,8.1C7.6,8,7.6,8,7.5,8.1z M9.3,27.4C9.3,27.4,9.2,27.4,9.3,27.4
		C9.2,27.4,9.2,27.4,9.3,27.4C9.2,27.4,9.2,27.4,9.3,27.4L9.3,27.4z M14.1,27.4L14.1,27.4C14.2,27.4,14.2,27.4,14.1,27.4
		C14.2,27.4,14.2,27.4,14.1,27.4L14.1,27.4z M10,8C10,8,10,7.9,10,8C10,7.9,10,8,10,8L10,8L10,8z M8.9,27.5
		C8.9,27.5,9,27.5,8.9,27.5C9,27.5,9,27.5,8.9,27.5C9,27.5,9,27.5,8.9,27.5C9,27.5,8.9,27.5,8.9,27.5z M14.1,27.4
		C14.1,27.5,14.1,27.5,14.1,27.4C14,27.5,14,27.5,14.1,27.4C14.1,27.5,14.1,27.5,14.1,27.4C14.1,27.5,14.1,27.5,14.1,27.4z
		 M8.8,16.6L8.8,16.6C8.8,16.6,8.8,16.6,8.8,16.6L8.8,16.6L8.8,16.6z M25.5,27.6L25.5,27.6C25.6,27.6,25.6,27.6,25.5,27.6
		C25.6,27.6,25.6,27.6,25.5,27.6L25.5,27.6z M23.6,7.8C23.6,7.8,23.6,7.9,23.6,7.8C23.6,7.9,23.6,7.9,23.6,7.8
		C23.6,7.9,23.6,7.9,23.6,7.8C23.6,7.9,23.6,7.8,23.6,7.8z M32.1,7.7L32.1,7.7L32.1,7.7C32.1,7.7,32.2,7.7,32.1,7.7
		C32.2,7.7,32.1,7.7,32.1,7.7z M11.3,27.8C11.3,27.9,11.3,27.9,11.3,27.8C11.3,27.9,11.3,27.9,11.3,27.8
		C11.3,27.9,11.3,27.8,11.3,27.8L11.3,27.8z M24.8,19.1C24.7,19.1,24.7,19.1,24.8,19.1C24.7,19.1,24.7,19.1,24.8,19.1
		C24.7,19.1,24.7,19.1,24.8,19.1C24.7,19.1,24.8,19.1,24.8,19.1z M9.4,27.9L9.4,27.9C9.4,28,9.4,28,9.4,27.9C9.4,28,9.5,28,9.4,27.9
		C9.5,27.9,9.5,27.9,9.4,27.9z M36.4,14.3C36.5,14.3,36.5,14.3,36.4,14.3C36.5,14.3,36.5,14.3,36.4,14.3
		C36.5,14.3,36.5,14.3,36.4,14.3C36.5,14.3,36.4,14.3,36.4,14.3z M8.5,28L8.5,28C8.5,28.1,8.5,28.1,8.5,28C8.5,28.1,8.5,28.1,8.5,28
		L8.5,28z M18.3,7.5C18.3,7.4,18.3,7.4,18.3,7.5C18.4,7.4,18.3,7.4,18.3,7.5C18.3,7.4,18.3,7.4,18.3,7.5C18.3,7.4,18.3,7.4,18.3,7.5
		z M21.2,14.3L21.2,14.3L21.2,14.3L21.2,14.3L21.2,14.3z M7,7.1L7,7.1C7,7.1,7,7.2,7,7.1C7,7.2,7,7.2,7,7.1L7,7.1z M17.2,7
		C17.2,7,17.2,7.1,17.2,7C17.2,7.1,17.2,7,17.2,7L17.2,7L17.2,7z M6.7,28.2L6.7,28.2C6.6,28.2,6.6,28.2,6.7,28.2
		C6.6,28.2,6.6,28.3,6.7,28.2C6.7,28.3,6.7,28.2,6.7,28.2z M15.7,14.3C15.7,14.3,15.8,14.3,15.7,14.3C15.8,14.3,15.7,14.3,15.7,14.3
		L15.7,14.3L15.7,14.3z M6.2,28.4L6.2,28.4L6.2,28.4C6.2,28.5,6.2,28.4,6.2,28.4L6.2,28.4z M26.8,6.9C26.7,6.9,26.7,6.9,26.8,6.9
		C26.7,7,26.7,7,26.8,6.9C26.8,7,26.8,7,26.8,6.9L26.8,6.9z M7.6,28.6L7.6,28.6C7.6,28.6,7.6,28.6,7.6,28.6
		C7.6,28.6,7.6,28.6,7.6,28.6C7.6,28.6,7.6,28.6,7.6,28.6z M23.6,19.6L23.6,19.6L23.6,19.6L23.6,19.6L23.6,19.6z M2.8,28.7L2.8,28.7
		C2.9,28.7,2.9,28.7,2.8,28.7C2.9,28.7,2.9,28.7,2.8,28.7L2.8,28.7z M8.6,28.7L8.6,28.7L8.6,28.7L8.6,28.7L8.6,28.7z M13.2,28.7
		C13.2,28.7,13.3,28.7,13.2,28.7C13.3,28.7,13.2,28.7,13.2,28.7L13.2,28.7L13.2,28.7z M17.4,28.7L17.4,28.7L17.4,28.7L17.4,28.7
		L17.4,28.7z M2.8,28.7C2.8,28.8,2.8,28.8,2.8,28.7C2.7,28.8,2.7,28.8,2.8,28.7C2.8,28.8,2.8,28.8,2.8,28.7
		C2.8,28.8,2.8,28.8,2.8,28.7z M25.4,28.8L25.4,28.8L25.4,28.8C25.3,28.8,25.3,28.8,25.4,28.8C25.3,28.8,25.4,28.8,25.4,28.8z
		 M24.4,19.7C24.4,19.7,24.4,19.8,24.4,19.7C24.4,19.8,24.4,19.8,24.4,19.7C24.4,19.8,24.5,19.8,24.4,19.7
		C24.5,19.8,24.4,19.7,24.4,19.7z"/>
</g>
<g id="Object">
</g>
</svg>
