<?xml version="1.0" encoding="utf-8"?>
<!-- Generator: Adobe Illustrator 21.0.0, SVG Export Plug-In . SVG Version: 6.00 Build 0)  -->
<svg version="1.1" id="Layer_1" xmlns="http://www.w3.org/2000/svg" xmlns:xlink="http://www.w3.org/1999/xlink" x="0px" y="0px"
	 viewBox="0 0 186.2 512" style="enable-background:new 0 0 186.2 512;" xml:space="preserve">
<style type="text/css">
	.st0{fill:#77BE45;}
	.st1{fill:#333333;}
	.st2{fill:#FFFFFF;}
	.st3{fill:#7BB742;}
	.st4{fill:#D8762B;}
	.st5{fill:#54A846;}
	.st6{fill:#F0E2CD;}
	.st7{fill:#676767;}
	.st8{fill:#4E8F91;}
	.st9{fill:#F9DEC3;}
	.st10{fill:#786243;}
	.st11{fill:#9FC9EB;}
	.st12{opacity:0.1;}
	.st13{fill:#936138;}
	.st14{fill:#C89D67;}
	.st15{fill:#A69F92;}
	.st16{fill:#E9E5D9;}
	.st17{fill:#F16562;}
	.st18{fill:#3C4E57;}
	.st19{fill:#FCBF60;}
	.st20{fill:#FFD298;}
	.st21{fill:#C0BC62;}
	.st22{fill:#BD8864;}
	.st23{fill:#91C964;}
	.st24{fill:#EC2227;}
	.st25{fill:#3984C6;}
	.st26{fill:url(#SVGID_1_);}
	.st27{fill:url(#SVGID_2_);}
	.st28{fill:url(#SVGID_3_);}
	.st29{fill:url(#SVGID_4_);}
	.st30{fill:url(#SVGID_5_);}
	.st31{fill:url(#SVGID_6_);}
	.st32{fill:url(#SVGID_7_);}
	.st33{fill:url(#SVGID_8_);}
	.st34{fill:url(#SVGID_9_);}
	.st35{fill:url(#SVGID_10_);}
	.st36{fill:url(#SVGID_11_);}
	.st37{fill:url(#SVGID_12_);}
	.st38{fill:url(#SVGID_13_);}
	.st39{fill:url(#SVGID_14_);}
	.st40{fill:url(#SVGID_15_);}
	.st41{fill:url(#SVGID_16_);}
	.st42{fill:url(#SVGID_17_);}
	.st43{fill:url(#SVGID_18_);}
	.st44{fill:#941B1E;}
	.st45{fill:url(#SVGID_19_);}
	.st46{fill:url(#SVGID_20_);}
	.st47{fill:#484848;}
	.st48{fill:url(#SVGID_21_);}
	.st49{fill:url(#SVGID_22_);}
	.st50{fill:url(#SVGID_23_);}
	.st51{fill:url(#SVGID_24_);}
	.st52{fill:url(#SVGID_25_);}
	.st53{fill:url(#SVGID_26_);}
	.st54{fill:url(#SVGID_27_);}
	.st55{fill:#595A5A;}
	.st56{fill:url(#SVGID_28_);}
	.st57{fill:url(#SVGID_29_);}
	.st58{fill:#09252D;}
	.st59{fill:url(#SVGID_30_);}
	.st60{fill:url(#SVGID_31_);}
	.st61{fill:url(#SVGID_32_);}
	.st62{fill:url(#SVGID_33_);}
	.st63{fill:url(#SVGID_34_);}
	.st64{fill:url(#SVGID_35_);}
	.st65{fill:url(#SVGID_36_);}
	.st66{fill:url(#SVGID_37_);}
	.st67{fill:url(#SVGID_38_);}
	.st68{fill:url(#SVGID_39_);}
	.st69{fill:url(#SVGID_40_);}
	.st70{fill:url(#SVGID_41_);}
	.st71{fill:url(#SVGID_42_);}
	.st72{fill:url(#SVGID_43_);}
	.st73{fill:url(#SVGID_44_);}
	.st74{fill:url(#SVGID_45_);}
	.st75{fill:url(#SVGID_46_);}
	.st76{fill:url(#SVGID_47_);}
	.st77{fill:url(#SVGID_48_);}
	.st78{fill:url(#SVGID_49_);}
	.st79{fill:url(#SVGID_50_);}
	.st80{fill:url(#SVGID_51_);}
	.st81{fill:url(#SVGID_52_);}
	.st82{fill:url(#SVGID_53_);}
	.st83{fill:url(#SVGID_54_);}
	.st84{fill:#F15B2B;}
	.st85{fill:url(#SVGID_55_);}
	.st86{fill:url(#SVGID_56_);}
	.st87{fill:url(#SVGID_57_);}
	.st88{fill:url(#SVGID_58_);}
	.st89{fill:url(#SVGID_59_);}
	.st90{fill:url(#SVGID_60_);}
	.st91{fill:url(#SVGID_61_);}
	.st92{fill:url(#SVGID_62_);}
	.st93{fill:url(#SVGID_63_);}
	.st94{fill:url(#SVGID_64_);}
	.st95{fill:url(#SVGID_65_);}
	.st96{fill:#3C2517;}
	.st97{fill:#C87029;}
	.st98{fill:#FBB042;}
	.st99{fill:#674A3B;}
	.st100{fill:url(#SVGID_66_);}
	.st101{fill:url(#SVGID_67_);}
</style>
<g>
	
		<animateTransform  accumulate="none" additive="replace" attributeName="transform" calcMode="linear" dur="10s" fill="remove" repeatCount="indefinite" restart="always" type="translate" values="0 0 ; 0 512;">
		</animateTransform>
	<g>
		<rect x="0.3" y="-0.6" class="st0" width="186.7" height="512.6"/>
		<g>
			<g>
				<g>
					<g>
						<rect x="68.7" y="475" class="st1" width="47.9" height="37"/>
						<rect x="91.8" y="495.7" class="st2" width="1.8" height="16.3"/>
						<g>
							<rect x="70.2" y="475" class="st2" width="1.4" height="37"/>
							<rect x="113.8" y="475" class="st2" width="1.4" height="37"/>
						</g>
					</g>
					<g>
						<rect x="68.7" y="438.1" class="st1" width="47.9" height="37"/>
						<rect x="91.8" y="458.7" class="st2" width="1.8" height="16.3"/>
						<g>
							<rect x="70.2" y="438.1" class="st2" width="1.4" height="37"/>
							<rect x="113.8" y="438.1" class="st2" width="1.4" height="37"/>
						</g>
					</g>
					<g>
						<rect x="68.7" y="401.1" class="st1" width="47.9" height="37"/>
						<rect x="91.8" y="421.7" class="st2" width="1.8" height="16.3"/>
						<g>
							<rect x="70.2" y="401.1" class="st2" width="1.4" height="37"/>
							<rect x="113.8" y="401.1" class="st2" width="1.4" height="37"/>
						</g>
					</g>
					<g>
						<rect x="68.7" y="364.1" class="st1" width="47.9" height="37"/>
						<rect x="91.8" y="384.7" class="st2" width="1.8" height="16.3"/>
						<g>
							<rect x="70.2" y="364.1" class="st2" width="1.4" height="37"/>
							<rect x="113.8" y="364.1" class="st2" width="1.4" height="37"/>
						</g>
					</g>
					<g>
						<rect x="68.7" y="327.1" class="st1" width="47.9" height="37"/>
						<rect x="91.8" y="347.8" class="st2" width="1.8" height="16.3"/>
						<g>
							<rect x="70.2" y="327.1" class="st2" width="1.4" height="37"/>
							<rect x="113.8" y="327.1" class="st2" width="1.4" height="37"/>
						</g>
					</g>
					<g>
						<rect x="68.7" y="290.2" class="st1" width="47.9" height="37"/>
						<rect x="91.8" y="310.8" class="st2" width="1.8" height="16.3"/>
						<g>
							<rect x="70.2" y="290.2" class="st2" width="1.4" height="37"/>
							<rect x="113.8" y="290.2" class="st2" width="1.4" height="37"/>
						</g>
					</g>
					<g>
						<rect x="68.7" y="253.2" class="st1" width="47.9" height="37"/>
						<rect x="91.8" y="273.8" class="st2" width="1.8" height="16.3"/>
						<g>
							<rect x="70.2" y="253.2" class="st2" width="1.4" height="37"/>
							<rect x="113.8" y="253.2" class="st2" width="1.4" height="37"/>
						</g>
					</g>
					<g>
						<rect x="68.7" y="216.2" class="st1" width="47.9" height="37"/>
						<rect x="91.8" y="236.9" class="st2" width="1.8" height="16.3"/>
						<g>
							<rect x="70.2" y="216.2" class="st2" width="1.4" height="37"/>
							<rect x="113.8" y="216.2" class="st2" width="1.4" height="37"/>
						</g>
					</g>
					<g>
						<rect x="68.7" y="179.3" class="st1" width="47.9" height="37"/>
						<rect x="91.8" y="199.9" class="st2" width="1.8" height="16.3"/>
						<g>
							<rect x="70.2" y="179.3" class="st2" width="1.4" height="37"/>
							<rect x="113.8" y="179.3" class="st2" width="1.4" height="37"/>
						</g>
					</g>
					<g>
						<rect x="68.7" y="142.3" class="st1" width="47.9" height="37"/>
						<rect x="91.8" y="162.9" class="st2" width="1.8" height="16.3"/>
						<g>
							<rect x="70.2" y="142.3" class="st2" width="1.4" height="37"/>
							<rect x="113.8" y="142.3" class="st2" width="1.4" height="37"/>
						</g>
					</g>
					<g>
						<rect x="68.7" y="105.3" class="st1" width="47.9" height="37"/>
						<rect x="91.8" y="126" class="st2" width="1.8" height="16.3"/>
						<g>
							<rect x="70.2" y="105.3" class="st2" width="1.4" height="37"/>
							<rect x="113.8" y="105.3" class="st2" width="1.4" height="37"/>
						</g>
					</g>
					<g>
						<rect x="68.7" y="68.4" class="st1" width="47.9" height="37"/>
						<rect x="91.8" y="89" class="st2" width="1.8" height="16.3"/>
						<g>
							<rect x="70.2" y="68.4" class="st2" width="1.4" height="37"/>
							<rect x="113.8" y="68.4" class="st2" width="1.4" height="37"/>
						</g>
					</g>
					<g>
						<rect x="68.7" y="31.4" class="st1" width="47.9" height="37"/>
						<rect x="91.8" y="52" class="st2" width="1.8" height="16.3"/>
						<g>
							<rect x="70.2" y="31.4" class="st2" width="1.4" height="37"/>
							<rect x="113.8" y="31.4" class="st2" width="1.4" height="37"/>
						</g>
					</g>
					<g>
						<rect x="68.7" y="-5.6" class="st1" width="47.9" height="37"/>
						<rect x="91.8" y="15" class="st2" width="1.8" height="16.3"/>
						<g>
							<rect x="70.2" y="-5.6" class="st2" width="1.4" height="37"/>
							<rect x="113.8" y="-5.6" class="st2" width="1.4" height="37"/>
						</g>
					</g>
				</g>
			</g>
		</g>
		<g>
			<path class="st3" d="M159,405.5c0,1-0.9,1.8-2,1.8h-14.5c-1.1,0-2-0.8-2-1.8l0,0c0-1,0.9-1.8,2-1.8H157
				C158.1,403.6,159,404.5,159,405.5L159,405.5z"/>
			<path class="st4" d="M151.8,404.7c0,0.6-0.6,1.2-1.2,1.2H149c-0.7,0-1.2-0.5-1.2-1.2v-9.6c0-0.6,0.6-1.2,1.2-1.2h1.6
				c0.7,0,1.2,0.5,1.2,1.2V404.7z"/>
			<ellipse class="st5" cx="149.9" cy="388.7" rx="10.2" ry="9.4"/>
		</g>
		<g>
			<path class="st3" d="M161.1,171c0,1.5-1.3,2.7-3,2.7h-21.6c-1.6,0-3-1.2-3-2.7l0,0c0-1.5,1.3-2.7,3-2.7h21.6
				C159.8,168.3,161.1,169.5,161.1,171L161.1,171z"/>
			<path class="st4" d="M150.4,169.9c0,1-0.8,1.7-1.9,1.7h-2.3c-1,0-1.9-0.8-1.9-1.7v-14.4c0-1,0.8-1.7,1.9-1.7h2.3
				c1,0,1.9,0.8,1.9,1.7V169.9z"/>
			<ellipse class="st5" cx="147.3" cy="142.8" rx="11" ry="17.2"/>
		</g>
		<g>
			<path class="st3" d="M160.4,91.6c0,1.4-1.1,2.6-2.5,2.6h-18.6c-1.4,0-2.5-1.2-2.5-2.6l0,0c0-1.4,1.1-2.6,2.5-2.6h18.6
				C159.3,89,160.4,90.2,160.4,91.6L160.4,91.6z"/>
			<path class="st4" d="M151.2,90.5c0,0.9-0.7,1.6-1.6,1.6h-2c-0.9,0-1.6-0.7-1.6-1.6V76.9c0-0.9,0.7-1.6,1.6-1.6h2
				c0.9,0,1.6,0.7,1.6,1.6V90.5z"/>
			<ellipse class="st5" cx="148.7" cy="67.9" rx="13.1" ry="13.3"/>
		</g>
		<g>
			<path class="st3" d="M57,486.2c0,1.6-1.3,3-2.9,3H32.8c-1.6,0-2.9-1.3-2.9-3l0,0c0-1.6,1.3-3,2.9-3h21.3
				C55.7,483.2,57,484.6,57,486.2L57,486.2z"/>
			<path class="st4" d="M46.5,484.9c0,1-0.8,1.9-1.8,1.9h-2.3c-1,0-1.8-0.8-1.8-1.9v-15.6c0-1,0.8-1.9,1.8-1.9h2.3
				c1,0,1.8,0.8,1.8,1.9V484.9z"/>
			<ellipse class="st5" cx="43.5" cy="455.7" rx="10.9" ry="18.6"/>
		</g>
		<g>
			<path class="st3" d="M49.4,324.1c0,1-0.9,1.8-2,1.8H33c-1.1,0-2-0.8-2-1.8l0,0c0-1,0.9-1.8,2-1.8h14.5
				C48.6,322.3,49.4,323.1,49.4,324.1L49.4,324.1z"/>
			<path class="st4" d="M42.3,323.3c0,0.6-0.6,1.2-1.2,1.2h-1.6c-0.7,0-1.2-0.5-1.2-1.2v-9.6c0-0.6,0.6-1.2,1.2-1.2H41
				c0.7,0,1.2,0.5,1.2,1.2L42.3,323.3L42.3,323.3z"/>
			<ellipse class="st5" cx="40.3" cy="307.3" rx="10.2" ry="9.4"/>
		</g>
		<g>
			<path class="st3" d="M52.4,389.6c0,1.4-1.1,2.6-2.5,2.6H31.2c-1.4,0-2.5-1.2-2.5-2.6l0,0c0-1.4,1.1-2.6,2.5-2.6h18.6
				C51.2,387,52.4,388.2,52.4,389.6L52.4,389.6z"/>
			<path class="st4" d="M43.1,388.5c0,0.9-0.7,1.6-1.6,1.6h-2c-0.9,0-1.6-0.7-1.6-1.6v-13.6c0-0.9,0.7-1.6,1.6-1.6h2
				c0.9,0,1.6,0.7,1.6,1.6V388.5z"/>
			<ellipse class="st5" cx="40.6" cy="365.9" rx="13.1" ry="13.3"/>
		</g>
		<g>
			<path class="st3" d="M58.5,72.6c0,1.6-1.3,3-2.9,3H34.3c-1.6,0-2.9-1.3-2.9-3l0,0c0-1.6,1.3-3,2.9-3h21.3
				C57.2,69.6,58.5,70.9,58.5,72.6L58.5,72.6z"/>
			<path class="st4" d="M47.9,71.3c0,1-0.8,1.9-1.8,1.9h-2.3c-1,0-1.8-0.8-1.8-1.9V55.7c0-1,0.8-1.9,1.8-1.9h2.3
				c1,0,1.8,0.8,1.8,1.9V71.3z"/>
			<ellipse class="st5" cx="44.9" cy="42.1" rx="10.9" ry="18.6"/>
		</g>
		<g>
			<rect x="141.5" y="220.2" class="st2" width="12.7" height="3.4"/>
			<rect x="141.5" y="201.1" class="st6" width="4.9" height="41.6"/>
			<rect x="147" y="201.1" class="st6" width="4.9" height="41.6"/>
			<rect x="141.5" y="201.1" class="st2" width="12.7" height="3.4"/>
			<rect x="141.5" y="239.3" class="st2" width="12.7" height="3.4"/>
			<rect x="152.5" y="201.1" class="st6" width="2" height="41.6"/>
		</g>
		<g>
			<path class="st2" d="M142.2,222.8L142.2,222.8c0-1.2-1-2.2-2.2-2.2h-2.6c-1.2,0-2.2,1-2.2,2.2l0,0c0,1.2,1,2.2,2.2,2.2h2.6
				C141.2,225,142.2,224,142.2,222.8z"/>
			<path class="st2" d="M142.2,217.9L142.2,217.9c0-1.2-1-2.2-2.2-2.2h-2.6c-1.2,0-2.2,1-2.2,2.2l0,0c0,1.2,1,2.2,2.2,2.2h2.6
				C141.2,220.1,142.2,219.1,142.2,217.9z"/>
			<path class="st7" d="M144.8,222.8L144.8,222.8c0-1.2-1-2.2-2.2-2.2H140c-1.2,0-2.2,1-2.2,2.2l0,0c0,1.2,1,2.2,2.2,2.2h2.6
				C143.9,225,144.8,224,144.8,222.8z"/>
			<path class="st7" d="M144.8,217.9L144.8,217.9c0-1.2-1-2.2-2.2-2.2H140c-1.2,0-2.2,1-2.2,2.2l0,0c0,1.2,1,2.2,2.2,2.2h2.6
				C143.9,220.1,144.8,219.1,144.8,217.9z"/>
			<path class="st8" d="M143.1,226.7v-13c0-1.6,1.3-2.9,2.9-2.9l0,0c1.6,0,2.9,1.3,2.9,2.9v13c0,1.6-1.3,2.9-2.9,2.9l0,0
				C144.4,229.7,143.1,228.3,143.1,226.7z"/>
			<path class="st9" d="M146,227.5L146,227.5c0-1.2-1-2.2-2.2-2.2h-3c-1.2,0-2.2,1-2.2,2.2l0,0c0,1.2,1,2.2,2.2,2.2h3
				C145,229.7,146,228.7,146,227.5z"/>
			<ellipse class="st9" cx="145.7" cy="220.2" rx="4.7" ry="4.1"/>
			<path class="st10" d="M142.7,217.1c0.8-0.6,1.8-0.9,3-0.9c2.6,0,4.7,1.8,4.7,4.1c0,2.2-2.1,4.1-4.7,4.1c-1.1,0-2.1-0.3-3-0.9
				c-0.2-1-0.3-2.1-0.3-3.2C142.5,219.1,142.5,218,142.7,217.1z"/>
			<path class="st8" d="M148.1,227.5L148.1,227.5c0-1.2-1-2.2-2.2-2.2h-4.8v4.4h4.8C147.1,229.7,148.1,228.7,148.1,227.5z"/>
			<path class="st9" d="M146,212.9L146,212.9c0-1.2-1-2.2-2.2-2.2h-3c-1.2,0-2.2,1-2.2,2.2l0,0c0,1.2,1,2.2,2.2,2.2h3
				C145,215.1,146,214.1,146,212.9z"/>
			<path class="st8" d="M148.1,212.9L148.1,212.9c0-1.2-1-2.2-2.2-2.2h-4.8v4.4h4.8C147.1,215.1,148.1,214.1,148.1,212.9z"/>
		</g>
		<g>
			<g>
				<path class="st11" d="M50.4,173.2c-3-2-11.2-5.8-14.7-1.3c-1.6,1.9-0.8,5-2.5,7.1c-2.2,2.9-7,1.2-10.4,1.9
					c-9,1.2-8.2,10.6-3.1,16.4c4.5,5.4,15.7,11,22.7,7.3c5.9-3.1,0-13.1,6.3-17.4c3.1-2.1,5.3-1.7,5.7-6.2
					C54.7,176.7,52.8,175.2,50.4,173.2"/>
			</g>
			<g>
				<g>
					<g>
						<g>
							<path class="st2" d="M14.1,135.3c3.8,0,3.8-5.9,0-5.9C10.4,129.4,10.4,135.3,14.1,135.3L14.1,135.3z"/>
						</g>
					</g>
					<g>
						<g>
							<path class="st2" d="M34.5,132.7c3.8,0,3.8-5.9,0-5.9C30.7,126.8,30.7,132.7,34.5,132.7L34.5,132.7z"/>
						</g>
					</g>
					<g>
						<g>
							<path class="st2" d="M30.5,123.2c3.8,0,3.8-5.9,0-5.9C26.7,117.2,26.7,123.2,30.5,123.2L30.5,123.2z"/>
						</g>
					</g>
					<g>
						<g>
							<path class="st2" d="M18.1,126.8c3.8,0,3.8-5.9,0-5.9C14.4,120.9,14.4,126.8,18.1,126.8L18.1,126.8z"/>
						</g>
					</g>
					<g>
						<g>
							<path class="st2" d="M51.9,136.4c3.8,0,3.8-5.9,0-5.9C48.1,130.5,48.1,136.4,51.9,136.4L51.9,136.4z"/>
						</g>
					</g>
					<g>
						<g>
							<path class="st2" d="M42.1,128.3c3.8,0,3.8-5.9,0-5.9S38.3,128.3,42.1,128.3L42.1,128.3z"/>
						</g>
					</g>
					<g>
						<g>
							<path class="st2" d="M22.8,118.4c3.8,0,3.8-5.9,0-5.9C19.1,112.4,19.1,118.4,22.8,118.4L22.8,118.4z"/>
						</g>
					</g>
					<g>
						<g>
							<path class="st2" d="M38.8,119.5c3.8,0,3.8-5.9,0-5.9C35.1,113.5,35.1,119.5,38.8,119.5L38.8,119.5z"/>
						</g>
					</g>
					<g>
						<g>
							<path class="st2" d="M50.8,126.8c3.8,0,3.8-5.9,0-5.9S47,126.8,50.8,126.8L50.8,126.8z"/>
						</g>
					</g>
				</g>
				<g class="st12">
					<path d="M38.4,151.2c-8.6,0.2-17.2-1.7-25.8-1.7c-4.3,0-7.1-0.2-6.9,4.8c0.2,3.9,2.4,5.2,6,5.9c2.6,0.2,8.6-1.3,10.7,0.2
						c2.8,2,0.4,4.8,4.3,6.1c6.7,2.6,16.3,0.7,23.2,0.7c3.2,0,8.8,0.4,11.4-2.4c2.1-2.4,1.9-8.7,0-11.4c-4.1-5.2-17.4-2.6-23.4-2.6"
						/>
				</g>
				<g>
					<g>
						<g>
							<path class="st13" d="M40.2,155.7L40.2,155.7H13.3c-0.5,0-1-0.3-1.3-0.7s-0.3-1-0.1-1.5l13.5-28.9c0.2-0.5,0.8-0.9,1.4-0.9
								s1.1,0.3,1.4,0.9l13.4,28.7c0.1,0.2,0.2,0.5,0.2,0.8C41.7,155.1,41,155.7,40.2,155.7z"/>
						</g>
						<g>
							<g>
								<path class="st2" d="M27.2,136.8L27.2,136.8c-0.5,0-0.9-0.2-1.3-0.5c-0.8-0.8-0.8-2.5-0.8-3.8c-0.4,0.9-1,1.7-1.7,2.1
									c-0.4,0.3-1,0.5-1.5,0.5l0,0c-0.6,0-1-0.2-1.4-0.6c-0.1-0.1-0.1-0.3-0.1-0.4l4.4-9.5c0.3-0.7,1-1.1,1.7-1.1s1.4,0.4,1.7,1.1
									l3.7,7.9c0,0.1,0,0.2,0,0.3s-0.1,0.2-0.2,0.2c-0.3,0.1-0.5,0.1-0.8,0.1c-0.6,0-1.3-0.3-1.7-0.8c0.1,1.3,0.1,3-0.7,3.9
									C28.3,136.6,27.8,136.8,27.2,136.8z"/>
							</g>
						</g>
					</g>
					<g>
						<g>
							<path class="st14" d="M56.5,162L56.5,162h-27c-0.5,0-1-0.3-1.3-0.7s-0.3-1-0.1-1.5L41.7,131c0.2-0.5,0.8-0.9,1.4-0.9
								c0.6,0,1.1,0.3,1.4,0.9l13.4,28.7c0.1,0.2,0.2,0.5,0.2,0.8C58,161.3,57.3,162,56.5,162z"/>
						</g>
						<g>
							<g>
								<path class="st2" d="M43.4,147.8c-0.6,0-1.1-0.2-1.5-0.6c-1.1-0.9-1-2.8-1-4V143c0-0.4,0-0.8,0.1-1.2c0-0.6,0.1-1.1,0.1-1.7
									c-0.1,0.2-0.2,0.5-0.3,0.7c-0.2,0.6-0.4,1.1-0.7,1.7c-0.4,0.8-1.7,1.8-2.8,1.8l0,0c-0.7,0-1.2-0.4-1.4-1.1
									c0-0.1-0.1-0.2-0.1-0.3s0-0.2,0-0.2l5.5-11.9c0.3-0.7,1-1.1,1.7-1.1s1.4,0.4,1.7,1.1l5.5,11.7c0.1,0.1,0,0.3,0,0.4
									c-0.2,0.3-0.6,0.6-1,0.7c-0.2,0.1-0.5,0.1-0.7,0.1c-1.2,0-2.1-0.8-2.7-1.8c0,0.1,0,0.1,0,0.2c0.1,1,0.1,2,0,2.9
									c-0.1,1-0.4,1.8-1,2.3C44.4,147.6,44,147.8,43.4,147.8z"/>
							</g>
						</g>
					</g>
				</g>
			</g>
		</g>
		<g id="XMLID_1152_">
			<g id="XMLID_1169_">
				<rect id="XMLID_1170_" x="147.2" y="24.5" class="st15" width="1.6" height="22.6"/>
			</g>
			<g id="XMLID_1164_">
				<ellipse id="XMLID_1168_" class="st16" cx="148" cy="16.2" rx="8.1" ry="8.3"/>
				<path id="XMLID_1165_" class="st17" d="M148,25.3c-4.9,0-8.9-4.1-8.9-9.1s4-9.1,8.9-9.1s8.9,4.1,8.9,9.1S152.9,25.3,148,25.3z
					 M148,8.8c-4,0-7.3,3.3-7.3,7.4s3.3,7.4,7.3,7.4s7.3-3.3,7.3-7.4S152.1,8.8,148,8.8z"/>
			</g>
			<g id="XMLID_1155_">
				<g id="XMLID_1158_">
					<g id="XMLID_1162_">
						<path id="XMLID_1163_" class="st18" d="M146.4,21.6h-2.5v-4.1c0-2.7,2.2-4.9,4.8-4.9h1.8v2.6h-1.8c-1.3,0-2.3,1-2.3,2.3V21.6z
							"/>
					</g>
					<g id="XMLID_1159_">
						<g id="XMLID_1160_">
							<polygon id="XMLID_1161_" class="st18" points="150.4,14.1 150.6,14 150.4,13.8 							"/>
						</g>
					</g>
				</g>
				<g id="XMLID_1156_">
					<polygon id="XMLID_1157_" class="st18" points="149.8,11.2 153.5,14 149.8,16.7 					"/>
				</g>
			</g>
			<g id="XMLID_1153_">
				<polygon id="XMLID_1154_" class="st17" points="141.7,11 142.8,9.8 154.3,21.5 153.2,22.7 				"/>
			</g>
		</g>
		<g id="XMLID_1_">
			<g id="XMLID_18_">
				<rect id="XMLID_19_" x="38.8" y="247.9" class="st15" width="1.6" height="22.6"/>
			</g>
			<g id="XMLID_13_">
				<ellipse id="XMLID_17_" class="st16" cx="39.6" cy="239.6" rx="8.1" ry="8.3"/>
				<path id="XMLID_14_" class="st17" d="M39.6,248.7c-4.9,0-8.9-4.1-8.9-9.1s4-9.1,8.9-9.1s8.9,4.1,8.9,9.1
					C48.6,244.6,44.6,248.7,39.6,248.7z M39.6,232.2c-4,0-7.3,3.3-7.3,7.4s3.3,7.4,7.3,7.4s7.3-3.3,7.3-7.4S43.7,232.2,39.6,232.2z"
					/>
			</g>
			<g id="XMLID_4_">
				<g id="XMLID_7_">
					<g id="XMLID_11_">
						<path id="XMLID_12_" class="st18" d="M38,245h-2.5v-4c0-2.7,2.2-4.9,4.8-4.9h1.8v2.6h-1.8c-1.3,0-2.3,1-2.3,2.3
							C38,241,38,245,38,245z"/>
					</g>
					<g id="XMLID_8_">
						<g id="XMLID_9_">
							<polygon id="XMLID_10_" class="st18" points="42,237.5 42.3,237.4 42,237.2 							"/>
						</g>
					</g>
				</g>
				<g id="XMLID_5_">
					<polygon id="XMLID_6_" class="st18" points="41.4,234.6 45.1,237.4 41.4,240.1 					"/>
				</g>
			</g>
			<g id="XMLID_2_">
				<polygon id="XMLID_3_" class="st17" points="33.3,234.4 34.4,233.2 45.9,244.9 44.8,246 				"/>
			</g>
		</g>
		<g id="XMLID_20_">
			<g>
				<polygon class="st19" points="167.2,449.7 172,462.3 164.7,462.3 157.4,462.3 150.1,462.3 142.7,462.3 135.4,462.3 128.1,462.3 
					120.8,462.3 125.6,449.7 				"/>
				<path class="st20" d="M164.7,462.3h7.3c0,2.1-1.6,3.7-3.7,3.7C166.3,466.1,164.7,464.4,164.7,462.3z"/>
				<path class="st16" d="M168.3,466.1v16.6h-18v-11.2h-7.8v11.2h-18v-16.6c2,0,3.7-1.7,3.7-3.7c0,2.1,1.6,3.7,3.7,3.7
					c2,0,3.7-1.7,3.7-3.7c0,2.1,1.6,3.7,3.7,3.7c2,0,3.7-1.7,3.7-3.7c0,2.1,1.6,3.7,3.7,3.7c2,0,3.7-1.7,3.7-3.7
					c0,2.1,1.6,3.7,3.7,3.7c2,0,3.7-1.7,3.7-3.7c0,2.1,1.6,3.7,3.7,3.7c2,0,3.7-1.7,3.7-3.7C164.7,464.4,166.3,466.1,168.3,466.1z
					 M164.7,478.4v-7h-10.8v7H164.7z M138.9,478.4v-7h-10.8v7H138.9z"/>
				<rect x="153.9" y="471.4" class="st19" width="10.8" height="7"/>
				<path class="st20" d="M157.4,462.3h7.3c0,2.1-1.6,3.7-3.7,3.7C159,466.1,157.4,464.4,157.4,462.3z"/>
				<path class="st20" d="M150.1,462.3h7.3c0,2.1-1.6,3.7-3.7,3.7C151.7,466.1,150.1,464.4,150.1,462.3z"/>
				<rect x="142.5" y="471.4" class="st19" width="7.8" height="11.2"/>
				<path class="st20" d="M142.7,462.3h7.3c0,2.1-1.6,3.7-3.7,3.7C144.4,466.1,142.7,464.4,142.7,462.3z"/>
				<path class="st20" d="M135.4,462.3h7.3c0,2.1-1.6,3.7-3.7,3.7C137.1,466.1,135.4,464.4,135.4,462.3z"/>
				<rect x="128.1" y="471.4" class="st19" width="10.8" height="7"/>
				<path class="st20" d="M128.1,462.3h7.3c0,2.1-1.6,3.7-3.7,3.7C129.7,466.1,128.1,464.4,128.1,462.3z"/>
				<path class="st20" d="M120.8,462.3h7.3c0,2.1-1.6,3.7-3.7,3.7C122.4,466.1,120.8,464.4,120.8,462.3z"/>
			</g>
		</g>
		<g>
			<path class="st21" d="M148,318.4c35-10.8,0-53.7,0-53.7S113,307.6,148,318.4z"/>
			<g>
				<rect x="147.1" y="279" class="st22" width="1.6" height="59"/>
			</g>
			<g>
				<polygon class="st22" points="147.3,315 154.3,307.9 155.4,309.1 148.5,316.1 				"/>
			</g>
			<g>
				<polygon class="st22" points="140.6,300.8 141.7,299.7 148.5,306.5 147.3,307.7 				"/>
			</g>
			<g>
				<polygon class="st22" points="140.6,284.5 141.7,283.3 148.5,290.1 147.3,291.3 				"/>
			</g>
			<g>
				<polygon class="st22" points="147.3,297.9 154.1,291 155.2,292.2 148.5,299 				"/>
			</g>
		</g>
	</g>
	<g>
		<path class="st0" d="M-0.3-517.4V0h187v-517.4H-0.3z M37.4-445c0.5-0.6,1.2-0.9,2-0.9H47v-9.8c-4.5-2.2-7.8-9.5-7.8-18.1
			c0-10.4,4.8-18.9,10.7-18.9s10.7,8.4,10.7,18.9c0,8.6-3.3,15.9-7.8,18.1v9.8h7.5c1.6,0,2.9,1.3,2.9,3s-1.3,3-2.9,3h-21
			c-1.6,0-2.9-1.3-2.9-3C36.5-443.7,36.9-444.5,37.4-445z M25.1-316.5c-5-5.9-5.9-15.4,3-16.6c3.4-0.6,8.1,1.1,10.3-1.9
			c1.6-2.1,0.8-5.3,2.4-7.2c3.4-4.6,11.5-0.8,14.5,1.3c2.4,2,4.2,3.6,4,7.8c-0.4,4.6-2.6,4.2-5.6,6.3c-6.2,4.4-0.4,14.5-6.2,17.7
			C40.6-305.4,29.5-311.1,25.1-316.5z M52.4-189.9c1.1,0,1.9,0.8,1.9,1.9s-0.9,1.9-1.9,1.9H38.2c-1.1,0-1.9-0.8-1.9-1.9
			c0-0.5,0.2-1,0.6-1.3c0.4-0.3,0.8-0.5,1.4-0.5h5.1v-5.8c-4.5-0.9-7.9-4.8-7.9-9.4c0-5.3,4.5-9.6,10-9.6s10,4.3,10,9.6
			c0,4.7-3.5,8.6-8.2,9.4v5.8L52.4-189.9L52.4-189.9z M35.9-273.6c0-5.1,4-9.2,8.8-9.2s8.8,4.1,8.8,9.2c0,4.8-3.5,8.7-8,9.1v22.1
			h-1.6v-22.1C39.4-264.9,35.9-268.9,35.9-273.6z M33.9-121.7c0-0.7,0.3-1.4,0.7-1.9c0.5-0.5,1.1-0.8,1.8-0.8H43v-8.2
			c-5.8-1.3-10.2-6.7-10.2-13.2c0-7.5,5.8-13.5,12.9-13.5s12.9,6,12.9,13.5c0,6.6-4.5,12.1-10.5,13.3v8.1h6.6c1.4,0,2.5,1.2,2.5,2.6
			s-1.1,2.6-2.5,2.6H36.4C35-119.1,33.9-120.3,33.9-121.7z M59-20.8H38c-1.6,0-2.9-1.3-2.9-3c0-0.8,0.3-1.6,0.8-2.1
			c0.5-0.6,1.2-0.9,2-0.9h7.6v-9.8c-4.5-2.2-7.8-9.5-7.8-18.1c0-10.4,4.8-18.9,10.7-18.9s10.7,8.4,10.7,18.9
			c0,8.6-3.3,15.9-7.8,18.1v9.8H59c1.6,0,2.9,1.3,2.9,3C61.8-22.2,60.6-20.8,59-20.8z M66.2-349.5c-2.5,2.9-8,2.4-11.2,2.4
			c-6.8,0-16.3,2-22.9-0.7c-3.8-1.3-1.5-4.2-4.2-6.2c-2.1-1.6-8,0-10.6-0.2c-3.6-0.7-5.7-2-5.9-6c-0.2-5.1,2.5-4.9,6.8-4.9
			c0.4,0,0.8,0,1.2,0l6.9-15.1l-0.1-0.1c-0.1-0.1-0.1-0.3-0.1-0.4l4.4-9.7c0.3-0.7,1-1.1,1.7-1.1s1.4,0.4,1.7,1.1l3.7,8
			c0,0.1,0,0.2,0,0.3c0,0.1-0.1,0.2-0.2,0.2l4.1,9.1l5.1-11.3c0.3-0.7,0.9-1.1,1.7-1.1c0.7,0,1.4,0.4,1.7,1.1l5.4,11.9
			c0.1,0.1,0,0.3,0,0.4s-0.1,0.1-0.1,0.2l3.3,7.3c3.4,0.3,6.4,1.1,7.9,3.2C68.1-358.3,68.3-351.9,66.2-349.5z M151.5-509.2
			c4.9,0,8.8,4.1,8.8,9.2c0,4.8-3.5,8.7-8,9.1v22.1h-1.6v-22.1c-4.5-0.4-8-4.4-8-9.1C142.7-505,146.6-509.2,151.5-509.2z
			 M152.1-461.1c7.1,0,12.9,6,12.9,13.5c0,6.6-4.5,12.1-10.5,13.3v8.1h6.6c1.4,0,2.5,1.2,2.5,2.6c0,1.5-1.1,2.6-2.5,2.6h-18.3
			c-1.4,0-2.5-1.2-2.5-2.6c0-0.7,0.3-1.4,0.7-1.8c0.5-0.5,1.1-0.8,1.8-0.8h6.6v-8.2c-5.8-1.3-10.2-6.7-10.2-13.2
			C139.2-455.1,145-461.1,152.1-461.1z M138.1-345.1c0.5-0.5,1.3-0.8,2.1-0.8h7.7v-9c-4.5-2.1-7.9-8.8-7.9-16.8
			c0-9.6,4.9-17.5,10.9-17.5s10.9,7.8,10.9,17.5c0,8-3.3,14.7-7.9,16.8v9h7.7c1.6,0,2.9,1.2,2.9,2.8s-1.3,2.8-2.9,2.8h-21.3
			c-1.6,0-2.9-1.3-2.9-2.8C137.2-343.9,137.5-344.6,138.1-345.1z M144.4-283.7c-0.6,0-1.1-0.3-1.5-0.7c-0.4-0.4-0.6-1-0.6-1.6
			c0-1.2,0.9-2.2,2.1-2.2h0.6v-0.3h-4c-0.6,0-1.1-0.3-1.5-0.7c-0.4-0.4-0.6-1-0.6-1.6c0-1.2,0.9-2.2,2.1-2.2h3.6c0-0.1,0-0.3,0-0.4
			v-0.1H141c-0.6,0-1.1-0.3-1.5-0.7s-0.6-1-0.6-1.6c0-1.2,0.9-2.2,2.1-2.2h4v-0.6h-0.6c-0.6,0-1.1-0.3-1.5-0.7
			c-0.4-0.4-0.6-1-0.6-1.6c0-1.2,0.9-2.2,2.1-2.2h0.6v-9.8h12.8v42.2H145V-284L144.4-283.7L144.4-283.7z M151.4-248.2
			c0,0,34,42.9,0.7,54.2v20.1h-1.6V-194C117.6-205.5,151.4-248.2,151.4-248.2z M160.3-107.5c1.1,0,1.9,0.8,1.9,1.9
			c0,1-0.9,1.9-1.9,1.9h-14.2c-1.1,0-1.9-0.8-1.9-1.9c0-0.5,0.2-1,0.6-1.3c0.4-0.3,0.8-0.5,1.4-0.5h5.1v-5.8
			c-4.5-0.9-7.9-4.8-7.9-9.4c0-5.3,4.5-9.6,10-9.6c5.6,0,10,4.3,10,9.6c0,4.7-3.5,8.5-8.1,9.4v5.8L160.3-107.5L160.3-107.5z
			 M171.5-44.2v16.8h-43.2v-16.8c-2,0-3.6-1.7-3.6-3.8l4.7-12.8h41l4.7,12.8C175.1-45.9,173.5-44.2,171.5-44.2z"/>
		<path class="st23" d="M43.9-242.4v-22.1c-4.5-0.4-8-4.4-8-9.1c0-5.1,4-9.2,8.8-9.2s8.8,4.1,8.8,9.2c0,4.8-3.5,8.7-8,9.1v22.1H43.9
			L43.9-242.4z"/>
		<path class="st23" d="M47.3-195.7v5.8h5.1c1.1,0,1.9,0.8,1.9,1.9s-0.9,1.9-1.9,1.9H38.2c-1.1,0-1.9-0.8-1.9-1.9
			c0-0.5,0.2-1,0.6-1.3c0.4-0.3,0.8-0.5,1.4-0.5h5.1v-5.8c-4.5-0.9-7.9-4.8-7.9-9.4c0-5.3,4.5-9.6,10-9.6s10,4.3,10,9.6
			C55.4-200.4,51.9-196.5,47.3-195.7z"/>
		<path class="st23" d="M36.4-119.1c-1.4,0-2.5-1.2-2.5-2.6c0-0.7,0.3-1.4,0.7-1.9c0.5-0.5,1.1-0.8,1.8-0.8H43v-8.2
			c-5.8-1.3-10.2-6.7-10.2-13.2c0-7.5,5.8-13.5,12.9-13.5s12.9,6,12.9,13.5c0,6.6-4.5,12.1-10.5,13.3v8.1h6.6c1.4,0,2.5,1.2,2.5,2.6
			s-1.1,2.6-2.5,2.6C54.7-119.1,36.4-119.1,36.4-119.1z"/>
		<path class="st23" d="M25.1-316.5c-5-5.9-5.9-15.4,3-16.6c3.4-0.6,8.1,1.1,10.3-1.9c1.6-2.1,0.8-5.3,2.4-7.2
			c3.4-4.6,11.5-0.8,14.5,1.3c2.4,2,4.2,3.6,4,7.8c-0.4,4.6-2.6,4.2-5.6,6.3c-6.2,4.4-0.4,14.5-6.2,17.7
			C40.6-305.4,29.5-311.1,25.1-316.5z"/>
		<path class="st23" d="M61.8-23.8c0,1.7-1.3,3-2.9,3H38c-1.6,0-2.9-1.3-2.9-3c0-0.8,0.3-1.6,0.8-2.1c0.5-0.6,1.2-0.9,2-0.9h7.6
			v-9.8c-4.5-2.2-7.8-9.5-7.8-18.1c0-10.4,4.8-18.9,10.7-18.9s10.7,8.4,10.7,18.9c0,8.6-3.3,15.9-7.8,18.1v9.8H59
			C60.6-26.8,61.8-25.5,61.8-23.8z"/>
		<path class="st23" d="M36.5-442.9c0-0.8,0.3-1.6,0.8-2.1c0.5-0.6,1.2-0.9,2-0.9H47v-9.8c-4.5-2.2-7.8-9.5-7.8-18.1
			c0-10.4,4.8-18.9,10.7-18.9s10.7,8.4,10.7,18.9c0,8.6-3.3,15.9-7.8,18.1v9.8h7.5c1.6,0,2.9,1.3,2.9,3s-1.3,3-2.9,3h-21
			C37.8-439.9,36.5-441.3,36.5-442.9z"/>
		<path class="st23" d="M66.2-361c1.9,2.7,2.1,9.1,0,11.5c-2.5,2.9-8,2.4-11.2,2.4c-6.8,0-16.3,2-22.9-0.7c-3.8-1.3-1.5-4.2-4.2-6.2
			c-2.1-1.6-8,0-10.6-0.2c-3.6-0.7-5.7-2-5.9-6c-0.2-5.1,2.5-4.9,6.8-4.9c0.4,0,0.8,0,1.2,0l6.9-15.1l-0.1-0.1
			c-0.1-0.1-0.1-0.3-0.1-0.4l4.4-9.7c0.3-0.7,1-1.1,1.7-1.1s1.4,0.4,1.7,1.1l3.7,8c0,0.1,0,0.2,0,0.3c0,0.1-0.1,0.2-0.2,0.2l4.1,9.1
			l5.1-11.3c0.3-0.7,0.9-1.1,1.7-1.1c0.7,0,1.4,0.4,1.7,1.1l5.4,11.9c0.1,0.1,0,0.3,0,0.4s-0.1,0.1-0.1,0.2l3.3,7.3
			C61.6-363.9,64.6-363.1,66.2-361z"/>
		<path class="st23" d="M145-283.7h-0.6c-0.6,0-1.1-0.3-1.5-0.7c-0.4-0.4-0.6-1-0.6-1.6c0-1.2,0.9-2.2,2.1-2.2h0.6v-0.3h-4
			c-0.6,0-1.1-0.3-1.5-0.7c-0.4-0.4-0.6-1-0.6-1.6c0-1.2,0.9-2.2,2.1-2.2h3.6c0-0.1,0-0.3,0-0.4v-0.1H141c-0.6,0-1.1-0.3-1.5-0.7
			s-0.6-1-0.6-1.6c0-1.2,0.9-2.2,2.1-2.2h4v-0.6h-0.6c-0.6,0-1.1-0.3-1.5-0.7c-0.4-0.4-0.6-1-0.6-1.6c0-1.2,0.9-2.2,2.1-2.2h0.6
			v-9.8h12.8v42.2H145V-283.7L145-283.7z"/>
		<path class="st23" d="M142.7-500c0-5.1,3.9-9.2,8.8-9.2s8.8,4.1,8.8,9.2c0,4.8-3.5,8.7-8,9.1v22.1h-1.6v-22.1
			C146.2-491.2,142.7-495.2,142.7-500z"/>
		<path class="st23" d="M151.4-248.2c0,0,34,42.9,0.7,54.2v20.1h-1.6V-194C117.6-205.5,151.4-248.2,151.4-248.2z"/>
		<path class="st23" d="M155.2-113.2v5.8h5.1c1.1,0,1.9,0.8,1.9,1.9c0,1-0.9,1.9-1.9,1.9h-14.2c-1.1,0-1.9-0.8-1.9-1.9
			c0-0.5,0.2-1,0.6-1.3c0.4-0.3,0.8-0.5,1.4-0.5h5.1v-5.8c-4.5-0.9-7.9-4.8-7.9-9.4c0-5.3,4.5-9.6,10-9.6c5.6,0,10,4.3,10,9.6
			C163.3-118,159.8-114.1,155.2-113.2z"/>
		<path class="st23" d="M139.2-447.6c0-7.5,5.8-13.5,12.9-13.5c7.1,0,12.9,6,12.9,13.5c0,6.6-4.5,12.1-10.5,13.3v8.1h6.6
			c1.4,0,2.5,1.2,2.5,2.6c0,1.5-1.1,2.6-2.5,2.6h-18.3c-1.4,0-2.5-1.2-2.5-2.6c0-0.7,0.3-1.4,0.7-1.8c0.5-0.5,1.1-0.8,1.8-0.8h6.6
			v-8.2C143.6-435.7,139.2-441.1,139.2-447.6z"/>
		<path class="st23" d="M137.2-343.1c0-0.8,0.3-1.5,0.9-2c0.5-0.5,1.3-0.8,2.1-0.8h7.7v-9c-4.5-2.1-7.9-8.8-7.9-16.8
			c0-9.6,4.9-17.5,10.9-17.5s10.9,7.8,10.9,17.5c0,8-3.3,14.7-7.9,16.8v9h7.7c1.6,0,2.9,1.2,2.9,2.8s-1.3,2.8-2.9,2.8h-21.3
			C138.5-340.3,137.2-341.6,137.2-343.1z"/>
		<path class="st23" d="M175.1-48c0,2.1-1.6,3.8-3.6,3.8v16.8h-43.2v-16.8c-2,0-3.6-1.7-3.6-3.8l4.7-12.8h41L175.1-48z"/>
		<g>
			<g>
				<g>
					<g>
						<rect x="69" y="-36.9" class="st1" width="47.2" height="37"/>
						<rect x="91.7" y="-16.2" class="st2" width="1.8" height="16.4"/>
						<g>
							<rect x="70.5" y="-36.9" class="st2" width="1.4" height="37"/>
							<rect x="113.4" y="-36.9" class="st2" width="1.4" height="37"/>
						</g>
					</g>
					<g>
						<rect x="69" y="-73.9" class="st1" width="47.2" height="37"/>
						<rect x="91.7" y="-53.2" class="st2" width="1.8" height="16.4"/>
						<g>
							<rect x="70.5" y="-73.9" class="st2" width="1.4" height="37"/>
							<rect x="113.4" y="-73.9" class="st2" width="1.4" height="37"/>
						</g>
					</g>
					<g>
						<rect x="69" y="-110.9" class="st1" width="47.2" height="37"/>
						<rect x="91.7" y="-90.2" class="st2" width="1.8" height="16.4"/>
						<g>
							<rect x="70.5" y="-110.9" class="st2" width="1.4" height="37"/>
							<rect x="113.4" y="-110.9" class="st2" width="1.4" height="37"/>
						</g>
					</g>
					<g>
						<rect x="69" y="-147.9" class="st1" width="47.2" height="37"/>
						<rect x="91.7" y="-127.2" class="st2" width="1.8" height="16.4"/>
						<g>
							<rect x="70.5" y="-147.9" class="st2" width="1.4" height="37"/>
							<rect x="113.4" y="-147.9" class="st2" width="1.4" height="37"/>
						</g>
					</g>
					<g>
						<rect x="69" y="-184.9" class="st1" width="47.2" height="37"/>
						<rect x="91.7" y="-164.2" class="st2" width="1.8" height="16.4"/>
						<g>
							<rect x="70.5" y="-184.9" class="st2" width="1.4" height="37"/>
							<rect x="113.4" y="-184.9" class="st2" width="1.4" height="37"/>
						</g>
					</g>
					<g>
						<rect x="69" y="-221.9" class="st1" width="47.2" height="37"/>
						<rect x="91.7" y="-201.3" class="st2" width="1.8" height="16.4"/>
						<g>
							<rect x="70.5" y="-221.9" class="st2" width="1.4" height="37"/>
							<rect x="113.4" y="-221.9" class="st2" width="1.4" height="37"/>
						</g>
					</g>
					<g>
						<rect x="69" y="-258.9" class="st1" width="47.2" height="37"/>
						<rect x="91.7" y="-238.3" class="st2" width="1.8" height="16.4"/>
						<g>
							<rect x="70.5" y="-258.9" class="st2" width="1.4" height="37"/>
							<rect x="113.4" y="-258.9" class="st2" width="1.4" height="37"/>
						</g>
					</g>
					<g>
						<rect x="69" y="-295.9" class="st1" width="47.2" height="37"/>
						<rect x="91.7" y="-275.3" class="st2" width="1.8" height="16.4"/>
						<g>
							<rect x="70.5" y="-295.9" class="st2" width="1.4" height="37"/>
							<rect x="113.4" y="-295.9" class="st2" width="1.4" height="37"/>
						</g>
					</g>
					<g>
						<rect x="69" y="-332.9" class="st1" width="47.2" height="37"/>
						<rect x="91.7" y="-312.3" class="st2" width="1.8" height="16.4"/>
						<g>
							<rect x="70.5" y="-332.9" class="st2" width="1.4" height="37"/>
							<rect x="113.4" y="-332.9" class="st2" width="1.4" height="37"/>
						</g>
					</g>
					<g>
						<rect x="69" y="-370" class="st1" width="47.2" height="37"/>
						<rect x="91.7" y="-349.3" class="st2" width="1.8" height="16.4"/>
						<g>
							<rect x="70.5" y="-370" class="st2" width="1.4" height="37"/>
							<rect x="113.4" y="-370" class="st2" width="1.4" height="37"/>
						</g>
					</g>
					<g>
						<rect x="69" y="-407" class="st1" width="47.2" height="37"/>
						<rect x="91.7" y="-386.3" class="st2" width="1.8" height="16.4"/>
						<g>
							<rect x="70.5" y="-407" class="st2" width="1.4" height="37"/>
							<rect x="113.4" y="-407" class="st2" width="1.4" height="37"/>
						</g>
					</g>
					<g>
						<rect x="69" y="-444" class="st1" width="47.2" height="37"/>
						<rect x="91.7" y="-423.3" class="st2" width="1.8" height="16.4"/>
						<g>
							<rect x="70.5" y="-444" class="st2" width="1.4" height="37"/>
							<rect x="113.4" y="-444" class="st2" width="1.4" height="37"/>
						</g>
					</g>
					<g>
						<rect x="69" y="-481" class="st1" width="47.2" height="37"/>
						<rect x="91.7" y="-460.3" class="st2" width="1.8" height="16.4"/>
						<g>
							<rect x="70.5" y="-481" class="st2" width="1.4" height="37"/>
							<rect x="113.4" y="-481" class="st2" width="1.4" height="37"/>
						</g>
					</g>
					<g>
						<rect x="69" y="-518" class="st1" width="47.2" height="37"/>
						<rect x="91.7" y="-497.4" class="st2" width="1.8" height="16.4"/>
						<g>
							<rect x="70.5" y="-518" class="st2" width="1.4" height="37"/>
							<rect x="113.4" y="-518" class="st2" width="1.4" height="37"/>
						</g>
					</g>
				</g>
			</g>
		</g>
		<g>
			<path class="st3" d="M162.3-105.6c0,1-0.9,1.9-1.9,1.9h-14.2c-1.1,0-1.9-0.8-1.9-1.9c0-0.5,0.2-1,0.6-1.3
				c0.4-0.3,0.8-0.5,1.4-0.5h14.2C161.4-107.5,162.3-106.6,162.3-105.6z"/>
			<path class="st4" d="M155.2-116.2v9.8c0,0.6-0.5,1.2-1.2,1.2h-1.5c-0.7,0-1.2-0.5-1.2-1.2v-9.8c0-0.7,0.6-1.2,1.2-1.2h1.5
				C154.6-117.3,155.2-116.8,155.2-116.2z"/>
			<path class="st5" d="M163.3-122.6c0,4.7-3.5,8.5-8.1,9.4c-0.6,0.1-1.2,0.2-1.9,0.2s-1.4-0.1-2.1-0.2c-4.5-0.9-7.9-4.8-7.9-9.4
				c0-5.3,4.5-9.6,10-9.6S163.3-127.9,163.3-122.6z"/>
		</g>
		<g>
			<path class="st3" d="M164.3-343.1c0,1.5-1.3,2.8-2.9,2.8h-21.3c-1.6,0-2.9-1.3-2.9-2.8c0-0.8,0.3-1.5,0.9-2
				c0.5-0.5,1.3-0.8,2.1-0.8h21.3C163-345.9,164.3-344.7,164.3-343.1z"/>
			<path class="st4" d="M153.8-358.9v14.6c0,1-0.8,1.8-1.8,1.8h-2.3c-1,0-1.8-0.8-1.8-1.8v-14.6c0-1,0.8-1.8,1.8-1.8h2.3
				C152.9-360.7,153.8-359.9,153.8-358.9z"/>
			<path class="st5" d="M161.6-371.7c0,8-3.3,14.7-7.9,16.8c-0.9,0.4-2,0.7-3,0.7s-2-0.2-3-0.7c-4.5-2.1-7.9-8.8-7.9-16.8
				c0-9.6,4.9-17.5,10.9-17.5C156.8-389.2,161.6-381.4,161.6-371.7z"/>
		</g>
		<g>
			<path class="st3" d="M163.7-423.6c0,1.5-1.1,2.6-2.5,2.6h-18.3c-1.4,0-2.5-1.2-2.5-2.6c0-0.7,0.3-1.4,0.7-1.8
				c0.5-0.5,1.1-0.8,1.8-0.8h18.3C162.5-426.2,163.7-425.1,163.7-423.6z"/>
			<path class="st4" d="M154.6-438.5v13.8c0,0.9-0.7,1.7-1.6,1.7h-2c-0.9,0-1.6-0.7-1.6-1.7v-13.8c0-0.9,0.7-1.7,1.6-1.7h2
				C153.8-440.1,154.6-439.4,154.6-438.5z"/>
			<path class="st5" d="M165.1-447.6c0,6.6-4.5,12.1-10.5,13.3c-0.8,0.2-1.6,0.2-2.4,0.2c-0.9,0-1.8-0.1-2.7-0.3
				c-5.8-1.3-10.2-6.7-10.2-13.2c0-7.5,5.8-13.5,12.9-13.5S165.1-455.1,165.1-447.6z"/>
		</g>
		<g>
			<path class="st3" d="M61.8-23.8c0,1.7-1.3,3-2.9,3H38c-1.6,0-2.9-1.3-2.9-3c0-0.8,0.3-1.6,0.8-2.1c0.5-0.6,1.2-0.9,2-0.9h21
				C60.6-26.8,61.8-25.5,61.8-23.8z"/>
			<path class="st4" d="M51.4-40.9v15.8c0,1.1-0.8,1.9-1.8,1.9h-2.3c-1,0-1.8-0.8-1.8-1.9v-15.8c0-1.1,0.8-1.9,1.8-1.9h2.3
				C50.6-42.8,51.4-41.9,51.4-40.9z"/>
			<path class="st5" d="M59.2-54.7c0,8.6-3.3,15.9-7.8,18.1c-0.9,0.5-1.9,0.7-3,0.7c-1,0-2-0.3-2.9-0.7c-4.5-2.2-7.8-9.5-7.8-18.1
				c0-10.4,4.8-18.9,10.7-18.9C54.4-73.6,59.2-65.1,59.2-54.7z"/>
		</g>
		<g>
			<path class="st3" d="M54.3-188.1c0,1-0.9,1.9-1.9,1.9H38.2c-1.1,0-1.9-0.8-1.9-1.9c0-0.5,0.2-1,0.6-1.3c0.4-0.3,0.8-0.5,1.4-0.5
				h14.2C53.5-189.9,54.3-189.1,54.3-188.1z"/>
			<path class="st4" d="M47.3-198.6v9.8c0,0.7-0.5,1.2-1.2,1.2h-1.5c-0.7,0-1.2-0.5-1.2-1.2v-9.8c0-0.7,0.5-1.2,1.2-1.2H46
				C46.7-199.8,47.3-199.3,47.3-198.6z"/>
			<path class="st5" d="M55.4-205.1c0,4.7-3.5,8.6-8.2,9.4c-0.6,0.1-1.2,0.2-1.9,0.2s-1.4-0.1-2.1-0.2c-4.5-0.9-7.9-4.8-7.9-9.4
				c0-5.3,4.5-9.6,10-9.6S55.4-210.4,55.4-205.1z"/>
		</g>
		<g>
			<path class="st3" d="M57.2-121.7c0,1.4-1.1,2.6-2.5,2.6H36.4c-1.4,0-2.5-1.2-2.5-2.6c0-0.7,0.3-1.4,0.7-1.9
				c0.5-0.5,1.1-0.8,1.8-0.8h18.3C56.1-124.3,57.2-123.1,57.2-121.7z"/>
			<path class="st4" d="M48.1-136.6v13.8c0,0.9-0.7,1.7-1.6,1.7h-2c-0.9,0-1.6-0.7-1.6-1.7v-13.8c0-0.9,0.7-1.7,1.6-1.7h2
				C47.4-138.2,48.1-137.5,48.1-136.6z"/>
			<path class="st5" d="M58.6-145.7c0,6.6-4.5,12.1-10.5,13.3c-0.8,0.2-1.6,0.2-2.4,0.2c-0.9,0-1.8-0.1-2.7-0.3
				c-5.8-1.3-10.2-6.7-10.2-13.2c0-7.5,5.8-13.5,12.9-13.5S58.6-153.2,58.6-145.7z"/>
		</g>
		<g>
			<path class="st3" d="M63.3-442.9c0,1.7-1.3,3-2.9,3h-21c-1.6,0-2.9-1.3-2.9-3c0-0.8,0.3-1.6,0.8-2.1c0.5-0.6,1.2-0.9,2-0.9h21
				C62-445.9,63.3-444.6,63.3-442.9z"/>
			<path class="st4" d="M52.9-460v15.8c0,1.1-0.8,1.9-1.8,1.9h-2.3c-1,0-1.8-0.9-1.8-1.9V-460c0-1.1,0.8-1.9,1.8-1.9H51
				C52-461.9,52.9-461,52.9-460z"/>
			<path class="st5" d="M60.6-473.8c0,8.6-3.3,15.9-7.8,18.1c-0.9,0.5-1.9,0.7-3,0.7c-1,0-2-0.3-2.9-0.7c-4.5-2.2-7.8-9.5-7.8-18.1
				c0-10.4,4.8-18.9,10.7-18.9C55.8-492.7,60.6-484.2,60.6-473.8z"/>
		</g>
		<g>
			<rect x="145" y="-293.3" class="st2" width="12.5" height="3.5"/>
			<rect x="145" y="-312.7" class="st6" width="4.8" height="42.2"/>
			<rect x="150.5" y="-312.7" class="st6" width="4.8" height="42.2"/>
			<polygon class="st2" points="157.5,-312.7 157.5,-309.2 155.3,-309.2 150.5,-309.2 145,-309.2 145,-312.7 			"/>
			<rect x="145" y="-274" class="st2" width="12.5" height="3.5"/>
			<polygon class="st6" points="157.8,-312.7 157.8,-270.5 155.9,-270.5 155.9,-312.7 			"/>
		</g>
		<g>
			<path class="st2" d="M145.7-290.7L145.7-290.7c0,0.4-0.1,0.6-0.2,0.9c-0.1,0.3-0.3,0.6-0.5,0.8c-0.4,0.4-0.9,0.6-1.4,0.6H141
				c-0.6,0-1.1-0.3-1.5-0.7c-0.4-0.4-0.6-1-0.6-1.6c0-1.2,0.9-2.2,2.1-2.2h2.6c0.4,0,0.7,0.1,1,0.3c0.1,0.1,0.3,0.2,0.4,0.3
				C145.4-291.9,145.7-291.3,145.7-290.7z"/>
			<path class="st2" d="M145.7-295.7c0,0.6-0.3,1.2-0.7,1.6c-0.1,0.1-0.3,0.3-0.5,0.3c-0.3,0.2-0.6,0.3-1,0.3H141
				c-0.6,0-1.1-0.3-1.5-0.7s-0.6-1-0.6-1.6c0-1.2,0.9-2.2,2.1-2.2h2.6c0.5,0,1,0.2,1.4,0.6c0.3,0.3,0.6,0.8,0.7,1.3
				C145.7-295.9,145.7-295.8,145.7-295.7z"/>
			<path class="st7" d="M148.3-290.7c0,0.3-0.1,0.6-0.2,0.9c-0.1,0.2-0.2,0.3-0.3,0.5c-0.3,0.4-0.8,0.8-1.3,0.9
				c-0.1,0-0.3,0.1-0.4,0.1h-2.6c-0.6,0-1.1-0.3-1.5-0.7c-0.4-0.4-0.6-1-0.6-1.6c0-1.2,0.9-2.2,2.1-2.2h2.6c0.1,0,0.3,0,0.4,0.1
				C147.6-292.7,148.3-291.8,148.3-290.7z"/>
			<path class="st7" d="M148.3-295.7c0,1.1-0.7,2-1.7,2.2c-0.1,0-0.3,0.1-0.4,0.1h-2.6c-0.6,0-1.1-0.3-1.5-0.7
				c-0.4-0.4-0.6-1-0.6-1.6c0-1.2,0.9-2.2,2.1-2.2h2.6c0.1,0,0.3,0,0.4,0.1c0.4,0.1,0.8,0.3,1.1,0.6l0,0
				C148.1-296.8,148.3-296.3,148.3-295.7z"/>
			<path class="st8" d="M146.6-286.7v-13.2c0-1.6,1.3-3,2.9-3l0,0c1.6,0,2.9,1.3,2.9,3v13.2c0,1.6-1.3,3-2.9,3l0,0
				C147.9-283.8,146.6-285.1,146.6-286.7z"/>
			<path class="st9" d="M149.4-286c0,0.9-0.5,1.6-1.2,2c-0.3,0.2-0.6,0.3-1,0.3h-2.9c-0.6,0-1.1-0.3-1.5-0.7c-0.4-0.4-0.6-1-0.6-1.6
				c0-1.2,0.9-2.2,2.1-2.2h2.9C148.5-288.2,149.4-287.2,149.4-286z"/>
			<path class="st9" d="M153.8-293.3L153.8-293.3c0,1.2-0.6,2.3-1.5,3c-0.2,0.2-0.5,0.4-0.7,0.5c-0.3,0.2-0.7,0.3-1.1,0.4
				c-0.2,0.1-0.4,0.1-0.6,0.1c-0.2,0-0.4,0.1-0.7,0.1c-0.1,0-0.3,0-0.4,0c-0.1,0-0.2,0-0.3,0c-0.2,0-0.4-0.1-0.6-0.1
				c-0.1,0-0.1,0-0.2-0.1c-0.1,0-0.2-0.1-0.3-0.1l0,0c-0.1-0.1-0.3-0.1-0.4-0.2c-0.1,0-0.1-0.1-0.2-0.1l0,0l-0.1-0.1
				c-0.1-0.1-0.2-0.2-0.4-0.2c-0.2-0.1-0.4-0.3-0.6-0.5c-0.3-0.3-0.5-0.6-0.7-0.9s-0.3-0.7-0.4-1.1c0-0.1,0-0.2-0.1-0.3
				c0-0.1,0-0.3,0-0.4v-0.1c0-0.1,0-0.2,0-0.3c0-0.5,0.2-1,0.5-1.4c0.2-0.3,0.4-0.6,0.7-0.9c0.2-0.2,0.4-0.4,0.6-0.5
				c0.1-0.1,0.2-0.1,0.3-0.2c0,0,0,0,0.1,0c0.2-0.1,0.4-0.2,0.6-0.3c0.1,0,0.2-0.1,0.3-0.1c0,0,0,0,0.1,0h0.1h0.1
				c0.1,0,0.2-0.1,0.3-0.1s0.2,0,0.3-0.1c0.1,0,0.3,0,0.4-0.1c0.1,0,0.3,0,0.4,0c0.2,0,0.5,0,0.7,0.1c0.2,0,0.4,0.1,0.6,0.1
				c0.7,0.2,1.3,0.5,1.8,0.9C153.2-295.6,153.8-294.5,153.8-293.3z"/>
			<path class="st10" d="M146.2-296.5c0.8-0.6,1.8-0.9,2.9-0.9c2.5,0,4.6,1.8,4.6,4.1c0,2.3-2.1,4.1-4.6,4.1c-1.1,0-2.1-0.3-2.9-0.9
				c-0.2-1-0.2-2.1-0.2-3.3C146-294.5,146.1-295.5,146.2-296.5z"/>
			<path class="st8" d="M151.5-286c0,0.8-0.4,1.5-1,1.9c-0.2,0.1-0.4,0.2-0.6,0.3c-0.1,0-0.1,0-0.2,0c-0.1,0-0.1,0-0.2,0h-4.7v-4.4
				h4.7c0.2,0,0.3,0,0.4,0.1c0.2,0.1,0.5,0.1,0.6,0.3C151.1-287.5,151.5-286.8,151.5-286z"/>
			<path class="st9" d="M149.4-300.7c0,1.2-1,2.2-2.1,2.2h-2.9c-0.6,0-1.1-0.3-1.5-0.7s-0.6-1-0.6-1.6c0-1.2,0.9-2.2,2.1-2.2h2.9
				c0.4,0,0.7,0.1,1,0.3C149-302.3,149.4-301.5,149.4-300.7z"/>
			<path class="st8" d="M151.5-300.7c0,0.8-0.4,1.5-1,1.9c-0.2,0.1-0.4,0.2-0.6,0.3c-0.1,0-0.3,0.1-0.4,0.1h-4.7v-4.4h4.8
				c0.1,0,0.1,0,0.2,0c0.1,0,0.2,0,0.2,0c0.2,0.1,0.5,0.1,0.6,0.3C151.1-302.2,151.5-301.5,151.5-300.7z"/>
		</g>
		<g>
			<g>
				<path class="st11" d="M59.3-333.1c-0.4,4.6-2.6,4.2-5.6,6.3c-6.2,4.4-0.4,14.5-6.2,17.7c-6.9,3.8-17.9-1.9-22.4-7.4
					c-5-5.9-5.9-15.4,3-16.6c3.4-0.6,8.1,1.1,10.3-1.9c1.6-2.1,0.8-5.3,2.4-7.2c3.4-4.6,11.5-0.8,14.5,1.3
					C57.7-338.9,59.5-337.4,59.3-333.1z"/>
			</g>
			<g>
				<g>
					<g>
						<g>
							<path class="st2" d="M19.6-379.3c3.7,0,3.7-6,0-6S15.8-379.3,19.6-379.3L19.6-379.3z"/>
						</g>
					</g>
					<g>
						<g>
							<path class="st2" d="M39.6-381.9c3.7,0,3.7-6,0-6C35.9-387.9,35.9-381.9,39.6-381.9L39.6-381.9z"/>
						</g>
					</g>
					<g>
						<g>
							<path class="st2" d="M35.7-391.6c3.7,0,3.7-6,0-6C32-397.7,31.9-391.6,35.7-391.6L35.7-391.6z"/>
						</g>
					</g>
					<g>
						<g>
							<path class="st2" d="M23.5-387.9c3.7,0,3.7-6,0-6S19.8-387.9,23.5-387.9L23.5-387.9z"/>
						</g>
					</g>
					<g>
						<g>
							<path class="st2" d="M56.8-378.2c3.7,0,3.7-6,0-6S53.1-378.2,56.8-378.2L56.8-378.2z"/>
						</g>
					</g>
					<g>
						<g>
							<path class="st2" d="M47.1-386.4c3.7,0,3.7-6,0-6C43.4-392.4,43.4-386.4,47.1-386.4L47.1-386.4z"/>
						</g>
					</g>
					<g>
						<g>
							<path class="st2" d="M28.1-396.5c3.7,0,3.7-6,0-6S24.4-396.5,28.1-396.5L28.1-396.5z"/>
						</g>
					</g>
					<g>
						<g>
							<path class="st2" d="M43.9-395.4c3.7,0,3.7-6,0-6S40.2-395.4,43.9-395.4L43.9-395.4z"/>
						</g>
					</g>
					<g>
						<g>
							<path class="st2" d="M55.6-387.9c3.7,0,3.7-6,0-6C51.9-393.9,51.9-387.9,55.6-387.9L55.6-387.9z"/>
						</g>
					</g>
				</g>
				<g class="st12">
					<path d="M66.2-349.5c-2.5,2.9-8,2.4-11.2,2.4c-6.8,0-16.3,2-22.9-0.7c-3.8-1.3-1.5-4.2-4.2-6.2c-2.1-1.6-8,0-10.6-0.2
						c-3.6-0.7-5.7-2-5.9-6c-0.2-5.1,2.5-4.9,6.8-4.9c0.4,0,0.8,0,1.2,0c6.1,0.1,12.1,1.2,18.2,1.6c2,0.2,4,0.2,6.1,0.2l-0.4-0.4
						c0.7,0,1.4,0,2.2-0.1c3.6-0.2,8.6-0.8,12.9-0.5c3.4,0.3,6.4,1.1,7.9,3.2C68.1-358.3,68.3-351.9,66.2-349.5z"/>
				</g>
				<g>
					<g>
						<g>
							<path class="st13" d="M46.5-361l-1.2-2.7l-3-6.5l-0.9-2l-0.2-0.5l-4.1-9.1l-3.8-8.4c-0.2-0.5-0.8-0.9-1.3-0.9
								c-0.6,0-1.1,0.4-1.3,0.9l-4.5,10l-6.9,15.1l-1.9,4.1c-0.2,0.5-0.2,1,0.1,1.5c0.3,0.5,0.7,0.7,1.2,0.7h26.5l0,0
								c0.8,0,1.5-0.7,1.5-1.5C46.7-360.5,46.6-360.7,46.5-361z"/>
						</g>
						<g>
							<g>
								<path class="st2" d="M37.3-382.2l-3.7-8c-0.3-0.7-0.9-1.1-1.7-1.1c-0.7,0-1.4,0.4-1.7,1.1l-4.4,9.7c-0.1,0.1,0,0.3,0.1,0.4
									L26-380c0.3,0.3,0.7,0.5,1.2,0.5s1-0.2,1.4-0.5c0.7-0.5,1.3-1.2,1.7-2.2c0,1.3,0,3,0.8,3.9c0.3,0.4,0.7,0.5,1.2,0.5l0,0
									c0.6,0,1-0.2,1.4-0.6c0.8-0.9,0.8-2.6,0.7-4c0.4,0.6,1.1,0.8,1.7,0.8c0.3,0,0.5-0.1,0.8-0.1l0,0c0.1,0,0.1-0.1,0.2-0.2
									C37.3-382,37.3-382.1,37.3-382.2z"/>
							</g>
						</g>
					</g>
					<g>
						<g>
							<path class="st14" d="M62.5-354.6l-4.3-9.6l-3.3-7.3l-5.6-12.2c-0.2-0.5-0.8-0.9-1.3-0.9c-0.6,0-1.1,0.4-1.3,0.9l-5.2,11.5
								l-0.4,1l-3.6,7.9l-2.1,4.7l-1.9,4.1c-0.2,0.5-0.2,1,0.1,1.5s0.7,0.7,1.2,0.7h26.5l0,0c0.8,0,1.5-0.7,1.5-1.5
								C62.8-354.1,62.7-354.4,62.5-354.6z"/>
						</g>
						<g>
							<g>
								<path class="st2" d="M55.1-372l-5.4-11.9c-0.3-0.7-1-1.1-1.7-1.1s-1.4,0.4-1.7,1.1l-5.1,11.3l-0.3,0.8c0,0.1,0,0.2,0,0.2
									c0,0.1,0,0.2,0.1,0.3v0.1c0.2,0.6,0.7,1,1.3,1l0,0c1.1,0,2.3-1.1,2.8-1.8c0.3-0.6,0.5-1.1,0.7-1.7c0.1-0.3,0.2-0.5,0.3-0.7
									c0,0.6,0,1.1-0.1,1.7c0,0.4,0,0.8-0.1,1.2v0.2c0,1.2-0.1,3.1,0.9,4.1c0.4,0.4,0.9,0.6,1.5,0.6c0.5,0,1-0.2,1.3-0.5
									c0.5-0.5,0.8-1.3,0.9-2.3c0.1-1,0-2,0-3c0-0.1,0-0.1,0-0.2c0.6,1,1.5,1.9,2.7,1.9c0.2,0,0.5,0,0.7-0.1
									c0.3-0.1,0.6-0.3,0.8-0.6c0.1-0.1,0.1-0.1,0.1-0.2C55.1-371.8,55.1-371.9,55.1-372z"/>
							</g>
						</g>
					</g>
				</g>
			</g>
		</g>
		<g id="XMLID_41_">
			<g id="XMLID_58_">
				<rect x="150.7" y="-491.6" class="st15" width="1.6" height="22.9"/>
			</g>
			<g id="XMLID_53_">
				<ellipse id="XMLID_57_" class="st16" cx="151.5" cy="-500" rx="8" ry="8.4"/>
				<path id="XMLID_54_" class="st17" d="M151.5-509.2c-4.9,0-8.8,4.1-8.8,9.2c0,4.8,3.5,8.7,8,9.1c0.3,0,0.5,0,0.8,0s0.5,0,0.8,0
					c4.5-0.4,8-4.4,8-9.1C160.3-505,156.3-509.2,151.5-509.2z M156-494.1c-1.2,1-2.8,1.7-4.5,1.7c-4,0-7.2-3.4-7.2-7.5
					c0-1.8,0.6-3.4,1.6-4.7c0.3-0.4,0.7-0.8,1.1-1.2c1.2-1.1,2.8-1.7,4.5-1.7c4,0,7.2,3.4,7.2,7.5c0,1.8-0.6,3.4-1.6,4.7
					C156.8-494.8,156.4-494.4,156-494.1z"/>
			</g>
			<g id="XMLID_44_">
				<g id="XMLID_47_">
					<g id="XMLID_51_">
						<path id="XMLID_52_" class="st18" d="M149.8-494.5h-2.5v-4.1c0-2.7,2.1-4.9,4.7-4.9h1.8v2.6H152c-1.2,0-2.3,1.1-2.3,2.4v4
							H149.8z"/>
					</g>
					<g id="XMLID_48_">
						<g id="XMLID_49_">
							<polygon id="XMLID_50_" class="st18" points="153.8,-502.1 154,-502.3 153.8,-502.4 							"/>
						</g>
					</g>
				</g>
				<g id="XMLID_45_">
					<polygon id="XMLID_46_" class="st18" points="153.2,-505.1 156.8,-502.3 153.2,-499.5 					"/>
				</g>
			</g>
			<g id="XMLID_42_">
				<polygon id="XMLID_43_" class="st17" points="145.2,-505.3 146.4,-506.5 157.7,-494.6 156.6,-493.5 				"/>
			</g>
		</g>
		<g id="XMLID_22_">
			<g id="XMLID_39_">
				<rect x="43.9" y="-265.3" class="st15" width="1.6" height="22.9"/>
			</g>
			<g id="XMLID_34_">
				<ellipse id="XMLID_38_" class="st16" cx="44.7" cy="-273.6" rx="8" ry="8.4"/>
				<path id="XMLID_35_" class="st17" d="M44.7-282.8c-4.9,0-8.8,4.1-8.8,9.2c0,4.8,3.5,8.7,8,9.1c0.3,0,0.5,0,0.8,0s0.5,0,0.8,0
					c4.5-0.4,8-4.4,8-9.1C53.5-278.7,49.5-282.8,44.7-282.8z M49.2-267.8c-1.2,1.1-2.8,1.7-4.5,1.7c-4,0-7.2-3.4-7.2-7.5
					c0-1.8,0.6-3.4,1.6-4.7c0.3-0.4,0.7-0.8,1.1-1.2c1.2-1.1,2.8-1.7,4.5-1.7c4,0,7.2,3.4,7.2,7.5c0,1.8-0.6,3.4-1.6,4.7
					C50-268.5,49.6-268.1,49.2-267.8z"/>
			</g>
			<g id="XMLID_25_">
				<g id="XMLID_28_">
					<g id="XMLID_32_">
						<path id="XMLID_33_" class="st18" d="M43-268.2h-2.5v-4.1c0-2.7,2.1-4.9,4.7-4.9H47v2.6h-1.8c-1.2,0-2.3,1.1-2.3,2.4
							C43-272.3,43-268.2,43-268.2z"/>
					</g>
					<g id="XMLID_29_">
						<g id="XMLID_30_">
							<polygon id="XMLID_31_" class="st18" points="47.1,-275.8 47.3,-275.9 47.1,-276.1 							"/>
						</g>
					</g>
				</g>
				<g id="XMLID_26_">
					<polygon id="XMLID_27_" class="st18" points="46.4,-278.7 50.1,-275.9 46.4,-273.1 					"/>
				</g>
			</g>
			<g id="XMLID_23_">
				<polygon id="XMLID_24_" class="st17" points="38.5,-279 39.6,-280.1 50.9,-268.3 49.8,-267.1 				"/>
			</g>
		</g>
		<g id="XMLID_21_">
			<g>
				<polygon class="st19" points="175.1,-48 124.6,-48 129.3,-60.8 170.4,-60.8 				"/>
				<path class="st20" d="M175.1-48c0,2.1-1.6,3.8-3.6,3.8s-3.6-1.7-3.6-3.8H175.1z"/>
				<path class="st16" d="M167.9-48c0,2.1-1.6,3.8-3.6,3.8s-3.6-1.7-3.6-3.8c0,2.1-1.6,3.8-3.6,3.8s-3.6-1.7-3.6-3.8
					c0,2.1-1.6,3.8-3.6,3.8s-3.6-1.7-3.6-3.8c0,2.1-1.6,3.8-3.6,3.8s-3.6-1.7-3.6-3.8c0,2.1-1.6,3.8-3.6,3.8s-3.6-1.7-3.6-3.8
					c0,2.1-1.6,3.8-3.6,3.8v16.8H146v-11.4h7.7v11.4h17.7v-16.8C169.5-44.2,167.9-45.9,167.9-48z M142.4-31.8h-10.6v-7h10.6V-31.8z
					 M167.9-31.8h-10.6v-7h10.6V-31.8z"/>
				<rect x="157.3" y="-38.8" class="st19" width="10.6" height="7"/>
				<path class="st20" d="M160.7-48h7.2c0,2.1-1.6,3.8-3.6,3.8C162.3-44.2,160.7-45.9,160.7-48z"/>
				<path class="st20" d="M153.5-48h7.2c0,2.1-1.6,3.8-3.6,3.8C155.1-44.2,153.5-45.9,153.5-48z"/>
				<rect x="146" y="-38.8" class="st19" width="7.7" height="11.4"/>
				<path class="st20" d="M146.3-48h7.2c0,2.1-1.6,3.8-3.6,3.8S146.3-45.9,146.3-48z"/>
				<path class="st20" d="M139.1-48h7.2c0,2.1-1.6,3.8-3.6,3.8S139.1-45.9,139.1-48z"/>
				<rect x="131.9" y="-38.8" class="st19" width="10.6" height="7"/>
				<path class="st20" d="M131.9-48h7.2c0,2.1-1.6,3.8-3.6,3.8C133.5-44.2,131.9-45.9,131.9-48z"/>
				<path class="st20" d="M131.8-48c0,2.1-1.6,3.8-3.6,3.8s-3.6-1.7-3.6-3.8H131.8z"/>
			</g>
		</g>
		<g>
			<path class="st21" d="M152.1-194c-0.2,0.1-0.5,0.2-0.7,0.2c-0.3-0.1-0.6-0.2-0.9-0.3c-33-11.4,0.9-54.1,0.9-54.1
				S185.4-205.3,152.1-194z"/>
			<g>
				<rect x="150.5" y="-233.8" class="st22" width="1.6" height="59.8"/>
			</g>
			<g>
				<polygon class="st22" points="150.8,-197.3 157.6,-204.5 158.7,-203.3 151.9,-196.1 				"/>
			</g>
			<g>
				<polygon class="st22" points="144.1,-211.7 145.3,-212.8 151.9,-205.9 150.8,-204.7 				"/>
			</g>
			<g>
				<polygon class="st22" points="144.1,-228.2 145.3,-229.4 151.9,-222.5 150.8,-221.3 				"/>
			</g>
			<g>
				<polygon class="st22" points="150.8,-214.6 157.4,-221.6 158.6,-220.4 151.9,-213.5 				"/>
			</g>
		</g>
	</g>
</g>
<g>
	<path class="st24" d="M90.4,352.7c0.1,0.2-0.1,0.5-0.3,0.6l-0.7,0.2c-0.2,0.1-0.5-0.1-0.6-0.3l0,0c-0.1-0.2,0.1-0.5,0.3-0.6
		l0.7-0.2C90.1,352.3,90.4,352.5,90.4,352.7L90.4,352.7z"/>
	<path class="st25" d="M99.8,352.7c-0.1,0.2,0.1,0.5,0.3,0.6l0.7,0.2c0.2,0.1,0.5-0.1,0.6-0.3l0,0c0.1-0.2-0.1-0.5-0.3-0.6l-0.7-0.2
		C100.1,352.3,99.8,352.5,99.8,352.7L99.8,352.7z"/>
	<linearGradient id="SVGID_1_" gradientUnits="userSpaceOnUse" x1="88.614" y1="354.4625" x2="101.547" y2="354.4625">
		<stop  offset="0" style="stop-color:#535A57"/>
		<stop  offset="1" style="stop-color:#2D2E2E"/>
	</linearGradient>
	<path class="st26" d="M101.5,356.6v-3.3c-3.7-1.3-9.2-1.3-12.9,0v3.3H101.5z"/>
	<linearGradient id="SVGID_2_" gradientUnits="userSpaceOnUse" x1="106.6082" y1="372.8367" x2="104.5129" y2="355.1312">
		<stop  offset="0" style="stop-color:#1E94D2"/>
		<stop  offset="0.406" style="stop-color:#27ACE3"/>
		<stop  offset="1" style="stop-color:#33C4F2"/>
	</linearGradient>
	<path class="st27" d="M107.7,363.7c0.3,2.5,0.4,5.4,0.4,8.4h0.8c0-3.1-0.2-6.2-0.4-8.8c-0.3-3-0.8-4.5-1.7-5.7
		c-0.4,0.1-0.8,0-1.1-0.3l-3.2-2.6c-0.3-0.3-0.5-0.7-0.6-1.1c-0.1-0.1-0.3-0.1-0.5-0.2v1c0.9,0.3,1.6,0.8,2.2,1.3
		C106.2,357.9,107.2,358.8,107.7,363.7z"/>
	
		<radialGradient id="SVGID_3_" cx="95.1067" cy="-3766.7925" r="16.9202" gradientTransform="matrix(1 0 0 2.3262 0 9148.9395)" gradientUnits="userSpaceOnUse">
		<stop  offset="0" style="stop-color:#F7F8F8"/>
		<stop  offset="1" style="stop-color:#A9ACAB"/>
	</radialGradient>
	<path class="st28" d="M108.9,372h-0.8c0.1,6-0.1,12-0.1,14c0.2,15.6-0.5,25.1-1.4,28.4c-0.2,0.6-0.6,1.1-1.2,1.5l-1.2-5.6H86
		l-1.5,5.4c-0.4-0.4-0.8-0.8-0.9-1.3c-0.9-3.3-1.6-12.8-1.4-28.4c0-2-0.2-8-0.1-14h-0.8c-0.1,6.2,0.2,12.4,0.1,14.4
		c-0.2,16.2,0.5,26.1,1.5,29.5c0.2,0.6,0.6,1.2,1.3,1.6c0.1-0.1,0.3-0.1,0.5-0.1c1.1,0,1.7,0.8,2.9,0.6c0.8-0.2,1.1,0.6,1.2,1.1
		c0.7,0.1,1.5,0.2,2.2,0.3c0.1-0.2,0.3-0.3,0.5-0.3h7.3c0.2,0,0.4,0.1,0.5,0.3c0.5-0.1,1.1-0.1,1.6-0.2c0.1-0.5,0.3-1.4,1.2-1.2
		c1.2,0.2,1.8-0.6,2.9-0.6c0.3,0,0.6,0.1,0.8,0.3c0.8-0.5,1.4-1.1,1.6-1.8c1-3.4,1.7-13.3,1.5-29.5C108.8,384.4,109,378.3,108.9,372
		z"/>
	<linearGradient id="SVGID_4_" gradientUnits="userSpaceOnUse" x1="85.1058" y1="358.9024" x2="84.3724" y2="370.9505">
		<stop  offset="0" style="stop-color:#33C4F2"/>
		<stop  offset="0.594" style="stop-color:#27ACE3"/>
		<stop  offset="1" style="stop-color:#1E94D2"/>
	</linearGradient>
	<path class="st29" d="M82.5,363.7c0.5-4.9,1.5-5.8,4-8.1c0.5-0.5,1.3-0.9,2.2-1.3v-1c-0.2,0.1-0.3,0.1-0.5,0.2
		c-0.1,0.4-0.2,0.8-0.6,1.1l-3.2,2.6c-0.3,0.3-0.7,0.3-1.1,0.3c-0.9,1.2-1.4,2.8-1.7,5.7c-0.3,2.6-0.4,5.7-0.4,8.8H82
		C82.1,369.1,82.2,366.2,82.5,363.7z"/>
	
		<radialGradient id="SVGID_5_" cx="95.1" cy="-3766.7925" r="16.9228" gradientTransform="matrix(1 0 0 2.3262 0 9148.9395)" gradientUnits="userSpaceOnUse">
		<stop  offset="0" style="stop-color:#F7F8F8"/>
		<stop  offset="1" style="stop-color:#A9ACAB"/>
	</radialGradient>
	<path class="st30" d="M82.2,386.1c-0.2,15.6,0.5,25.1,1.4,28.4c0.1,0.5,0.5,1,0.9,1.3l1.5-5.4h18.2l1.2,5.6c0.6-0.4,1-0.9,1.2-1.5
		c0.9-3.3,1.6-12.8,1.4-28.4c0-2,0.2-8,0.1-14h-26C82,378.1,82.2,384.1,82.2,386.1z"/>
	
		<radialGradient id="SVGID_6_" cx="95.1" cy="-5673.6807" r="13.528" gradientTransform="matrix(1 0 0 4.2875 0 24711.457)" gradientUnits="userSpaceOnUse">
		<stop  offset="0" style="stop-color:#FFFFFF"/>
		<stop  offset="1" style="stop-color:#D3D6D5"/>
	</radialGradient>
	<path class="st31" d="M82.2,386.1c-0.2,15.6,0.5,25.1,1.4,28.4c0.1,0.5,0.5,1,0.9,1.3l1.5-5.4h18.2l1.2,5.6c0.6-0.4,1-0.9,1.2-1.5
		c0.9-3.3,1.6-12.8,1.4-28.4c0-2,0.2-8,0.1-14h-26C82,378.1,82.2,384.1,82.2,386.1z"/>
	
		<radialGradient id="SVGID_7_" cx="95.1" cy="-3766.7925" r="16.9162" gradientTransform="matrix(1 0 0 2.3262 0 9148.9395)" gradientUnits="userSpaceOnUse">
		<stop  offset="0" style="stop-color:#F7F8F8"/>
		<stop  offset="1" style="stop-color:#A9ACAB"/>
	</radialGradient>
	<path class="st32" d="M82.5,363.7c-0.3,2.5-0.4,5.4-0.4,8.4h26c0-2.9-0.2-5.9-0.4-8.4c-0.5-4.9-1.5-5.8-4-8.1
		c-0.5-0.5-1.3-0.9-2.2-1.3v2.3H88.6v-2.3c-0.9,0.3-1.6,0.8-2.2,1.3C84,357.9,83,358.8,82.5,363.7z"/>
	<linearGradient id="SVGID_8_" gradientUnits="userSpaceOnUse" x1="94.9508" y1="368.995" x2="93.3333" y2="351.4178">
		<stop  offset="0" style="stop-color:#33C4F2"/>
		<stop  offset="0.594" style="stop-color:#27ACE3"/>
		<stop  offset="1" style="stop-color:#1E94D2"/>
	</linearGradient>
	<path class="st33" d="M107.7,363.7c-0.5-4.9-1.5-5.8-4-8.1c-0.5-0.5-1.3-0.9-2.2-1.3c-3.6-1.4-9.4-1.4-12.9,0
		c-0.9,0.3-1.6,0.8-2.2,1.3c-2.5,2.3-3.5,3.1-4,8.1c-0.3,2.5-0.4,5.4-0.4,8.4h26C108.1,369.1,107.9,366.2,107.7,363.7z"/>
	<linearGradient id="SVGID_9_" gradientUnits="userSpaceOnUse" x1="84.1161" y1="370.45" x2="106.0445" y2="370.45">
		<stop  offset="0" style="stop-color:#010101"/>
		<stop  offset="1" style="stop-color:#1B1C1C"/>
	</linearGradient>
	<path class="st34" d="M84.9,371.9c0.8-0.4,2.3-1.1,4.6-1.7c3.3-0.8,7.7-0.8,11,0c2.3,0.6,3.8,1.2,4.6,1.7c0.4,0.2,0.6,0.3,0.7,0.5
		l0,0c0,0,0.2-0.8,0.1-1s-0.3-0.4-0.8-0.6c-0.8-0.4-2.3-1.1-4.6-1.7c-3.3-0.8-7.7-0.8-11,0c-2.3,0.6-3.8,1.2-4.6,1.7
		c-0.4,0.2-0.7,0.4-0.8,0.6c-0.1,0.2,0.1,1,0.1,1l0,0C84.3,372.2,84.6,372.1,84.9,371.9z"/>
	<linearGradient id="SVGID_10_" gradientUnits="userSpaceOnUse" x1="84.213" y1="375.45" x2="105.951" y2="375.45">
		<stop  offset="0" style="stop-color:#373C3A"/>
		<stop  offset="1" style="stop-color:#1B1C1C"/>
	</linearGradient>
	<path class="st35" d="M89.9,380c2.4-0.4,7.9-0.4,10.3,0c2.2,0.3,3.7,1,4.3,1.3l1.4-8.9c-0.1-0.1-0.4-0.3-0.7-0.5
		c-0.8-0.4-2.3-1.1-4.6-1.7c-3.3-0.8-7.7-0.8-11,0c-2.3,0.6-3.8,1.2-4.6,1.7c-0.4,0.2-0.6,0.3-0.7,0.5l1.4,8.9
		C86.2,381,87.8,380.3,89.9,380z"/>
	<linearGradient id="SVGID_11_" gradientUnits="userSpaceOnUse" x1="94.95" y1="417.6974" x2="94.95" y2="412.6724">
		<stop  offset="0" style="stop-color:#33C4F2"/>
		<stop  offset="0.594" style="stop-color:#27ACE3"/>
		<stop  offset="1" style="stop-color:#1E94D2"/>
	</linearGradient>
	<path class="st36" d="M86,410.4l-1.5,5.4c2.8,2.4,10.6,2.3,10.6,2.3s7.4,0.1,10.3-2l-1.2-5.6L86,410.4L86,410.4z"/>
	<linearGradient id="SVGID_12_" gradientUnits="userSpaceOnUse" x1="86.5264" y1="408.2625" x2="103.6264" y2="408.2625">
		<stop  offset="0" style="stop-color:#373C3A"/>
		<stop  offset="1" style="stop-color:#1B1C1C"/>
	</linearGradient>
	<path class="st37" d="M86.8,405.5c-0.4,2.3-0.2,4.3-0.2,4.3s1.7,0.6,4.2,1c1.9,0.3,6.7,0.3,8.6,0c2.5-0.4,4.2-1,4.2-1
		s0.2-2-0.2-4.2c-1.5,0.3-4.2,0.7-8.3,0.7C91.2,406.3,88.3,405.8,86.8,405.5z"/>
	<g>
		<linearGradient id="SVGID_13_" gradientUnits="userSpaceOnUse" x1="82.6126" y1="382.1" x2="85.516" y2="382.1">
			<stop  offset="0" style="stop-color:#373C3A"/>
			<stop  offset="1" style="stop-color:#1B1C1C"/>
		</linearGradient>
		<path class="st38" d="M82.9,391.5l2.7,0.7l-0.3-9.2l-1.9-11c0,0-1,2.8-0.8,6.8c0.1,2.5,0.4,6,0.4,8.3
			C83,389.3,82.9,390.8,82.9,391.5z"/>
		<linearGradient id="SVGID_14_" gradientUnits="userSpaceOnUse" x1="104.647" y1="382.15" x2="107.5513" y2="382.15">
			<stop  offset="0" style="stop-color:#373C3A"/>
			<stop  offset="1" style="stop-color:#1B1C1C"/>
		</linearGradient>
		<path class="st39" d="M107.3,391.5l-2.7,0.7l0.3-9.2l1.8-10.9c0,0,1,2.8,0.8,6.8c-0.1,2.5-0.4,6-0.4,8.3
			C107.2,389.3,107.2,390.8,107.3,391.5z"/>
	</g>
	<g>
		<linearGradient id="SVGID_15_" gradientUnits="userSpaceOnUse" x1="82.7134" y1="399.1" x2="85.7384" y2="399.1">
			<stop  offset="0" style="stop-color:#373C3A"/>
			<stop  offset="1" style="stop-color:#1B1C1C"/>
		</linearGradient>
		<path class="st40" d="M82.8,392.4l2.7,0.9l0.2,7.7c0,0-0.2,1-0.9,2.5c-0.8,1.8-2.1,2.3-2.1,2.3S82.6,395.3,82.8,392.4z"/>
		<linearGradient id="SVGID_16_" gradientUnits="userSpaceOnUse" x1="104.421" y1="399.1" x2="107.446" y2="399.1">
			<stop  offset="0" style="stop-color:#373C3A"/>
			<stop  offset="1" style="stop-color:#1B1C1C"/>
		</linearGradient>
		<path class="st41" d="M107.4,392.4l-2.7,0.9l-0.2,7.7c0,0,0.2,1,0.9,2.5c0.8,1.8,2.1,2.3,2.1,2.3S107.6,395.3,107.4,392.4z"/>
	</g>
	<g>
		
			<radialGradient id="SVGID_17_" cx="85.749" cy="327.9772" r="2.0853" gradientTransform="matrix(1 0 0 1.1697 0 -28.1267)" gradientUnits="userSpaceOnUse">
			<stop  offset="0" style="stop-color:#FFFFFF"/>
			<stop  offset="1" style="stop-color:#A0A2A1"/>
		</radialGradient>
		<path class="st42" d="M84.4,357.2l3.2-2.6c0.3-0.3,0.5-0.7,0.6-1.1c-0.9,0.4-1.7,0.8-2.2,1.3c-1.1,1-1.9,1.7-2.6,2.6
			C83.7,357.6,84.1,357.5,84.4,357.2z"/>
		
			<radialGradient id="SVGID_18_" cx="104.414" cy="327.9765" r="2.0854" gradientTransform="matrix(1 0 0 1.1697 0 -28.1267)" gradientUnits="userSpaceOnUse">
			<stop  offset="0" style="stop-color:#FFFFFF"/>
			<stop  offset="1" style="stop-color:#A0A2A1"/>
		</radialGradient>
		<path class="st43" d="M102.6,354.6l3.2,2.6c0.3,0.3,0.7,0.3,1.1,0.3c-0.6-0.9-1.5-1.6-2.6-2.6c-0.6-0.5-1.3-1-2.2-1.3
			C102.1,353.9,102.3,354.4,102.6,354.6z"/>
	</g>
	<path class="st44" d="M87.5,418.1c-1.2,0.2-1.8-0.6-2.9-0.6c-0.2,0-0.4,0-0.5,0.1c1.1,0.8,2.9,1.3,4.6,1.6
		C88.6,418.7,88.4,417.9,87.5,418.1z"/>
	<path class="st44" d="M102.1,418.1c-0.9-0.2-1.1,0.7-1.2,1.2c1.8-0.3,3.6-0.7,4.9-1.5c-0.2-0.2-0.4-0.3-0.8-0.3
		C103.9,417.5,103.3,418.3,102.1,418.1z"/>
	<linearGradient id="SVGID_19_" gradientUnits="userSpaceOnUse" x1="94.8202" y1="373.1936" x2="101.2013" y2="377.731">
		<stop  offset="0" style="stop-color:#373C3A"/>
		<stop  offset="1" style="stop-color:#010101"/>
	</linearGradient>
	<path class="st45" d="M105.2,371.9c-0.8-0.4-2.3-1.1-4.6-1.7c-0.8-0.2-1.7-0.3-2.6-0.4c-2.3,2.8-5.1,7.9-6.2,10
		c2.7-0.2,6.5-0.1,8.4,0.2c2.2,0.3,3.7,1,4.3,1.3l1.4-8.9C105.8,372.2,105.6,372.1,105.2,371.9z"/>
	<linearGradient id="SVGID_20_" gradientUnits="userSpaceOnUse" x1="88.5212" y1="381.6861" x2="113.9288" y2="423.3896">
		<stop  offset="0" style="stop-color:#F7F8F8"/>
		<stop  offset="1" style="stop-color:#DCDBDB"/>
	</linearGradient>
	<path class="st46" d="M95.1,381.7c-6.8-0.2-9,1.2-9,1.2s0.1,18.3,0.6,20.1c0.3,1.2,4.6,1.8,7.3,2h2.2c2.7-0.2,7-0.8,7.3-2
		c0.5-1.8,0.6-20.1,0.6-20.1S101.8,381.5,95.1,381.7z"/>
	<path class="st47" d="M87.6,355.2c0,0-4.1,2.3-4.5,7.4c-0.4,5.2-0.4,7.8-0.4,7.8S84.1,358,87.6,355.2z"/>
	<linearGradient id="SVGID_21_" gradientUnits="userSpaceOnUse" x1="91.8602" y1="383.7198" x2="99.4398" y2="405.7816">
		<stop  offset="0" style="stop-color:#33C4F2"/>
		<stop  offset="0.594" style="stop-color:#27ACE3"/>
		<stop  offset="1" style="stop-color:#1E94D2"/>
	</linearGradient>
	<rect x="92.7" y="380.1" class="st48" width="4.8" height="26.1"/>
	<path class="st47" d="M102.6,355.2c0,0,4.1,2.3,4.5,7.4c0.4,5.2,0.4,7.8,0.4,7.8S106.1,358,102.6,355.2z"/>
	<g>
		<linearGradient id="SVGID_22_" gradientUnits="userSpaceOnUse" x1="106.3182" y1="373.1688" x2="108.9193" y2="378.2049">
			<stop  offset="0" style="stop-color:#373C3A"/>
			<stop  offset="1" style="stop-color:#1B1C1C"/>
		</linearGradient>
		<path class="st49" d="M106.6,372.7c0,0,1.1,0.2,1.1,1.2s-1.1,3.1-1.1,1.8S106.5,373.1,106.6,372.7z"/>
		<linearGradient id="SVGID_23_" gradientUnits="userSpaceOnUse" x1="107.322" y1="374.577" x2="110.4148" y2="374.577">
			<stop  offset="0" style="stop-color:#FFFFFF"/>
			<stop  offset="1" style="stop-color:#D3D6D5"/>
		</linearGradient>
		<path class="st50" d="M110.3,374.9c-0.2-0.3-2.4-1.1-2.4-1.1c-0.4-0.2-0.6,0.3-0.6,0.6l3,1C110.4,375.3,110.4,375.1,110.3,374.9z"
			/>
		<linearGradient id="SVGID_24_" gradientUnits="userSpaceOnUse" x1="107.3221" y1="375.1" x2="110.4147" y2="375.1">
			<stop  offset="0" style="stop-color:#373C3A"/>
			<stop  offset="1" style="stop-color:#1B1C1C"/>
		</linearGradient>
		<path class="st51" d="M107.3,374.5c0,0.2,0,0.4,0,0.4l3,0.8c0,0,0-0.1,0.1-0.2L107.3,374.5z"/>
	</g>
	<g>
		<linearGradient id="SVGID_25_" gradientUnits="userSpaceOnUse" x1="82.9437" y1="373.5811" x2="85.2126" y2="378.5616">
			<stop  offset="0" style="stop-color:#373C3A"/>
			<stop  offset="1" style="stop-color:#1B1C1C"/>
		</linearGradient>
		<path class="st52" d="M83.5,372.7c0,0-1.1,0.2-1.1,1.2s1.1,3.1,1.1,1.8S83.6,373,83.5,372.7z"/>
		<linearGradient id="SVGID_26_" gradientUnits="userSpaceOnUse" x1="79.7384" y1="374.6272" x2="82.8311" y2="374.6272">
			<stop  offset="0" style="stop-color:#D3D6D5"/>
			<stop  offset="1" style="stop-color:#FFFFFF"/>
		</linearGradient>
		<path class="st53" d="M82.2,373.8c0,0-2.1,0.7-2.4,1.1c-0.1,0.2-0.1,0.4-0.1,0.6l3-1C82.8,374.1,82.6,373.6,82.2,373.8z"/>
		<linearGradient id="SVGID_27_" gradientUnits="userSpaceOnUse" x1="79.738" y1="375.1" x2="82.8307" y2="375.1">
			<stop  offset="0" style="stop-color:#373C3A"/>
			<stop  offset="1" style="stop-color:#1B1C1C"/>
		</linearGradient>
		<path class="st54" d="M79.8,375.5c0,0.1,0.1,0.2,0.1,0.2l3-0.8c0,0,0-0.2,0-0.4L79.8,375.5z"/>
	</g>
	<path class="st55" d="M81.4,386c-0.2,0-0.3,0.1-0.3,0.3v2.6c0,0.2,0.1,0.3,0.3,0.3V386z"/>
	<path class="st55" d="M81.6,399c-0.2,0-0.3,0.1-0.3,0.3v2.6c0,0.2,0.1,0.3,0.3,0.3V399z"/>
	<linearGradient id="SVGID_28_" gradientUnits="userSpaceOnUse" x1="85.8837" y1="408.1125" x2="104.2799" y2="408.1125">
		<stop  offset="0" style="stop-color:#010101"/>
		<stop  offset="1" style="stop-color:#1B1C1C"/>
	</linearGradient>
	<path class="st56" d="M103.9,405.4c-0.1-0.3-0.2-0.5-0.3-0.8c0,0-0.1,0-0.4,0.1c-0.9,0.3-3.5,1-8.1,1c-4.2,0-7.2-0.7-8.1-1
		c-0.2-0.1-0.4-0.1-0.4-0.1c-0.1,0.3-0.2,0.5-0.2,0.8c-0.7,2.6-0.4,5-0.4,5s1.9,0.6,4.5,1c2,0.3,7.2,0.3,9.2,0c2.7-0.4,4.5-1,4.5-1
		S104.5,408,103.9,405.4z M103.6,409.8c0,0-1.7,0.6-4.2,1c-1.9,0.3-6.7,0.3-8.6,0c-2.5-0.4-4.2-1-4.2-1s-0.3-2,0.2-4.3
		c1.6,0.3,4.5,0.8,8.3,0.8c4.1,0,6.9-0.4,8.3-0.7C103.8,407.8,103.6,409.8,103.6,409.8z"/>
	<path class="st55" d="M108.7,386c0.2,0,0.3,0.1,0.3,0.3v2.6c0,0.2-0.1,0.3-0.3,0.3V386z"/>
	<linearGradient id="SVGID_29_" gradientUnits="userSpaceOnUse" x1="85.6" y1="381.05" x2="104.536" y2="381.05">
		<stop  offset="0" style="stop-color:#010101"/>
		<stop  offset="1" style="stop-color:#1B1C1C"/>
	</linearGradient>
	<path class="st57" d="M89.9,380c-2.2,0.3-3.7,1-4.3,1.3l0.2,1.1c0,0,1.7-1,4.4-1.4c2.3-0.4,7.5-0.4,9.8,0c2.7,0.4,4.4,1.4,4.4,1.4
		l0.2-1.1c-0.6-0.3-2.1-0.9-4.3-1.3C97.8,379.6,92.3,379.6,89.9,380z"/>
	<path class="st55" d="M108.6,399c0.2,0,0.3,0.1,0.3,0.3v2.6c0,0.2-0.1,0.3-0.3,0.3V399z"/>
	<g>
		<g>
			<g>
				<path class="st58" d="M89,367.6c0.5,0,0.7-0.3,1.1-0.4c0,0,0.1,0,0.1-0.1s0-0.1-0.1-0.1c-0.5,0-0.7,0.3-1.1,0.4
					C88.9,367.4,88.9,367.5,89,367.6C88.9,367.5,88.9,367.6,89,367.6z"/>
				<path class="st58" d="M90.1,367.4c-0.4,0-0.7,0.3-1.1,0.4c0,0-0.1,0-0.1,0.1s0,0.1,0.1,0.1c0.5,0,0.7-0.3,1.1-0.4
					C90.1,367.5,90.2,367.5,90.1,367.4C90.2,367.4,90.1,367.3,90.1,367.4z"/>
				<path class="st58" d="M90.1,367.6c-0.4,0-0.7,0.3-1.1,0.4c0,0-0.1,0-0.1,0.1s0,0.1,0.1,0.1c0.5,0,0.7-0.3,1.1-0.4
					C90.1,367.8,90.2,367.8,90.1,367.6C90.2,367.7,90.1,367.6,90.1,367.6z"/>
			</g>
		</g>
		<g>
			<g>
				<path class="st58" d="M101.2,367.6c-0.5,0-0.7-0.3-1.1-0.4c0,0-0.1,0-0.1-0.1s0-0.1,0.1-0.1c0.5,0,0.7,0.3,1.1,0.4
					C101.2,367.4,101.2,367.5,101.2,367.6C101.2,367.5,101.2,367.6,101.2,367.6z"/>
				<path class="st58" d="M100,367.4c0.5,0,0.7,0.3,1.1,0.4c0,0,0.1,0,0.1,0.1s0,0.1-0.1,0.1c-0.5,0-0.7-0.3-1.1-0.4
					C100,367.5,100,367.5,100,367.4C100,367.4,100,367.3,100,367.4z"/>
				<path class="st58" d="M100,367.6c0.5,0,0.7,0.3,1.1,0.4c0,0,0.1,0,0.1,0.1s0,0.1-0.1,0.1c-0.5,0-0.7-0.3-1.1-0.4
					C100,367.8,100,367.8,100,367.6C100,367.7,100,367.6,100,367.6z"/>
			</g>
		</g>
	</g>
	<linearGradient id="SVGID_30_" gradientUnits="userSpaceOnUse" x1="90.919" y1="419.45" x2="99.236" y2="419.45">
		<stop  offset="0" style="stop-color:#373C3A"/>
		<stop  offset="1" style="stop-color:#1B1C1C"/>
	</linearGradient>
	<path class="st59" d="M98.7,419.2h-7.3c-0.2,0-0.4,0.1-0.5,0.3c2.3,0.2,4.2,0.2,4.2,0.2s1.9,0,4.2-0.2
		C99.1,419.3,98.9,419.2,98.7,419.2z"/>
	<linearGradient id="SVGID_31_" gradientUnits="userSpaceOnUse" x1="91.3442" y1="400.7872" x2="95.5132" y2="407.1802">
		<stop  offset="0" style="stop-color:#373C3A"/>
		<stop  offset="1" style="stop-color:#010101"/>
	</linearGradient>
	<path class="st60" d="M103.4,405.5c-1.5,0.3-4.2,0.7-8.3,0.7c-0.8,0-1.6,0-2.4-0.1c-2.4,0.8-3.8,3.5-4.2,4.1
		c0.6,0.2,1.4,0.3,2.3,0.5c1.9,0.3,6.7,0.3,8.6,0c2.5-0.4,4.2-1,4.2-1S103.8,407.8,103.4,405.5z"/>
	<radialGradient id="SVGID_32_" cx="89.4045" cy="389.7175" r="2.2691" gradientUnits="userSpaceOnUse">
		<stop  offset="0" style="stop-color:#F37E5F"/>
		<stop  offset="0.3927" style="stop-color:#EB2227"/>
		<stop  offset="1" style="stop-color:#B21F24"/>
	</radialGradient>
	<path class="st61" d="M88,388c-0.2,0-0.4,0.2-0.4,0.4v2.6c0,0.2,0.2,0.4,0.4,0.4h3.3V388H88L88,388z"/>
	<linearGradient id="SVGID_33_" gradientUnits="userSpaceOnUse" x1="95" y1="387.8192" x2="95" y2="391.5269">
		<stop  offset="0" style="stop-color:#373C3A"/>
		<stop  offset="0.1587" style="stop-color:#383E3B"/>
		<stop  offset="0.3993" style="stop-color:#010101"/>
		<stop  offset="0.7357" style="stop-color:#5D6262"/>
		<stop  offset="1" style="stop-color:#1B1C1C"/>
	</linearGradient>
	<rect x="91.2" y="388" class="st62" width="7.6" height="3.4"/>
	<radialGradient id="SVGID_34_" cx="100.75" cy="389.717" r="2.337" gradientUnits="userSpaceOnUse">
		<stop  offset="0" style="stop-color:#33C4F2"/>
		<stop  offset="0.3491" style="stop-color:#27ACE3"/>
		<stop  offset="1" style="stop-color:#375FAC"/>
	</radialGradient>
	<path class="st63" d="M102.2,388h-3.3v3.4h3.3c0.2,0,0.4-0.2,0.4-0.4v-2.6C102.6,388.2,102.4,388,102.2,388z"/>
	
		<radialGradient id="SVGID_35_" cx="126.1416" cy="259.9746" r="0.7073" gradientTransform="matrix(1.288 0.5607 -0.3991 0.9169 41.7631 43.9565)" gradientUnits="userSpaceOnUse">
		<stop  offset="0" style="stop-color:#B895C5"/>
		<stop  offset="9.300000e-03" style="stop-color:#B08FBA"/>
		<stop  offset="9.410000e-02" style="stop-color:#7E6982"/>
		<stop  offset="0.1789" style="stop-color:#574A59"/>
		<stop  offset="0.2617" style="stop-color:#3C343C"/>
		<stop  offset="0.3422" style="stop-color:#262227"/>
		<stop  offset="0.4197" style="stop-color:#151315"/>
		<stop  offset="0.493" style="stop-color:#060607"/>
		<stop  offset="0.5576" style="stop-color:#010101"/>
	</radialGradient>
	<path class="st64" d="M101.2,353.4c-0.1,0.3-0.5,0.4-0.9,0.2c-0.4-0.2-0.6-0.5-0.5-0.8s0.5-0.4,0.9-0.2
		C101.1,352.7,101.3,353.1,101.2,353.4z"/>
	
		<radialGradient id="SVGID_36_" cx="-45.43" cy="315.3575" r="0.4436" gradientTransform="matrix(2.1978 -0.5137 0.2905 1.2428 97.8853 -62.3414)" gradientUnits="userSpaceOnUse">
		<stop  offset="0" style="stop-color:#FFFFFF"/>
		<stop  offset="9.300000e-03" style="stop-color:#EEEDED"/>
		<stop  offset="9.410000e-02" style="stop-color:#9E9B9B"/>
		<stop  offset="0.1789" style="stop-color:#676464"/>
		<stop  offset="0.2617" style="stop-color:#444141"/>
		<stop  offset="0.3422" style="stop-color:#2A2929"/>
		<stop  offset="0.4197" style="stop-color:#171616"/>
		<stop  offset="0.493" style="stop-color:#070707"/>
		<stop  offset="0.5576" style="stop-color:#010101"/>
	</radialGradient>
	<path class="st65" d="M90.4,352.7c0.1,0.2-0.2,0.5-0.7,0.6c-0.4,0.1-0.8,0-0.8-0.2c-0.1-0.2,0.2-0.5,0.7-0.6
		C90,352.4,90.3,352.5,90.4,352.7z"/>
	<radialGradient id="SVGID_37_" cx="100.026" cy="389" r="2.5229" gradientUnits="userSpaceOnUse">
		<stop  offset="0" style="stop-color:#B895C5"/>
		<stop  offset="9.300000e-03" style="stop-color:#B08FBA"/>
		<stop  offset="9.410000e-02" style="stop-color:#7E6982"/>
		<stop  offset="0.1789" style="stop-color:#574A59"/>
		<stop  offset="0.2617" style="stop-color:#3C343C"/>
		<stop  offset="0.3422" style="stop-color:#262227"/>
		<stop  offset="0.4197" style="stop-color:#151315"/>
		<stop  offset="0.493" style="stop-color:#060607"/>
		<stop  offset="0.5576" style="stop-color:#010101"/>
	</radialGradient>
	<circle class="st66" cx="100" cy="389" r="1.9"/>
	<radialGradient id="SVGID_38_" cx="101.334" cy="390.279" r="2.5229" gradientUnits="userSpaceOnUse">
		<stop  offset="0" style="stop-color:#B895C5"/>
		<stop  offset="9.300000e-03" style="stop-color:#B08FBA"/>
		<stop  offset="9.410000e-02" style="stop-color:#7E6982"/>
		<stop  offset="0.1789" style="stop-color:#574A59"/>
		<stop  offset="0.2617" style="stop-color:#3C343C"/>
		<stop  offset="0.3422" style="stop-color:#262227"/>
		<stop  offset="0.4197" style="stop-color:#151315"/>
		<stop  offset="0.493" style="stop-color:#060607"/>
		<stop  offset="0.5576" style="stop-color:#010101"/>
	</radialGradient>
	<circle class="st67" cx="101.3" cy="390.3" r="1.9"/>
	<radialGradient id="SVGID_39_" cx="89.254" cy="390.279" r="2.5227" gradientUnits="userSpaceOnUse">
		<stop  offset="0" style="stop-color:#FFFFFF"/>
		<stop  offset="9.300000e-03" style="stop-color:#EEEDED"/>
		<stop  offset="9.410000e-02" style="stop-color:#9E9B9B"/>
		<stop  offset="0.1789" style="stop-color:#676464"/>
		<stop  offset="0.2617" style="stop-color:#444141"/>
		<stop  offset="0.3422" style="stop-color:#2A2929"/>
		<stop  offset="0.4197" style="stop-color:#171616"/>
		<stop  offset="0.493" style="stop-color:#070707"/>
		<stop  offset="0.5576" style="stop-color:#010101"/>
	</radialGradient>
	<circle class="st68" cx="89.3" cy="390.3" r="1.9"/>
	<radialGradient id="SVGID_40_" cx="90.421" cy="389.2" r="2.5221" gradientUnits="userSpaceOnUse">
		<stop  offset="0" style="stop-color:#FFFFFF"/>
		<stop  offset="9.300000e-03" style="stop-color:#EEEDED"/>
		<stop  offset="9.410000e-02" style="stop-color:#9E9B9B"/>
		<stop  offset="0.1789" style="stop-color:#676464"/>
		<stop  offset="0.2617" style="stop-color:#444141"/>
		<stop  offset="0.3422" style="stop-color:#2A2929"/>
		<stop  offset="0.4197" style="stop-color:#171616"/>
		<stop  offset="0.493" style="stop-color:#070707"/>
		<stop  offset="0.5576" style="stop-color:#010101"/>
	</radialGradient>
	<circle class="st69" cx="90.4" cy="389.2" r="1.9"/>
</g>
<g>
	<radialGradient id="SVGID_41_" cx="95.4146" cy="180.2" r="26.0543" gradientUnits="userSpaceOnUse">
		<stop  offset="0" style="stop-color:#FDBA12"/>
		<stop  offset="1" style="stop-color:#F9A11B"/>
	</radialGradient>
	<path class="st70" d="M110.1,156.2c-0.3-3-0.9-4.6-1.8-5.9c-0.4,0.1-0.8,0-1.2-0.3l-3.4-2.2c-0.4-0.3-0.6-0.7-0.6-1.1
		c-0.2-0.1-0.3-0.1-0.5-0.2v2.9H88.4v-2.9c-0.2,0.1-0.3,0.1-0.5,0.2c-0.1,0.4-0.3,0.9-0.6,1.1l-3.4,2.2c-0.4,0.3-0.8,0.4-1.2,0.3
		c-1,1.3-1.5,2.8-1.8,5.9c-0.9,8-0.3,20.7-0.3,23.8c-0.2,16.6,0.6,26.7,1.6,30.2c0.2,0.7,0.7,1.2,1.4,1.7c0.1-0.1,0.3-0.1,0.5-0.1
		c1.2,0,1.8,0.8,3.2,0.6c0.9-0.2,1.2,0.6,1.3,1.2c0.8,0.1,1.6,0.2,2.4,0.3c0.1-0.2,0.3-0.3,0.6-0.3h8c0.2,0,0.4,0.1,0.6,0.3
		c0.6-0.1,1.2-0.1,1.8-0.2c0.1-0.5,0.4-1.4,1.3-1.3c1.4,0.2,2-0.6,3.2-0.6c0.4,0,0.6,0.1,0.8,0.3c0.9-0.5,1.5-1.1,1.7-1.9
		c1.1-3.5,1.8-13.6,1.6-30.2C110.3,176.9,110.9,164.3,110.1,156.2z"/>
	<linearGradient id="SVGID_42_" gradientUnits="userSpaceOnUse" x1="88.357" y1="147.5625" x2="102.474" y2="147.5625">
		<stop  offset="0" style="stop-color:#535A57"/>
		<stop  offset="1" style="stop-color:#2D2E2E"/>
	</linearGradient>
	<path class="st71" d="M102.5,149.5v-2.9c-4-1.3-10.1-1.3-14.1,0v2.9H102.5z"/>
	
		<radialGradient id="SVGID_43_" cx="95.4" cy="-5721.0181" r="14.7121" gradientTransform="matrix(1 0 0 4.0177 0 23164.7871)" gradientUnits="userSpaceOnUse">
		<stop  offset="0" style="stop-color:#FEE700"/>
		<stop  offset="1" style="stop-color:#FFC554"/>
	</radialGradient>
	<path class="st72" d="M109.2,156.7c-0.5-5-1.6-5.4-4.4-7.8c-3.7-3.2-15.1-3.2-18.8,0c-2.7,2.4-3.8,2.8-4.4,7.8
		c-0.8,7.7-0.3,19.9-0.3,22.9c-0.2,16,0.6,25.7,1.6,29.1c1.1,3.9,12.5,3.7,12.5,3.7s11.4,0.2,12.5-3.7c1-3.4,1.8-13.1,1.6-29.1
		C109.5,176.6,110,164.5,109.2,156.7z"/>
	<linearGradient id="SVGID_44_" gradientUnits="userSpaceOnUse" x1="85.1" y1="174.45" x2="105.772" y2="174.45">
		<stop  offset="0" style="stop-color:#010101"/>
		<stop  offset="1" style="stop-color:#1B1C1C"/>
	</linearGradient>
	<path class="st73" d="M89.8,173.4c-2.4,0.4-4.1,1-4.7,1.3l0.2,1.1c0,0,1.9-1,4.8-1.4c2.5-0.4,8.2-0.4,10.7,0
		c2.9,0.4,4.8,1.4,4.8,1.4l0.2-1.1c-0.6-0.3-2.3-1-4.7-1.3C98.4,173,92.4,173,89.8,173.4z"/>
	<linearGradient id="SVGID_45_" gradientUnits="userSpaceOnUse" x1="83.4461" y1="163.65" x2="107.3829" y2="163.65">
		<stop  offset="0" style="stop-color:#010101"/>
		<stop  offset="1" style="stop-color:#1B1C1C"/>
	</linearGradient>
	<path class="st74" d="M84.3,165.1c0.9-0.4,2.5-1.1,5.1-1.7c3.6-0.8,8.4-0.8,12,0c2.5,0.6,4.1,1.3,5.1,1.7c0.4,0.2,0.7,0.3,0.8,0.5
		l0,0c0,0,0.2-0.8,0.1-1s-0.4-0.4-0.9-0.6c-0.9-0.4-2.5-1.1-5.1-1.7c-3.6-0.8-8.4-0.8-12,0c-2.5,0.6-4.1,1.3-5.1,1.7
		c-0.5,0.2-0.8,0.4-0.9,0.6c-0.1,0.2,0.1,1,0.1,1l0,0C83.7,165.4,83.9,165.3,84.3,165.1z"/>
	<linearGradient id="SVGID_46_" gradientUnits="userSpaceOnUse" x1="83.551" y1="168.75" x2="107.28" y2="168.75">
		<stop  offset="0" style="stop-color:#373C3A"/>
		<stop  offset="1" style="stop-color:#1B1C1C"/>
	</linearGradient>
	<path class="st75" d="M89.8,173.4c2.6-0.4,8.6-0.4,11.2,0c2.4,0.4,4.1,1,4.7,1.3l1.5-9.1c-0.1-0.2-0.4-0.3-0.8-0.5
		c-0.9-0.4-2.5-1.1-5.1-1.7c-3.6-0.8-8.4-0.8-12,0c-2.5,0.6-4.1,1.3-5.1,1.7c-0.4,0.2-0.7,0.3-0.8,0.5l1.5,9.1
		C85.7,174.4,87.4,173.8,89.8,173.4z"/>
	<linearGradient id="SVGID_47_" gradientUnits="userSpaceOnUse" x1="85.3751" y1="203.7" x2="105.4528" y2="203.7">
		<stop  offset="0" style="stop-color:#010101"/>
		<stop  offset="1" style="stop-color:#1B1C1C"/>
	</linearGradient>
	<path class="st76" d="M105,199.8c-0.1-0.4-0.2-0.8-0.3-1.2c0,0-0.1,0.1-0.4,0.2c-1,0.4-3.9,1.4-8.9,1.4c-4.6,0-7.8-1-8.9-1.4
		c-0.3-0.1-0.4-0.2-0.4-0.2c-0.1,0.4-0.2,0.8-0.3,1.1c-0.7,3.8-0.4,7.3-0.4,7.3s2,1,4.9,1.5c2.2,0.4,7.8,0.4,10.1,0
		c2.9-0.6,4.9-1.5,4.9-1.5S105.7,203.5,105,199.8z M104.7,206.1c0,0-1.9,1-4.6,1.5c-2.1,0.4-7.3,0.4-9.4,0c-2.7-0.6-4.6-1.5-4.6-1.5
		s-0.3-2.9,0.2-6.2c1.7,0.5,4.9,1.1,9.1,1.1c4.5,0,7.5-0.6,9.1-1.1C104.9,203.3,104.7,206.1,104.7,206.1z"/>
	<linearGradient id="SVGID_48_" gradientUnits="userSpaceOnUse" x1="86.0775" y1="203.9" x2="104.7544" y2="203.9">
		<stop  offset="0" style="stop-color:#373C3A"/>
		<stop  offset="1" style="stop-color:#1B1C1C"/>
	</linearGradient>
	<path class="st77" d="M86.3,199.9c-0.5,3.3-0.2,6.2-0.2,6.2s1.9,1,4.6,1.5c2.1,0.4,7.3,0.4,9.4,0c2.7-0.6,4.6-1.5,4.6-1.5
		s0.3-2.9-0.2-6.2c-1.6,0.5-4.6,1.1-9.1,1.1C91.2,201,88,200.4,86.3,199.9z"/>
	<g>
		<linearGradient id="SVGID_49_" gradientUnits="userSpaceOnUse" x1="82.6352" y1="175.6" x2="84.974" y2="175.6">
			<stop  offset="0" style="stop-color:#373C3A"/>
			<stop  offset="1" style="stop-color:#1B1C1C"/>
		</linearGradient>
		<path class="st78" d="M83,185.2l2,0.7l-0.3-9.4l-1.9-11.2c0,0-0.2,2.9,0,7c0.1,2.6,0.4,6.2,0.4,8.5C83.1,182.9,83,184.4,83,185.2z
			"/>
		<linearGradient id="SVGID_50_" gradientUnits="userSpaceOnUse" x1="105.857" y1="175.6" x2="108.1958" y2="175.6">
			<stop  offset="0" style="stop-color:#373C3A"/>
			<stop  offset="1" style="stop-color:#1B1C1C"/>
		</linearGradient>
		<path class="st79" d="M107.9,185.2l-2,0.7l0.3-9.4l1.9-11.2c0,0,0.2,2.9,0,7c-0.1,2.6-0.4,6.2-0.4,8.5
			C107.7,182.9,107.8,184.4,107.9,185.2z"/>
	</g>
	<g>
		<linearGradient id="SVGID_51_" gradientUnits="userSpaceOnUse" x1="82.8007" y1="193" x2="85.219" y2="193">
			<stop  offset="0" style="stop-color:#373C3A"/>
			<stop  offset="1" style="stop-color:#1B1C1C"/>
		</linearGradient>
		<path class="st80" d="M82.9,186.1L85,187l0.2,7.9c0,0-0.2,1-1,2.6c-0.9,1.8-1.4,2.4-1.4,2.4S82.7,189,82.9,186.1z"/>
		<linearGradient id="SVGID_52_" gradientUnits="userSpaceOnUse" x1="105.611" y1="193" x2="108.0291" y2="193">
			<stop  offset="0" style="stop-color:#373C3A"/>
			<stop  offset="1" style="stop-color:#1B1C1C"/>
		</linearGradient>
		<path class="st81" d="M107.9,186.1l-2.1,0.9l-0.2,7.9c0,0,0.2,1,1,2.6c0.9,1.8,1.4,2.4,1.4,2.4S108.2,189,107.9,186.1z"/>
	</g>
	<g>
		
			<radialGradient id="SVGID_53_" cx="85.2285" cy="152.0699" r="2.197" gradientTransform="matrix(1 0 0 1.0961 0 -18.1082)" gradientUnits="userSpaceOnUse">
			<stop  offset="0" style="stop-color:#FFFFFF"/>
			<stop  offset="1" style="stop-color:#D3D6D5"/>
		</radialGradient>
		<path class="st82" d="M83.8,150.1l3.4-2.2c0.4-0.3,0.6-0.7,0.6-1.1c-1,0.4-1.8,0.8-2.4,1.3c-1.2,1-2.1,1.3-2.8,2.3
			C83,150.4,83.4,150.4,83.8,150.1z"/>
		
			<radialGradient id="SVGID_54_" cx="105.6" cy="152.0697" r="2.1961" gradientTransform="matrix(1 0 0 1.0961 0 -18.1082)" gradientUnits="userSpaceOnUse">
			<stop  offset="0" style="stop-color:#FFFFFF"/>
			<stop  offset="1" style="stop-color:#D3D6D5"/>
		</radialGradient>
		<path class="st83" d="M103.6,147.9l3.4,2.2c0.4,0.3,0.8,0.4,1.2,0.3c-0.7-0.9-1.6-1.2-2.8-2.3c-0.6-0.5-1.5-1-2.4-1.3
			C103,147.2,103.2,147.6,103.6,147.9z"/>
	</g>
	<path class="st84" d="M87.2,212.3c-1.4,0.2-2-0.6-3.2-0.6c-0.2,0-0.4,0-0.5,0.1c1.2,0.8,3.1,1.3,5,1.6
		C88.4,212.9,88.1,212.2,87.2,212.3z"/>
	<path class="st84" d="M103,212.3c-0.9-0.2-1.2,0.7-1.3,1.3c1.9-0.3,3.9-0.8,5.3-1.5c-0.2-0.2-0.4-0.3-0.8-0.3
		C105,211.7,104.4,212.6,103,212.3z"/>
	<linearGradient id="SVGID_55_" gradientUnits="userSpaceOnUse" x1="95.2832" y1="166.3607" x2="102.0476" y2="171.1706">
		<stop  offset="0" style="stop-color:#373C3A"/>
		<stop  offset="1" style="stop-color:#010101"/>
	</linearGradient>
	<path class="st85" d="M106.5,165.1c-0.9-0.4-2.5-1.1-5.1-1.7c-0.9-0.2-1.8-0.4-2.8-0.5c-2.5,2.9-5.5,8.1-6.8,10.3
		c3-0.2,7.1-0.1,9.2,0.2c2.4,0.4,4.1,1,4.7,1.3l1.5-9.1C107.1,165.4,106.9,165.3,106.5,165.1z"/>
	<linearGradient id="SVGID_56_" gradientUnits="userSpaceOnUse" x1="85.571" y1="186.9902" x2="105.26" y2="186.9902">
		<stop  offset="0" style="stop-color:#FAF06A"/>
		<stop  offset="1" style="stop-color:#FFC554"/>
	</linearGradient>
	<path class="st86" d="M95.4,175.1c-7.4-0.2-9.8,1.2-9.8,1.2s0.1,18.7,0.7,20.6c0.4,1.3,5,1.8,8,2h2.4c2.9-0.2,7.6-0.8,8-2
		c0.6-1.9,0.7-20.6,0.7-20.6S102.8,174.9,95.4,175.1z"/>
	<linearGradient id="SVGID_57_" gradientUnits="userSpaceOnUse" x1="91.9464" y1="203.6313" x2="104.3038" y2="223.9146">
		<stop  offset="0" style="stop-color:#FAF06A"/>
		<stop  offset="1" style="stop-color:#FFC554"/>
	</linearGradient>
	<path class="st87" d="M96.7,211.7c7.2-0.2,10.3-2.4,10.3-2.4l-1.4-1.8c-4.5,2.6-10.2,2.1-10.2,2.1l0,0c0,0-5.7,0.5-10.2-2.1
		l-1.4,1.8c0,0,3.2,2.1,10.3,2.4c0.4,0,1.3,0,1.3,0l0,0C95.9,211.7,96.3,211.7,96.7,211.7z"/>
	<path class="st47" d="M87.2,148.5c0,0-4.4,1.9-4.9,7.1c-0.5,5.3-0.4,8-0.4,8S83.4,151.3,87.2,148.5z"/>
	<path class="st47" d="M103.6,148.5c0,0,4.4,1.9,4.9,7.1c0.5,5.3,0.4,8,0.4,8S107.4,151.3,103.6,148.5z"/>
	<linearGradient id="SVGID_58_" gradientUnits="userSpaceOnUse" x1="107.7019" y1="166.4216" x2="110.3683" y2="171.5843">
		<stop  offset="0" style="stop-color:#373C3A"/>
		<stop  offset="1" style="stop-color:#1B1C1C"/>
	</linearGradient>
	<path class="st88" d="M108,166c0,0,1.2,0.2,1.2,1.3c0,1-1.2,3.1-1.2,1.8C108,167.7,107.9,166.4,108,166z"/>
	<radialGradient id="SVGID_59_" cx="110.4781" cy="167.9487" r="1.3309" gradientUnits="userSpaceOnUse">
		<stop  offset="0" style="stop-color:#FDBA12"/>
		<stop  offset="1" style="stop-color:#F9A11B"/>
	</radialGradient>
	<path class="st89" d="M112,168.2c-0.3-0.4-2.6-1.1-2.6-1.1c-0.5-0.2-0.6,0.3-0.7,0.6l3.3,1.1C112.2,168.6,112.2,168.4,112,168.2z"
		/>
	<linearGradient id="SVGID_60_" gradientUnits="userSpaceOnUse" x1="108.7777" y1="168.45" x2="112.1531" y2="168.45">
		<stop  offset="0" style="stop-color:#373C3A"/>
		<stop  offset="1" style="stop-color:#1B1C1C"/>
	</linearGradient>
	<path class="st90" d="M108.8,167.8c0,0.2,0,0.4,0,0.4l3.3,0.9c0,0,0.1-0.1,0.1-0.2L108.8,167.8z"/>
	<linearGradient id="SVGID_61_" gradientUnits="userSpaceOnUse" x1="82.1697" y1="166.8481" x2="84.4954" y2="171.9534">
		<stop  offset="0" style="stop-color:#373C3A"/>
		<stop  offset="1" style="stop-color:#1B1C1C"/>
	</linearGradient>
	<path class="st91" d="M82.8,165.9c0,0-1.2,0.2-1.3,1.3c0,1,1.2,3.1,1.3,1.8C82.8,167.6,82.9,166.3,82.8,165.9z"/>
	<radialGradient id="SVGID_62_" cx="80.3456" cy="167.9007" r="1.3405" gradientUnits="userSpaceOnUse">
		<stop  offset="0" style="stop-color:#FDBA12"/>
		<stop  offset="1" style="stop-color:#F9A11B"/>
	</radialGradient>
	<path class="st92" d="M81.3,167.1c0,0-2.3,0.8-2.6,1.1c-0.2,0.2-0.1,0.5-0.1,0.6l3.3-1.1C82,167.4,81.8,166.9,81.3,167.1z"/>
	<linearGradient id="SVGID_63_" gradientUnits="userSpaceOnUse" x1="78.667" y1="168.35" x2="82.0431" y2="168.35">
		<stop  offset="0" style="stop-color:#373C3A"/>
		<stop  offset="1" style="stop-color:#1B1C1C"/>
	</linearGradient>
	<path class="st93" d="M78.7,168.8c0,0.1,0.1,0.2,0.1,0.2l3.3-0.9c0,0,0-0.2,0-0.4L78.7,168.8z"/>
	<path class="st55" d="M80.5,179.5c-0.2,0-0.3,0.1-0.3,0.3v2.7c0,0.2,0.1,0.3,0.3,0.3V179.5z"/>
	<path class="st55" d="M80.7,192.8c-0.2,0-0.3,0.1-0.3,0.3v2.7c0,0.2,0.1,0.3,0.3,0.3V192.8z"/>
	<path class="st55" d="M110.3,179.5c0.2,0,0.3,0.1,0.3,0.3v2.7c0,0.2-0.1,0.3-0.3,0.3V179.5z"/>
	<path class="st55" d="M110.2,192.8c0.2,0,0.3,0.1,0.3,0.3v2.7c0,0.2-0.1,0.3-0.3,0.3V192.8z"/>
	<linearGradient id="SVGID_64_" gradientUnits="userSpaceOnUse" x1="90.871" y1="213.75" x2="99.949" y2="213.75">
		<stop  offset="0" style="stop-color:#373C3A"/>
		<stop  offset="1" style="stop-color:#1B1C1C"/>
	</linearGradient>
	<path class="st94" d="M99.4,213.5h-8c-0.2,0-0.4,0.1-0.6,0.3c2.5,0.2,4.5,0.2,4.5,0.2s2,0,4.5-0.2
		C99.8,213.6,99.6,213.5,99.4,213.5z"/>
	<linearGradient id="SVGID_65_" gradientUnits="userSpaceOnUse" x1="90.8024" y1="194.8164" x2="95.8102" y2="202.4955">
		<stop  offset="0" style="stop-color:#373C3A"/>
		<stop  offset="1" style="stop-color:#010101"/>
	</linearGradient>
	<path class="st95" d="M104.5,199.9c-1.6,0.5-4.6,1.1-9.1,1.1c-0.9,0-1.8,0-2.6-0.1c-2.6,1.2-4.2,5.1-4.5,6c0.7,0.2,1.5,0.5,2.5,0.7
		c2.1,0.4,7.3,0.4,9.4,0c2.7-0.6,4.6-1.5,4.6-1.5S104.9,203.3,104.5,199.9z"/>
	<g>
		<g>
			<path class="st96" d="M99.8,182.8H91v-3.4h8.9L99.8,182.8L99.8,182.8z M91.4,182.4h8v-2.5h-8V182.4z"/>
		</g>
		<rect x="91.2" y="181.2" class="st97" width="8.4" height="1.3"/>
		<rect x="91.2" y="179.7" class="st98" width="8.4" height="1.3"/>
		<g>
			<rect x="92.7" y="181.5" class="st96" width="1.1" height="0.5"/>
			<rect x="91.5" y="182" class="st96" width="1.1" height="0.5"/>
			<rect x="98.2" y="182" class="st96" width="1.1" height="0.5"/>
			<polygon class="st96" points="96,181.5 94.9,181.5 94.9,182 93.8,182 93.8,182.5 94.9,182.5 94.9,182 95.9,182 95.9,182.5 
				97,182.5 97,182 96,182 			"/>
			<rect x="97.1" y="181.5" class="st96" width="1.1" height="0.5"/>
		</g>
		<g>
			<rect x="92.7" y="180.3" class="st96" width="1.1" height="0.5"/>
			<rect x="91.5" y="179.8" class="st96" width="1.1" height="0.5"/>
			<rect x="98.2" y="179.8" class="st96" width="1.1" height="0.5"/>
			<polygon class="st96" points="96,180.8 94.9,180.8 94.9,180.3 93.8,180.3 93.8,179.8 94.9,179.8 94.9,180.3 95.9,180.3 
				95.9,179.8 97,179.8 97,180.3 96,180.3 			"/>
			<rect x="97.1" y="180.3" class="st96" width="1.1" height="0.5"/>
		</g>
		<rect x="91" y="180.9" class="st99" width="8.9" height="0.5"/>
	</g>
	
		<radialGradient id="SVGID_66_" cx="-64.6642" cy="208.3321" r="2.988" gradientTransform="matrix(2.312 0 0 0.6091 244.9205 53.2979)" gradientUnits="userSpaceOnUse">
		<stop  offset="0" style="stop-color:#FEE700"/>
		<stop  offset="4.330000e-02" style="stop-color:#D8C525"/>
		<stop  offset="0.158" style="stop-color:#918533"/>
		<stop  offset="0.2737" style="stop-color:#60592E"/>
		<stop  offset="0.3883" style="stop-color:#3F3C25"/>
		<stop  offset="0.5014" style="stop-color:#28271B"/>
		<stop  offset="0.6127" style="stop-color:#15150F"/>
		<stop  offset="0.7213" style="stop-color:#060705"/>
		<stop  offset="0.8242" style="stop-color:#010101"/>
	</radialGradient>
	<ellipse class="st100" cx="95.4" cy="180.2" rx="6.9" ry="1.8"/>
	
		<radialGradient id="SVGID_67_" cx="-64.6642" cy="224.9223" r="2.9953" gradientTransform="matrix(2.312 0 0 0.4905 244.9205 71.8856)" gradientUnits="userSpaceOnUse">
		<stop  offset="0" style="stop-color:#FFCA06"/>
		<stop  offset="4.330000e-02" style="stop-color:#D9AD22"/>
		<stop  offset="0.158" style="stop-color:#93772F"/>
		<stop  offset="0.2737" style="stop-color:#61522B"/>
		<stop  offset="0.3883" style="stop-color:#403823"/>
		<stop  offset="0.5014" style="stop-color:#28251A"/>
		<stop  offset="0.6127" style="stop-color:#16140F"/>
		<stop  offset="0.7213" style="stop-color:#070605"/>
		<stop  offset="0.8242" style="stop-color:#010101"/>
	</radialGradient>
	<ellipse class="st101" cx="95.4" cy="182.2" rx="6.9" ry="1.5"/>
</g>
</svg>
