<?xml version="1.0" encoding="utf-8"?>
<!-- Generator: Adobe Illustrator 21.0.0, SVG Export Plug-In . SVG Version: 6.00 Build 0)  -->
<svg version="1.1" id="Layer_1" xmlns="http://www.w3.org/2000/svg" xmlns:xlink="http://www.w3.org/1999/xlink" x="0px" y="0px"
	 viewBox="0 0 186.2 512" style="enable-background:new 0 0 186.2 512;" xml:space="preserve">
<style type="text/css">
	.st0{fill:#77BE45;}
	.st1{fill:#333333;}
	.st2{fill:#FFFFFF;}
	.st3{fill:#7BB742;}
	.st4{fill:#D8762B;}
	.st5{fill:#54A846;}
	.st6{fill:#F0E2CD;}
	.st7{fill:#676767;}
	.st8{fill:#4E8F91;}
	.st9{fill:#F9DEC3;}
	.st10{fill:#786243;}
	.st11{fill:#9FC9EB;}
	.st12{opacity:0.1;}
	.st13{fill:#936138;}
	.st14{fill:#C89D67;}
	.st15{fill:#A69F92;}
	.st16{fill:#E9E5D9;}
	.st17{fill:#F16562;}
	.st18{fill:#3C4E57;}
	.st19{fill:#FCBF60;}
	.st20{fill:#FFD298;}
	.st21{fill:#C0BC62;}
	.st22{fill:#BD8864;}
	.st23{fill:#EC2227;}
	.st24{fill:#3984C6;}
	.st25{fill:url(#SVGID_1_);}
	.st26{fill:url(#SVGID_2_);}
	.st27{fill:url(#SVGID_3_);}
	.st28{fill:url(#SVGID_4_);}
	.st29{fill:url(#SVGID_5_);}
	.st30{fill:url(#SVGID_6_);}
	.st31{fill:url(#SVGID_7_);}
	.st32{fill:url(#SVGID_8_);}
	.st33{fill:url(#SVGID_9_);}
	.st34{fill:url(#SVGID_10_);}
	.st35{fill:url(#SVGID_11_);}
	.st36{fill:url(#SVGID_12_);}
	.st37{fill:url(#SVGID_13_);}
	.st38{fill:url(#SVGID_14_);}
	.st39{fill:url(#SVGID_15_);}
	.st40{fill:url(#SVGID_16_);}
	.st41{fill:url(#SVGID_17_);}
	.st42{fill:url(#SVGID_18_);}
	.st43{fill:#941B1E;}
	.st44{fill:url(#SVGID_19_);}
	.st45{fill:url(#SVGID_20_);}
	.st46{fill:#484848;}
	.st47{fill:url(#SVGID_21_);}
	.st48{fill:url(#SVGID_22_);}
	.st49{fill:url(#SVGID_23_);}
	.st50{fill:url(#SVGID_24_);}
	.st51{fill:url(#SVGID_25_);}
	.st52{fill:url(#SVGID_26_);}
	.st53{fill:url(#SVGID_27_);}
	.st54{fill:#595A5A;}
	.st55{fill:url(#SVGID_28_);}
	.st56{fill:url(#SVGID_29_);}
	.st57{fill:#09252D;}
	.st58{fill:url(#SVGID_30_);}
	.st59{fill:url(#SVGID_31_);}
	.st60{fill:url(#SVGID_32_);}
	.st61{fill:url(#SVGID_33_);}
	.st62{fill:url(#SVGID_34_);}
	.st63{fill:url(#SVGID_35_);}
	.st64{fill:url(#SVGID_36_);}
	.st65{fill:url(#SVGID_37_);}
	.st66{fill:url(#SVGID_38_);}
	.st67{fill:url(#SVGID_39_);}
	.st68{fill:url(#SVGID_40_);}
	.st69{fill:url(#SVGID_41_);}
	.st70{fill:url(#SVGID_42_);}
	.st71{fill:url(#SVGID_43_);}
	.st72{fill:url(#SVGID_44_);}
	.st73{fill:url(#SVGID_45_);}
	.st74{fill:url(#SVGID_46_);}
	.st75{fill:url(#SVGID_47_);}
	.st76{fill:url(#SVGID_48_);}
	.st77{fill:url(#SVGID_49_);}
	.st78{fill:url(#SVGID_50_);}
	.st79{fill:url(#SVGID_51_);}
	.st80{fill:url(#SVGID_52_);}
	.st81{fill:url(#SVGID_53_);}
	.st82{fill:url(#SVGID_54_);}
	.st83{fill:#F15B2B;}
	.st84{fill:url(#SVGID_55_);}
	.st85{fill:url(#SVGID_56_);}
	.st86{fill:url(#SVGID_57_);}
	.st87{fill:url(#SVGID_58_);}
	.st88{fill:url(#SVGID_59_);}
	.st89{fill:url(#SVGID_60_);}
	.st90{fill:url(#SVGID_61_);}
	.st91{fill:url(#SVGID_62_);}
	.st92{fill:url(#SVGID_63_);}
	.st93{fill:url(#SVGID_64_);}
	.st94{fill:url(#SVGID_65_);}
	.st95{fill:#3C2517;}
	.st96{fill:#C87029;}
	.st97{fill:#FBB042;}
	.st98{fill:#674A3B;}
	.st99{fill:url(#SVGID_66_);}
	.st100{fill:url(#SVGID_67_);}
</style>
<g>
	
		<animateTransform  accumulate="none" additive="replace" attributeName="transform" calcMode="linear" dur="10s" fill="remove" repeatCount="indefinite" restart="always" type="translate" values="0 0 ; 0 512;">
		</animateTransform>
	<g>
		<rect x="0.3" y="-0.6" class="st0" width="186.7" height="512.6"/>
		<g>
			<g>
				<g>
					<g>
						<rect x="68.7" y="475" class="st1" width="47.9" height="37"/>
						<rect x="91.8" y="495.7" class="st2" width="1.8" height="16.3"/>
						<g>
							<rect x="70.2" y="475" class="st2" width="1.4" height="37"/>
							<rect x="113.8" y="475" class="st2" width="1.4" height="37"/>
						</g>
					</g>
					<g>
						<rect x="68.7" y="438.1" class="st1" width="47.9" height="37"/>
						<rect x="91.8" y="458.7" class="st2" width="1.8" height="16.3"/>
						<g>
							<rect x="70.2" y="438.1" class="st2" width="1.4" height="37"/>
							<rect x="113.8" y="438.1" class="st2" width="1.4" height="37"/>
						</g>
					</g>
					<g>
						<rect x="68.7" y="401.1" class="st1" width="47.9" height="37"/>
						<rect x="91.8" y="421.7" class="st2" width="1.8" height="16.3"/>
						<g>
							<rect x="70.2" y="401.1" class="st2" width="1.4" height="37"/>
							<rect x="113.8" y="401.1" class="st2" width="1.4" height="37"/>
						</g>
					</g>
					<g>
						<rect x="68.7" y="364.1" class="st1" width="47.9" height="37"/>
						<rect x="91.8" y="384.7" class="st2" width="1.8" height="16.3"/>
						<g>
							<rect x="70.2" y="364.1" class="st2" width="1.4" height="37"/>
							<rect x="113.8" y="364.1" class="st2" width="1.4" height="37"/>
						</g>
					</g>
					<g>
						<rect x="68.7" y="327.1" class="st1" width="47.9" height="37"/>
						<rect x="91.8" y="347.8" class="st2" width="1.8" height="16.3"/>
						<g>
							<rect x="70.2" y="327.1" class="st2" width="1.4" height="37"/>
							<rect x="113.8" y="327.1" class="st2" width="1.4" height="37"/>
						</g>
					</g>
					<g>
						<rect x="68.7" y="290.2" class="st1" width="47.9" height="37"/>
						<rect x="91.8" y="310.8" class="st2" width="1.8" height="16.3"/>
						<g>
							<rect x="70.2" y="290.2" class="st2" width="1.4" height="37"/>
							<rect x="113.8" y="290.2" class="st2" width="1.4" height="37"/>
						</g>
					</g>
					<g>
						<rect x="68.7" y="253.2" class="st1" width="47.9" height="37"/>
						<rect x="91.8" y="273.8" class="st2" width="1.8" height="16.3"/>
						<g>
							<rect x="70.2" y="253.2" class="st2" width="1.4" height="37"/>
							<rect x="113.8" y="253.2" class="st2" width="1.4" height="37"/>
						</g>
					</g>
					<g>
						<rect x="68.7" y="216.2" class="st1" width="47.9" height="37"/>
						<rect x="91.8" y="236.9" class="st2" width="1.8" height="16.3"/>
						<g>
							<rect x="70.2" y="216.2" class="st2" width="1.4" height="37"/>
							<rect x="113.8" y="216.2" class="st2" width="1.4" height="37"/>
						</g>
					</g>
					<g>
						<rect x="68.7" y="179.3" class="st1" width="47.9" height="37"/>
						<rect x="91.8" y="199.9" class="st2" width="1.8" height="16.3"/>
						<g>
							<rect x="70.2" y="179.3" class="st2" width="1.4" height="37"/>
							<rect x="113.8" y="179.3" class="st2" width="1.4" height="37"/>
						</g>
					</g>
					<g>
						<rect x="68.7" y="142.3" class="st1" width="47.9" height="37"/>
						<rect x="91.8" y="162.9" class="st2" width="1.8" height="16.3"/>
						<g>
							<rect x="70.2" y="142.3" class="st2" width="1.4" height="37"/>
							<rect x="113.8" y="142.3" class="st2" width="1.4" height="37"/>
						</g>
					</g>
					<g>
						<rect x="68.7" y="105.3" class="st1" width="47.9" height="37"/>
						<rect x="91.8" y="126" class="st2" width="1.8" height="16.3"/>
						<g>
							<rect x="70.2" y="105.3" class="st2" width="1.4" height="37"/>
							<rect x="113.8" y="105.3" class="st2" width="1.4" height="37"/>
						</g>
					</g>
					<g>
						<rect x="68.7" y="68.4" class="st1" width="47.9" height="37"/>
						<rect x="91.8" y="89" class="st2" width="1.8" height="16.3"/>
						<g>
							<rect x="70.2" y="68.4" class="st2" width="1.4" height="37"/>
							<rect x="113.8" y="68.4" class="st2" width="1.4" height="37"/>
						</g>
					</g>
					<g>
						<rect x="68.7" y="31.4" class="st1" width="47.9" height="37"/>
						<rect x="91.8" y="52" class="st2" width="1.8" height="16.3"/>
						<g>
							<rect x="70.2" y="31.4" class="st2" width="1.4" height="37"/>
							<rect x="113.8" y="31.4" class="st2" width="1.4" height="37"/>
						</g>
					</g>
					<g>
						<rect x="68.7" y="-5.6" class="st1" width="47.9" height="37"/>
						<rect x="91.8" y="15" class="st2" width="1.8" height="16.3"/>
						<g>
							<rect x="70.2" y="-5.6" class="st2" width="1.4" height="37"/>
							<rect x="113.8" y="-5.6" class="st2" width="1.4" height="37"/>
						</g>
					</g>
				</g>
			</g>
		</g>
		<g>
			<path class="st3" d="M159,405.5c0,1-0.9,1.8-2,1.8h-14.5c-1.1,0-2-0.8-2-1.8l0,0c0-1,0.9-1.8,2-1.8H157
				C158.1,403.6,159,404.5,159,405.5L159,405.5z"/>
			<path class="st4" d="M151.8,404.7c0,0.6-0.6,1.2-1.2,1.2H149c-0.7,0-1.2-0.5-1.2-1.2v-9.6c0-0.6,0.6-1.2,1.2-1.2h1.6
				c0.7,0,1.2,0.5,1.2,1.2V404.7z"/>
			<ellipse class="st5" cx="149.9" cy="388.7" rx="10.2" ry="9.4"/>
		</g>
		<g>
			<path class="st3" d="M161.1,171c0,1.5-1.3,2.7-3,2.7h-21.6c-1.6,0-3-1.2-3-2.7l0,0c0-1.5,1.3-2.7,3-2.7h21.6
				C159.8,168.3,161.1,169.5,161.1,171L161.1,171z"/>
			<path class="st4" d="M150.4,169.9c0,1-0.8,1.7-1.9,1.7h-2.3c-1,0-1.9-0.8-1.9-1.7v-14.4c0-1,0.8-1.7,1.9-1.7h2.3
				c1,0,1.9,0.8,1.9,1.7V169.9z"/>
			<ellipse class="st5" cx="147.3" cy="142.8" rx="11" ry="17.2"/>
		</g>
		<g>
			<path class="st3" d="M160.4,91.6c0,1.4-1.1,2.6-2.5,2.6h-18.6c-1.4,0-2.5-1.2-2.5-2.6l0,0c0-1.4,1.1-2.6,2.5-2.6h18.6
				C159.3,89,160.4,90.2,160.4,91.6L160.4,91.6z"/>
			<path class="st4" d="M151.2,90.5c0,0.9-0.7,1.6-1.6,1.6h-2c-0.9,0-1.6-0.7-1.6-1.6V76.9c0-0.9,0.7-1.6,1.6-1.6h2
				c0.9,0,1.6,0.7,1.6,1.6V90.5z"/>
			<ellipse class="st5" cx="148.7" cy="67.9" rx="13.1" ry="13.3"/>
		</g>
		<g>
			<path class="st3" d="M57,486.2c0,1.6-1.3,3-2.9,3H32.8c-1.6,0-2.9-1.3-2.9-3l0,0c0-1.6,1.3-3,2.9-3h21.3
				C55.7,483.2,57,484.6,57,486.2L57,486.2z"/>
			<path class="st4" d="M46.5,484.9c0,1-0.8,1.9-1.8,1.9h-2.3c-1,0-1.8-0.8-1.8-1.9v-15.6c0-1,0.8-1.9,1.8-1.9h2.3
				c1,0,1.8,0.8,1.8,1.9V484.9z"/>
			<ellipse class="st5" cx="43.5" cy="455.7" rx="10.9" ry="18.6"/>
		</g>
		<g>
			<path class="st3" d="M49.4,324.1c0,1-0.9,1.8-2,1.8H33c-1.1,0-2-0.8-2-1.8l0,0c0-1,0.9-1.8,2-1.8h14.5
				C48.6,322.3,49.4,323.1,49.4,324.1L49.4,324.1z"/>
			<path class="st4" d="M42.3,323.3c0,0.6-0.6,1.2-1.2,1.2h-1.6c-0.7,0-1.2-0.5-1.2-1.2v-9.6c0-0.6,0.6-1.2,1.2-1.2H41
				c0.7,0,1.2,0.5,1.2,1.2L42.3,323.3L42.3,323.3z"/>
			<ellipse class="st5" cx="40.3" cy="307.3" rx="10.2" ry="9.4"/>
		</g>
		<g>
			<path class="st3" d="M52.4,389.6c0,1.4-1.1,2.6-2.5,2.6H31.2c-1.4,0-2.5-1.2-2.5-2.6l0,0c0-1.4,1.1-2.6,2.5-2.6h18.6
				C51.2,387,52.4,388.2,52.4,389.6L52.4,389.6z"/>
			<path class="st4" d="M43.1,388.5c0,0.9-0.7,1.6-1.6,1.6h-2c-0.9,0-1.6-0.7-1.6-1.6v-13.6c0-0.9,0.7-1.6,1.6-1.6h2
				c0.9,0,1.6,0.7,1.6,1.6V388.5z"/>
			<ellipse class="st5" cx="40.6" cy="365.9" rx="13.1" ry="13.3"/>
		</g>
		<g>
			<path class="st3" d="M58.5,72.6c0,1.6-1.3,3-2.9,3H34.3c-1.6,0-2.9-1.3-2.9-3l0,0c0-1.6,1.3-3,2.9-3h21.3
				C57.2,69.6,58.5,70.9,58.5,72.6L58.5,72.6z"/>
			<path class="st4" d="M47.9,71.3c0,1-0.8,1.9-1.8,1.9h-2.3c-1,0-1.8-0.8-1.8-1.9V55.7c0-1,0.8-1.9,1.8-1.9h2.3
				c1,0,1.8,0.8,1.8,1.9V71.3z"/>
			<ellipse class="st5" cx="44.9" cy="42.1" rx="10.9" ry="18.6"/>
		</g>
		<g>
			<rect x="141.5" y="220.2" class="st2" width="12.7" height="3.4"/>
			<rect x="141.5" y="201.1" class="st6" width="4.9" height="41.6"/>
			<rect x="147" y="201.1" class="st6" width="4.9" height="41.6"/>
			<rect x="141.5" y="201.1" class="st2" width="12.7" height="3.4"/>
			<rect x="141.5" y="239.3" class="st2" width="12.7" height="3.4"/>
			<rect x="152.5" y="201.1" class="st6" width="2" height="41.6"/>
		</g>
		<g>
			<path class="st2" d="M142.2,222.8L142.2,222.8c0-1.2-1-2.2-2.2-2.2h-2.6c-1.2,0-2.2,1-2.2,2.2l0,0c0,1.2,1,2.2,2.2,2.2h2.6
				C141.2,225,142.2,224,142.2,222.8z"/>
			<path class="st2" d="M142.2,217.9L142.2,217.9c0-1.2-1-2.2-2.2-2.2h-2.6c-1.2,0-2.2,1-2.2,2.2l0,0c0,1.2,1,2.2,2.2,2.2h2.6
				C141.2,220.1,142.2,219.1,142.2,217.9z"/>
			<path class="st7" d="M144.8,222.8L144.8,222.8c0-1.2-1-2.2-2.2-2.2H140c-1.2,0-2.2,1-2.2,2.2l0,0c0,1.2,1,2.2,2.2,2.2h2.6
				C143.9,225,144.8,224,144.8,222.8z"/>
			<path class="st7" d="M144.8,217.9L144.8,217.9c0-1.2-1-2.2-2.2-2.2H140c-1.2,0-2.2,1-2.2,2.2l0,0c0,1.2,1,2.2,2.2,2.2h2.6
				C143.9,220.1,144.8,219.1,144.8,217.9z"/>
			<path class="st8" d="M143.1,226.7v-13c0-1.6,1.3-2.9,2.9-2.9l0,0c1.6,0,2.9,1.3,2.9,2.9v13c0,1.6-1.3,2.9-2.9,2.9l0,0
				C144.4,229.7,143.1,228.3,143.1,226.7z"/>
			<path class="st9" d="M146,227.5L146,227.5c0-1.2-1-2.2-2.2-2.2h-3c-1.2,0-2.2,1-2.2,2.2l0,0c0,1.2,1,2.2,2.2,2.2h3
				C145,229.7,146,228.7,146,227.5z"/>
			<ellipse class="st9" cx="145.7" cy="220.2" rx="4.7" ry="4.1"/>
			<path class="st10" d="M142.7,217.1c0.8-0.6,1.8-0.9,3-0.9c2.6,0,4.7,1.8,4.7,4.1c0,2.2-2.1,4.1-4.7,4.1c-1.1,0-2.1-0.3-3-0.9
				c-0.2-1-0.3-2.1-0.3-3.2C142.5,219.1,142.5,218,142.7,217.1z"/>
			<path class="st8" d="M148.1,227.5L148.1,227.5c0-1.2-1-2.2-2.2-2.2h-4.8v4.4h4.8C147.1,229.7,148.1,228.7,148.1,227.5z"/>
			<path class="st9" d="M146,212.9L146,212.9c0-1.2-1-2.2-2.2-2.2h-3c-1.2,0-2.2,1-2.2,2.2l0,0c0,1.2,1,2.2,2.2,2.2h3
				C145,215.1,146,214.1,146,212.9z"/>
			<path class="st8" d="M148.1,212.9L148.1,212.9c0-1.2-1-2.2-2.2-2.2h-4.8v4.4h4.8C147.1,215.1,148.1,214.1,148.1,212.9z"/>
		</g>
		<g>
			<g>
				<path class="st11" d="M50.4,173.2c-3-2-11.2-5.8-14.7-1.3c-1.6,1.9-0.8,5-2.5,7.1c-2.2,2.9-7,1.2-10.4,1.9
					c-9,1.2-8.2,10.6-3.1,16.4c4.5,5.4,15.7,11,22.7,7.3c5.9-3.1,0-13.1,6.3-17.4c3.1-2.1,5.3-1.7,5.7-6.2
					C54.7,176.7,52.8,175.2,50.4,173.2"/>
			</g>
			<g>
				<g>
					<g>
						<g>
							<path class="st2" d="M14.1,135.3c3.8,0,3.8-5.9,0-5.9C10.4,129.4,10.4,135.3,14.1,135.3L14.1,135.3z"/>
						</g>
					</g>
					<g>
						<g>
							<path class="st2" d="M34.5,132.7c3.8,0,3.8-5.9,0-5.9C30.7,126.8,30.7,132.7,34.5,132.7L34.5,132.7z"/>
						</g>
					</g>
					<g>
						<g>
							<path class="st2" d="M30.5,123.2c3.8,0,3.8-5.9,0-5.9C26.7,117.2,26.7,123.2,30.5,123.2L30.5,123.2z"/>
						</g>
					</g>
					<g>
						<g>
							<path class="st2" d="M18.1,126.8c3.8,0,3.8-5.9,0-5.9C14.4,120.9,14.4,126.8,18.1,126.8L18.1,126.8z"/>
						</g>
					</g>
					<g>
						<g>
							<path class="st2" d="M51.9,136.4c3.8,0,3.8-5.9,0-5.9C48.1,130.5,48.1,136.4,51.9,136.4L51.9,136.4z"/>
						</g>
					</g>
					<g>
						<g>
							<path class="st2" d="M42.1,128.3c3.8,0,3.8-5.9,0-5.9S38.3,128.3,42.1,128.3L42.1,128.3z"/>
						</g>
					</g>
					<g>
						<g>
							<path class="st2" d="M22.8,118.4c3.8,0,3.8-5.9,0-5.9C19.1,112.4,19.1,118.4,22.8,118.4L22.8,118.4z"/>
						</g>
					</g>
					<g>
						<g>
							<path class="st2" d="M38.8,119.5c3.8,0,3.8-5.9,0-5.9C35.1,113.5,35.1,119.5,38.8,119.5L38.8,119.5z"/>
						</g>
					</g>
					<g>
						<g>
							<path class="st2" d="M50.8,126.8c3.8,0,3.8-5.9,0-5.9S47,126.8,50.8,126.8L50.8,126.8z"/>
						</g>
					</g>
				</g>
				<g class="st12">
					<path d="M38.4,151.2c-8.6,0.2-17.2-1.7-25.8-1.7c-4.3,0-7.1-0.2-6.9,4.8c0.2,3.9,2.4,5.2,6,5.9c2.6,0.2,8.6-1.3,10.7,0.2
						c2.8,2,0.4,4.8,4.3,6.1c6.7,2.6,16.3,0.7,23.2,0.7c3.2,0,8.8,0.4,11.4-2.4c2.1-2.4,1.9-8.7,0-11.4c-4.1-5.2-17.4-2.6-23.4-2.6"
						/>
				</g>
				<g>
					<g>
						<g>
							<path class="st13" d="M40.2,155.7L40.2,155.7H13.3c-0.5,0-1-0.3-1.3-0.7s-0.3-1-0.1-1.5l13.5-28.9c0.2-0.5,0.8-0.9,1.4-0.9
								s1.1,0.3,1.4,0.9l13.4,28.7c0.1,0.2,0.2,0.5,0.2,0.8C41.7,155.1,41,155.7,40.2,155.7z"/>
						</g>
						<g>
							<g>
								<path class="st2" d="M27.2,136.8L27.2,136.8c-0.5,0-0.9-0.2-1.3-0.5c-0.8-0.8-0.8-2.5-0.8-3.8c-0.4,0.9-1,1.7-1.7,2.1
									c-0.4,0.3-1,0.5-1.5,0.5l0,0c-0.6,0-1-0.2-1.4-0.6c-0.1-0.1-0.1-0.3-0.1-0.4l4.4-9.5c0.3-0.7,1-1.1,1.7-1.1s1.4,0.4,1.7,1.1
									l3.7,7.9c0,0.1,0,0.2,0,0.3s-0.1,0.2-0.2,0.2c-0.3,0.1-0.5,0.1-0.8,0.1c-0.6,0-1.3-0.3-1.7-0.8c0.1,1.3,0.1,3-0.7,3.9
									C28.3,136.6,27.8,136.8,27.2,136.8z"/>
							</g>
						</g>
					</g>
					<g>
						<g>
							<path class="st14" d="M56.5,162L56.5,162h-27c-0.5,0-1-0.3-1.3-0.7s-0.3-1-0.1-1.5L41.7,131c0.2-0.5,0.8-0.9,1.4-0.9
								c0.6,0,1.1,0.3,1.4,0.9l13.4,28.7c0.1,0.2,0.2,0.5,0.2,0.8C58,161.3,57.3,162,56.5,162z"/>
						</g>
						<g>
							<g>
								<path class="st2" d="M43.4,147.8c-0.6,0-1.1-0.2-1.5-0.6c-1.1-0.9-1-2.8-1-4V143c0-0.4,0-0.8,0.1-1.2c0-0.6,0.1-1.1,0.1-1.7
									c-0.1,0.2-0.2,0.5-0.3,0.7c-0.2,0.6-0.4,1.1-0.7,1.7c-0.4,0.8-1.7,1.8-2.8,1.8l0,0c-0.7,0-1.2-0.4-1.4-1.1
									c0-0.1-0.1-0.2-0.1-0.3s0-0.2,0-0.2l5.5-11.9c0.3-0.7,1-1.1,1.7-1.1s1.4,0.4,1.7,1.1l5.5,11.7c0.1,0.1,0,0.3,0,0.4
									c-0.2,0.3-0.6,0.6-1,0.7c-0.2,0.1-0.5,0.1-0.7,0.1c-1.2,0-2.1-0.8-2.7-1.8c0,0.1,0,0.1,0,0.2c0.1,1,0.1,2,0,2.9
									c-0.1,1-0.4,1.8-1,2.3C44.4,147.6,44,147.8,43.4,147.8z"/>
							</g>
						</g>
					</g>
				</g>
			</g>
		</g>
		<g id="XMLID_1152_">
			<g id="XMLID_1169_">
				<rect id="XMLID_1170_" x="147.2" y="24.5" class="st15" width="1.6" height="22.6"/>
			</g>
			<g id="XMLID_1164_">
				<ellipse id="XMLID_1168_" class="st16" cx="148" cy="16.2" rx="8.1" ry="8.3"/>
				<path id="XMLID_1165_" class="st17" d="M148,25.3c-4.9,0-8.9-4.1-8.9-9.1s4-9.1,8.9-9.1s8.9,4.1,8.9,9.1S152.9,25.3,148,25.3z
					 M148,8.8c-4,0-7.3,3.3-7.3,7.4s3.3,7.4,7.3,7.4s7.3-3.3,7.3-7.4S152.1,8.8,148,8.8z"/>
			</g>
			<g id="XMLID_1155_">
				<g id="XMLID_1158_">
					<g id="XMLID_1162_">
						<path id="XMLID_1163_" class="st18" d="M146.4,21.6h-2.5v-4.1c0-2.7,2.2-4.9,4.8-4.9h1.8v2.6h-1.8c-1.3,0-2.3,1-2.3,2.3V21.6z
							"/>
					</g>
					<g id="XMLID_1159_">
						<g id="XMLID_1160_">
							<polygon id="XMLID_1161_" class="st18" points="150.4,14.1 150.6,14 150.4,13.8 							"/>
						</g>
					</g>
				</g>
				<g id="XMLID_1156_">
					<polygon id="XMLID_1157_" class="st18" points="149.8,11.2 153.5,14 149.8,16.7 					"/>
				</g>
			</g>
			<g id="XMLID_1153_">
				<polygon id="XMLID_1154_" class="st17" points="141.7,11 142.8,9.8 154.3,21.5 153.2,22.7 				"/>
			</g>
		</g>
		<g id="XMLID_1_">
			<g id="XMLID_18_">
				<rect id="XMLID_19_" x="38.8" y="247.9" class="st15" width="1.6" height="22.6"/>
			</g>
			<g id="XMLID_13_">
				<ellipse id="XMLID_17_" class="st16" cx="39.6" cy="239.6" rx="8.1" ry="8.3"/>
				<path id="XMLID_14_" class="st17" d="M39.6,248.7c-4.9,0-8.9-4.1-8.9-9.1s4-9.1,8.9-9.1s8.9,4.1,8.9,9.1
					C48.6,244.6,44.6,248.7,39.6,248.7z M39.6,232.2c-4,0-7.3,3.3-7.3,7.4s3.3,7.4,7.3,7.4s7.3-3.3,7.3-7.4S43.7,232.2,39.6,232.2z"
					/>
			</g>
			<g id="XMLID_4_">
				<g id="XMLID_7_">
					<g id="XMLID_11_">
						<path id="XMLID_12_" class="st18" d="M38,245h-2.5v-4c0-2.7,2.2-4.9,4.8-4.9h1.8v2.6h-1.8c-1.3,0-2.3,1-2.3,2.3
							C38,241,38,245,38,245z"/>
					</g>
					<g id="XMLID_8_">
						<g id="XMLID_9_">
							<polygon id="XMLID_10_" class="st18" points="42,237.5 42.3,237.4 42,237.2 							"/>
						</g>
					</g>
				</g>
				<g id="XMLID_5_">
					<polygon id="XMLID_6_" class="st18" points="41.4,234.6 45.1,237.4 41.4,240.1 					"/>
				</g>
			</g>
			<g id="XMLID_2_">
				<polygon id="XMLID_3_" class="st17" points="33.3,234.4 34.4,233.2 45.9,244.9 44.8,246 				"/>
			</g>
		</g>
		<g id="XMLID_20_">
			<g>
				<polygon class="st19" points="167.2,449.7 172,462.3 164.7,462.3 157.4,462.3 150.1,462.3 142.7,462.3 135.4,462.3 128.1,462.3 
					120.8,462.3 125.6,449.7 				"/>
				<path class="st20" d="M164.7,462.3h7.3c0,2.1-1.6,3.7-3.7,3.7C166.3,466.1,164.7,464.4,164.7,462.3z"/>
				<path class="st16" d="M168.3,466.1v16.6h-18v-11.2h-7.8v11.2h-18v-16.6c2,0,3.7-1.7,3.7-3.7c0,2.1,1.6,3.7,3.7,3.7
					c2,0,3.7-1.7,3.7-3.7c0,2.1,1.6,3.7,3.7,3.7c2,0,3.7-1.7,3.7-3.7c0,2.1,1.6,3.7,3.7,3.7c2,0,3.7-1.7,3.7-3.7
					c0,2.1,1.6,3.7,3.7,3.7c2,0,3.7-1.7,3.7-3.7c0,2.1,1.6,3.7,3.7,3.7c2,0,3.7-1.7,3.7-3.7C164.7,464.4,166.3,466.1,168.3,466.1z
					 M164.7,478.4v-7h-10.8v7H164.7z M138.9,478.4v-7h-10.8v7H138.9z"/>
				<rect x="153.9" y="471.4" class="st19" width="10.8" height="7"/>
				<path class="st20" d="M157.4,462.3h7.3c0,2.1-1.6,3.7-3.7,3.7C159,466.1,157.4,464.4,157.4,462.3z"/>
				<path class="st20" d="M150.1,462.3h7.3c0,2.1-1.6,3.7-3.7,3.7C151.7,466.1,150.1,464.4,150.1,462.3z"/>
				<rect x="142.5" y="471.4" class="st19" width="7.8" height="11.2"/>
				<path class="st20" d="M142.7,462.3h7.3c0,2.1-1.6,3.7-3.7,3.7C144.4,466.1,142.7,464.4,142.7,462.3z"/>
				<path class="st20" d="M135.4,462.3h7.3c0,2.1-1.6,3.7-3.7,3.7C137.1,466.1,135.4,464.4,135.4,462.3z"/>
				<rect x="128.1" y="471.4" class="st19" width="10.8" height="7"/>
				<path class="st20" d="M128.1,462.3h7.3c0,2.1-1.6,3.7-3.7,3.7C129.7,466.1,128.1,464.4,128.1,462.3z"/>
				<path class="st20" d="M120.8,462.3h7.3c0,2.1-1.6,3.7-3.7,3.7C122.4,466.1,120.8,464.4,120.8,462.3z"/>
			</g>
		</g>
		<g>
			<path class="st21" d="M148,318.4c35-10.8,0-53.7,0-53.7S113,307.6,148,318.4z"/>
			<g>
				<rect x="147.1" y="279" class="st22" width="1.6" height="59"/>
			</g>
			<g>
				<polygon class="st22" points="147.3,315 154.3,307.9 155.4,309.1 148.5,316.1 				"/>
			</g>
			<g>
				<polygon class="st22" points="140.6,300.8 141.7,299.7 148.5,306.5 147.3,307.7 				"/>
			</g>
			<g>
				<polygon class="st22" points="140.6,284.5 141.7,283.3 148.5,290.1 147.3,291.3 				"/>
			</g>
			<g>
				<polygon class="st22" points="147.3,297.9 154.1,291 155.2,292.2 148.5,299 				"/>
			</g>
		</g>
	</g>
	<g>
		<rect x="0.3" y="-511.6" class="st0" width="186.7" height="512.6"/>
		<g>
			<g>
				<g>
					<g>
						<rect x="68.7" y="-36" class="st1" width="47.9" height="37"/>
						<rect x="91.8" y="-15.3" class="st2" width="1.8" height="16.3"/>
						<g>
							<rect x="70.2" y="-36" class="st2" width="1.4" height="37"/>
							<rect x="113.8" y="-36" class="st2" width="1.4" height="37"/>
						</g>
					</g>
					<g>
						<rect x="68.7" y="-72.9" class="st1" width="47.9" height="37"/>
						<rect x="91.8" y="-52.3" class="st2" width="1.8" height="16.3"/>
						<g>
							<rect x="70.2" y="-72.9" class="st2" width="1.4" height="37"/>
							<rect x="113.8" y="-72.9" class="st2" width="1.4" height="37"/>
						</g>
					</g>
					<g>
						<rect x="68.7" y="-109.9" class="st1" width="47.9" height="37"/>
						<rect x="91.8" y="-89.3" class="st2" width="1.8" height="16.3"/>
						<g>
							<rect x="70.2" y="-109.9" class="st2" width="1.4" height="37"/>
							<rect x="113.8" y="-109.9" class="st2" width="1.4" height="37"/>
						</g>
					</g>
					<g>
						<rect x="68.7" y="-146.9" class="st1" width="47.9" height="37"/>
						<rect x="91.8" y="-126.3" class="st2" width="1.8" height="16.3"/>
						<g>
							<rect x="70.2" y="-146.9" class="st2" width="1.4" height="37"/>
							<rect x="113.8" y="-146.9" class="st2" width="1.4" height="37"/>
						</g>
					</g>
					<g>
						<rect x="68.7" y="-183.9" class="st1" width="47.9" height="37"/>
						<rect x="91.8" y="-163.2" class="st2" width="1.8" height="16.3"/>
						<g>
							<rect x="70.2" y="-183.9" class="st2" width="1.4" height="37"/>
							<rect x="113.8" y="-183.9" class="st2" width="1.4" height="37"/>
						</g>
					</g>
					<g>
						<rect x="68.7" y="-220.8" class="st1" width="47.9" height="37"/>
						<rect x="91.8" y="-200.2" class="st2" width="1.8" height="16.3"/>
						<g>
							<rect x="70.2" y="-220.8" class="st2" width="1.4" height="37"/>
							<rect x="113.8" y="-220.8" class="st2" width="1.4" height="37"/>
						</g>
					</g>
					<g>
						<rect x="68.7" y="-257.8" class="st1" width="47.9" height="37"/>
						<rect x="91.8" y="-237.2" class="st2" width="1.8" height="16.3"/>
						<g>
							<rect x="70.2" y="-257.8" class="st2" width="1.4" height="37"/>
							<rect x="113.8" y="-257.8" class="st2" width="1.4" height="37"/>
						</g>
					</g>
					<g>
						<rect x="68.7" y="-294.8" class="st1" width="47.9" height="37"/>
						<rect x="91.8" y="-274.1" class="st2" width="1.8" height="16.3"/>
						<g>
							<rect x="70.2" y="-294.8" class="st2" width="1.4" height="37"/>
							<rect x="113.8" y="-294.8" class="st2" width="1.4" height="37"/>
						</g>
					</g>
					<g>
						<rect x="68.7" y="-331.7" class="st1" width="47.9" height="37"/>
						<rect x="91.8" y="-311.1" class="st2" width="1.8" height="16.3"/>
						<g>
							<rect x="70.2" y="-331.7" class="st2" width="1.4" height="37"/>
							<rect x="113.8" y="-331.7" class="st2" width="1.4" height="37"/>
						</g>
					</g>
					<g>
						<rect x="68.7" y="-368.7" class="st1" width="47.9" height="37"/>
						<rect x="91.8" y="-348.1" class="st2" width="1.8" height="16.3"/>
						<g>
							<rect x="70.2" y="-368.7" class="st2" width="1.4" height="37"/>
							<rect x="113.8" y="-368.7" class="st2" width="1.4" height="37"/>
						</g>
					</g>
					<g>
						<rect x="68.7" y="-405.7" class="st1" width="47.9" height="37"/>
						<rect x="91.8" y="-385" class="st2" width="1.8" height="16.3"/>
						<g>
							<rect x="70.2" y="-405.7" class="st2" width="1.4" height="37"/>
							<rect x="113.8" y="-405.7" class="st2" width="1.4" height="37"/>
						</g>
					</g>
					<g>
						<rect x="68.7" y="-442.6" class="st1" width="47.9" height="37"/>
						<rect x="91.8" y="-422" class="st2" width="1.8" height="16.3"/>
						<g>
							<rect x="70.2" y="-442.6" class="st2" width="1.4" height="37"/>
							<rect x="113.8" y="-442.6" class="st2" width="1.4" height="37"/>
						</g>
					</g>
					<g>
						<rect x="68.7" y="-479.6" class="st1" width="47.9" height="37"/>
						<rect x="91.8" y="-459" class="st2" width="1.8" height="16.3"/>
						<g>
							<rect x="70.2" y="-479.6" class="st2" width="1.4" height="37"/>
							<rect x="113.8" y="-479.6" class="st2" width="1.4" height="37"/>
						</g>
					</g>
					<g>
						<rect x="68.7" y="-516.6" class="st1" width="47.9" height="37"/>
						<rect x="91.8" y="-496" class="st2" width="1.8" height="16.3"/>
						<g>
							<rect x="70.2" y="-516.6" class="st2" width="1.4" height="37"/>
							<rect x="113.8" y="-516.6" class="st2" width="1.4" height="37"/>
						</g>
					</g>
				</g>
			</g>
		</g>
		<g>
			<path class="st3" d="M159-105.5c0,1-0.9,1.8-2,1.8h-14.5c-1.1,0-2-0.8-2-1.8l0,0c0-1,0.9-1.8,2-1.8H157
				C158.1-107.4,159-106.5,159-105.5L159-105.5z"/>
			<path class="st4" d="M151.8-106.3c0,0.6-0.6,1.2-1.2,1.2H149c-0.7,0-1.2-0.5-1.2-1.2v-9.6c0-0.6,0.6-1.2,1.2-1.2h1.6
				c0.7,0,1.2,0.5,1.2,1.2V-106.3z"/>
			<ellipse class="st5" cx="149.9" cy="-122.3" rx="10.2" ry="9.4"/>
		</g>
		<g>
			<path class="st3" d="M161.1-340c0,1.5-1.3,2.7-3,2.7h-21.6c-1.6,0-3-1.2-3-2.7l0,0c0-1.5,1.3-2.7,3-2.7h21.6
				C159.8-342.7,161.1-341.5,161.1-340L161.1-340z"/>
			<path class="st4" d="M150.4-341.1c0,1-0.8,1.7-1.9,1.7h-2.3c-1,0-1.9-0.8-1.9-1.7v-14.4c0-1,0.8-1.7,1.9-1.7h2.3
				c1,0,1.9,0.8,1.9,1.7V-341.1z"/>
			<ellipse class="st5" cx="147.3" cy="-368.2" rx="11" ry="17.2"/>
		</g>
		<g>
			<path class="st3" d="M160.4-419.4c0,1.4-1.1,2.6-2.5,2.6h-18.6c-1.4,0-2.5-1.2-2.5-2.6l0,0c0-1.4,1.1-2.6,2.5-2.6h18.6
				C159.3-422,160.4-420.8,160.4-419.4L160.4-419.4z"/>
			<path class="st4" d="M151.2-420.5c0,0.9-0.7,1.6-1.6,1.6h-2c-0.9,0-1.6-0.7-1.6-1.6v-13.6c0-0.9,0.7-1.6,1.6-1.6h2
				c0.9,0,1.6,0.7,1.6,1.6V-420.5z"/>
			<ellipse class="st5" cx="148.7" cy="-443.1" rx="13.1" ry="13.3"/>
		</g>
		<g>
			<path class="st3" d="M57-24.8c0,1.6-1.3,3-2.9,3H32.8c-1.6,0-2.9-1.3-2.9-3l0,0c0-1.6,1.3-3,2.9-3h21.3
				C55.7-27.8,57-26.4,57-24.8L57-24.8z"/>
			<path class="st4" d="M46.5-26.1c0,1-0.8,1.9-1.8,1.9h-2.3c-1,0-1.8-0.8-1.8-1.9v-15.6c0-1,0.8-1.9,1.8-1.9h2.3
				c1,0,1.8,0.8,1.8,1.9V-26.1z"/>
			<ellipse class="st5" cx="43.5" cy="-55.3" rx="10.9" ry="18.6"/>
		</g>
		<g>
			<path class="st3" d="M49.4-186.9c0,1-0.9,1.8-2,1.8H33c-1.1,0-2-0.8-2-1.8l0,0c0-1,0.9-1.8,2-1.8h14.5
				C48.6-188.7,49.4-187.9,49.4-186.9L49.4-186.9z"/>
			<path class="st4" d="M42.3-187.7c0,0.6-0.6,1.2-1.2,1.2h-1.6c-0.7,0-1.2-0.5-1.2-1.2v-9.6c0-0.6,0.6-1.2,1.2-1.2H41
				c0.7,0,1.2,0.5,1.2,1.2L42.3-187.7L42.3-187.7z"/>
			<ellipse class="st5" cx="40.3" cy="-203.7" rx="10.2" ry="9.4"/>
		</g>
		<g>
			<path class="st3" d="M52.4-121.4c0,1.4-1.1,2.6-2.5,2.6H31.2c-1.4,0-2.5-1.2-2.5-2.6l0,0c0-1.4,1.1-2.6,2.5-2.6h18.6
				C51.2-124,52.4-122.8,52.4-121.4L52.4-121.4z"/>
			<path class="st4" d="M43.1-122.5c0,0.9-0.7,1.6-1.6,1.6h-2c-0.9,0-1.6-0.7-1.6-1.6v-13.6c0-0.9,0.7-1.6,1.6-1.6h2
				c0.9,0,1.6,0.7,1.6,1.6V-122.5z"/>
			<ellipse class="st5" cx="40.6" cy="-145.1" rx="13.1" ry="13.3"/>
		</g>
		<g>
			<path class="st3" d="M58.5-438.4c0,1.6-1.3,3-2.9,3H34.3c-1.6,0-2.9-1.3-2.9-3l0,0c0-1.6,1.3-3,2.9-3h21.3
				C57.2-441.4,58.5-440.1,58.5-438.4L58.5-438.4z"/>
			<path class="st4" d="M47.9-439.7c0,1-0.8,1.9-1.8,1.9h-2.3c-1,0-1.8-0.8-1.8-1.9v-15.6c0-1,0.8-1.9,1.8-1.9h2.3
				c1,0,1.8,0.8,1.8,1.9V-439.7z"/>
			<ellipse class="st5" cx="44.9" cy="-468.9" rx="10.9" ry="18.6"/>
		</g>
		<g>
			<rect x="141.5" y="-290.8" class="st2" width="12.7" height="3.4"/>
			<rect x="141.5" y="-309.9" class="st6" width="4.9" height="41.6"/>
			<rect x="147" y="-309.9" class="st6" width="4.9" height="41.6"/>
			<rect x="141.5" y="-309.9" class="st2" width="12.7" height="3.4"/>
			<rect x="141.5" y="-271.7" class="st2" width="12.7" height="3.4"/>
			<rect x="152.5" y="-309.9" class="st6" width="2" height="41.6"/>
		</g>
		<g>
			<path class="st2" d="M142.2-288.2L142.2-288.2c0-1.2-1-2.2-2.2-2.2h-2.6c-1.2,0-2.2,1-2.2,2.2l0,0c0,1.2,1,2.2,2.2,2.2h2.6
				C141.2-286,142.2-287,142.2-288.2z"/>
			<path class="st2" d="M142.2-293.1L142.2-293.1c0-1.2-1-2.2-2.2-2.2h-2.6c-1.2,0-2.2,1-2.2,2.2l0,0c0,1.2,1,2.2,2.2,2.2h2.6
				C141.2-290.9,142.2-291.9,142.2-293.1z"/>
			<path class="st7" d="M144.8-288.2L144.8-288.2c0-1.2-1-2.2-2.2-2.2H140c-1.2,0-2.2,1-2.2,2.2l0,0c0,1.2,1,2.2,2.2,2.2h2.6
				C143.9-286,144.8-287,144.8-288.2z"/>
			<path class="st7" d="M144.8-293.1L144.8-293.1c0-1.2-1-2.2-2.2-2.2H140c-1.2,0-2.2,1-2.2,2.2l0,0c0,1.2,1,2.2,2.2,2.2h2.6
				C143.9-290.9,144.8-291.9,144.8-293.1z"/>
			<path class="st8" d="M143.1-284.3v-13c0-1.6,1.3-2.9,2.9-2.9l0,0c1.6,0,2.9,1.3,2.9,2.9v13c0,1.6-1.3,2.9-2.9,2.9l0,0
				C144.4-281.3,143.1-282.7,143.1-284.3z"/>
			<path class="st9" d="M146-283.5L146-283.5c0-1.2-1-2.2-2.2-2.2h-3c-1.2,0-2.2,1-2.2,2.2l0,0c0,1.2,1,2.2,2.2,2.2h3
				C145-281.3,146-282.3,146-283.5z"/>
			<ellipse class="st9" cx="145.7" cy="-290.8" rx="4.7" ry="4.1"/>
			<path class="st10" d="M142.7-293.9c0.8-0.6,1.8-0.9,3-0.9c2.6,0,4.7,1.8,4.7,4.1c0,2.2-2.1,4.1-4.7,4.1c-1.1,0-2.1-0.3-3-0.9
				c-0.2-1-0.3-2.1-0.3-3.2C142.5-291.9,142.5-293,142.7-293.9z"/>
			<path class="st8" d="M148.1-283.5L148.1-283.5c0-1.2-1-2.2-2.2-2.2h-4.8v4.4h4.8C147.1-281.3,148.1-282.3,148.1-283.5z"/>
			<path class="st9" d="M146-298.1L146-298.1c0-1.2-1-2.2-2.2-2.2h-3c-1.2,0-2.2,1-2.2,2.2l0,0c0,1.2,1,2.2,2.2,2.2h3
				C145-295.9,146-296.9,146-298.1z"/>
			<path class="st8" d="M148.1-298.1L148.1-298.1c0-1.2-1-2.2-2.2-2.2h-4.8v4.4h4.8C147.1-295.9,148.1-296.9,148.1-298.1z"/>
		</g>
		<g>
			<g>
				<path class="st11" d="M50.4-337.8c-3-2-11.2-5.8-14.7-1.3c-1.6,1.9-0.8,5-2.5,7.1c-2.2,2.9-7,1.2-10.4,1.9
					c-9,1.2-8.2,10.6-3.1,16.4c4.5,5.4,15.7,11,22.7,7.3c5.9-3.1,0-13.1,6.3-17.4c3.1-2.1,5.3-1.7,5.7-6.2
					C54.7-334.3,52.8-335.8,50.4-337.8"/>
			</g>
			<g>
				<g>
					<g>
						<g>
							<path class="st2" d="M14.1-375.7c3.8,0,3.8-5.9,0-5.9C10.4-381.6,10.4-375.7,14.1-375.7L14.1-375.7z"/>
						</g>
					</g>
					<g>
						<g>
							<path class="st2" d="M34.5-378.3c3.8,0,3.8-5.9,0-5.9S30.7-378.3,34.5-378.3L34.5-378.3z"/>
						</g>
					</g>
					<g>
						<g>
							<path class="st2" d="M30.5-387.8c3.8,0,3.8-5.9,0-5.9C26.7-393.8,26.7-387.8,30.5-387.8L30.5-387.8z"/>
						</g>
					</g>
					<g>
						<g>
							<path class="st2" d="M18.1-384.2c3.8,0,3.8-5.9,0-5.9C14.4-390.1,14.4-384.2,18.1-384.2L18.1-384.2z"/>
						</g>
					</g>
					<g>
						<g>
							<path class="st2" d="M51.9-374.6c3.8,0,3.8-5.9,0-5.9C48.1-380.5,48.1-374.6,51.9-374.6L51.9-374.6z"/>
						</g>
					</g>
					<g>
						<g>
							<path class="st2" d="M42.1-382.7c3.8,0,3.8-5.9,0-5.9S38.3-382.7,42.1-382.7L42.1-382.7z"/>
						</g>
					</g>
					<g>
						<g>
							<path class="st2" d="M22.8-392.6c3.8,0,3.8-5.9,0-5.9C19.1-398.6,19.1-392.6,22.8-392.6L22.8-392.6z"/>
						</g>
					</g>
					<g>
						<g>
							<path class="st2" d="M38.8-391.5c3.8,0,3.8-5.9,0-5.9C35.1-397.5,35.1-391.5,38.8-391.5L38.8-391.5z"/>
						</g>
					</g>
					<g>
						<g>
							<path class="st2" d="M50.8-384.2c3.8,0,3.8-5.9,0-5.9S47-384.2,50.8-384.2L50.8-384.2z"/>
						</g>
					</g>
				</g>
				<g class="st12">
					<path d="M38.4-359.8c-8.6,0.2-17.2-1.7-25.8-1.7c-4.3,0-7.1-0.2-6.9,4.8c0.2,3.9,2.4,5.2,6,5.9c2.6,0.2,8.6-1.3,10.7,0.2
						c2.8,2,0.4,4.8,4.3,6.1c6.7,2.6,16.3,0.7,23.2,0.7c3.2,0,8.8,0.4,11.4-2.4c2.1-2.4,1.9-8.7,0-11.4c-4.1-5.2-17.4-2.6-23.4-2.6"
						/>
				</g>
				<g>
					<g>
						<g>
							<path class="st13" d="M40.2-355.3L40.2-355.3H13.3c-0.5,0-1-0.3-1.3-0.7s-0.3-1-0.1-1.5l13.5-28.9c0.2-0.5,0.8-0.9,1.4-0.9
								s1.1,0.3,1.4,0.9l13.4,28.7c0.1,0.2,0.2,0.5,0.2,0.8C41.7-355.9,41-355.3,40.2-355.3z"/>
						</g>
						<g>
							<g>
								<path class="st2" d="M27.2-374.2L27.2-374.2c-0.5,0-0.9-0.2-1.3-0.5c-0.8-0.8-0.8-2.5-0.8-3.8c-0.4,0.9-1,1.7-1.7,2.1
									c-0.4,0.3-1,0.5-1.5,0.5l0,0c-0.6,0-1-0.2-1.4-0.6c-0.1-0.1-0.1-0.3-0.1-0.4l4.4-9.5c0.3-0.7,1-1.1,1.7-1.1s1.4,0.4,1.7,1.1
									l3.7,7.9c0,0.1,0,0.2,0,0.3c0,0.1-0.1,0.2-0.2,0.2c-0.3,0.1-0.5,0.1-0.8,0.1c-0.6,0-1.3-0.3-1.7-0.8c0.1,1.3,0.1,3-0.7,3.9
									C28.3-374.4,27.8-374.2,27.2-374.2z"/>
							</g>
						</g>
					</g>
					<g>
						<g>
							<path class="st14" d="M56.5-349L56.5-349h-27c-0.5,0-1-0.3-1.3-0.7c-0.3-0.4-0.3-1-0.1-1.5L41.7-380c0.2-0.5,0.8-0.9,1.4-0.9
								c0.6,0,1.1,0.3,1.4,0.9l13.4,28.7c0.1,0.2,0.2,0.5,0.2,0.8C58-349.7,57.3-349,56.5-349z"/>
						</g>
						<g>
							<g>
								<path class="st2" d="M43.4-363.2c-0.6,0-1.1-0.2-1.5-0.6c-1.1-0.9-1-2.8-1-4v-0.2c0-0.4,0-0.8,0.1-1.2
									c0-0.6,0.1-1.1,0.1-1.7c-0.1,0.2-0.2,0.5-0.3,0.7c-0.2,0.6-0.4,1.1-0.7,1.7c-0.4,0.8-1.7,1.8-2.8,1.8l0,0
									c-0.7,0-1.2-0.4-1.4-1.1c0-0.1-0.1-0.2-0.1-0.3s0-0.2,0-0.2l5.5-11.9c0.3-0.7,1-1.1,1.7-1.1s1.4,0.4,1.7,1.1l5.5,11.7
									c0.1,0.1,0,0.3,0,0.4c-0.2,0.3-0.6,0.6-1,0.7c-0.2,0.1-0.5,0.1-0.7,0.1c-1.2,0-2.1-0.8-2.7-1.8c0,0.1,0,0.1,0,0.2
									c0.1,1,0.1,2,0,2.9c-0.1,1-0.4,1.8-1,2.3C44.4-363.4,44-363.2,43.4-363.2z"/>
							</g>
						</g>
					</g>
				</g>
			</g>
		</g>
		<g id="XMLID_70_">
			<g id="XMLID_85_">
				<rect id="XMLID_86_" x="147.2" y="-486.5" class="st15" width="1.6" height="22.6"/>
			</g>
			<g id="XMLID_82_">
				<ellipse id="XMLID_84_" class="st16" cx="148" cy="-494.8" rx="8.1" ry="8.3"/>
				<path id="XMLID_83_" class="st17" d="M148-485.7c-4.9,0-8.9-4.1-8.9-9.1s4-9.1,8.9-9.1s8.9,4.1,8.9,9.1S152.9-485.7,148-485.7z
					 M148-502.2c-4,0-7.3,3.3-7.3,7.4c0,4.1,3.3,7.4,7.3,7.4s7.3-3.3,7.3-7.4C155.3-498.9,152.1-502.2,148-502.2z"/>
			</g>
			<g id="XMLID_73_">
				<g id="XMLID_76_">
					<g id="XMLID_80_">
						<path id="XMLID_81_" class="st18" d="M146.4-489.4h-2.5v-4.1c0-2.7,2.2-4.9,4.8-4.9h1.8v2.6h-1.8c-1.3,0-2.3,1-2.3,2.3V-489.4
							z"/>
					</g>
					<g id="XMLID_77_">
						<g id="XMLID_78_">
							<polygon id="XMLID_79_" class="st18" points="150.4,-496.9 150.6,-497 150.4,-497.2 							"/>
						</g>
					</g>
				</g>
				<g id="XMLID_74_">
					<polygon id="XMLID_75_" class="st18" points="149.8,-499.8 153.5,-497 149.8,-494.3 					"/>
				</g>
			</g>
			<g id="XMLID_71_">
				<polygon id="XMLID_72_" class="st17" points="141.7,-500 142.8,-501.2 154.3,-489.5 153.2,-488.3 				"/>
			</g>
		</g>
		<g id="XMLID_16_">
			<g id="XMLID_68_">
				<rect id="XMLID_69_" x="38.8" y="-263.1" class="st15" width="1.6" height="22.6"/>
			</g>
			<g id="XMLID_65_">
				<ellipse id="XMLID_67_" class="st16" cx="39.6" cy="-271.4" rx="8.1" ry="8.3"/>
				<path id="XMLID_66_" class="st17" d="M39.6-262.3c-4.9,0-8.9-4.1-8.9-9.1s4-9.1,8.9-9.1s8.9,4.1,8.9,9.1
					C48.6-266.4,44.6-262.3,39.6-262.3z M39.6-278.8c-4,0-7.3,3.3-7.3,7.4c0,4.1,3.3,7.4,7.3,7.4s7.3-3.3,7.3-7.4
					C46.9-275.5,43.7-278.8,39.6-278.8z"/>
			</g>
			<g id="XMLID_40_">
				<g id="XMLID_59_">
					<g id="XMLID_63_">
						<path id="XMLID_64_" class="st18" d="M38-266h-2.5v-4c0-2.7,2.2-4.9,4.8-4.9h1.8v2.6h-1.8c-1.3,0-2.3,1-2.3,2.3
							C38-270,38-266,38-266z"/>
					</g>
					<g id="XMLID_60_">
						<g id="XMLID_61_">
							<polygon id="XMLID_62_" class="st18" points="42,-273.5 42.3,-273.6 42,-273.8 							"/>
						</g>
					</g>
				</g>
				<g id="XMLID_55_">
					<polygon id="XMLID_56_" class="st18" points="41.4,-276.4 45.1,-273.6 41.4,-270.9 					"/>
				</g>
			</g>
			<g id="XMLID_36_">
				<polygon id="XMLID_37_" class="st17" points="33.3,-276.6 34.4,-277.8 45.9,-266.1 44.8,-265 				"/>
			</g>
		</g>
		<g id="XMLID_15_">
			<g>
				<polygon class="st19" points="167.2,-61.3 172,-48.7 164.7,-48.7 157.4,-48.7 150.1,-48.7 142.7,-48.7 135.4,-48.7 128.1,-48.7 
					120.8,-48.7 125.6,-61.3 				"/>
				<path class="st20" d="M164.7-48.7h7.3c0,2.1-1.6,3.7-3.7,3.7C166.3-44.9,164.7-46.6,164.7-48.7z"/>
				<path class="st16" d="M168.3-44.9v16.6h-18v-11.2h-7.8v11.2h-18v-16.6c2,0,3.7-1.7,3.7-3.7c0,2.1,1.6,3.7,3.7,3.7
					c2,0,3.7-1.7,3.7-3.7c0,2.1,1.6,3.7,3.7,3.7c2,0,3.7-1.7,3.7-3.7c0,2.1,1.6,3.7,3.7,3.7c2,0,3.7-1.7,3.7-3.7
					c0,2.1,1.6,3.7,3.7,3.7c2,0,3.7-1.7,3.7-3.7c0,2.1,1.6,3.7,3.7,3.7c2,0,3.7-1.7,3.7-3.7C164.7-46.6,166.3-44.9,168.3-44.9z
					 M164.7-32.6v-7h-10.8v7H164.7z M138.9-32.6v-7h-10.8v7H138.9z"/>
				<rect x="153.9" y="-39.6" class="st19" width="10.8" height="7"/>
				<path class="st20" d="M157.4-48.7h7.3c0,2.1-1.6,3.7-3.7,3.7C159-44.9,157.4-46.6,157.4-48.7z"/>
				<path class="st20" d="M150.1-48.7h7.3c0,2.1-1.6,3.7-3.7,3.7C151.7-44.9,150.1-46.6,150.1-48.7z"/>
				<rect x="142.5" y="-39.6" class="st19" width="7.8" height="11.2"/>
				<path class="st20" d="M142.7-48.7h7.3c0,2.1-1.6,3.7-3.7,3.7C144.4-44.9,142.7-46.6,142.7-48.7z"/>
				<path class="st20" d="M135.4-48.7h7.3c0,2.1-1.6,3.7-3.7,3.7C137.1-44.9,135.4-46.6,135.4-48.7z"/>
				<rect x="128.1" y="-39.6" class="st19" width="10.8" height="7"/>
				<path class="st20" d="M128.1-48.7h7.3c0,2.1-1.6,3.7-3.7,3.7C129.7-44.9,128.1-46.6,128.1-48.7z"/>
				<path class="st20" d="M120.8-48.7h7.3c0,2.1-1.6,3.7-3.7,3.7C122.4-44.9,120.8-46.6,120.8-48.7z"/>
			</g>
		</g>
		<g>
			<path class="st21" d="M148-192.6c35-10.8,0-53.7,0-53.7S113-203.4,148-192.6z"/>
			<g>
				<rect x="147.1" y="-232" class="st22" width="1.6" height="59"/>
			</g>
			<g>
				<polygon class="st22" points="147.3,-196 154.3,-203.1 155.4,-201.9 148.5,-194.9 				"/>
			</g>
			<g>
				<polygon class="st22" points="140.6,-210.2 141.7,-211.3 148.5,-204.5 147.3,-203.3 				"/>
			</g>
			<g>
				<polygon class="st22" points="140.6,-226.5 141.7,-227.7 148.5,-220.9 147.3,-219.7 				"/>
			</g>
			<g>
				<polygon class="st22" points="147.3,-213.1 154.1,-220 155.2,-218.8 148.5,-212 				"/>
			</g>
		</g>
	</g>
</g>
<g>
	<path class="st23" d="M90.4,352.7c0.1,0.2-0.1,0.5-0.3,0.6l-0.7,0.2c-0.2,0.1-0.5-0.1-0.6-0.3l0,0c-0.1-0.2,0.1-0.5,0.3-0.6
		l0.7-0.2C90.1,352.3,90.4,352.5,90.4,352.7L90.4,352.7z"/>
	<path class="st24" d="M99.8,352.7c-0.1,0.2,0.1,0.5,0.3,0.6l0.7,0.2c0.2,0.1,0.5-0.1,0.6-0.3l0,0c0.1-0.2-0.1-0.5-0.3-0.6l-0.7-0.2
		C100.1,352.3,99.8,352.5,99.8,352.7L99.8,352.7z"/>
	
		<linearGradient id="SVGID_1_" gradientUnits="userSpaceOnUse" x1="88.614" y1="157.5375" x2="101.547" y2="157.5375" gradientTransform="matrix(1 0 0 -1 0 512)">
		<stop  offset="0" style="stop-color:#535A57"/>
		<stop  offset="1" style="stop-color:#2D2E2E"/>
	</linearGradient>
	<path class="st25" d="M101.5,356.6v-3.3c-3.7-1.3-9.2-1.3-12.9,0v3.3H101.5z"/>
	
		<linearGradient id="SVGID_2_" gradientUnits="userSpaceOnUse" x1="106.6082" y1="139.1633" x2="104.5129" y2="156.8688" gradientTransform="matrix(1 0 0 -1 0 512)">
		<stop  offset="0" style="stop-color:#1E94D2"/>
		<stop  offset="0.406" style="stop-color:#27ACE3"/>
		<stop  offset="1" style="stop-color:#33C4F2"/>
	</linearGradient>
	<path class="st26" d="M107.7,363.7c0.3,2.5,0.4,5.4,0.4,8.4h0.8c0-3.1-0.2-6.2-0.4-8.8c-0.3-3-0.8-4.5-1.7-5.7
		c-0.4,0.1-0.8,0-1.1-0.3l-3.2-2.6c-0.3-0.3-0.5-0.7-0.6-1.1c-0.1-0.1-0.3-0.1-0.5-0.2v1c0.9,0.3,1.6,0.8,2.2,1.3
		C106.2,357.9,107.2,358.8,107.7,363.7z"/>
	
		<radialGradient id="SVGID_3_" cx="95.1067" cy="4278.7925" r="16.9202" gradientTransform="matrix(1 0 0 -2.3262 0 10339.9541)" gradientUnits="userSpaceOnUse">
		<stop  offset="0" style="stop-color:#F7F8F8"/>
		<stop  offset="1" style="stop-color:#A9ACAB"/>
	</radialGradient>
	<path class="st27" d="M108.9,372h-0.8c0.1,6-0.1,12-0.1,14c0.2,15.6-0.5,25.1-1.4,28.4c-0.2,0.6-0.6,1.1-1.2,1.5l-1.2-5.6H86
		l-1.5,5.4c-0.4-0.4-0.8-0.8-0.9-1.3c-0.9-3.3-1.6-12.8-1.4-28.4c0-2-0.2-8-0.1-14h-0.8c-0.1,6.2,0.2,12.4,0.1,14.4
		c-0.2,16.2,0.5,26.1,1.5,29.5c0.2,0.6,0.6,1.2,1.3,1.6c0.1-0.1,0.3-0.1,0.5-0.1c1.1,0,1.7,0.8,2.9,0.6c0.8-0.2,1.1,0.6,1.2,1.1
		c0.7,0.1,1.5,0.2,2.2,0.3c0.1-0.2,0.3-0.3,0.5-0.3h7.3c0.2,0,0.4,0.1,0.5,0.3c0.5-0.1,1.1-0.1,1.6-0.2c0.1-0.5,0.3-1.4,1.2-1.2
		c1.2,0.2,1.8-0.6,2.9-0.6c0.3,0,0.6,0.1,0.8,0.3c0.8-0.5,1.4-1.1,1.6-1.8c1-3.4,1.7-13.3,1.5-29.5C108.8,384.4,109,378.3,108.9,372
		z"/>
	
		<linearGradient id="SVGID_4_" gradientUnits="userSpaceOnUse" x1="85.1058" y1="153.0976" x2="84.3724" y2="141.0495" gradientTransform="matrix(1 0 0 -1 0 512)">
		<stop  offset="0" style="stop-color:#33C4F2"/>
		<stop  offset="0.594" style="stop-color:#27ACE3"/>
		<stop  offset="1" style="stop-color:#1E94D2"/>
	</linearGradient>
	<path class="st28" d="M82.5,363.7c0.5-4.9,1.5-5.8,4-8.1c0.5-0.5,1.3-0.9,2.2-1.3v-1c-0.2,0.1-0.3,0.1-0.5,0.2
		c-0.1,0.4-0.2,0.8-0.6,1.1l-3.2,2.6c-0.3,0.3-0.7,0.3-1.1,0.3c-0.9,1.2-1.4,2.8-1.7,5.7c-0.3,2.6-0.4,5.7-0.4,8.8H82
		C82.1,369.1,82.2,366.2,82.5,363.7z"/>
	
		<radialGradient id="SVGID_5_" cx="95.1" cy="4278.7925" r="16.9228" gradientTransform="matrix(1 0 0 -2.3262 0 10339.9541)" gradientUnits="userSpaceOnUse">
		<stop  offset="0" style="stop-color:#F7F8F8"/>
		<stop  offset="1" style="stop-color:#A9ACAB"/>
	</radialGradient>
	<path class="st29" d="M82.2,386.1c-0.2,15.6,0.5,25.1,1.4,28.4c0.1,0.5,0.5,1,0.9,1.3l1.5-5.4h18.2l1.2,5.6c0.6-0.4,1-0.9,1.2-1.5
		c0.9-3.3,1.6-12.8,1.4-28.4c0-2,0.2-8,0.1-14h-26C82,378.1,82.2,384.1,82.2,386.1z"/>
	
		<radialGradient id="SVGID_6_" cx="95.1" cy="6185.6807" r="13.528" gradientTransform="matrix(1 0 0 -4.2875 0 26906.6563)" gradientUnits="userSpaceOnUse">
		<stop  offset="0" style="stop-color:#FFFFFF"/>
		<stop  offset="1" style="stop-color:#D3D6D5"/>
	</radialGradient>
	<path class="st30" d="M82.2,386.1c-0.2,15.6,0.5,25.1,1.4,28.4c0.1,0.5,0.5,1,0.9,1.3l1.5-5.4h18.2l1.2,5.6c0.6-0.4,1-0.9,1.2-1.5
		c0.9-3.3,1.6-12.8,1.4-28.4c0-2,0.2-8,0.1-14h-26C82,378.1,82.2,384.1,82.2,386.1z"/>
	
		<radialGradient id="SVGID_7_" cx="95.1" cy="4278.7925" r="16.9162" gradientTransform="matrix(1 0 0 -2.3262 0 10339.9541)" gradientUnits="userSpaceOnUse">
		<stop  offset="0" style="stop-color:#F7F8F8"/>
		<stop  offset="1" style="stop-color:#A9ACAB"/>
	</radialGradient>
	<path class="st31" d="M82.5,363.7c-0.3,2.5-0.4,5.4-0.4,8.4h26c0-2.9-0.2-5.9-0.4-8.4c-0.5-4.9-1.5-5.8-4-8.1
		c-0.5-0.5-1.3-0.9-2.2-1.3v2.3H88.6v-2.3c-0.9,0.3-1.6,0.8-2.2,1.3C84,357.9,83,358.8,82.5,363.7z"/>
	
		<linearGradient id="SVGID_8_" gradientUnits="userSpaceOnUse" x1="94.9508" y1="143.005" x2="93.3333" y2="160.5822" gradientTransform="matrix(1 0 0 -1 0 512)">
		<stop  offset="0" style="stop-color:#33C4F2"/>
		<stop  offset="0.594" style="stop-color:#27ACE3"/>
		<stop  offset="1" style="stop-color:#1E94D2"/>
	</linearGradient>
	<path class="st32" d="M107.7,363.7c-0.5-4.9-1.5-5.8-4-8.1c-0.5-0.5-1.3-0.9-2.2-1.3c-3.6-1.4-9.4-1.4-12.9,0
		c-0.9,0.3-1.6,0.8-2.2,1.3c-2.5,2.3-3.5,3.1-4,8.1c-0.3,2.5-0.4,5.4-0.4,8.4h26C108.1,369.1,107.9,366.2,107.7,363.7z"/>
	
		<linearGradient id="SVGID_9_" gradientUnits="userSpaceOnUse" x1="84.1161" y1="141.55" x2="106.0445" y2="141.55" gradientTransform="matrix(1 0 0 -1 0 512)">
		<stop  offset="0" style="stop-color:#010101"/>
		<stop  offset="1" style="stop-color:#1B1C1C"/>
	</linearGradient>
	<path class="st33" d="M84.9,371.9c0.8-0.4,2.3-1.1,4.6-1.7c3.3-0.8,7.7-0.8,11,0c2.3,0.6,3.8,1.2,4.6,1.7c0.4,0.2,0.6,0.3,0.7,0.5
		l0,0c0,0,0.2-0.8,0.1-1s-0.3-0.4-0.8-0.6c-0.8-0.4-2.3-1.1-4.6-1.7c-3.3-0.8-7.7-0.8-11,0c-2.3,0.6-3.8,1.2-4.6,1.7
		c-0.4,0.2-0.7,0.4-0.8,0.6c-0.1,0.2,0.1,1,0.1,1l0,0C84.3,372.2,84.6,372.1,84.9,371.9z"/>
	
		<linearGradient id="SVGID_10_" gradientUnits="userSpaceOnUse" x1="84.213" y1="136.55" x2="105.951" y2="136.55" gradientTransform="matrix(1 0 0 -1 0 512)">
		<stop  offset="0" style="stop-color:#373C3A"/>
		<stop  offset="1" style="stop-color:#1B1C1C"/>
	</linearGradient>
	<path class="st34" d="M89.9,380c2.4-0.4,7.9-0.4,10.3,0c2.2,0.3,3.7,1,4.3,1.3l1.4-8.9c-0.1-0.1-0.4-0.3-0.7-0.5
		c-0.8-0.4-2.3-1.1-4.6-1.7c-3.3-0.8-7.7-0.8-11,0c-2.3,0.6-3.8,1.2-4.6,1.7c-0.4,0.2-0.6,0.3-0.7,0.5l1.4,8.9
		C86.2,381,87.8,380.3,89.9,380z"/>
	
		<linearGradient id="SVGID_11_" gradientUnits="userSpaceOnUse" x1="94.95" y1="94.3026" x2="94.95" y2="99.3276" gradientTransform="matrix(1 0 0 -1 0 512)">
		<stop  offset="0" style="stop-color:#33C4F2"/>
		<stop  offset="0.594" style="stop-color:#27ACE3"/>
		<stop  offset="1" style="stop-color:#1E94D2"/>
	</linearGradient>
	<path class="st35" d="M86,410.4l-1.5,5.4c2.8,2.4,10.6,2.3,10.6,2.3s7.4,0.1,10.3-2l-1.2-5.6L86,410.4L86,410.4z"/>
	
		<linearGradient id="SVGID_12_" gradientUnits="userSpaceOnUse" x1="86.5264" y1="103.7375" x2="103.6264" y2="103.7375" gradientTransform="matrix(1 0 0 -1 0 512)">
		<stop  offset="0" style="stop-color:#373C3A"/>
		<stop  offset="1" style="stop-color:#1B1C1C"/>
	</linearGradient>
	<path class="st36" d="M86.8,405.5c-0.4,2.3-0.2,4.3-0.2,4.3s1.7,0.6,4.2,1c1.9,0.3,6.7,0.3,8.6,0c2.5-0.4,4.2-1,4.2-1
		s0.2-2-0.2-4.2c-1.5,0.3-4.2,0.7-8.3,0.7C91.2,406.3,88.3,405.8,86.8,405.5z"/>
	<g>
		
			<linearGradient id="SVGID_13_" gradientUnits="userSpaceOnUse" x1="82.6126" y1="129.9" x2="85.516" y2="129.9" gradientTransform="matrix(1 0 0 -1 0 512)">
			<stop  offset="0" style="stop-color:#373C3A"/>
			<stop  offset="1" style="stop-color:#1B1C1C"/>
		</linearGradient>
		<path class="st37" d="M82.9,391.5l2.7,0.7l-0.3-9.2l-1.9-11c0,0-1,2.8-0.8,6.8c0.1,2.5,0.4,6,0.4,8.3
			C83,389.3,82.9,390.8,82.9,391.5z"/>
		
			<linearGradient id="SVGID_14_" gradientUnits="userSpaceOnUse" x1="104.647" y1="129.85" x2="107.5513" y2="129.85" gradientTransform="matrix(1 0 0 -1 0 512)">
			<stop  offset="0" style="stop-color:#373C3A"/>
			<stop  offset="1" style="stop-color:#1B1C1C"/>
		</linearGradient>
		<path class="st38" d="M107.3,391.5l-2.7,0.7l0.3-9.2l1.8-10.9c0,0,1,2.8,0.8,6.8c-0.1,2.5-0.4,6-0.4,8.3
			C107.2,389.3,107.2,390.8,107.3,391.5z"/>
	</g>
	<g>
		
			<linearGradient id="SVGID_15_" gradientUnits="userSpaceOnUse" x1="82.7134" y1="112.9" x2="85.7384" y2="112.9" gradientTransform="matrix(1 0 0 -1 0 512)">
			<stop  offset="0" style="stop-color:#373C3A"/>
			<stop  offset="1" style="stop-color:#1B1C1C"/>
		</linearGradient>
		<path class="st39" d="M82.8,392.4l2.7,0.9l0.2,7.7c0,0-0.2,1-0.9,2.5c-0.8,1.8-2.1,2.3-2.1,2.3S82.6,395.3,82.8,392.4z"/>
		
			<linearGradient id="SVGID_16_" gradientUnits="userSpaceOnUse" x1="104.421" y1="112.9" x2="107.446" y2="112.9" gradientTransform="matrix(1 0 0 -1 0 512)">
			<stop  offset="0" style="stop-color:#373C3A"/>
			<stop  offset="1" style="stop-color:#1B1C1C"/>
		</linearGradient>
		<path class="st40" d="M107.4,392.4l-2.7,0.9l-0.2,7.7c0,0,0.2,1,0.9,2.5c0.8,1.8,2.1,2.3,2.1,2.3S107.6,395.3,107.4,392.4z"/>
	</g>
	<g>
		
			<radialGradient id="SVGID_17_" cx="85.749" cy="184.0228" r="2.0853" gradientTransform="matrix(1 0 0 -1.1697 0 570.7597)" gradientUnits="userSpaceOnUse">
			<stop  offset="0" style="stop-color:#FFFFFF"/>
			<stop  offset="1" style="stop-color:#A0A2A1"/>
		</radialGradient>
		<path class="st41" d="M84.4,357.2l3.2-2.6c0.3-0.3,0.5-0.7,0.6-1.1c-0.9,0.4-1.7,0.8-2.2,1.3c-1.1,1-1.9,1.7-2.6,2.6
			C83.7,357.6,84.1,357.5,84.4,357.2z"/>
		
			<radialGradient id="SVGID_18_" cx="104.414" cy="184.0235" r="2.0854" gradientTransform="matrix(1 0 0 -1.1697 0 570.7597)" gradientUnits="userSpaceOnUse">
			<stop  offset="0" style="stop-color:#FFFFFF"/>
			<stop  offset="1" style="stop-color:#A0A2A1"/>
		</radialGradient>
		<path class="st42" d="M102.6,354.6l3.2,2.6c0.3,0.3,0.7,0.3,1.1,0.3c-0.6-0.9-1.5-1.6-2.6-2.6c-0.6-0.5-1.3-1-2.2-1.3
			C102.1,353.9,102.3,354.4,102.6,354.6z"/>
	</g>
	<path class="st43" d="M87.5,418.1c-1.2,0.2-1.8-0.6-2.9-0.6c-0.2,0-0.4,0-0.5,0.1c1.1,0.8,2.9,1.3,4.6,1.6
		C88.6,418.7,88.4,417.9,87.5,418.1z"/>
	<path class="st43" d="M102.1,418.1c-0.9-0.2-1.1,0.7-1.2,1.2c1.8-0.3,3.6-0.7,4.9-1.5c-0.2-0.2-0.4-0.3-0.8-0.3
		C103.9,417.5,103.3,418.3,102.1,418.1z"/>
	
		<linearGradient id="SVGID_19_" gradientUnits="userSpaceOnUse" x1="94.8202" y1="138.8064" x2="101.2013" y2="134.269" gradientTransform="matrix(1 0 0 -1 0 512)">
		<stop  offset="0" style="stop-color:#373C3A"/>
		<stop  offset="1" style="stop-color:#010101"/>
	</linearGradient>
	<path class="st44" d="M105.2,371.9c-0.8-0.4-2.3-1.1-4.6-1.7c-0.8-0.2-1.7-0.3-2.6-0.4c-2.3,2.8-5.1,7.9-6.2,10
		c2.7-0.2,6.5-0.1,8.4,0.2c2.2,0.3,3.7,1,4.3,1.3l1.4-8.9C105.8,372.2,105.6,372.1,105.2,371.9z"/>
	
		<linearGradient id="SVGID_20_" gradientUnits="userSpaceOnUse" x1="88.5212" y1="130.3139" x2="113.9288" y2="88.6104" gradientTransform="matrix(1 0 0 -1 0 512)">
		<stop  offset="0" style="stop-color:#F7F8F8"/>
		<stop  offset="1" style="stop-color:#DCDBDB"/>
	</linearGradient>
	<path class="st45" d="M95.1,381.7c-6.8-0.2-9,1.2-9,1.2s0.1,18.3,0.6,20.1c0.3,1.2,4.6,1.8,7.3,2h2.2c2.7-0.2,7-0.8,7.3-2
		c0.5-1.8,0.6-20.1,0.6-20.1S101.8,381.5,95.1,381.7z"/>
	<path class="st46" d="M87.6,355.2c0,0-4.1,2.3-4.5,7.4c-0.4,5.2-0.4,7.8-0.4,7.8S84.1,358,87.6,355.2z"/>
	
		<linearGradient id="SVGID_21_" gradientUnits="userSpaceOnUse" x1="91.8601" y1="128.2802" x2="99.4397" y2="106.2184" gradientTransform="matrix(1 0 0 -1 0 512)">
		<stop  offset="0" style="stop-color:#33C4F2"/>
		<stop  offset="0.594" style="stop-color:#27ACE3"/>
		<stop  offset="1" style="stop-color:#1E94D2"/>
	</linearGradient>
	<rect x="92.7" y="380.1" class="st47" width="4.8" height="26.1"/>
	<path class="st46" d="M102.6,355.2c0,0,4.1,2.3,4.5,7.4c0.4,5.2,0.4,7.8,0.4,7.8S106.1,358,102.6,355.2z"/>
	<g>
		
			<linearGradient id="SVGID_22_" gradientUnits="userSpaceOnUse" x1="106.3182" y1="138.8312" x2="108.9193" y2="133.7951" gradientTransform="matrix(1 0 0 -1 0 512)">
			<stop  offset="0" style="stop-color:#373C3A"/>
			<stop  offset="1" style="stop-color:#1B1C1C"/>
		</linearGradient>
		<path class="st48" d="M106.6,372.7c0,0,1.1,0.2,1.1,1.2s-1.1,3.1-1.1,1.8S106.5,373.1,106.6,372.7z"/>
		
			<linearGradient id="SVGID_23_" gradientUnits="userSpaceOnUse" x1="107.322" y1="137.423" x2="110.4148" y2="137.423" gradientTransform="matrix(1 0 0 -1 0 512)">
			<stop  offset="0" style="stop-color:#FFFFFF"/>
			<stop  offset="1" style="stop-color:#D3D6D5"/>
		</linearGradient>
		<path class="st49" d="M110.3,374.9c-0.2-0.3-2.4-1.1-2.4-1.1c-0.4-0.2-0.6,0.3-0.6,0.6l3,1C110.4,375.3,110.4,375.1,110.3,374.9z"
			/>
		
			<linearGradient id="SVGID_24_" gradientUnits="userSpaceOnUse" x1="107.3221" y1="136.9" x2="110.4147" y2="136.9" gradientTransform="matrix(1 0 0 -1 0 512)">
			<stop  offset="0" style="stop-color:#373C3A"/>
			<stop  offset="1" style="stop-color:#1B1C1C"/>
		</linearGradient>
		<path class="st50" d="M107.3,374.5c0,0.2,0,0.4,0,0.4l3,0.8c0,0,0-0.1,0.1-0.2L107.3,374.5z"/>
	</g>
	<g>
		
			<linearGradient id="SVGID_25_" gradientUnits="userSpaceOnUse" x1="82.9436" y1="138.4189" x2="85.2125" y2="133.4384" gradientTransform="matrix(1 0 0 -1 0 512)">
			<stop  offset="0" style="stop-color:#373C3A"/>
			<stop  offset="1" style="stop-color:#1B1C1C"/>
		</linearGradient>
		<path class="st51" d="M83.5,372.7c0,0-1.1,0.2-1.1,1.2s1.1,3.1,1.1,1.8S83.6,373,83.5,372.7z"/>
		
			<linearGradient id="SVGID_26_" gradientUnits="userSpaceOnUse" x1="79.7384" y1="137.3728" x2="82.8311" y2="137.3728" gradientTransform="matrix(1 0 0 -1 0 512)">
			<stop  offset="0" style="stop-color:#D3D6D5"/>
			<stop  offset="1" style="stop-color:#FFFFFF"/>
		</linearGradient>
		<path class="st52" d="M82.2,373.8c0,0-2.1,0.7-2.4,1.1c-0.1,0.2-0.1,0.4-0.1,0.6l3-1C82.8,374.1,82.6,373.6,82.2,373.8z"/>
		
			<linearGradient id="SVGID_27_" gradientUnits="userSpaceOnUse" x1="79.738" y1="136.9" x2="82.8307" y2="136.9" gradientTransform="matrix(1 0 0 -1 0 512)">
			<stop  offset="0" style="stop-color:#373C3A"/>
			<stop  offset="1" style="stop-color:#1B1C1C"/>
		</linearGradient>
		<path class="st53" d="M79.8,375.5c0,0.1,0.1,0.2,0.1,0.2l3-0.8c0,0,0-0.2,0-0.4L79.8,375.5z"/>
	</g>
	<path class="st54" d="M81.4,386c-0.2,0-0.3,0.1-0.3,0.3v2.6c0,0.2,0.1,0.3,0.3,0.3V386z"/>
	<path class="st54" d="M81.6,399c-0.2,0-0.3,0.1-0.3,0.3v2.6c0,0.2,0.1,0.3,0.3,0.3V399z"/>
	
		<linearGradient id="SVGID_28_" gradientUnits="userSpaceOnUse" x1="85.8837" y1="103.8875" x2="104.2799" y2="103.8875" gradientTransform="matrix(1 0 0 -1 0 512)">
		<stop  offset="0" style="stop-color:#010101"/>
		<stop  offset="1" style="stop-color:#1B1C1C"/>
	</linearGradient>
	<path class="st55" d="M103.9,405.4c-0.1-0.3-0.2-0.5-0.3-0.8c0,0-0.1,0-0.4,0.1c-0.9,0.3-3.5,1-8.1,1c-4.2,0-7.2-0.7-8.1-1
		c-0.2-0.1-0.4-0.1-0.4-0.1c-0.1,0.3-0.2,0.5-0.2,0.8c-0.7,2.6-0.4,5-0.4,5s1.9,0.6,4.5,1c2,0.3,7.2,0.3,9.2,0c2.7-0.4,4.5-1,4.5-1
		S104.5,408,103.9,405.4z M103.6,409.8c0,0-1.7,0.6-4.2,1c-1.9,0.3-6.7,0.3-8.6,0c-2.5-0.4-4.2-1-4.2-1s-0.3-2,0.2-4.3
		c1.6,0.3,4.5,0.8,8.3,0.8c4.1,0,6.9-0.4,8.3-0.7C103.8,407.8,103.6,409.8,103.6,409.8z"/>
	<path class="st54" d="M108.7,386c0.2,0,0.3,0.1,0.3,0.3v2.6c0,0.2-0.1,0.3-0.3,0.3V386z"/>
	
		<linearGradient id="SVGID_29_" gradientUnits="userSpaceOnUse" x1="85.6" y1="130.95" x2="104.536" y2="130.95" gradientTransform="matrix(1 0 0 -1 0 512)">
		<stop  offset="0" style="stop-color:#010101"/>
		<stop  offset="1" style="stop-color:#1B1C1C"/>
	</linearGradient>
	<path class="st56" d="M89.9,380c-2.2,0.3-3.7,1-4.3,1.3l0.2,1.1c0,0,1.7-1,4.4-1.4c2.3-0.4,7.5-0.4,9.8,0c2.7,0.4,4.4,1.4,4.4,1.4
		l0.2-1.1c-0.6-0.3-2.1-0.9-4.3-1.3C97.8,379.6,92.3,379.6,89.9,380z"/>
	<path class="st54" d="M108.6,399c0.2,0,0.3,0.1,0.3,0.3v2.6c0,0.2-0.1,0.3-0.3,0.3V399z"/>
	<g>
		<g>
			<g>
				<path class="st57" d="M89,367.6c0.5,0,0.7-0.3,1.1-0.4c0,0,0.1,0,0.1-0.1s0-0.1-0.1-0.1c-0.5,0-0.7,0.3-1.1,0.4
					C88.9,367.4,88.9,367.5,89,367.6C88.9,367.5,88.9,367.6,89,367.6z"/>
				<path class="st57" d="M90.1,367.4c-0.4,0-0.7,0.3-1.1,0.4c0,0-0.1,0-0.1,0.1s0,0.1,0.1,0.1c0.5,0,0.7-0.3,1.1-0.4
					C90.1,367.5,90.2,367.5,90.1,367.4C90.2,367.4,90.1,367.3,90.1,367.4z"/>
				<path class="st57" d="M90.1,367.6c-0.4,0-0.7,0.3-1.1,0.4c0,0-0.1,0-0.1,0.1s0,0.1,0.1,0.1c0.5,0,0.7-0.3,1.1-0.4
					C90.1,367.8,90.2,367.8,90.1,367.6C90.2,367.7,90.1,367.6,90.1,367.6z"/>
			</g>
		</g>
		<g>
			<g>
				<path class="st57" d="M101.2,367.6c-0.5,0-0.7-0.3-1.1-0.4c0,0-0.1,0-0.1-0.1s0-0.1,0.1-0.1c0.5,0,0.7,0.3,1.1,0.4
					C101.2,367.4,101.2,367.5,101.2,367.6C101.2,367.5,101.2,367.6,101.2,367.6z"/>
				<path class="st57" d="M100,367.4c0.5,0,0.7,0.3,1.1,0.4c0,0,0.1,0,0.1,0.1s0,0.1-0.1,0.1c-0.5,0-0.7-0.3-1.1-0.4
					C100,367.5,100,367.5,100,367.4C100,367.4,100,367.3,100,367.4z"/>
				<path class="st57" d="M100,367.6c0.5,0,0.7,0.3,1.1,0.4c0,0,0.1,0,0.1,0.1s0,0.1-0.1,0.1c-0.5,0-0.7-0.3-1.1-0.4
					C100,367.8,100,367.8,100,367.6C100,367.7,100,367.6,100,367.6z"/>
			</g>
		</g>
	</g>
	
		<linearGradient id="SVGID_30_" gradientUnits="userSpaceOnUse" x1="90.919" y1="92.55" x2="99.236" y2="92.55" gradientTransform="matrix(1 0 0 -1 0 512)">
		<stop  offset="0" style="stop-color:#373C3A"/>
		<stop  offset="1" style="stop-color:#1B1C1C"/>
	</linearGradient>
	<path class="st58" d="M98.7,419.2h-7.3c-0.2,0-0.4,0.1-0.5,0.3c2.3,0.2,4.2,0.2,4.2,0.2s1.9,0,4.2-0.2
		C99.1,419.3,98.9,419.2,98.7,419.2z"/>
	
		<linearGradient id="SVGID_31_" gradientUnits="userSpaceOnUse" x1="91.3442" y1="111.2128" x2="95.5132" y2="104.8198" gradientTransform="matrix(1 0 0 -1 0 512)">
		<stop  offset="0" style="stop-color:#373C3A"/>
		<stop  offset="1" style="stop-color:#010101"/>
	</linearGradient>
	<path class="st59" d="M103.4,405.5c-1.5,0.3-4.2,0.7-8.3,0.7c-0.8,0-1.6,0-2.4-0.1c-2.4,0.8-3.8,3.5-4.2,4.1
		c0.6,0.2,1.4,0.3,2.3,0.5c1.9,0.3,6.7,0.3,8.6,0c2.5-0.4,4.2-1,4.2-1S103.8,407.8,103.4,405.5z"/>
	
		<radialGradient id="SVGID_32_" cx="89.4045" cy="122.2825" r="2.2691" gradientTransform="matrix(1 0 0 -1 0 512)" gradientUnits="userSpaceOnUse">
		<stop  offset="0" style="stop-color:#F37E5F"/>
		<stop  offset="0.3927" style="stop-color:#EB2227"/>
		<stop  offset="1" style="stop-color:#B21F24"/>
	</radialGradient>
	<path class="st60" d="M88,388c-0.2,0-0.4,0.2-0.4,0.4v2.6c0,0.2,0.2,0.4,0.4,0.4h3.3V388H88L88,388z"/>
	
		<linearGradient id="SVGID_33_" gradientUnits="userSpaceOnUse" x1="95" y1="124.1808" x2="95" y2="120.4731" gradientTransform="matrix(1 0 0 -1 0 512)">
		<stop  offset="0" style="stop-color:#373C3A"/>
		<stop  offset="0.1587" style="stop-color:#383E3B"/>
		<stop  offset="0.3993" style="stop-color:#010101"/>
		<stop  offset="0.7357" style="stop-color:#5D6262"/>
		<stop  offset="1" style="stop-color:#1B1C1C"/>
	</linearGradient>
	<rect x="91.2" y="388" class="st61" width="7.6" height="3.4"/>
	
		<radialGradient id="SVGID_34_" cx="100.75" cy="122.283" r="2.337" gradientTransform="matrix(1 0 0 -1 0 512)" gradientUnits="userSpaceOnUse">
		<stop  offset="0" style="stop-color:#33C4F2"/>
		<stop  offset="0.3491" style="stop-color:#27ACE3"/>
		<stop  offset="1" style="stop-color:#375FAC"/>
	</radialGradient>
	<path class="st62" d="M102.2,388h-3.3v3.4h3.3c0.2,0,0.4-0.2,0.4-0.4v-2.6C102.6,388.2,102.4,388,102.2,388z"/>
	
		<radialGradient id="SVGID_35_" cx="69.8818" cy="316.6873" r="0.7073" gradientTransform="matrix(1.288 0.5607 0.3991 -0.9169 -115.9201 604.2427)" gradientUnits="userSpaceOnUse">
		<stop  offset="0" style="stop-color:#B895C5"/>
		<stop  offset="9.300000e-03" style="stop-color:#B08FBA"/>
		<stop  offset="9.410000e-02" style="stop-color:#7E6982"/>
		<stop  offset="0.1789" style="stop-color:#574A59"/>
		<stop  offset="0.2617" style="stop-color:#3C343C"/>
		<stop  offset="0.3422" style="stop-color:#262227"/>
		<stop  offset="0.4197" style="stop-color:#151315"/>
		<stop  offset="0.493" style="stop-color:#060607"/>
		<stop  offset="0.5576" style="stop-color:#010101"/>
	</radialGradient>
	<path class="st63" d="M101.2,353.4c-0.1,0.3-0.5,0.4-0.9,0.2c-0.4-0.2-0.6-0.5-0.5-0.8s0.5-0.4,0.9-0.2
		C101.1,352.7,101.3,353.1,101.2,353.4z"/>
	
		<radialGradient id="SVGID_36_" cx="-137.5384" cy="167.7534" r="0.4436" gradientTransform="matrix(2.1978 -0.5137 -0.2905 -1.2428 440.6649 490.7528)" gradientUnits="userSpaceOnUse">
		<stop  offset="0" style="stop-color:#FFFFFF"/>
		<stop  offset="9.300000e-03" style="stop-color:#EEEDED"/>
		<stop  offset="9.410000e-02" style="stop-color:#9E9B9B"/>
		<stop  offset="0.1789" style="stop-color:#676464"/>
		<stop  offset="0.2617" style="stop-color:#444141"/>
		<stop  offset="0.3422" style="stop-color:#2A2929"/>
		<stop  offset="0.4197" style="stop-color:#171616"/>
		<stop  offset="0.493" style="stop-color:#070707"/>
		<stop  offset="0.5576" style="stop-color:#010101"/>
	</radialGradient>
	<path class="st64" d="M90.4,352.7c0.1,0.2-0.2,0.5-0.7,0.6c-0.4,0.1-0.8,0-0.8-0.2c-0.1-0.2,0.2-0.5,0.7-0.6
		C90,352.4,90.3,352.5,90.4,352.7z"/>
	
		<radialGradient id="SVGID_37_" cx="100.026" cy="123" r="2.5229" gradientTransform="matrix(1 0 0 -1 0 512)" gradientUnits="userSpaceOnUse">
		<stop  offset="0" style="stop-color:#B895C5"/>
		<stop  offset="9.300000e-03" style="stop-color:#B08FBA"/>
		<stop  offset="9.410000e-02" style="stop-color:#7E6982"/>
		<stop  offset="0.1789" style="stop-color:#574A59"/>
		<stop  offset="0.2617" style="stop-color:#3C343C"/>
		<stop  offset="0.3422" style="stop-color:#262227"/>
		<stop  offset="0.4197" style="stop-color:#151315"/>
		<stop  offset="0.493" style="stop-color:#060607"/>
		<stop  offset="0.5576" style="stop-color:#010101"/>
	</radialGradient>
	<circle class="st65" cx="100" cy="389" r="1.9"/>
	
		<radialGradient id="SVGID_38_" cx="101.334" cy="121.721" r="2.5229" gradientTransform="matrix(1 0 0 -1 0 512)" gradientUnits="userSpaceOnUse">
		<stop  offset="0" style="stop-color:#B895C5"/>
		<stop  offset="9.300000e-03" style="stop-color:#B08FBA"/>
		<stop  offset="9.410000e-02" style="stop-color:#7E6982"/>
		<stop  offset="0.1789" style="stop-color:#574A59"/>
		<stop  offset="0.2617" style="stop-color:#3C343C"/>
		<stop  offset="0.3422" style="stop-color:#262227"/>
		<stop  offset="0.4197" style="stop-color:#151315"/>
		<stop  offset="0.493" style="stop-color:#060607"/>
		<stop  offset="0.5576" style="stop-color:#010101"/>
	</radialGradient>
	<circle class="st66" cx="101.3" cy="390.3" r="1.9"/>
	
		<radialGradient id="SVGID_39_" cx="89.254" cy="121.721" r="2.5227" gradientTransform="matrix(1 0 0 -1 0 512)" gradientUnits="userSpaceOnUse">
		<stop  offset="0" style="stop-color:#FFFFFF"/>
		<stop  offset="9.300000e-03" style="stop-color:#EEEDED"/>
		<stop  offset="9.410000e-02" style="stop-color:#9E9B9B"/>
		<stop  offset="0.1789" style="stop-color:#676464"/>
		<stop  offset="0.2617" style="stop-color:#444141"/>
		<stop  offset="0.3422" style="stop-color:#2A2929"/>
		<stop  offset="0.4197" style="stop-color:#171616"/>
		<stop  offset="0.493" style="stop-color:#070707"/>
		<stop  offset="0.5576" style="stop-color:#010101"/>
	</radialGradient>
	<circle class="st67" cx="89.3" cy="390.3" r="1.9"/>
	
		<radialGradient id="SVGID_40_" cx="90.421" cy="122.8" r="2.5221" gradientTransform="matrix(1 0 0 -1 0 512)" gradientUnits="userSpaceOnUse">
		<stop  offset="0" style="stop-color:#FFFFFF"/>
		<stop  offset="9.300000e-03" style="stop-color:#EEEDED"/>
		<stop  offset="9.410000e-02" style="stop-color:#9E9B9B"/>
		<stop  offset="0.1789" style="stop-color:#676464"/>
		<stop  offset="0.2617" style="stop-color:#444141"/>
		<stop  offset="0.3422" style="stop-color:#2A2929"/>
		<stop  offset="0.4197" style="stop-color:#171616"/>
		<stop  offset="0.493" style="stop-color:#070707"/>
		<stop  offset="0.5576" style="stop-color:#010101"/>
	</radialGradient>
	<circle class="st68" cx="90.4" cy="389.2" r="1.9"/>
</g>
<g>
	
		<radialGradient id="SVGID_41_" cx="95.4146" cy="331.8" r="26.0543" gradientTransform="matrix(1 0 0 -1 0 512)" gradientUnits="userSpaceOnUse">
		<stop  offset="0" style="stop-color:#FDBA12"/>
		<stop  offset="1" style="stop-color:#F9A11B"/>
	</radialGradient>
	<path class="st69" d="M110.1,156.2c-0.3-3-0.9-4.6-1.8-5.9c-0.4,0.1-0.8,0-1.2-0.3l-3.4-2.2c-0.4-0.3-0.6-0.7-0.6-1.1
		c-0.2-0.1-0.3-0.1-0.5-0.2v2.9H88.4v-2.9c-0.2,0.1-0.3,0.1-0.5,0.2c-0.1,0.4-0.3,0.9-0.6,1.1l-3.4,2.2c-0.4,0.3-0.8,0.4-1.2,0.3
		c-1,1.3-1.5,2.8-1.8,5.9c-0.9,8-0.3,20.7-0.3,23.8c-0.2,16.6,0.6,26.7,1.6,30.2c0.2,0.7,0.7,1.2,1.4,1.7c0.1-0.1,0.3-0.1,0.5-0.1
		c1.2,0,1.8,0.8,3.2,0.6c0.9-0.2,1.2,0.6,1.3,1.2c0.8,0.1,1.6,0.2,2.4,0.3c0.1-0.2,0.3-0.3,0.6-0.3h8c0.2,0,0.4,0.1,0.6,0.3
		c0.6-0.1,1.2-0.1,1.8-0.2c0.1-0.5,0.4-1.4,1.3-1.3c1.4,0.2,2-0.6,3.2-0.6c0.4,0,0.6,0.1,0.8,0.3c0.9-0.5,1.5-1.1,1.7-1.9
		c1.1-3.5,1.8-13.6,1.6-30.2C110.3,176.9,110.9,164.3,110.1,156.2z"/>
	
		<linearGradient id="SVGID_42_" gradientUnits="userSpaceOnUse" x1="88.357" y1="364.4375" x2="102.474" y2="364.4375" gradientTransform="matrix(1 0 0 -1 0 512)">
		<stop  offset="0" style="stop-color:#535A57"/>
		<stop  offset="1" style="stop-color:#2D2E2E"/>
	</linearGradient>
	<path class="st70" d="M102.5,149.5v-2.9c-4-1.3-10.1-1.3-14.1,0v2.9H102.5z"/>
	
		<radialGradient id="SVGID_43_" cx="95.4" cy="6233.0181" r="14.712" gradientTransform="matrix(1 0 0 -4.0177 0 25221.8496)" gradientUnits="userSpaceOnUse">
		<stop  offset="0" style="stop-color:#FEE700"/>
		<stop  offset="1" style="stop-color:#FFC554"/>
	</radialGradient>
	<path class="st71" d="M109.2,156.7c-0.5-5-1.6-5.4-4.4-7.8c-3.7-3.2-15.1-3.2-18.8,0c-2.7,2.4-3.8,2.8-4.4,7.8
		c-0.8,7.7-0.3,19.9-0.3,22.9c-0.2,16,0.6,25.7,1.6,29.1c1.1,3.9,12.5,3.7,12.5,3.7s11.4,0.2,12.5-3.7c1-3.4,1.8-13.1,1.6-29.1
		C109.5,176.6,110,164.5,109.2,156.7z"/>
	
		<linearGradient id="SVGID_44_" gradientUnits="userSpaceOnUse" x1="85.1" y1="337.55" x2="105.772" y2="337.55" gradientTransform="matrix(1 0 0 -1 0 512)">
		<stop  offset="0" style="stop-color:#010101"/>
		<stop  offset="1" style="stop-color:#1B1C1C"/>
	</linearGradient>
	<path class="st72" d="M89.8,173.4c-2.4,0.4-4.1,1-4.7,1.3l0.2,1.1c0,0,1.9-1,4.8-1.4c2.5-0.4,8.2-0.4,10.7,0
		c2.9,0.4,4.8,1.4,4.8,1.4l0.2-1.1c-0.6-0.3-2.3-1-4.7-1.3C98.4,173,92.4,173,89.8,173.4z"/>
	
		<linearGradient id="SVGID_45_" gradientUnits="userSpaceOnUse" x1="83.4461" y1="348.35" x2="107.3829" y2="348.35" gradientTransform="matrix(1 0 0 -1 0 512)">
		<stop  offset="0" style="stop-color:#010101"/>
		<stop  offset="1" style="stop-color:#1B1C1C"/>
	</linearGradient>
	<path class="st73" d="M84.3,165.1c0.9-0.4,2.5-1.1,5.1-1.7c3.6-0.8,8.4-0.8,12,0c2.5,0.6,4.1,1.3,5.1,1.7c0.4,0.2,0.7,0.3,0.8,0.5
		l0,0c0,0,0.2-0.8,0.1-1s-0.4-0.4-0.9-0.6c-0.9-0.4-2.5-1.1-5.1-1.7c-3.6-0.8-8.4-0.8-12,0c-2.5,0.6-4.1,1.3-5.1,1.7
		c-0.5,0.2-0.8,0.4-0.9,0.6c-0.1,0.2,0.1,1,0.1,1l0,0C83.7,165.4,83.9,165.3,84.3,165.1z"/>
	
		<linearGradient id="SVGID_46_" gradientUnits="userSpaceOnUse" x1="83.551" y1="343.25" x2="107.28" y2="343.25" gradientTransform="matrix(1 0 0 -1 0 512)">
		<stop  offset="0" style="stop-color:#373C3A"/>
		<stop  offset="1" style="stop-color:#1B1C1C"/>
	</linearGradient>
	<path class="st74" d="M89.8,173.4c2.6-0.4,8.6-0.4,11.2,0c2.4,0.4,4.1,1,4.7,1.3l1.5-9.1c-0.1-0.2-0.4-0.3-0.8-0.5
		c-0.9-0.4-2.5-1.1-5.1-1.7c-3.6-0.8-8.4-0.8-12,0c-2.5,0.6-4.1,1.3-5.1,1.7c-0.4,0.2-0.7,0.3-0.8,0.5l1.5,9.1
		C85.7,174.4,87.4,173.8,89.8,173.4z"/>
	
		<linearGradient id="SVGID_47_" gradientUnits="userSpaceOnUse" x1="85.3751" y1="308.3" x2="105.4528" y2="308.3" gradientTransform="matrix(1 0 0 -1 0 512)">
		<stop  offset="0" style="stop-color:#010101"/>
		<stop  offset="1" style="stop-color:#1B1C1C"/>
	</linearGradient>
	<path class="st75" d="M105,199.8c-0.1-0.4-0.2-0.8-0.3-1.2c0,0-0.1,0.1-0.4,0.2c-1,0.4-3.9,1.4-8.9,1.4c-4.6,0-7.8-1-8.9-1.4
		c-0.3-0.1-0.4-0.2-0.4-0.2c-0.1,0.4-0.2,0.8-0.3,1.1c-0.7,3.8-0.4,7.3-0.4,7.3s2,1,4.9,1.5c2.2,0.4,7.8,0.4,10.1,0
		c2.9-0.6,4.9-1.5,4.9-1.5S105.7,203.5,105,199.8z M104.7,206.1c0,0-1.9,1-4.6,1.5c-2.1,0.4-7.3,0.4-9.4,0c-2.7-0.6-4.6-1.5-4.6-1.5
		s-0.3-2.9,0.2-6.2c1.7,0.5,4.9,1.1,9.1,1.1c4.5,0,7.5-0.6,9.1-1.1C104.9,203.3,104.7,206.1,104.7,206.1z"/>
	
		<linearGradient id="SVGID_48_" gradientUnits="userSpaceOnUse" x1="86.0775" y1="308.1" x2="104.7544" y2="308.1" gradientTransform="matrix(1 0 0 -1 0 512)">
		<stop  offset="0" style="stop-color:#373C3A"/>
		<stop  offset="1" style="stop-color:#1B1C1C"/>
	</linearGradient>
	<path class="st76" d="M86.3,199.9c-0.5,3.3-0.2,6.2-0.2,6.2s1.9,1,4.6,1.5c2.1,0.4,7.3,0.4,9.4,0c2.7-0.6,4.6-1.5,4.6-1.5
		s0.3-2.9-0.2-6.2c-1.6,0.5-4.6,1.1-9.1,1.1C91.2,201,88,200.4,86.3,199.9z"/>
	<g>
		
			<linearGradient id="SVGID_49_" gradientUnits="userSpaceOnUse" x1="82.6352" y1="336.4" x2="84.974" y2="336.4" gradientTransform="matrix(1 0 0 -1 0 512)">
			<stop  offset="0" style="stop-color:#373C3A"/>
			<stop  offset="1" style="stop-color:#1B1C1C"/>
		</linearGradient>
		<path class="st77" d="M83,185.2l2,0.7l-0.3-9.4l-1.9-11.2c0,0-0.2,2.9,0,7c0.1,2.6,0.4,6.2,0.4,8.5C83.1,182.9,83,184.4,83,185.2z
			"/>
		
			<linearGradient id="SVGID_50_" gradientUnits="userSpaceOnUse" x1="105.857" y1="336.4" x2="108.1958" y2="336.4" gradientTransform="matrix(1 0 0 -1 0 512)">
			<stop  offset="0" style="stop-color:#373C3A"/>
			<stop  offset="1" style="stop-color:#1B1C1C"/>
		</linearGradient>
		<path class="st78" d="M107.9,185.2l-2,0.7l0.3-9.4l1.9-11.2c0,0,0.2,2.9,0,7c-0.1,2.6-0.4,6.2-0.4,8.5
			C107.7,182.9,107.8,184.4,107.9,185.2z"/>
	</g>
	<g>
		
			<linearGradient id="SVGID_51_" gradientUnits="userSpaceOnUse" x1="82.8007" y1="319" x2="85.219" y2="319" gradientTransform="matrix(1 0 0 -1 0 512)">
			<stop  offset="0" style="stop-color:#373C3A"/>
			<stop  offset="1" style="stop-color:#1B1C1C"/>
		</linearGradient>
		<path class="st79" d="M82.9,186.1L85,187l0.2,7.9c0,0-0.2,1-1,2.6c-0.9,1.8-1.4,2.4-1.4,2.4S82.7,189,82.9,186.1z"/>
		
			<linearGradient id="SVGID_52_" gradientUnits="userSpaceOnUse" x1="105.611" y1="319" x2="108.0291" y2="319" gradientTransform="matrix(1 0 0 -1 0 512)">
			<stop  offset="0" style="stop-color:#373C3A"/>
			<stop  offset="1" style="stop-color:#1B1C1C"/>
		</linearGradient>
		<path class="st80" d="M107.9,186.1l-2.1,0.9l-0.2,7.9c0,0,0.2,1,1,2.6c0.9,1.8,1.4,2.4,1.4,2.4S108.2,189,107.9,186.1z"/>
	</g>
	<g>
		
			<radialGradient id="SVGID_53_" cx="85.2285" cy="359.9301" r="2.197" gradientTransform="matrix(1 0 0 -1.0961 0 543.095)" gradientUnits="userSpaceOnUse">
			<stop  offset="0" style="stop-color:#FFFFFF"/>
			<stop  offset="1" style="stop-color:#D3D6D5"/>
		</radialGradient>
		<path class="st81" d="M83.8,150.1l3.4-2.2c0.4-0.3,0.6-0.7,0.6-1.1c-1,0.4-1.8,0.8-2.4,1.3c-1.2,1-2.1,1.3-2.8,2.3
			C83,150.4,83.4,150.4,83.8,150.1z"/>
		
			<radialGradient id="SVGID_54_" cx="105.6" cy="359.9303" r="2.1961" gradientTransform="matrix(1 0 0 -1.0961 0 543.095)" gradientUnits="userSpaceOnUse">
			<stop  offset="0" style="stop-color:#FFFFFF"/>
			<stop  offset="1" style="stop-color:#D3D6D5"/>
		</radialGradient>
		<path class="st82" d="M103.6,147.9l3.4,2.2c0.4,0.3,0.8,0.4,1.2,0.3c-0.7-0.9-1.6-1.2-2.8-2.3c-0.6-0.5-1.5-1-2.4-1.3
			C103,147.2,103.2,147.6,103.6,147.9z"/>
	</g>
	<path class="st83" d="M87.2,212.3c-1.4,0.2-2-0.6-3.2-0.6c-0.2,0-0.4,0-0.5,0.1c1.2,0.8,3.1,1.3,5,1.6
		C88.4,212.9,88.1,212.2,87.2,212.3z"/>
	<path class="st83" d="M103,212.3c-0.9-0.2-1.2,0.7-1.3,1.3c1.9-0.3,3.9-0.8,5.3-1.5c-0.2-0.2-0.4-0.3-0.8-0.3
		C105,211.7,104.4,212.6,103,212.3z"/>
	
		<linearGradient id="SVGID_55_" gradientUnits="userSpaceOnUse" x1="95.2832" y1="345.6393" x2="102.0476" y2="340.8294" gradientTransform="matrix(1 0 0 -1 0 512)">
		<stop  offset="0" style="stop-color:#373C3A"/>
		<stop  offset="1" style="stop-color:#010101"/>
	</linearGradient>
	<path class="st84" d="M106.5,165.1c-0.9-0.4-2.5-1.1-5.1-1.7c-0.9-0.2-1.8-0.4-2.8-0.5c-2.5,2.9-5.5,8.1-6.8,10.3
		c3-0.2,7.1-0.1,9.2,0.2c2.4,0.4,4.1,1,4.7,1.3l1.5-9.1C107.1,165.4,106.9,165.3,106.5,165.1z"/>
	
		<linearGradient id="SVGID_56_" gradientUnits="userSpaceOnUse" x1="85.571" y1="325.0098" x2="105.26" y2="325.0098" gradientTransform="matrix(1 0 0 -1 0 512)">
		<stop  offset="0" style="stop-color:#FAF06A"/>
		<stop  offset="1" style="stop-color:#FFC554"/>
	</linearGradient>
	<path class="st85" d="M95.4,175.1c-7.4-0.2-9.8,1.2-9.8,1.2s0.1,18.7,0.7,20.6c0.4,1.3,5,1.8,8,2h2.4c2.9-0.2,7.6-0.8,8-2
		c0.6-1.9,0.7-20.6,0.7-20.6S102.8,174.9,95.4,175.1z"/>
	
		<linearGradient id="SVGID_57_" gradientUnits="userSpaceOnUse" x1="91.9464" y1="308.3687" x2="104.3038" y2="288.0854" gradientTransform="matrix(1 0 0 -1 0 512)">
		<stop  offset="0" style="stop-color:#FAF06A"/>
		<stop  offset="1" style="stop-color:#FFC554"/>
	</linearGradient>
	<path class="st86" d="M96.7,211.7c7.2-0.2,10.3-2.4,10.3-2.4l-1.4-1.8c-4.5,2.6-10.2,2.1-10.2,2.1l0,0c0,0-5.7,0.5-10.2-2.1
		l-1.4,1.8c0,0,3.2,2.1,10.3,2.4c0.4,0,1.3,0,1.3,0l0,0C95.9,211.7,96.3,211.7,96.7,211.7z"/>
	<path class="st46" d="M87.2,148.5c0,0-4.4,1.9-4.9,7.1c-0.5,5.3-0.4,8-0.4,8S83.4,151.3,87.2,148.5z"/>
	<path class="st46" d="M103.6,148.5c0,0,4.4,1.9,4.9,7.1c0.5,5.3,0.4,8,0.4,8S107.4,151.3,103.6,148.5z"/>
	
		<linearGradient id="SVGID_58_" gradientUnits="userSpaceOnUse" x1="107.7019" y1="345.5784" x2="110.3683" y2="340.4157" gradientTransform="matrix(1 0 0 -1 0 512)">
		<stop  offset="0" style="stop-color:#373C3A"/>
		<stop  offset="1" style="stop-color:#1B1C1C"/>
	</linearGradient>
	<path class="st87" d="M108,166c0,0,1.2,0.2,1.2,1.3c0,1-1.2,3.1-1.2,1.8C108,167.7,107.9,166.4,108,166z"/>
	
		<radialGradient id="SVGID_59_" cx="110.4781" cy="344.0513" r="1.3309" gradientTransform="matrix(1 0 0 -1 0 512)" gradientUnits="userSpaceOnUse">
		<stop  offset="0" style="stop-color:#FDBA12"/>
		<stop  offset="1" style="stop-color:#F9A11B"/>
	</radialGradient>
	<path class="st88" d="M112,168.2c-0.3-0.4-2.6-1.1-2.6-1.1c-0.5-0.2-0.6,0.3-0.7,0.6l3.3,1.1C112.2,168.6,112.2,168.4,112,168.2z"
		/>
	
		<linearGradient id="SVGID_60_" gradientUnits="userSpaceOnUse" x1="108.7777" y1="343.55" x2="112.1531" y2="343.55" gradientTransform="matrix(1 0 0 -1 0 512)">
		<stop  offset="0" style="stop-color:#373C3A"/>
		<stop  offset="1" style="stop-color:#1B1C1C"/>
	</linearGradient>
	<path class="st89" d="M108.8,167.8c0,0.2,0,0.4,0,0.4l3.3,0.9c0,0,0.1-0.1,0.1-0.2L108.8,167.8z"/>
	
		<linearGradient id="SVGID_61_" gradientUnits="userSpaceOnUse" x1="82.1697" y1="345.1519" x2="84.4954" y2="340.0466" gradientTransform="matrix(1 0 0 -1 0 512)">
		<stop  offset="0" style="stop-color:#373C3A"/>
		<stop  offset="1" style="stop-color:#1B1C1C"/>
	</linearGradient>
	<path class="st90" d="M82.8,165.9c0,0-1.2,0.2-1.3,1.3c0,1,1.2,3.1,1.3,1.8C82.8,167.6,82.9,166.3,82.8,165.9z"/>
	
		<radialGradient id="SVGID_62_" cx="80.3456" cy="344.0993" r="1.3405" gradientTransform="matrix(1 0 0 -1 0 512)" gradientUnits="userSpaceOnUse">
		<stop  offset="0" style="stop-color:#FDBA12"/>
		<stop  offset="1" style="stop-color:#F9A11B"/>
	</radialGradient>
	<path class="st91" d="M81.3,167.1c0,0-2.3,0.8-2.6,1.1c-0.2,0.2-0.1,0.5-0.1,0.6l3.3-1.1C82,167.4,81.8,166.9,81.3,167.1z"/>
	
		<linearGradient id="SVGID_63_" gradientUnits="userSpaceOnUse" x1="78.667" y1="343.65" x2="82.0431" y2="343.65" gradientTransform="matrix(1 0 0 -1 0 512)">
		<stop  offset="0" style="stop-color:#373C3A"/>
		<stop  offset="1" style="stop-color:#1B1C1C"/>
	</linearGradient>
	<path class="st92" d="M78.7,168.8c0,0.1,0.1,0.2,0.1,0.2l3.3-0.9c0,0,0-0.2,0-0.4L78.7,168.8z"/>
	<path class="st54" d="M80.5,179.5c-0.2,0-0.3,0.1-0.3,0.3v2.7c0,0.2,0.1,0.3,0.3,0.3V179.5z"/>
	<path class="st54" d="M80.7,192.8c-0.2,0-0.3,0.1-0.3,0.3v2.7c0,0.2,0.1,0.3,0.3,0.3V192.8z"/>
	<path class="st54" d="M110.3,179.5c0.2,0,0.3,0.1,0.3,0.3v2.7c0,0.2-0.1,0.3-0.3,0.3V179.5z"/>
	<path class="st54" d="M110.2,192.8c0.2,0,0.3,0.1,0.3,0.3v2.7c0,0.2-0.1,0.3-0.3,0.3V192.8z"/>
	
		<linearGradient id="SVGID_64_" gradientUnits="userSpaceOnUse" x1="90.871" y1="298.25" x2="99.949" y2="298.25" gradientTransform="matrix(1 0 0 -1 0 512)">
		<stop  offset="0" style="stop-color:#373C3A"/>
		<stop  offset="1" style="stop-color:#1B1C1C"/>
	</linearGradient>
	<path class="st93" d="M99.4,213.5h-8c-0.2,0-0.4,0.1-0.6,0.3c2.5,0.2,4.5,0.2,4.5,0.2s2,0,4.5-0.2
		C99.8,213.6,99.6,213.5,99.4,213.5z"/>
	
		<linearGradient id="SVGID_65_" gradientUnits="userSpaceOnUse" x1="90.8024" y1="317.1836" x2="95.8102" y2="309.5045" gradientTransform="matrix(1 0 0 -1 0 512)">
		<stop  offset="0" style="stop-color:#373C3A"/>
		<stop  offset="1" style="stop-color:#010101"/>
	</linearGradient>
	<path class="st94" d="M104.5,199.9c-1.6,0.5-4.6,1.1-9.1,1.1c-0.9,0-1.8,0-2.6-0.1c-2.6,1.2-4.2,5.1-4.5,6c0.7,0.2,1.5,0.5,2.5,0.7
		c2.1,0.4,7.3,0.4,9.4,0c2.7-0.6,4.6-1.5,4.6-1.5S104.9,203.3,104.5,199.9z"/>
	<g>
		<g>
			<path class="st95" d="M99.8,182.8H91v-3.4h8.9L99.8,182.8L99.8,182.8z M91.4,182.4h8v-2.5h-8V182.4z"/>
		</g>
		<rect x="91.2" y="181.2" class="st96" width="8.4" height="1.3"/>
		<rect x="91.2" y="179.7" class="st97" width="8.4" height="1.3"/>
		<g>
			<rect x="92.7" y="181.5" class="st95" width="1.1" height="0.5"/>
			<rect x="91.5" y="182" class="st95" width="1.1" height="0.5"/>
			<rect x="98.2" y="182" class="st95" width="1.1" height="0.5"/>
			<polygon class="st95" points="96,181.5 94.9,181.5 94.9,182 93.8,182 93.8,182.5 94.9,182.5 94.9,182 95.9,182 95.9,182.5 
				97,182.5 97,182 96,182 			"/>
			<rect x="97.1" y="181.5" class="st95" width="1.1" height="0.5"/>
		</g>
		<g>
			<rect x="92.7" y="180.3" class="st95" width="1.1" height="0.5"/>
			<rect x="91.5" y="179.8" class="st95" width="1.1" height="0.5"/>
			<rect x="98.2" y="179.8" class="st95" width="1.1" height="0.5"/>
			<polygon class="st95" points="96,180.8 94.9,180.8 94.9,180.3 93.8,180.3 93.8,179.8 94.9,179.8 94.9,180.3 95.9,180.3 
				95.9,179.8 97,179.8 97,180.3 96,180.3 			"/>
			<rect x="97.1" y="180.3" class="st95" width="1.1" height="0.5"/>
		</g>
		<rect x="91" y="180.9" class="st98" width="8.9" height="0.5"/>
	</g>
	
		<radialGradient id="SVGID_66_" cx="-156.595" cy="303.6679" r="2.988" gradientTransform="matrix(2.312 0 0 -0.6091 457.4645 365.1571)" gradientUnits="userSpaceOnUse">
		<stop  offset="0" style="stop-color:#FEE700"/>
		<stop  offset="4.330000e-02" style="stop-color:#D8C525"/>
		<stop  offset="0.158" style="stop-color:#918533"/>
		<stop  offset="0.2737" style="stop-color:#60592E"/>
		<stop  offset="0.3883" style="stop-color:#3F3C25"/>
		<stop  offset="0.5014" style="stop-color:#28271B"/>
		<stop  offset="0.6127" style="stop-color:#15150F"/>
		<stop  offset="0.7213" style="stop-color:#060705"/>
		<stop  offset="0.8242" style="stop-color:#010101"/>
	</radialGradient>
	<ellipse class="st99" cx="95.4" cy="180.2" rx="6.9" ry="1.8"/>
	
		<radialGradient id="SVGID_67_" cx="-156.595" cy="287.0777" r="2.9953" gradientTransform="matrix(2.312 0 0 -0.4905 457.4645 323.0216)" gradientUnits="userSpaceOnUse">
		<stop  offset="0" style="stop-color:#FFCA06"/>
		<stop  offset="4.330000e-02" style="stop-color:#D9AD22"/>
		<stop  offset="0.158" style="stop-color:#93772F"/>
		<stop  offset="0.2737" style="stop-color:#61522B"/>
		<stop  offset="0.3883" style="stop-color:#403823"/>
		<stop  offset="0.5014" style="stop-color:#28251A"/>
		<stop  offset="0.6127" style="stop-color:#16140F"/>
		<stop  offset="0.7213" style="stop-color:#070605"/>
		<stop  offset="0.8242" style="stop-color:#010101"/>
	</radialGradient>
	<ellipse class="st100" cx="95.4" cy="182.2" rx="6.9" ry="1.5"/>
</g>
</svg>
