<?xml version="1.0" encoding="utf-8"?>
<!-- Generator: Adobe Illustrator 21.0.0, SVG Export Plug-In . SVG Version: 6.00 Build 0)  -->
<svg version="1.1" id="Layer_1" xmlns="http://www.w3.org/2000/svg" xmlns:xlink="http://www.w3.org/1999/xlink" x="0px" y="0px"
	 viewBox="0 0 40 40" style="enable-background:new 0 0 40 40;" xml:space="preserve" width="40" height="40">
<style type="text/css">
	.st0{fill:#3F3F3F;}
	.st1{fill:#FFFFFF;}
</style>
<rect x="0" y="0" class="st0" width="40" height="40"/>
<path id="XMLID_4_" class="st1" d="M23.2,26.6c0.2-0.1,0.2,0.1,0.3,0c0,0,0.2,0,0.3,0.1c0-0.1,0-0.2,0-0.2c-0.2-0.1,0-0.3,0-0.4
	c0.3-0.1,0.2-0.4,0.4-0.5c0.2-0.2,0.1-0.4,0.2-0.6c0-0.2,0-0.4-0.2-0.5c0.1,0.5-0.1,1-0.4,1.3c-0.3,0.4-0.7,0.7-1.1,1.1
	c-0.1,0.1-0.1,0.1-0.2,0.2C22.7,26.9,23,26.7,23.2,26.6z M12.8,12.4c0,0-0.1-0.1-0.1-0.1c0-0.1,0-0.3,0.2-0.3c0,0,0.1,0,0.1,0
	c-0.1,0.4-0.1,0.4,0.1,0.4c0-0.3,0.1-0.6,0.1-0.9c0,0,0,0,0.1,0c0,0.1,0,0.1,0.1,0.2c0.2-0.1,0.3-0.3,0.4-0.5
	c-0.1,0-0.3,0.2-0.4,0.1c0,0.1-0.3,0-0.2,0.2c0,0,0,0.1,0,0.1c-0.3,0-0.3,0.2-0.5,0.3c0,0.1,0.1,0.1,0.1,0.1c-0.1,0.1,0,0.3-0.1,0.5
	c-0.1,0.1,0.1,0.1,0.1,0.2C12.6,12.5,12.6,12.5,12.8,12.4z M34.5,35.1c0.2,0.2-0.1,0.2,0,0.4c0,0,0.1,0.1,0.1,0.1
	c0.1,0,0.1,0.1,0.1,0.2c0.1,0.1,0.1,0.2,0.2,0.3c-0.1-0.3,0.3-0.1,0.3-0.2c0,0-0.1-0.1-0.1-0.1c0.1,0,0.1-0.1,0.2-0.1
	c-0.4-0.2-0.6-0.5-0.9-0.8C34.4,34.9,34.4,35.1,34.5,35.1z M19.1,38.8c-0.3,0.3-0.8,0.5-1.1,0.9c0,0.2,0.3-0.1,0.3,0.1
	c0.1,0,0.2-0.1,0.2-0.1c0.1-0.2,0.4-0.3,0.4-0.6c0-0.1,0.1-0.1,0.2,0c0-0.1,0.1-0.2,0.1-0.3C19.3,38.8,19.2,38.7,19.1,38.8z
	 M13.7,30.5C13.7,30.5,13.7,30.5,13.7,30.5C13.7,30.5,13.7,30.6,13.7,30.5C13.7,30.6,13.7,30.6,13.7,30.5c0.1,0.1,0.2,0,0.2,0.1
	c0.1,0.2,0.2,0,0.3,0c0-0.1,0.1-0.2,0.1-0.4c-0.1,0-0.2,0-0.2,0c-0.1,0-0.1-0.1-0.1-0.2c0,0,0.1-0.1,0-0.1c-0.1,0-0.1-0.1-0.2-0.1
	c-0.1,0.2-0.1,0.4-0.2,0.4c-0.1,0.1,0,0.1-0.1,0.2c-0.1,0.1-0.1,0.2,0,0.4C13.6,30.7,13.7,30.7,13.7,30.5
	C13.7,30.6,13.7,30.6,13.7,30.5z M13.3,34.4c-0.4-0.1-0.4-0.1-0.6,0.2c0,0,0,0,0,0.1c0,0,0.1,0.1,0.1,0.1c0.1-0.1,0.2,0,0.2,0
	c0.1-0.1,0.3-0.1,0.4,0c0.2,0.1,0.2,0,0.3-0.1C13.6,34.4,13.4,34.4,13.3,34.4z M34.2,26.7c0,0,0.1,0.1,0.1,0.1c0,0,0,0,0.1,0.1
	c0.2-0.1,0.2-0.1,0.1-0.2c-0.1-0.1,0-0.1,0-0.2c0-0.1-0.2,0-0.2-0.2c0,0-0.1,0-0.1-0.1c0,0,0,0.1,0,0.1c0,0.2,0,0.2-0.1,0.2
	c-0.1,0-0.1,0-0.2,0c0,0.1,0,0.2,0,0.2c0.3,0.1,0.6,0.2,0.6,0C34.3,26.8,34.3,26.7,34.2,26.7z M10.3,26.3c0-0.1,0.2-0.2,0.1-0.4
	c-0.1-0.1-0.2-0.1-0.3,0c0,0,0-0.1-0.1-0.1c-0.1,0-0.2,0-0.3,0c0,0.4,0.3,0.4,0.5,0.6C10.2,26.4,10.3,26.3,10.3,26.3z M38.8,39.5
	c0,0.1,0,0.1,0.1,0.2c0,0,0.1,0.1,0.1,0.1c0,0,0-0.1,0.1-0.1c0,0,0-0.1,0-0.1c-0.2-0.2-0.1-0.3,0.1-0.4c0,0,0.1-0.1,0.1-0.1
	c0-0.1-0.1-0.2-0.1-0.3c-0.1,0.2-0.2,0.3-0.3,0.5c-0.2,0.2-0.2,0.5-0.4,0.7 M1.5,30.3c0-0.2,0.1-0.4,0.2-0.6c0-0.1,0-0.2,0-0.3
	c0-0.1-0.1-0.1-0.2-0.1c0.1,0.1-0.3,0-0.1,0.2c0.1,0.1,0,0.2-0.1,0.3c-0.1,0.1-0.1,0.2-0.1,0.3c0,0.1,0.1,0.3,0.1,0.5
	C1.5,30.4,1.6,30.4,1.5,30.3z M17.8,39.7c-0.1,0.1-0.1,0.2-0.2,0.3 M3.1,40 M16.3,39.9c-0.1,0-0.2,0-0.3,0 M0.3,3.3c0,0-0.1,0-0.1,0
	c0,0.1,0,0.1,0.1,0.1c0.2,0,0.3,0.1,0.4,0.3c0.1,0,0.2-0.1,0.3-0.2C0.9,3.4,0.8,3.3,0.8,3.3c0-0.1,0-0.2,0.1-0.3C0.7,3,0.6,3,0.5,3
	c0.1,0.1,0.1,0.2,0.1,0.2C0.5,3.3,0.4,3.1,0.3,3.3z M8.4,14.1c-0.1,0-0.2,0-0.4,0c0.1,0.1,0.1,0.2,0.1,0.2c-0.1,0.2-0.3,0.3-0.3,0.5
	C8,14.5,8.4,14.5,8.4,14.1z M31.3,30.2c0,0.1,0.2,0.2,0,0.2c0.1,0.1,0.2,0.2,0.4,0.1c0-0.3-0.1-0.5-0.5-0.7
	C31.2,30,31.3,30.1,31.3,30.2z M35.5,30.5c0.2,0,0.3-0.1,0.4-0.1c-0.2-0.2-0.2-0.2-0.6-0.2C35.5,30.2,35.3,30.5,35.5,30.5z
	 M7.3,13.7c0-0.1-0.1-0.2-0.1-0.2c0-0.1,0.1-0.1,0.1-0.2c0,0,0.1,0,0.1,0c0-0.1,0.1-0.2,0.1-0.3c0,0-0.1-0.1-0.1-0.1
	c-0.1,0.2-0.4,0.1-0.4,0.4c0,0-0.1,0.1-0.2,0.1C7.1,13.6,7.2,13.6,7.3,13.7z M15.2,21.3C15.2,21.3,15.2,21.3,15.2,21.3
	c0.2,0,0.3-0.1,0.3-0.2c0-0.1-0.1-0.1-0.2-0.2c-0.2,0-0.3,0-0.4,0.2C15,21.2,15.1,21.2,15.2,21.3z M30.4,1.9
	c0.1-0.1,0.2-0.3,0.4-0.4c-0.1-0.1-0.1-0.1-0.2-0.2c-0.1,0.1-0.2,0.2-0.3,0.3C30.3,1.6,30.3,1.7,30.4,1.9z M1.4,28.6
	c-0.1,0-0.2,0-0.3,0.1c0.2,0,0.4,0.1,0.5-0.1c-0.1-0.1-0.1-0.2-0.2-0.3c0,0-0.3,0.2-0.4,0.3C1.3,28.4,1.3,28.4,1.4,28.6z M23.7,19.7
	c-0.1,0-0.2,0.1-0.2,0.2c0,0.1,0.1,0.2,0.1,0.3c0.1-0.1,0.2-0.1,0.4-0.2C23.9,19.9,24,19.6,23.7,19.7z M27.1,9.8
	c0.1,0.1,0.2,0.2,0.4,0.1c-0.1-0.1-0.1-0.3-0.2-0.4C27.1,9.5,27,9.7,27.1,9.8z M5.9,37.9c0.1-0.2,0-0.2,0-0.4
	c-0.3,0.6-0.3,0.6-0.1,0.8C6,38.2,5.9,38,5.9,37.9z M7.8,9.8c0.2-0.1,0.1-0.3,0.1-0.5C7.7,9.5,7.6,9.7,7.4,9.8c0,0,0,0.1,0,0.1
	c0.1-0.1,0.1-0.1,0.3,0C7.7,9.9,7.7,9.8,7.8,9.8z M0.3,25.4c0.1,0,0-0.2,0.1-0.2c0-0.1,0.1-0.1,0.2-0.1c-0.2,0-0.3,0-0.4,0
	c0,0.1,0,0.2,0,0.4 M22.2,35.4c0,0,0,0.1,0,0.1c0.2-0.2,0.2-0.2,0-0.5c-0.1,0-0.2,0.1-0.3,0.1c0,0,0,0.1,0,0.1c0,0.1,0,0.1,0,0.2
	C22.1,35.4,22.1,35.4,22.2,35.4C22.2,35.3,22.2,35.4,22.2,35.4z M13.9,12.2c-0.1,0.1-0.2,0.2-0.3,0.3c0.1,0.1,0.2,0.3,0.3,0.4
	c0.1-0.1,0.2-0.1,0.4-0.2c-0.1,0-0.2,0-0.3,0C13.9,12.5,13.9,12.3,13.9,12.2z M25.7,21.7C25.7,21.7,25.8,21.7,25.7,21.7
	c0.1,0,0.2-0.1,0.1-0.1c0-0.1-0.1-0.2-0.1-0.2c0.1-0.1,0.1-0.2-0.1-0.1c-0.1,0-0.2,0.1-0.3,0.1C25.5,21.5,25.7,21.5,25.7,21.7z
	 M34.1,6.2c0.2-0.1,0.4-0.3,0.3-0.6c-0.1,0-0.2,0-0.3,0c0,0.1,0.1,0.2,0.1,0.4C34.1,6,34,6.1,34.1,6.2C34,6.1,34,6.2,34.1,6.2z
	 M34.1,20.8c0.1-0.1,0.2-0.1,0.3-0.1c0-0.1,0-0.2,0-0.2c-0.1,0-0.3,0-0.5,0C34,20.5,34.1,20.6,34.1,20.8z M3.7,18.3
	c-0.1,0-0.1,0.1-0.2,0.1c0,0,0,0,0,0.1c0,0,0.1,0.1,0.1,0.1c0.1-0.1,0.2-0.1,0.3-0.2c0.1,0,0.2,0,0.3,0c-0.1-0.1-0.1-0.2-0.1-0.3
	C3.9,18.2,3.8,18.4,3.7,18.3z M8.8,4.3C8.7,4.2,8.6,4.1,8.6,4C8.4,4.2,8.3,4.3,8.2,4.4C8.5,4.5,8.6,4.5,8.8,4.3z M9,39.4
	c0,0-0.1,0-0.2,0.1c0,0-0.1,0-0.1,0.1c0,0-0.1,0.1-0.1,0.1c0.1,0.1,0.2-0.2,0.3,0c0.2,0.2,0.2,0,0.3-0.1C9.1,39.3,9.2,39.3,9,39.4z
	 M12.3,18.5c-0.3,0.1-0.3,0.3-0.2,0.5c0.1,0,0.2,0,0.3,0C12.3,18.8,12.4,18.7,12.3,18.5z M38.6,34.3c0,0,0-0.1,0-0.1
	c-0.1-0.1-0.2-0.1-0.3-0.1c0,0.1-0.1,0.2-0.1,0.4C38.3,34.4,38.5,34.4,38.6,34.3z M7.7,32.2c0-0.1,0-0.2,0-0.3c-0.1,0-0.2,0-0.3,0
	c0-0.1,0-0.1-0.1-0.2c0,0,0,0,0,0c0,0.1,0,0.2,0,0.3C7.4,32.1,7.5,32.1,7.7,32.2z M35.4,29.2c-0.1,0.1-0.3,0-0.4,0.2
	c0.2,0.1,0.3,0.2,0.5,0.1C35.3,29.4,35.6,29.3,35.4,29.2z M9.7,11.1C9.7,11.1,9.6,11,9.7,11.1C9.6,11,9.5,11,9.5,11
	c0,0.2-0.1,0.3-0.2,0.4c0,0.1,0,0.2,0,0.3C9.6,11.6,9.5,11.3,9.7,11.1z M25.1,27.9c-0.1-0.1-0.1-0.2-0.2-0.2c-0.1,0-0.3-0.1-0.4,0.1
	c0,0,0,0.1,0,0.1C24.7,27.9,24.9,27.9,25.1,27.9C25.1,28,25.1,27.9,25.1,27.9z M27.7,20.4C27.7,20.3,27.7,20.3,27.7,20.4
	c-0.1,0-0.2,0-0.3,0.1c0,0.1,0.1,0.3,0.2,0.3c0,0,0.1-0.1,0.1-0.1c0,0,0,0,0-0.1c-0.1,0-0.1,0-0.2-0.1
	C27.7,20.5,27.7,20.4,27.7,20.4z M8,12.8c0,0.1,0,0.2,0.2,0.1c0-0.1,0-0.2,0-0.4c0.1,0,0.1,0,0.2,0c0-0.1,0-0.2,0-0.3
	C8.1,12.4,8,12.6,8,12.8z M25.6,16c0,0,0.1,0,0.3,0c-0.1-0.1-0.1-0.2-0.2-0.3c-0.1,0-0.2,0-0.3-0.1C25.4,15.8,25.5,15.9,25.6,16z
	 M31.9,17.1c0.1,0.1,0.1,0.3,0.2,0.5c0-0.2,0-0.3,0-0.4c0.1-0.2,0.1-0.2-0.1-0.3C31.9,16.9,31.9,17,31.9,17.1z M6.4,31.3
	c0,0.1,0,0.2,0,0.3c0.1,0,0.2,0,0.3,0c0-0.1,0-0.2,0-0.3C6.6,31.3,6.5,31.3,6.4,31.3z M8.3,35.2c0.2-0.1,0.3-0.2,0.3-0.4
	C8.4,34.9,8.2,35,8,35.1C8.1,35.2,8.2,35.2,8.3,35.2z M0.8,16c-0.1,0-0.1-0.1-0.1-0.1c0,0.2,0.2,0.4,0,0.6c0.1,0,0.1,0,0.2,0
	c0,0,0-0.1,0.1-0.1c0,0,0.1,0,0.2-0.1C0.9,16.1,0.9,16.1,0.8,16z M3,8.8c-0.1,0-0.1,0.1-0.2,0.1c0.1,0,0.1,0,0.5-0.3
	c-0.2,0-0.3,0-0.5,0C2.8,8.7,2.9,8.7,3,8.8z M17.9,25.3c0,0.1-0.1,0.2-0.1,0.2c0.1,0,0.2-0.1,0.3-0.1c0-0.1,0-0.3-0.2-0.4
	C18,25.1,18,25.2,17.9,25.3z M23.1,11.6c0.1,0,0.1-0.1,0.2-0.1c-0.2-0.1-0.3-0.3-0.5-0.3C22.8,11.4,23,11.5,23.1,11.6z M6.6,2.1
	c0.1-0.1,0.2-0.2,0.1-0.3C6.6,1.9,6.5,1.9,6.3,2C6.4,2.2,6.6,2,6.6,2.1z M7.7,31.4c0.1,0.2,0.2,0.3,0.3,0.4c0,0,0.1,0,0.1,0
	c0-0.1,0-0.1,0-0.2C8,31.5,7.9,31.5,7.7,31.4z M28,5.4c-0.1,0.1-0.2,0.1-0.3,0.2c0.1,0.1,0.1,0.1,0.6,0.1C28.2,5.6,28.1,5.5,28,5.4z
	 M0.8,23.6c0,0,0.1-0.1,0.1-0.1c0,0-0.1-0.1-0.1-0.1c0,0-0.1-0.1-0.1-0.1c-0.2,0.1-0.1,0.3-0.1,0.4C0.6,23.7,0.6,23.6,0.8,23.6z
	 M21.3,38.6c0.1,0.1-0.2,0.1,0,0.2C21.4,38.8,21.4,38.7,21.3,38.6c0.1,0,0.2-0.1,0.2-0.1c-0.1-0.1-0.2-0.2-0.4-0.1c0,0,0,0.1,0,0.2
	c0.1-0.1,0.1-0.1,0.2-0.1C21.3,38.5,21.3,38.5,21.3,38.6z M23.3,8.2c0,0.1,0,0.2,0,0.3c0.1,0,0.1-0.1,0.1-0.1
	c0.1,0.1,0.1,0.2,0.2,0.3C23.7,8.5,23.5,8.4,23.3,8.2z M30.5,28.8c0,0,0.1,0.1,0.1,0.2c0.2,0,0-0.3,0.1-0.3c-0.1,0-0.2-0.1-0.2-0.1
	C30.3,28.7,30.3,28.7,30.5,28.8z M19.7,39.7c-0.1,0-0.2,0-0.3,0 M0.5,7.7c0,0,0.1,0.1,0.1,0.1c0,0,0.1-0.1,0.1-0.1
	c0-0.1-0.1-0.2,0-0.2c0.1-0.2,0-0.1-0.1-0.1c-0.1,0-0.1,0.1-0.2,0.2C0.5,7.6,0.5,7.7,0.5,7.7z M28.8,39.6c-0.1,0-0.1,0-0.1,0
	c-0.2,0.2,0,0.2,0.1,0.3c0.1-0.1,0.2-0.1,0.3-0.2C29,39.6,29,39.6,28.8,39.6z M30,1.2c0.2,0,0.4,0,0.6,0C30.5,1,30.4,1,30,1.2z
	 M20.7,6.4c0.4,0.2,0.5,0.2,0.6,0C21.1,6.4,20.9,6.4,20.7,6.4z M12.4,39.4c0.3,0.1,0.3-0.1,0.4-0.3C12.4,39,12.5,39.3,12.4,39.4z
	 M17.8,39.6c0,0,0.1,0,0.2-0.1c-0.1-0.1-0.2-0.2-0.3-0.2c-0.1,0.1-0.1,0.2-0.2,0.3c0,0,0.1,0.1,0.1,0.1
	C17.8,39.7,17.8,39.6,17.8,39.6z M11.3,7.7c-0.1,0-0.2,0-0.3,0.1c0,0-0.1,0.1-0.1,0.2c0.2,0,0.3,0,0.5,0C11.4,7.8,11.4,7.7,11.3,7.7
	z M15.2,9.7c0-0.1,0-0.1-0.1-0.2C15,9.6,15,9.7,14.9,9.8c0.2,0,0.5,0.1,0.6-0.2C15.4,9.6,15.3,9.7,15.2,9.7z M7.3,10.3
	c-0.2,0.1-0.3,0.2-0.5,0.2c0.2,0.1,0.3,0.1,0.4,0.1C7.2,10.6,7.2,10.5,7.3,10.3z M12.8,6.5C12.8,6.7,12.9,6.8,13,7
	c0.1-0.2,0.1-0.3,0.2-0.5C13,6.5,12.9,6.5,12.8,6.5z M5.8,36.5c0-0.2-0.1-0.3-0.1-0.4C5.5,36.2,5.5,36.3,5.8,36.5z M19.1,0.9
	C19.1,0.9,19,0.9,19.1,0.9c-0.1,0-0.1,0-0.2,0c0,0,0,0.1,0.1,0.1c-0.1,0.1-0.2,0.2-0.3,0.3C18.9,1.3,19.1,1.1,19.1,0.9z M35.6,9.6
	c0.1,0.2-0.2,0.3,0.1,0.5C35.9,9.8,35.9,9.8,35.6,9.6z M0.1,9.9 M11.7,16.4c0.1-0.1,0.1-0.2,0.2-0.3c-0.1,0-0.2,0-0.5,0
	C11.6,16.3,11.6,16.3,11.7,16.4z M0.9,25c0,0,0.1-0.1,0.1-0.1c-0.4,0.1-0.4,0.1-0.5,0.2C0.7,25.1,0.8,25.1,0.9,25z M9.8,20.9
	c-0.1,0.1-0.2,0.2-0.3,0.3c0,0,0.1,0,0.1-0.1c0,0.1,0,0.2,0,0.2c0.1-0.1,0-0.4,0.2-0.3C9.9,21,9.8,21,9.8,20.9z M14.1,13
	c-0.1-0.2-0.1,0-0.2,0c0.1,0,0.2,0.1,0.2,0.1c0.1-0.1,0.3-0.2,0.2-0.4C14.2,12.9,14.2,13,14.1,13z M9.2,25.2
	c-0.1,0.1-0.1,0.2-0.2,0.2c0.1,0.1,0.2,0.1,0.3,0.1c0,0,0.1-0.1,0.1-0.1C9.4,25.4,9.3,25.3,9.2,25.2z M32,16.3
	c0,0.1-0.2,0.3-0.1,0.4c0,0,0.1-0.1,0.1-0.1c0.1-0.1,0.1-0.2,0.2-0.3C32.1,16.3,32,16.3,32,16.3z M25.9,29.2
	c-0.1,0.1,0.1,0.1,0.1,0.3c0.1-0.2,0.3-0.2,0.2-0.5C26.1,29,26,29.1,25.9,29.2z M12.3,35.4c0.2-0.3,0.2-0.3,0-0.5
	C12.3,35.1,12.3,35.3,12.3,35.4z M4.9,35c-0.2-0.1-0.4,0-0.5,0.1c0,0,0,0.1,0,0.1C4.6,35.2,4.8,35.1,4.9,35z M5.5,4.9
	c0,0,0-0.1,0-0.1c-0.1,0-0.3,0.1-0.4,0.1C5.1,5,5.2,5.1,5.2,5.1C5.3,5,5.3,5,5.5,4.9z M6.3,22.4c-0.3,0.1-0.2,0.3-0.2,0.5
	C6.4,22.8,6.3,22.6,6.3,22.4z M7.7,4.5c0,0,0,0.1,0.1,0.1C7.8,4.8,8,4.6,8,4.7c0,0,0,0,0,0c0-0.2-0.1-0.1-0.2-0.2
	C7.9,4.5,7.8,4.5,7.7,4.5C7.7,4.5,7.7,4.5,7.7,4.5z M18.8,31.2c-0.1,0.1-0.1,0.1-0.1,0.1c0.1,0.3,0.2,0.3,0.3,0.3
	C18.9,31.5,18.9,31.4,18.8,31.2z M19.7,16.9c0-0.1-0.1-0.1-0.1-0.2c-0.1,0.2-0.1,0.3-0.2,0.4C19.6,17.1,19.7,17,19.7,16.9z
	 M12.3,31.8c-0.1,0.1-0.1,0.2-0.2,0.4c0.1-0.1,0.2-0.1,0.3-0.1c0,0,0-0.1,0-0.1c0-0.1,0-0.1,0-0.2C12.4,31.8,12.4,31.8,12.3,31.8z
	 M5.2,38.3c0.1,0,0.2,0,0.4,0c-0.2-0.1-0.3-0.2-0.4-0.3C5.2,38.1,5.2,38.2,5.2,38.3z M23,4.3c-0.1-0.1-0.2-0.1-0.3-0.2
	c-0.1,0.3,0.2,0.2,0.2,0.3C22.9,4.4,22.9,4.4,23,4.3z M5.4,30.6c0,0.1,0,0.2,0,0.3c0.2,0,0.2-0.1,0.3-0.3
	C5.6,30.6,5.5,30.6,5.4,30.6z M11.2,22.9c0-0.1,0.1-0.2,0.1-0.4c0-0.1-0.1-0.1-0.2-0.1C11.2,22.6,11.2,22.7,11.2,22.9
	C11.2,22.9,11.2,22.9,11.2,22.9z M8.7,32.8c-0.1,0.1-0.1,0.1,0,0.5C8.8,33,8.8,33,8.7,32.8z M9.2,33c0,0-0.1,0.1-0.2,0.1
	c0.2,0,0.3,0.1,0.4,0.1C9.5,33.1,9.4,33,9.2,33z M6.3,20.3c0.1,0.1,0.2,0.2,0.4,0.4C6.6,20.3,6.6,20.3,6.3,20.3z M12.7,13.9
	c0,0,0,0.1,0,0.1c0,0,0.1,0,0.1,0c0.1-0.1,0.1-0.2,0.2-0.3C12.8,13.6,12.8,13.9,12.7,13.9z M37,39.9C37,40,37,40,37,39.9 M13.7,11.6
	c0.1,0.1,0.1,0.3,0.3,0.1c-0.1-0.1-0.1-0.2,0-0.4C13.9,11.5,13.8,11.6,13.7,11.6z M11.8,39.7C11.8,39.7,11.8,39.8,11.8,39.7
	C11.7,39.8,11.7,39.8,11.8,39.7c-0.1,0,0,0,0-0.1c-0.2,0.2-0.2,0.2,0.1,0.3c0-0.1,0-0.3-0.1-0.3C11.8,39.7,11.8,39.7,11.8,39.7z
	 M23.5,24.2c-0.3-0.1-0.4,0.1-0.5,0.3C23.2,24.4,23.4,24.3,23.5,24.2z M1.2,3c0,0.1,0.1,0.1,0.2,0.1c0-0.1,0-0.2,0-0.3
	C1.2,2.8,1.2,2.8,1.2,3z M15.6,11.4c0-0.1,0-0.1,0-0.2c0-0.1,0-0.2-0.1-0.1c0,0-0.1,0.1-0.1,0.1C15.5,11.3,15.5,11.4,15.6,11.4
	C15.6,11.4,15.6,11.4,15.6,11.4z M2.6,10.4c0.2,0.1,0.3,0.1,0.5,0.2C3,10.3,2.8,10.3,2.6,10.4z M38,13.2c-0.2,0.2-0.1,0.3-0.2,0.4
	c0,0,0.1,0.1,0.2,0.1C38,13.6,38,13.4,38,13.2z M39.5,38c0,0.1,0,0.2,0,0.3c0.1-0.1,0.3-0.2,0.3-0.4C39.7,38,39.6,38,39.5,38z
	 M10,24.9c0-0.1,0.1-0.2,0.1-0.3c0-0.1-0.1-0.1-0.2-0.1C9.9,24.7,9.9,24.8,10,24.9C10,24.9,10,24.9,10,24.9z M37.8,40 M33.3,38.7
	c-0.1,0-0.1,0-0.2,0c-0.1,0-0.1-0.1-0.2-0.1c0,0.1,0,0.1,0,0.2C33,38.7,33.2,38.7,33.3,38.7C33.3,38.7,33.3,38.7,33.3,38.7z M0.3,5
	 M20.9,39.6c-0.1,0.1-0.1,0.1-0.1,0.3c0.1,0.2,0.2,0.1,0.3,0C20.8,40,21,39.7,20.9,39.6z M33,35.9c-0.2-0.1-0.1,0.2-0.2,0.2
	c0,0,0,0,0,0.1c0,0,0.1,0,0.1,0c0,0,0.1,0,0.2,0C33,36,33,35.9,33,35.9z M21.2,1.2c0,0,0.1,0,0.1-0.1c0,0,0-0.1-0.1-0.1
	c-0.1,0-0.2,0-0.4,0C20.9,1.3,21.1,1.1,21.2,1.2z M14.8,39.8 M4.7,35.5c0-0.1,0.1-0.1,0.1-0.2c-0.2,0-0.3,0-0.4,0.2
	C4.5,35.5,4.6,35.7,4.7,35.5z M23.1,14.2c0-0.1,0-0.3,0-0.4C22.8,13.9,22.8,13.9,23.1,14.2z M13,23.1c0,0,0-0.1,0-0.1
	c0,0-0.1,0-0.1,0c-0.1,0-0.1,0.1-0.1,0.2c0,0,0,0.1,0.1,0.1C12.9,23.2,12.9,23.2,13,23.1z M38.3,17.9c0-0.1,0-0.1,0-0.2
	c0-0.1,0-0.1,0.1-0.2c0,0-0.1,0.1-0.1,0.1c0-0.1,0-0.1,0-0.2c0,0,0,0,0,0C38.3,17.6,38.3,17.8,38.3,17.9
	C38.3,17.9,38.3,17.9,38.3,17.9z M9.6,22.6C9.6,22.6,9.6,22.6,9.6,22.6c0.1,0,0.1,0,0.2,0c-0.2-0.1,0.1-0.3,0-0.4
	C9.5,22.2,9.6,22.4,9.6,22.6z M23,2.5c-0.2,0-0.3,0.1-0.2,0.3C23,2.8,23.1,2.7,23,2.5z M16.1,5.2c-0.2,0-0.3,0-0.6,0
	C16,5.3,16,5.3,16.1,5.2z M25.8,22.7c-0.2-0.2-0.2-0.2-0.4,0C25.5,22.7,25.6,22.7,25.8,22.7z M13.5,28.5c-0.1,0-0.1,0-0.2,0.1
	c0,0,0,0.1-0.1,0.1c0.1,0,0.1,0.1,0.1,0C13.5,28.7,13.5,28.6,13.5,28.5C13.6,28.5,13.6,28.5,13.5,28.5z M13.8,31
	c0,0-0.1-0.1-0.1-0.1c-0.1,0-0.1,0.1-0.1,0.2c0,0,0,0.1,0.1,0.2C13.7,31.1,13.8,31,13.8,31z M39.6,31.9 M24.6,38.4
	c0.1,0,0.2,0,0.2,0c0-0.1-0.1-0.2-0.1-0.3C24.7,38.2,24.5,38.2,24.6,38.4z M7.1,20.7c0-0.1,0-0.2,0-0.2c-0.1,0-0.2,0-0.2,0
	C7,20.7,7.1,20.8,7.1,20.7z M30.5,8.1c0.1,0,0.3,0.2,0.5-0.1C30.8,8,30.7,8,30.5,8.1z M3.9,38.2C3.9,38.2,3.9,38.3,3.9,38.2
	C4,38.3,4,38.3,4,38.3c0-0.1,0.1-0.1,0.1-0.2C4,38,3.9,38.1,3.9,38.2z M19.6,4.1c0,0,0-0.1,0-0.1c-0.1,0-0.2,0.1-0.4,0.1
	c0,0,0.1,0.1,0.1,0.1C19.5,4.2,19.5,4.1,19.6,4.1z M13.5,12.1c0,0.1-0.1,0.1-0.1,0.2c0,0.1,0,0.2,0,0.3c0.1-0.1,0.1-0.2,0.1-0.2
	C13.5,12.3,13.5,12.2,13.5,12.1C13.6,12.1,13.5,12.1,13.5,12.1z M4.1,0.2c0,0,0.1-0.1,0.1-0.1c0,0,0-0.1,0-0.1C4.1,0,4,0.1,4,0.1
	c0,0-0.1,0.1-0.1,0.2C4,0.3,4,0.2,4.1,0.2z M3.6,37.2c-0.1,0-0.1,0-0.1,0.1c0,0,0,0.1,0.1,0.1c0,0,0.1-0.1,0.2-0.1
	C3.7,37.3,3.7,37.2,3.6,37.2z M6.8,3.3c0,0,0.1,0.2,0.1,0.2C7,3.5,7,3.5,7.1,3.4C7,3.4,6.9,3.2,6.8,3.3z M21.7,17.1
	c0,0-0.1,0.1-0.1,0.1c0,0.1,0,0.2,0.1,0.1c0,0,0.1-0.1,0.1-0.1C21.8,17.2,21.8,17.2,21.7,17.1z M2.5,33.1c-0.1,0-0.2,0.1-0.4,0.2
	c0.2,0,0.3,0,0.5,0C2.6,33.2,2.5,33.1,2.5,33.1z M24.7,13.7c0-0.1-0.1-0.1-0.1-0.1c0,0-0.1,0-0.1,0.1c0,0,0.1,0.1,0.1,0.2
	C24.7,13.8,24.7,13.7,24.7,13.7z M0.5,23.9c0.1,0,0.1,0.2,0.2,0.1c0,0,0-0.2-0.1-0.3C0.6,23.9,0.6,23.9,0.5,23.9z M0.1,23.3
	c0-0.1,0-0.2,0-0.4C0,23.1,0,23.1,0.1,23.3z M8.8,12c0.3,0,0.3-0.2,0.5-0.3C9.1,11.7,9,11.9,8.8,12z M9.8,24.2c-0.2,0-0.2,0-0.3,0
	c-0.1,0-0.1,0-0.2,0c0,0.1,0,0.1,0,0.2C9.5,24.3,9.6,24.3,9.8,24.2z M9.6,14.5c0,0-0.1,0.1-0.1,0.2c0,0.1,0,0.2,0,0.3c0,0,0,0,0,0
	C9.6,14.8,9.6,14.7,9.6,14.5C9.6,14.5,9.6,14.5,9.6,14.5z M0.9,26.8c0,0,0.1,0.1,0.1,0.1c0.1,0,0.2,0,0.1-0.1c0,0-0.1-0.1-0.1-0.1
	C1,26.7,0.9,26.8,0.9,26.8z M11.4,8.2c0.1,0,0.2,0.2,0.3,0C11.7,8.3,11.5,8,11.4,8.2z M9.8,23.1c0,0,0.1,0,0.1,0c0,0,0-0.1,0-0.1
	c-0.1,0-0.2-0.1-0.3-0.2C9.7,22.9,9.7,23,9.8,23.1z M0.3,2c0,0,0.1,0.1,0.1,0.1c0.1,0,0.2,0,0.1-0.1c0,0-0.1-0.1-0.1-0.1
	C0.3,1.9,0.3,1.9,0.3,2z M36.1,39.4c0.1-0.1,0.1-0.1,0.2-0.2c0,0,0-0.1,0-0.1c0,0-0.1,0-0.1,0C36.1,39.2,36.1,39.3,36.1,39.4
	C36.1,39.4,36.1,39.4,36.1,39.4z M39.9,8.8c0,0,0,0.1-0.1,0.2c0,0,0.1,0.1,0.1,0 M1.1,24.7c0.2,0,0.1-0.1,0.1-0.2
	c0,0-0.1,0.1-0.1,0.1C1,24.6,1,24.7,1,24.8C1,24.8,1.1,24.7,1.1,24.7z M23.7,17.9c0,0,0.1,0,0.1-0.1c0,0-0.1-0.1-0.1-0.1
	c0,0-0.1,0-0.2,0C23.6,17.9,23.6,17.9,23.7,17.9z M12.9,10.1c-0.2,0-0.3,0-0.5,0c0.1,0.1,0.2,0.1,0.3,0.1
	C12.7,10.2,12.8,10.1,12.9,10.1z M17.2,12.2c0,0,0-0.1,0.1-0.2c0,0-0.1-0.1-0.1,0c0,0-0.1,0.1-0.1,0.1c0,0,0,0.1,0,0.1
	C17.2,12.3,17.2,12.2,17.2,12.2z M7.1,12.1c0,0-0.1,0-0.1,0c0,0.1,0.1,0.2,0.1,0.3C7.2,12.3,7.2,12.2,7.1,12.1z M39.9,39.7
	 M29.3,39.4c-0.2-0.1-0.3,0-0.4,0.2C29.1,39.5,29.2,39.4,29.3,39.4z M32.7,38.6c0,0-0.1,0-0.1,0c0,0.1,0.1,0.2,0.1,0.3
	C32.8,38.7,32.8,38.6,32.7,38.6z M34.3,38.5c0,0-0.1,0-0.2-0.1c0,0-0.1,0.1,0,0.1c0,0,0.1,0.1,0.1,0.1c0,0,0.1,0,0.1,0
	C34.3,38.5,34.3,38.5,34.3,38.5z M18.8,38.4C18.8,38.5,18.8,38.5,18.8,38.4c0.1,0,0.2,0,0.4,0c-0.1-0.1-0.1-0.1-0.2-0.2
	C18.9,38.4,18.9,38.4,18.8,38.4z M18.5,38c-0.2,0-0.4,0-0.5,0C18.1,38.1,18.3,38.2,18.5,38z M2.1,38.3c0-0.1,0.1-0.2,0.1-0.4
	C1.9,38,2.1,38.2,2.1,38.3z M25.9,16.4c0-0.2-0.1-0.3-0.3-0.3C25.7,16.2,25.8,16.3,25.9,16.4z M7.4,0.1 M2.5,37.6
	c0,0,0.1-0.1,0.1-0.1c0,0-0.1-0.1-0.1-0.1c-0.1,0-0.1,0.1-0.2,0.2C2.4,37.6,2.4,37.7,2.5,37.6z M10.3,0.5c-0.1-0.2-0.1-0.2-0.3,0
	C10.1,0.5,10.2,0.5,10.3,0.5z M39.5,0.5c0,0,0-0.1,0-0.1c0,0-0.1,0-0.1,0c0,0-0.1,0.1-0.1,0.1c0,0.1,0,0.1,0,0.2
	C39.4,0.6,39.4,0.6,39.5,0.5z M18.4,36.9c0.2,0.2,0.3,0.3,0.5,0.2C18.8,37,18.7,36.9,18.4,36.9z M5.6,36.9c0,0,0.1,0,0.1,0
	c0-0.1-0.1-0.2-0.1-0.3C5.6,36.7,5.5,36.8,5.6,36.9z M17.7,32.7c-0.1-0.1-0.2-0.1-0.4-0.2C17.4,32.7,17.5,32.7,17.7,32.7z M1.7,1.4
	C1.6,1.5,1.5,1.6,1.6,1.7c0,0,0,0,0.1,0C1.8,1.7,1.7,1.6,1.7,1.4C1.7,1.5,1.7,1.5,1.7,1.4C1.7,1.4,1.7,1.4,1.7,1.4z M6.3,19
	c0,0-0.1-0.1-0.1-0.1c0,0-0.1,0.1-0.1,0.1c0,0.1,0.1,0.1,0.2,0.2C6.3,19.1,6.3,19,6.3,19z M22.4,4.6c0.1,0,0.1-0.1,0.2-0.1
	c-0.2,0-0.3,0-0.5,0C22.2,4.5,22.3,4.5,22.4,4.6z M28.9,31.2c-0.2,0-0.2,0.1-0.3,0.3C28.7,31.4,28.8,31.3,28.9,31.2z M4.7,30.2
	c-0.1,0.1-0.1,0.1-0.2,0.2c0,0,0,0.1,0.1,0.1c0,0,0.1-0.1,0.1-0.1C4.7,30.3,4.7,30.3,4.7,30.2z M4,5.6c0-0.1,0.3,0,0.2-0.3
	C4.2,5.4,3.9,5.4,4,5.6z M22.2,29.9c0,0-0.1,0.1-0.1,0.1c0,0.1,0,0.2,0.1,0.2C22.4,30.2,22.1,30.1,22.2,29.9
	C22.2,30,22.2,30,22.2,29.9z M0.9,1.9c0,0,0-0.1-0.1-0.1c0,0-0.1,0.1-0.1,0.1c0,0,0,0.1,0,0.2C0.8,2,0.9,2,0.9,1.9z M22,5.7
	c0-0.1,0-0.2-0.1-0.2c0,0-0.1,0-0.1,0.1c0.1,0.1,0.1,0.1,0,0.2c0,0,0,0.1,0.1,0.2C22,5.8,22,5.7,22,5.7z M16,29.8
	c0.2,0,0.3-0.1,0.3-0.3C16.2,29.6,16.1,29.7,16,29.8z M22.4,2.2c0,0,0-0.1,0-0.2c-0.1,0-0.2,0-0.3,0C22.2,2.1,22.3,2.4,22.4,2.2z
	 M7.7,14.5c-0.1,0.1-0.2,0.1-0.4,0.2C7.6,14.7,7.6,14.7,7.7,14.5z M9.8,29.4c0,0,0.1-0.1,0.1-0.1c0,0,0-0.1,0-0.1
	c-0.1,0-0.1,0-0.2,0c0,0-0.1,0.1-0.1,0.1C9.7,29.4,9.8,29.4,9.8,29.4z M21.9,2.5c0.2-0.1,0.2-0.2,0.2-0.5C22.1,2.3,22,2.4,21.9,2.5z
	 M38,28.8c-0.1-0.1-0.2-0.1-0.4-0.1c0.1,0.1,0.1,0.2,0.1,0.3C37.9,28.9,37.9,28.8,38,28.8z M19.2,37.7c-0.1,0-0.2,0-0.4,0
	c0,0,0,0,0,0C18.9,37.7,19,37.7,19.2,37.7C19.2,37.7,19.2,37.7,19.2,37.7z M0.6,33.1c0,0,0-0.1-0.1-0.1c0,0-0.1-0.1-0.1-0.1
	c0,0,0,0-0.1,0.1C0.5,33,0.5,33.1,0.6,33.1C0.6,33.2,0.6,33.2,0.6,33.1z M19.6,37.4c0,0.1-0.1,0.1-0.1,0.3
	C19.6,37.6,19.6,37.6,19.6,37.4z M18.7,0.5C18.7,0.4,18.7,0.4,18.7,0.5c-0.1-0.1-0.2,0-0.3,0c0.1,0.1,0.1,0.1,0.1,0.1
	C18.6,0.5,18.6,0.5,18.7,0.5z M3.1,10.7c0,0.1,0.1,0.1,0.1,0.2c0.1-0.1,0.1-0.1,0.2-0.2C3.3,10.7,3.2,10.7,3.1,10.7z M10.4,0.6
	c0,0-0.1,0.1-0.1,0.1c0,0,0,0.1,0.1,0.1c0,0,0.1,0,0.2-0.1C10.5,0.6,10.4,0.6,10.4,0.6z M5.3,37c0,0,0.1,0.1,0.1,0.1
	c0,0,0,0.1,0.1,0.2C5.6,37,5.6,37,5.3,37z M7.3,36.3c-0.1,0.2,0,0.2,0.1,0.3C7.5,36.5,7.3,36.4,7.3,36.3z M33.7,8
	c0,0-0.1,0.1-0.1,0.1c0,0,0.1,0.1,0.1,0.1c0,0,0.1-0.1,0.1-0.1C33.8,8.1,33.7,8,33.7,8z M1.9,20.2c-0.1,0.1-0.2,0.1-0.3,0.2
	C1.8,20.4,1.8,20.4,1.9,20.2z M20.4,36.1c0.1,0.1,0.1,0.1,0.2,0.2c0-0.1,0-0.2,0-0.3C20.5,36,20.4,36.1,20.4,36.1z M13.8,36.1
	c0-0.2,0-0.2,0-0.4c-0.1,0.1-0.1,0.1-0.2,0.2C13.6,36,13.7,36,13.8,36.1z M14.4,9.8c0.1-0.1,0.1-0.2,0.1-0.2
	C14.4,9.6,14.2,9.6,14.4,9.8z M7.9,35.6c0.1,0.1,0.2,0.1,0.3,0.2C8.2,35.5,8.1,35.6,7.9,35.6z M28,24.9c0,0-0.1-0.1-0.1-0.1
	c0,0-0.1,0.1-0.1,0.1c0,0,0.1,0.1,0.1,0.1C28,25,28,24.9,28,24.9z M14.8,1.2C14.7,1.2,14.7,1.3,14.8,1.2c0,0.1,0,0.2,0,0.2
	c0,0,0.1,0,0.1-0.1C14.8,1.3,14.8,1.2,14.8,1.2z M15.5,35.4C15.5,35.4,15.5,35.3,15.5,35.4c-0.2-0.1-0.2,0-0.2,0.1
	C15.4,35.5,15.5,35.6,15.5,35.4z M27.6,24.9c0,0-0.1,0.1-0.1,0.1c0,0,0,0.1,0.1,0.1c0,0,0.1,0,0.2-0.1C27.6,25,27.6,24.9,27.6,24.9z
	 M1.2,18.1c0.1-0.1,0.1-0.2,0.1-0.3C1.3,17.9,1.1,17.9,1.2,18.1z M17.4,23.7C17.4,23.7,17.4,23.6,17.4,23.7c-0.1-0.1-0.2,0-0.3,0
	c0.1,0.1,0.1,0.1,0.1,0.1C17.3,23.7,17.3,23.7,17.4,23.7z M32.5,20c-0.1,0-0.1,0.1-0.2,0.1c0.1,0.1,0.1,0.1,0.2,0.2
	C32.5,20.2,32.5,20.1,32.5,20z M26.8,35.3c0.1-0.2,0-0.2-0.1-0.3C26.6,35.2,26.7,35.2,26.8,35.3z M39.9,22.2c0,0,0-0.1-0.1-0.1
	c0,0-0.1-0.1-0.1-0.1c0,0,0,0-0.1,0.1C39.8,22.1,39.8,22.2,39.9,22.2C39.9,22.2,39.9,22.2,39.9,22.2z M26.9,24.5c0,0-0.1,0-0.2,0.1
	c0,0,0,0,0,0c0.1,0,0.2,0,0.4,0C26.9,24.5,26.9,24.5,26.9,24.5z M5.8,35.2c0-0.1,0-0.2,0-0.3c0,0,0,0-0.1,0
	C5.8,35,5.8,35.1,5.8,35.2C5.8,35.2,5.8,35.2,5.8,35.2z M37,34.8c-0.1-0.1-0.1-0.1-0.2-0.2c0,0.1,0,0.2,0,0.3
	C36.8,34.9,36.9,34.9,37,34.8z M10,13.8c0,0-0.1,0.1-0.1,0.1c0,0,0.1,0.1,0.1,0.1c0,0,0.1-0.1,0.1-0.1C10.1,13.8,10.1,13.8,10,13.8z
	 M14.9,7.9c0,0-0.1-0.1-0.1-0.1c0,0-0.1,0-0.1,0.1c0,0,0,0.1,0.1,0.2C14.8,7.9,14.9,7.9,14.9,7.9z M5.1,23.2c0.1,0,0.2,0,0.3,0
	C5.3,23.1,5.3,23,5.3,23C5.2,23,5.1,23.1,5.1,23.2C5.1,23.1,5.1,23.1,5.1,23.2z M0.2,34.2c0,0.1,0,0.2,0,0.3
	c0.1-0.1,0.1-0.1,0.1-0.1C0.4,34.3,0.3,34.3,0.2,34.2C0.3,34.2,0.3,34.2,0.2,34.2z M13.1,2.4c0.1,0.1,0.2,0.1,0.3,0.2
	C13.3,2.4,13.3,2.4,13.1,2.4z M39.4,7.7c0,0.1,0,0.2,0,0.3c0,0,0,0,0.1,0C39.4,7.9,39.4,7.8,39.4,7.7C39.4,7.7,39.4,7.7,39.4,7.7z
	 M20.1,2.6c0.1-0.1,0.1-0.2,0.1-0.3C20.1,2.4,19.9,2.5,20.1,2.6z M5.4,11.5c0,0-0.1-0.1-0.1-0.1c0,0-0.1,0-0.1,0.1
	c0,0,0,0.1,0.1,0.2C5.3,11.5,5.4,11.5,5.4,11.5z M2.8,32.8c0,0-0.1,0-0.2,0.1c0,0,0,0,0,0c0.1,0,0.2,0,0.4,0
	C2.9,32.8,2.8,32.8,2.8,32.8z M0.6,33.8c0.1-0.1,0.2-0.1,0.1-0.3C0.6,33.6,0.5,33.7,0.6,33.8z M0.8,16C0.9,16,1,16,1,15.9
	c0-0.2-0.1-0.1-0.2-0.1C0.8,15.9,0.8,15.9,0.8,16z M35.3,7.5c0,0-0.1,0.1-0.1,0.1c0,0,0.1,0.1,0.1,0.1c0,0,0.1-0.1,0.1-0.1
	C35.3,7.5,35.3,7.5,35.3,7.5z M35.5,28C35.5,28,35.5,28.1,35.5,28c0.1,0,0.2,0,0.2,0c0,0,0-0.1-0.1-0.1C35.5,27.9,35.5,28,35.5,28z
	 M12.4,28.2C12.3,28.2,12.3,28.2,12.4,28.2c-0.1,0.1,0,0.2,0,0.2c0,0,0.1,0,0.1-0.1C12.4,28.2,12.4,28.2,12.4,28.2z M14.5,6.9
	C14.5,6.9,14.4,7,14.5,6.9c0,0.1,0,0.2,0,0.2c0,0,0.1,0,0.1-0.1C14.6,6.9,14.5,6.9,14.5,6.9z M8.4,12.6c0,0.1,0,0.2,0,0.4
	c0,0,0,0,0,0C8.4,12.8,8.4,12.7,8.4,12.6C8.4,12.6,8.4,12.6,8.4,12.6z M37.5,28.7c0.1-0.1,0.1-0.2,0.2-0.3
	C37.4,28.3,37.5,28.5,37.5,28.7z M16.3,28.7c0.1-0.1,0.1-0.2,0.1-0.3C16.4,28.5,16.2,28.6,16.3,28.7z M39.1,21.7
	c0-0.2,0.1-0.4-0.2-0.3C39,21.5,39,21.6,39.1,21.7z M23.9,24C23.9,24,23.8,24,23.9,24c-0.1,0.2,0,0.2,0.1,0.2
	C24,24.1,24.1,24,23.9,24z M19.4,28.9c0.1-0.1,0.1-0.2,0.1-0.2C19.4,28.7,19.3,28.8,19.4,28.9z M23.9,15.8c0,0.2,0,0.2,0.3,0.1
	C24.1,15.9,24,15.9,23.9,15.8z M1.7,28.8c0,0-0.1,0.1-0.1,0.1c0,0,0.1,0.1,0.1,0.1c0,0,0.1-0.1,0.1-0.1C1.7,28.9,1.7,28.8,1.7,28.8z
	 M6.7,6.4C6.7,6.4,6.7,6.5,6.7,6.4c0,0.1,0,0.2,0,0.2c0,0,0.1,0,0.1-0.1C6.8,6.5,6.8,6.4,6.7,6.4z M11.5,29c-0.1,0-0.1,0.1-0.2,0.1
	c0.1,0.1,0.1,0.1,0.2,0.2C11.5,29.2,11.5,29.1,11.5,29z M13.3,6.5c0.1-0.1,0.1-0.2,0.1-0.2C13.4,6.2,13.2,6.3,13.3,6.5z M2,16.9
	c0,0,0,0.1,0.1,0.1c0,0,0.1,0.1,0.1,0.1c0,0,0,0,0.1-0.1C2.2,17,2.1,16.9,2,16.9C2.1,16.8,2,16.9,2,16.9z M7.3,29.5
	c-0.1-0.1-0.1-0.2-0.2-0.3C7.1,29.5,7.1,29.5,7.3,29.5z M28,12.8c0,0-0.1-0.1-0.1-0.1c0,0-0.1,0.1-0.1,0.1c0,0,0.1,0.1,0.1,0.1
	C28,12.9,28,12.9,28,12.8z M13.2,17.7C13.2,17.7,13.3,17.8,13.2,17.7c0.1,0,0.2,0,0.2,0c0,0,0-0.1-0.1-0.1
	C13.2,17.6,13.2,17.7,13.2,17.7z M6.2,39.9 M4.3,16.2c0-0.1-0.1-0.1-0.1-0.2c0,0-0.1,0.1-0.2,0.2C4.2,16.2,4.3,16.2,4.3,16.2z
	 M2.6,5.7c-0.2-0.1-0.2,0-0.3,0.1C2.5,5.9,2.5,5.8,2.6,5.7z M21.2,39.5C21.2,39.5,21.2,39.5,21.2,39.5c-0.1,0.1-0.1,0.2-0.1,0.4
	C21.3,39.8,21.2,39.7,21.2,39.5z M12.9,39.6c0,0-0.1-0.1-0.1-0.1c0,0-0.1,0.1-0.1,0.1c0,0,0.1,0.1,0.1,0.1
	C12.9,39.7,12.9,39.6,12.9,39.6z M6,39.6C6,39.6,6.1,39.7,6,39.6c0.1,0,0.2,0,0.2,0c0,0,0-0.1-0.1-0.1C6.1,39.5,6,39.6,6,39.6z
	 M22,39.4c0,0-0.1,0.1-0.1,0.1c0.3,0,0.2-0.2,0.2-0.3C22.1,39.3,22.1,39.3,22,39.4z M7.8,5.2C7.8,5.3,7.7,5.4,7.7,5.5
	C7.8,5.4,8,5.4,7.8,5.2z M13.4,39.2c0-0.2,0-0.2-0.3-0.1C13.2,39.1,13.3,39.2,13.4,39.2z M3.1,5C3.1,5,3.1,5,3,5.1
	c0,0,0.1,0.1,0.1,0.1c0,0,0.1-0.1,0.1-0.1C3.2,5,3.2,4.9,3.1,5z M23.2,38.7c-0.1,0.1-0.1,0.2-0.2,0.3C23.2,38.9,23.2,38.9,23.2,38.7
	z M1.3,11.8c-0.1,0-0.2,0-0.3,0c0,0,0,0,0,0.1c0.1,0,0.1,0,0.2,0C1.1,11.9,1.2,11.9,1.3,11.8C1.3,11.9,1.3,11.9,1.3,11.8z
	 M39.8,38.7c0,0-0.1-0.1-0.1-0.1c0,0-0.1,0-0.1,0.1c0,0,0,0.1,0.1,0.2C39.8,38.7,39.8,38.7,39.8,38.7z M11.1,18.1
	C11,18.1,11,18.2,11.1,18.1c-0.1,0.1,0,0.2,0,0.2c0,0,0.1,0,0.1-0.1C11.1,18.2,11.1,18.2,11.1,18.1z M23.7,4.7
	c0.1-0.1,0.1-0.1,0.2-0.2c-0.1,0-0.2,0-0.3,0C23.7,4.6,23.7,4.6,23.7,4.7z M22.8,13.1c0.1,0.1,0.1,0.2,0.3,0.1
	C23,13.1,23,13,22.8,13.1z M5.1,4.4C5.1,4.4,5.1,4.5,5.1,4.4c0.2,0.1,0.2,0,0.2-0.1C5.2,4.3,5.1,4.2,5.1,4.4z M25.1,26.8
	c0,0.1,0,0.2,0,0.3c0,0,0,0,0.1,0C25.2,27,25.2,26.9,25.1,26.8C25.2,26.8,25.1,26.8,25.1,26.8z M8.5,32c0,0-0.1-0.1-0.1-0.1
	c0,0-0.1,0-0.1,0.1c0,0,0,0.1,0.1,0.2C8.5,32.1,8.5,32,8.5,32z M8.3,13.4c0,0-0.1-0.1-0.1-0.1c0,0-0.1,0.1-0.1,0.1
	c0,0,0.1,0.1,0.1,0.1C8.2,13.5,8.3,13.4,8.3,13.4z M0.9,32.9c0-0.2,0-0.2,0-0.4c-0.1,0.1-0.1,0.1-0.2,0.2
	C0.8,32.7,0.8,32.8,0.9,32.9z M16.4,38.1c0,0,0-0.1-0.1-0.1c0,0-0.1-0.1-0.1-0.1c0,0,0,0-0.1,0.1C16.2,38,16.3,38,16.4,38.1
	C16.3,38.1,16.4,38.1,16.4,38.1z M7.6,10.2c0.1-0.1,0.3-0.1,0.1-0.3C7.7,10,7.6,10.1,7.6,10.2z M7.1,0c0.1,0.1,0.2,0.1,0.2,0.2
	c0,0,0.1-0.1,0.2-0.2C7.3,0,7.2,0,7.1,0z M39.9,37.8C39.9,37.8,39.9,37.7,39.9,37.8c-0.2-0.1-0.2,0-0.2,0.1
	C39.8,37.9,39.9,38,39.9,37.8z M22.4,24.8c0.1,0,0.2,0,0.2,0c0,0,0,0,0,0C22.6,24.8,22.5,24.8,22.4,24.8
	C22.4,24.8,22.4,24.8,22.4,24.8z M31.7,16.9c-0.1,0-0.2,0-0.2,0c0,0,0,0.1-0.1,0.2C31.6,17.1,31.6,17,31.7,16.9z M24.8,23.9
	c0-0.1,0-0.2,0-0.2c0,0,0,0,0,0C24.8,23.7,24.8,23.8,24.8,23.9C24.8,23.9,24.8,23.9,24.8,23.9z M24.3,23.7c0.1,0,0.2,0,0.3,0
	c0,0,0,0,0,0C24.5,23.6,24.4,23.6,24.3,23.7C24.3,23.7,24.3,23.7,24.3,23.7z M34.8,25.6c0.2,0.1,0.3,0,0.2-0.1
	C34.9,25.6,34.9,25.6,34.8,25.6z M2.5,2.8c-0.1,0-0.1,0-0.2,0.1C2.5,2.9,2.5,2.9,2.5,2.8z M1.8,11.6c0-0.1,0-0.2,0-0.2c0,0,0,0,0,0
	C1.8,11.5,1.8,11.5,1.8,11.6C1.8,11.6,1.8,11.6,1.8,11.6z M3.1,23.5c0-0.1-0.1-0.1-0.2-0.3C2.9,23.5,3,23.6,3.1,23.5z M8.6,11.3
	c-0.1,0.2,0,0.3,0.1,0.2C8.7,11.5,8.6,11.4,8.6,11.3z M2.9,23.2c0,0-0.1,0-0.2,0c0,0,0,0,0,0C2.8,23.3,2.9,23.3,2.9,23.2
	C2.9,23.3,2.9,23.2,2.9,23.2z M0.9,24.2c0,0-0.1,0.1-0.2,0.1C0.9,24.4,1,24.3,0.9,24.2z M9.6,8.7c-0.1,0-0.2,0-0.3,0c0,0,0,0,0,0.1
	C9.4,8.8,9.5,8.8,9.6,8.7C9.6,8.8,9.6,8.8,9.6,8.7z M5.7,12c0.1-0.2,0-0.2-0.3-0.2C5.6,11.9,5.6,12,5.7,12z M14.9,26.6
	c0,0,0.1-0.1,0.2-0.1C14.9,26.5,14.8,26.5,14.9,26.6z M27.5,10.1c0,0.1,0,0.2,0,0.2c0,0,0,0,0,0C27.6,10.2,27.6,10.2,27.5,10.1
	C27.6,10.1,27.6,10.1,27.5,10.1z M25.2,22.2c0,0,0-0.1-0.1-0.2C25.1,22.2,25.1,22.2,25.2,22.2z M24,24.2c0,0.1,0,0.2,0.1,0.2
	C24.2,24.2,24.2,24.2,24,24.2z M20.4,12.3c0,0,0.1,0.1,0.1,0.2C20.6,12.3,20.5,12.2,20.4,12.3z M21.6,30.5c0,0,0.1,0,0.1,0
	c0,0,0-0.1,0-0.1C21.7,30.4,21.7,30.4,21.6,30.5C21.6,30.4,21.6,30.4,21.6,30.5C21.6,30.5,21.6,30.5,21.6,30.5z M10.3,38.7
	c-0.1,0-0.2,0-0.2,0c0,0,0,0,0,0C10.1,38.7,10.2,38.7,10.3,38.7C10.3,38.7,10.3,38.7,10.3,38.7z M1,5.1c0.1-0.1,0.1-0.2-0.1-0.2
	C1,4.9,1,5,1,5.1z M31.1,38.7c0-0.1,0-0.2,0-0.2c0,0,0,0,0,0C31,38.6,31,38.7,31.1,38.7C31,38.7,31.1,38.7,31.1,38.7z M14.5,30.8
	c-0.1,0-0.1,0.1-0.2,0.1C14.6,31,14.5,30.9,14.5,30.8z M14,31.2c0.1-0.2,0-0.3-0.1-0.2C13.9,31,14,31.1,14,31.2z M33.5,38.4
	c0,0,0,0.1,0,0.1c0,0,0.1,0,0.1,0C33.6,38.5,33.6,38.5,33.5,38.4C33.6,38.4,33.6,38.4,33.5,38.4C33.5,38.4,33.5,38.4,33.5,38.4z
	 M12.5,38.4c0.1-0.2,0.1-0.3-0.1-0.2C12.4,38.3,12.5,38.3,12.5,38.4z M33.7,21.3c0,0,0.1,0,0.1,0c0,0,0-0.1,0-0.1
	C33.8,21.2,33.8,21.2,33.7,21.3C33.7,21.2,33.7,21.2,33.7,21.3C33.7,21.3,33.7,21.3,33.7,21.3z M14.2,39.9 M19.4,38.1
	c0.1,0,0.2,0,0.2,0c0,0,0,0,0,0C19.5,38,19.4,38,19.4,38.1C19.4,38.1,19.4,38.1,19.4,38.1z M7,13.5c0-0.1,0-0.2,0-0.3c0,0,0,0-0.1,0
	C6.9,13.3,6.9,13.4,7,13.5C6.9,13.5,6.9,13.5,7,13.5z M17.8,38c0,0-0.1,0-0.1,0c0,0,0,0.1,0,0.1C17.7,38.1,17.8,38.1,17.8,38
	C17.8,38.1,17.8,38.1,17.8,38C17.8,38.1,17.8,38,17.8,38z M0.7,32.3c0,0.1,0.1,0.1,0.1,0.2C1,32.2,0.8,32.3,0.7,32.3z M0.8,4
	c0,0.1,0.1,0.1,0.1,0.2C1,4,1,4,0.8,4z M22.6,32.8c-0.1,0-0.2,0-0.2,0c0,0,0,0.1-0.1,0.2C22.4,32.8,22.5,32.8,22.6,32.8z M34.2,6.9
	c0.2,0.1,0.3,0,0.2-0.1C34.4,6.8,34.3,6.8,34.2,6.9z M6.8,33c0-0.1,0-0.2,0-0.2c0,0-0.1,0-0.2-0.1C6.6,32.9,6.7,33,6.8,33z M15,3.7
	c0,0-0.1,0.1-0.1,0.1C15,3.9,15,3.8,15,3.7z M25.5,27.9c-0.1,0.2,0,0.3,0.1,0.2C25.6,28.1,25.6,28,25.5,27.9z M19.8,0.1
	c0.1,0,0.2,0,0.3,0C20,0,20,0,19.8,0.1z M19.7,6.7c0,0.1,0.1,0.1,0.1,0.2C19.9,6.7,19.8,6.7,19.7,6.7z M16.5,29.5c0,0-0.1,0-0.1,0
	c0,0,0,0.1,0,0.1C16.4,29.6,16.5,29.6,16.5,29.5C16.5,29.6,16.5,29.5,16.5,29.5C16.5,29.5,16.5,29.5,16.5,29.5z M13,28.8
	c0,0,0.1-0.1,0.1-0.1C13,28.6,13,28.6,13,28.8z M34.3,33.1c0,0,0.1,0,0.1,0c0,0,0-0.1,0-0.1C34.4,33,34.3,33,34.3,33.1
	C34.3,33,34.3,33,34.3,33.1C34.3,33.1,34.3,33.1,34.3,33.1z M20.5,16.9c0.1-0.2,0-0.3-0.1-0.2C20.4,16.7,20.5,16.8,20.5,16.9z
	 M22.4,37.3c0,0,0.1-0.1,0.1-0.1C22.4,37.2,22.4,37.2,22.4,37.3z M39.8,37.1C39.8,37.1,39.8,37.2,39.8,37.1 M16,33.3
	c0.2,0.1,0.2,0,0.2-0.2C16.1,33.2,16,33.3,16,33.3z M39.6,37c0.2,0.1,0.3,0,0.2-0.1C39.8,36.9,39.7,36.9,39.6,37z M11.4,29.9
	c0,0,0.1-0.1,0.2-0.1C11.4,29.8,11.3,29.8,11.4,29.9z M14.4,36.3c0.1,0,0.1-0.1,0.2-0.1C14.4,36.1,14.4,36.2,14.4,36.3z M19.6,14.2
	c-0.1,0-0.1,0-0.2,0.1C19.6,14.3,19.7,14.3,19.6,14.2z M28.8,0.9c0,0.1-0.1,0.2-0.1,0.2C28.9,1.2,28.9,1.1,28.8,0.9z M17.5,36.1
	c0.1,0,0.1-0.1,0.2-0.1C17.5,35.8,17.5,35.9,17.5,36.1z M12.9,35.8c0,0.1,0.1,0.1,0.1,0.2C13.2,35.8,13.1,35.8,12.9,35.8z M2.9,39.4
	c-0.1,0-0.2,0-0.2,0c0,0,0,0,0,0C2.8,39.5,2.9,39.5,2.9,39.4C2.9,39.5,2.9,39.4,2.9,39.4z M19.8,1.3c-0.2-0.1-0.3-0.1-0.2,0.1
	C19.6,1.4,19.7,1.3,19.8,1.3z M14.7,10.4c0-0.1-0.1-0.1-0.1-0.2C14.4,10.5,14.5,10.4,14.7,10.4z M30.1,17.8c0,0-0.1,0-0.1,0
	c0.1,0.1,0.1,0.1,0.2,0.2C30.1,17.9,30.2,17.8,30.1,17.8z M20.8,1.5c0,0-0.1-0.1-0.1-0.2C20.6,1.5,20.7,1.6,20.8,1.5z M13.8,13.2
	c0-0.1,0-0.2,0-0.2c0,0,0,0,0,0C13.7,13,13.7,13.1,13.8,13.2C13.7,13.2,13.7,13.2,13.8,13.2z M19.6,35.4c0.2,0.1,0.3,0,0.2-0.1
	C19.8,35.3,19.7,35.3,19.6,35.4z M11,39.4c0,0,0-0.1,0-0.1c0,0-0.1,0-0.1,0C10.9,39.3,10.9,39.3,11,39.4C11,39.4,11,39.4,11,39.4
	C11,39.4,11,39.4,11,39.4z M17,12.6c0.1,0.1,0.2,0.1,0.2-0.1C17.1,12.5,17.1,12.6,17,12.6z M31,1.8c0.1,0,0.2,0,0.2,0c0,0,0,0,0,0
	C31.2,1.7,31.1,1.7,31,1.8C31,1.7,31,1.8,31,1.8z M36.1,34.8c0,0,0.1,0.1,0.1,0.1C36.2,34.8,36.2,34.8,36.1,34.8z M15.5,29.9
	c-0.1,0.2,0,0.3,0.1,0.2C15.5,30.1,15.5,30,15.5,29.9z M34.8,5.4c0,0,0.1,0.1,0.1,0.1C34.9,5.4,34.9,5.4,34.8,5.4z M10.1,30.1
	c-0.1,0-0.1,0.1-0.3,0.2C10.1,30.3,10.2,30.3,10.1,30.1z M24.4,23.9c0,0,0.1-0.1,0.1-0.1C24.4,23.8,24.4,23.8,24.4,23.9z M33.4,39.1
	c0,0.1,0,0.2,0,0.2c0,0,0,0,0,0C33.5,39.2,33.5,39.1,33.4,39.1C33.5,39.1,33.4,39.1,33.4,39.1z M15,5.3c0-0.1,0-0.1-0.1-0.2
	C14.9,5.3,14.9,5.4,15,5.3z M24.8,19.8c0-0.1-0.1-0.1-0.1-0.2C24.6,19.8,24.7,19.8,24.8,19.8z M28.2,19.7c0,0-0.1-0.1-0.1-0.1
	C28,19.7,28,19.7,28.2,19.7z M8.7,11c0,0.1,0,0.2,0,0.2c0,0,0,0,0,0C8.8,11.2,8.8,11.1,8.7,11C8.8,11,8.7,11,8.7,11z M6.7,33.7
	c0.1,0,0.2,0,0.2,0c0,0,0,0,0,0C6.9,33.6,6.8,33.6,6.7,33.7C6.7,33.6,6.7,33.6,6.7,33.7z M37.4,21.7c0,0,0.1-0.1,0.1-0.1
	C37.4,21.6,37.4,21.6,37.4,21.7z M7.9,0C8,0,8,0,8.1,0 M9.9,0.2c0,0.1,0,0.2,0.1,0.2C10,0.3,10.1,0.2,9.9,0.2z M6.1,0.6
	C6,0.6,6,0.6,6.1,0.6c0,0.1,0,0.1,0,0.2C6.1,0.7,6.1,0.7,6.1,0.6C6.1,0.6,6.1,0.6,6.1,0.6z M34.7,0.6C34.7,0.6,34.7,0.6,34.7,0.6
	c0,0.1,0,0.1,0,0.2C34.8,0.7,34.8,0.7,34.7,0.6C34.8,0.6,34.8,0.6,34.7,0.6z M17.8,1C17.8,1,17.8,1,17.8,1c-0.1,0.1,0,0.1,0,0.2
	c0,0,0.1,0,0.1,0C17.8,1,17.8,1,17.8,1z M15.9,1.7C15.8,1.7,15.8,1.8,15.9,1.7c-0.1,0.1,0,0.1,0,0.2c0,0,0.1,0,0.1,0
	C15.9,1.8,15.9,1.7,15.9,1.7z M16.5,1.7c0,0.1,0,0.1,0,0.2c0,0,0,0,0,0C16.5,1.8,16.5,1.8,16.5,1.7C16.5,1.7,16.5,1.7,16.5,1.7z
	 M38.9,2c-0.1,0-0.1,0-0.2,0c0,0,0,0,0,0C38.8,2,38.8,2,38.9,2C38.9,2,38.9,2,38.9,2z M8.8,2.3C8.8,2.3,8.8,2.3,8.8,2.3
	c-0.1-0.1-0.1,0-0.2,0c0,0,0,0.1,0,0.1C8.8,2.3,8.8,2.3,8.8,2.3z M17.3,2.3C17.3,2.3,17.3,2.3,17.3,2.3C17.4,2.3,17.4,2.3,17.3,2.3
	c0.1,0.1,0.1,0,0.1,0C17.4,2.3,17.4,2.3,17.3,2.3z M24.4,2.5c0,0-0.1-0.1-0.1-0.1c0,0.1,0,0.1,0,0.2C24.4,2.6,24.4,2.6,24.4,2.5z
	 M25.6,2.7C25.6,2.8,25.6,2.8,25.6,2.7c0,0.1,0,0.1,0,0.2C25.7,2.9,25.7,2.8,25.6,2.7C25.7,2.8,25.7,2.7,25.6,2.7z M34.3,2.8
	c-0.1,0-0.1,0-0.2,0c0,0,0,0,0,0C34.2,2.9,34.3,2.9,34.3,2.8C34.3,2.9,34.3,2.8,34.3,2.8z M17.9,4.1c-0.1,0-0.1,0-0.2,0c0,0,0,0,0,0
	C17.8,4.2,17.9,4.2,17.9,4.1C17.9,4.2,17.9,4.1,17.9,4.1z M25.9,4.6c0-0.1,0-0.1,0-0.2c0,0,0,0,0,0C25.9,4.5,25.9,4.5,25.9,4.6
	C25.9,4.6,25.9,4.6,25.9,4.6z M6,4.7c0,0-0.1,0-0.1,0C5.9,4.7,5.9,4.8,6,4.7C5.9,4.8,6,4.7,6,4.7C6,4.7,6,4.7,6,4.7z M28.6,5.3
	C28.6,5.3,28.6,5.3,28.6,5.3c0.1,0,0.1,0,0.2,0C28.7,5.2,28.7,5.2,28.6,5.3C28.6,5.2,28.6,5.3,28.6,5.3z M20,5.9c0,0-0.1,0-0.1,0
	C19.9,5.9,19.9,6,20,5.9C20,6,20,6,20,5.9C20.1,5.9,20.1,5.9,20,5.9z M6.1,6.7c0,0-0.1,0-0.1,0C6,6.8,6,6.8,6.1,6.7
	C6,6.8,6.1,6.8,6.1,6.7C6.1,6.8,6.1,6.7,6.1,6.7z M28,7.9c0,0,0,0.1,0,0.1C28.1,8,28.1,8,28,7.9C28.1,7.9,28.1,7.9,28,7.9
	C28,7.9,28,7.9,28,7.9z M34.8,8.1C34.8,8.1,34.7,8.2,34.8,8.1c-0.1,0.1,0,0.1,0,0.2c0,0,0.1,0,0.1,0C34.8,8.2,34.8,8.1,34.8,8.1z
	 M0.2,8.2C0.2,8.2,0.2,8.2,0.2,8.2C0.2,8.3,0.2,8.3,0.2,8.2c-0.1,0.1-0.1,0.1,0,0.1C0.2,8.3,0.3,8.3,0.2,8.2z M9.8,8.6
	C9.8,8.6,9.8,8.6,9.8,8.6C9.8,8.6,9.8,8.7,9.8,8.6c0.1,0.1,0.1,0,0.1,0C9.9,8.6,9.8,8.6,9.8,8.6z M24.9,9.7c0-0.1,0-0.1,0-0.2
	c0,0,0,0,0,0C24.9,9.6,24.9,9.6,24.9,9.7C24.9,9.7,24.9,9.7,24.9,9.7z M14.2,9.6c0,0.1,0,0.1,0,0.2c0,0,0,0,0,0
	C14.2,9.7,14.2,9.7,14.2,9.6C14.2,9.6,14.2,9.6,14.2,9.6z M27,10c0,0,0.1-0.1,0.1-0.1c-0.1,0-0.1,0-0.2,0C26.9,9.9,27,10,27,10z
	 M36.9,10C36.9,10,36.9,10,36.9,10c0,0.1,0,0.1,0,0.2C36.9,10.1,36.9,10.1,36.9,10C37,10,36.9,10,36.9,10z M7.5,10.5
	C7.5,10.5,7.5,10.4,7.5,10.5c-0.1-0.1-0.1,0-0.2,0c0,0,0,0.1,0,0.1C7.5,10.5,7.5,10.5,7.5,10.5z M12,10.6c0-0.1,0-0.1,0-0.2
	c0,0,0,0,0,0C11.9,10.5,11.9,10.6,12,10.6C11.9,10.6,11.9,10.6,12,10.6z M7.2,10.8c0,0-0.1-0.1-0.1-0.1c0,0.1,0,0.1,0,0.2
	C7.2,10.9,7.2,10.8,7.2,10.8z M30.4,11.3C30.4,11.3,30.3,11.3,30.4,11.3c-0.1,0.1,0,0.1,0,0.2c0,0,0.1,0,0.1,0
	C30.4,11.3,30.4,11.3,30.4,11.3z M0.8,11.9c0-0.1,0-0.1,0-0.2c0,0,0,0,0,0C0.7,11.8,0.7,11.9,0.8,11.9C0.8,11.9,0.8,11.9,0.8,11.9z
	 M11,11.7C11,11.8,11,11.8,11,11.7c-0.1,0.1,0,0.1,0,0.2c0,0,0.1,0,0.1,0C11,11.8,11,11.8,11,11.7z M3.9,12.3c0,0-0.1,0-0.1,0
	C3.8,12.3,3.8,12.4,3.9,12.3C3.9,12.4,3.9,12.4,3.9,12.3C4,12.3,3.9,12.3,3.9,12.3z M31.6,12.5c0.1,0,0.1,0,0.2,0c0,0,0,0,0,0
	C31.8,12.5,31.7,12.5,31.6,12.5C31.6,12.5,31.6,12.5,31.6,12.5z M13.4,12.9c0,0,0.1,0.1,0.1,0.1c0-0.1,0-0.1,0-0.2
	C13.4,12.9,13.4,12.9,13.4,12.9z M23.8,13.5c0,0,0,0.1,0,0.1C23.9,13.7,23.9,13.6,23.8,13.5C23.9,13.6,23.9,13.5,23.8,13.5
	C23.9,13.5,23.8,13.5,23.8,13.5z M19.4,13.9c0,0,0,0.1,0,0.1C19.5,14,19.5,14,19.4,13.9C19.5,14,19.5,13.9,19.4,13.9
	C19.5,13.9,19.4,13.9,19.4,13.9z M6.6,14.6C6.6,14.6,6.5,14.5,6.6,14.6C6.5,14.6,6.5,14.6,6.6,14.6c-0.1,0.1-0.1,0.1,0,0.1
	C6.6,14.6,6.6,14.6,6.6,14.6z M20.9,15c0,0-0.1,0-0.1,0C20.8,15,20.8,15.1,20.9,15C20.8,15.1,20.9,15.1,20.9,15
	C20.9,15,20.9,15,20.9,15z M18.1,15.1c0,0.1,0,0.1,0,0.2c0,0,0,0,0,0C18.1,15.2,18.1,15.1,18.1,15.1C18.1,15.1,18.1,15.1,18.1,15.1z
	 M24.2,15.6C24.2,15.6,24.2,15.6,24.2,15.6c0,0.1,0,0.1,0,0.2C24.3,15.7,24.3,15.7,24.2,15.6C24.3,15.6,24.3,15.6,24.2,15.6z
	 M6.1,16.2C6.2,16.3,6.2,16.3,6.1,16.2c0.1,0,0.1,0,0.2,0C6.3,16.2,6.2,16.2,6.1,16.2C6.2,16.2,6.1,16.2,6.1,16.2z M24.2,16.3
	c0,0.1,0,0.1,0,0.2c0,0,0,0,0,0C24.3,16.4,24.3,16.3,24.2,16.3C24.2,16.3,24.2,16.3,24.2,16.3z M32.5,16.6c0,0.1,0,0.1,0,0.2
	c0,0,0,0,0,0C32.5,16.7,32.5,16.6,32.5,16.6C32.5,16.6,32.5,16.6,32.5,16.6z M10.6,17.8c0,0-0.1,0-0.1,0
	C10.5,17.8,10.5,17.9,10.6,17.8C10.6,17.9,10.6,17.8,10.6,17.8C10.7,17.8,10.6,17.8,10.6,17.8z M11.3,18.2
	C11.3,18.2,11.3,18.3,11.3,18.2C11.3,18.3,11.3,18.3,11.3,18.2c0.1,0.1,0.1,0,0.1,0C11.4,18.2,11.3,18.2,11.3,18.2z M36.9,18.3
	C36.9,18.3,36.9,18.2,36.9,18.3c-0.1-0.1-0.1,0-0.2,0c0,0,0,0.1,0,0.1C36.9,18.3,36.9,18.3,36.9,18.3z M5.9,19.5
	C5.9,19.5,5.9,19.6,5.9,19.5C5.9,19.6,5.9,19.6,5.9,19.5c0.1,0.1,0.1,0,0.1,0C6,19.5,5.9,19.5,5.9,19.5z M24.1,19.6c0,0,0.1,0,0.1,0
	c-0.1,0-0.1,0-0.2-0.1C24,19.6,24,19.6,24.1,19.6z M24.3,20c0,0,0,0.1,0,0.1C24.3,20.2,24.4,20.1,24.3,20
	C24.4,20.1,24.4,20.1,24.3,20C24.3,20,24.3,20,24.3,20z M6.8,20.8c0,0-0.1-0.1-0.1-0.1c0,0.1,0,0.1,0,0.2
	C6.7,20.8,6.8,20.8,6.8,20.8z M17.6,21c0-0.1,0-0.1,0-0.2c0,0,0,0,0,0C17.6,20.9,17.6,21,17.6,21C17.6,21,17.6,21,17.6,21z
	 M8.8,21.2C8.7,21.2,8.7,21.3,8.8,21.2c0,0.1,0,0.1,0,0.2C8.8,21.4,8.8,21.3,8.8,21.2C8.8,21.2,8.8,21.2,8.8,21.2z M12.1,22.9
	c0,0,0,0.1,0,0.1c0-0.1,0-0.1,0.1-0.2C12.1,22.9,12.1,22.9,12.1,22.9z M15.4,22.9C15.4,22.9,15.3,22.9,15.4,22.9c0,0.1,0,0.1,0,0.2
	C15.4,23,15.4,23,15.4,22.9C15.4,22.9,15.4,22.9,15.4,22.9z M12.5,23.6c-0.1,0-0.1,0-0.2,0c0,0,0,0,0,0
	C12.4,23.6,12.5,23.6,12.5,23.6C12.5,23.6,12.5,23.6,12.5,23.6z M28.3,23.9c0,0,0,0.1,0,0.1C28.3,24.1,28.4,24,28.3,23.9
	C28.4,24,28.4,24,28.3,23.9C28.3,23.9,28.3,23.9,28.3,23.9z M9.8,24.3c0,0,0,0.1,0,0.1c0-0.1,0-0.1,0.1-0.2
	C9.9,24.3,9.8,24.3,9.8,24.3z M23,24.5c0,0,0.1-0.1,0.1-0.1c-0.1,0-0.1,0-0.2,0C22.9,24.5,23,24.6,23,24.5z M10.7,24.8
	c0,0,0,0.1,0,0.1C10.7,24.9,10.8,24.9,10.7,24.8C10.8,24.8,10.8,24.8,10.7,24.8C10.7,24.8,10.7,24.8,10.7,24.8z M1.2,24.9
	C1.2,24.9,1.3,24.9,1.2,24.9c0.1,0,0.1,0,0.2,0C1.3,24.8,1.3,24.8,1.2,24.9C1.2,24.8,1.2,24.9,1.2,24.9z M13.8,25.2
	C13.8,25.1,13.8,25.1,13.8,25.2C13.8,25.2,13.8,25.2,13.8,25.2c-0.1,0.1-0.1,0.1,0,0.1C13.8,25.2,13.8,25.2,13.8,25.2z M2.4,26
	C2.4,26,2.4,26,2.4,26C2.3,26,2.3,26,2.4,26c-0.1,0.1-0.1,0.1,0,0.1C2.4,26.1,2.4,26,2.4,26z M34.7,26C34.6,26,34.6,26,34.7,26
	c0,0.1,0,0.1,0,0.2C34.7,26.1,34.7,26.1,34.7,26C34.7,26,34.7,26,34.7,26z M13.9,26.3c0-0.1,0-0.1,0-0.2c0,0,0,0,0,0
	C13.9,26.2,13.9,26.3,13.9,26.3C13.9,26.3,13.9,26.3,13.9,26.3z M8.1,26.5C8.1,26.5,8.1,26.5,8.1,26.5C8.1,26.6,8.2,26.6,8.1,26.5
	c0.1,0.1,0.1,0,0.1,0C8.2,26.5,8.2,26.5,8.1,26.5z M9.5,26.7c0,0,0,0.1,0,0.1C9.5,26.8,9.6,26.8,9.5,26.7
	C9.6,26.8,9.6,26.7,9.5,26.7C9.5,26.7,9.5,26.7,9.5,26.7z M14.9,26.8c0.1,0,0.1,0,0.2,0c0,0,0,0,0,0C15,26.8,14.9,26.8,14.9,26.8
	C14.9,26.8,14.9,26.8,14.9,26.8z M8.9,26.9C8.9,26.9,8.8,26.9,8.9,26.9c-0.1-0.1-0.1,0-0.2,0c0,0,0,0.1,0,0.1
	C8.8,27,8.9,26.9,8.9,26.9z M24.3,27.4c0,0,0.1,0,0.1,0c-0.1,0-0.1,0-0.2-0.1C24.3,27.4,24.3,27.4,24.3,27.4z M24.6,27.5
	c0,0-0.1-0.1-0.1-0.1c0,0.1,0,0.1,0,0.2C24.5,27.6,24.6,27.6,24.6,27.5z M14.3,27.6C14.3,27.7,14.2,27.7,14.3,27.6
	c-0.1,0.1,0,0.1,0,0.2c0,0,0.1,0,0.1,0C14.3,27.7,14.3,27.7,14.3,27.6z M23.5,27.6C23.5,27.7,23.5,27.7,23.5,27.6
	c-0.1,0.1,0,0.1,0,0.2c0,0,0.1,0,0.1,0C23.5,27.7,23.5,27.7,23.5,27.6z M24.3,27.6C24.3,27.7,24.3,27.7,24.3,27.6c0,0.1,0,0.1,0,0.2
	C24.4,27.8,24.4,27.7,24.3,27.6C24.4,27.7,24.3,27.6,24.3,27.6z M12.8,27.9c0,0-0.1,0-0.1,0C12.7,27.9,12.7,28,12.8,27.9
	C12.7,28,12.8,28,12.8,27.9C12.8,27.9,12.8,27.9,12.8,27.9z M36.5,28.2C36.5,28.2,36.4,28.2,36.5,28.2
	C36.4,28.2,36.4,28.3,36.5,28.2c-0.1,0.1-0.1,0.1,0,0.1C36.5,28.3,36.5,28.3,36.5,28.2z M37.7,28.2c0,0,0,0.1,0,0.1
	c0-0.1,0-0.1,0.1-0.2C37.7,28.2,37.7,28.2,37.7,28.2z M1.7,28.6c0.1,0,0.1,0,0.2,0c0,0,0,0,0,0C1.9,28.6,1.8,28.6,1.7,28.6
	C1.7,28.6,1.7,28.6,1.7,28.6z M6.7,28.6C6.6,28.6,6.6,28.6,6.7,28.6c-0.1-0.1-0.1,0-0.2,0c0,0,0,0.1,0,0.1
	C6.6,28.6,6.6,28.6,6.7,28.6z M18,28.7C18,28.7,18,28.7,18,28.7C18,28.7,18,28.7,18,28.7c-0.1,0.1-0.1,0.1,0,0.1
	C18,28.8,18,28.7,18,28.7z M16.5,29c0-0.1,0-0.1,0-0.2c0,0,0,0,0,0C16.5,28.9,16.5,28.9,16.5,29C16.5,29,16.5,29,16.5,29z M3.9,29.6
	c0-0.1,0-0.1,0-0.2c0,0,0,0,0,0C3.8,29.4,3.8,29.5,3.9,29.6C3.8,29.6,3.8,29.6,3.9,29.6z M18.4,29.7c0-0.1,0-0.1,0-0.2c0,0,0,0,0,0
	C18.3,29.5,18.3,29.6,18.4,29.7C18.4,29.7,18.4,29.7,18.4,29.7z M8.2,29.7C8.2,29.7,8.2,29.7,8.2,29.7c-0.1,0.1,0,0.1,0,0.2
	c0,0,0.1,0,0.1,0C8.3,29.7,8.2,29.7,8.2,29.7z M31.7,29.8c0,0,0-0.1,0-0.1c0,0.1,0,0.1-0.1,0.2C31.7,29.8,31.7,29.8,31.7,29.8z
	 M11.6,29.8C11.7,29.8,11.7,29.8,11.6,29.8c0.1,0,0.1,0,0.2,0C11.8,29.8,11.7,29.8,11.6,29.8C11.7,29.7,11.6,29.8,11.6,29.8z
	 M24,29.9C23.9,29.9,23.9,30,24,29.9C24,30,24,30,24,29.9c0.1,0.1,0.1,0,0.1,0C24,29.9,24,29.9,24,29.9z M22.8,30.2
	C22.8,30.2,22.7,30.1,22.8,30.2c-0.1-0.1-0.1,0-0.2,0c0,0,0,0.1,0,0.1C22.7,30.2,22.8,30.2,22.8,30.2z M19.7,30.3c0,0.1,0,0.1,0,0.2
	c0,0,0,0,0,0C19.8,30.4,19.8,30.4,19.7,30.3C19.8,30.3,19.8,30.3,19.7,30.3z M7,30.6C7,30.6,7,30.7,7,30.6c-0.1,0.1,0,0.1,0,0.2
	c0,0,0.1,0,0.1,0C7,30.7,7,30.6,7,30.6z M10.1,30.6C10.1,30.6,10,30.7,10.1,30.6c0,0.1,0,0.1,0,0.2C10.1,30.7,10.1,30.7,10.1,30.6
	C10.1,30.6,10.1,30.6,10.1,30.6z M4.9,30.7C4.9,30.7,4.8,30.7,4.9,30.7c-0.1-0.1-0.1,0-0.2,0c0,0,0,0.1,0,0.1
	C4.8,30.8,4.9,30.8,4.9,30.7z M15.7,30.8c0,0,0,0.1,0,0.1C15.8,30.9,15.8,30.9,15.7,30.8C15.8,30.9,15.8,30.8,15.7,30.8
	C15.8,30.8,15.7,30.8,15.7,30.8z M4.3,31c-0.1,0-0.1,0-0.2,0c0,0,0,0,0,0C4.1,31,4.2,31,4.3,31C4.3,31,4.3,31,4.3,31z M3.9,31.8
	c0,0,0,0.1,0,0.1C3.9,31.9,4,31.9,3.9,31.8C4,31.8,4,31.8,3.9,31.8C3.9,31.7,3.9,31.7,3.9,31.8z M11.7,31.9c0,0,0,0.1,0,0.1
	c0-0.1,0-0.1,0.1-0.2C11.7,31.9,11.7,31.9,11.7,31.9z M3.6,32c0,0-0.1,0-0.1,0C3.4,32,3.5,32.1,3.6,32C3.5,32.1,3.6,32.1,3.6,32
	C3.6,32,3.6,32,3.6,32z M11.6,32.2c0,0,0.1-0.1,0.1-0.1c-0.1,0-0.1,0-0.2,0C11.6,32.1,11.6,32.2,11.6,32.2z M22.7,33.1
	c0,0,0,0.1,0,0.1C22.8,33.3,22.8,33.2,22.7,33.1C22.8,33.2,22.8,33.1,22.7,33.1C22.7,33.1,22.7,33.1,22.7,33.1z M14.9,34.2
	C14.9,34.2,14.9,34.2,14.9,34.2c0.1,0,0.1,0,0.2,0C15,34.1,15,34.1,14.9,34.2C14.9,34.1,14.9,34.1,14.9,34.2z M23.4,34.2
	c0,0,0.1,0.1,0.1,0.1c0-0.1,0-0.1,0-0.2C23.4,34.1,23.3,34.2,23.4,34.2z M6.6,34.4C6.6,34.3,6.5,34.3,6.6,34.4
	C6.5,34.4,6.5,34.4,6.6,34.4c-0.1,0.1-0.1,0.1,0,0.1C6.6,34.4,6.6,34.4,6.6,34.4z M28.9,34.5C28.9,34.5,28.8,34.6,28.9,34.5
	c0,0.1,0,0.1,0,0.2C28.9,34.6,28.9,34.6,28.9,34.5C28.9,34.5,28.9,34.5,28.9,34.5z M15.7,35.1C15.6,35.1,15.6,35.1,15.7,35.1
	c0,0.1,0,0.1,0,0.2C15.7,35.2,15.7,35.2,15.7,35.1C15.7,35.1,15.7,35.1,15.7,35.1z M7.7,35.3c0-0.1,0-0.1,0-0.2c0,0,0,0,0,0
	C7.6,35.2,7.6,35.3,7.7,35.3C7.6,35.3,7.7,35.3,7.7,35.3z M21,35.1c0,0.1,0,0.1,0,0.2c0,0,0,0,0,0C21.1,35.3,21.1,35.2,21,35.1
	C21.1,35.1,21.1,35.1,21,35.1z M26.2,35.2C26.2,35.2,26.2,35.3,26.2,35.2C26.2,35.3,26.2,35.3,26.2,35.2c0.1,0.1,0.1,0,0.1,0
	C26.3,35.2,26.2,35.2,26.2,35.2z M5.6,35.5c0.1,0,0.1,0,0.2,0c0,0,0,0,0,0C5.7,35.4,5.6,35.4,5.6,35.5C5.6,35.5,5.6,35.5,5.6,35.5z
	 M7.8,35.4c0,0-0.1,0-0.1,0C7.7,35.5,7.7,35.5,7.8,35.4C7.8,35.5,7.8,35.5,7.8,35.4C7.9,35.5,7.9,35.4,7.8,35.4z M15.2,35.6
	c0,0,0.1-0.1,0.1-0.1c-0.1,0-0.1,0-0.2,0C15.2,35.6,15.2,35.6,15.2,35.6z M23.7,35.5c0,0.1,0,0.1,0,0.2c0,0,0,0,0,0
	C23.7,35.6,23.7,35.6,23.7,35.5C23.7,35.5,23.7,35.5,23.7,35.5z M4,35.9c0,0-0.1,0-0.1,0C3.9,35.9,3.9,36,4,35.9C4,36,4,36,4,35.9
	C4,35.9,4,35.9,4,35.9z M9.7,36.5c0-0.1,0-0.1,0-0.2c0,0,0,0,0,0C9.7,36.4,9.7,36.5,9.7,36.5C9.7,36.5,9.7,36.5,9.7,36.5z
	 M17.7,36.4C17.7,36.4,17.7,36.4,17.7,36.4C17.7,36.4,17.8,36.4,17.7,36.4c0.1,0.1,0.1,0.1,0.1,0C17.8,36.4,17.8,36.3,17.7,36.4z
	 M39.7,36.6c0,0-0.1,0-0.1,0C39.6,36.7,39.6,36.7,39.7,36.6C39.6,36.7,39.7,36.7,39.7,36.6C39.7,36.7,39.7,36.6,39.7,36.6z
	 M5.8,36.8c0,0,0,0.1,0,0.1C5.9,36.9,5.9,36.9,5.8,36.8C5.9,36.8,5.9,36.8,5.8,36.8C5.9,36.7,5.8,36.8,5.8,36.8z M2.7,37.2
	C2.6,37.1,2.6,37.1,2.7,37.2c-0.1-0.1-0.1,0-0.2,0c0,0,0,0.1,0,0.1C2.6,37.2,2.6,37.2,2.7,37.2z M7.4,37.3c0,0.1,0,0.1,0,0.2
	c0,0,0,0,0,0C7.4,37.4,7.4,37.3,7.4,37.3C7.4,37.3,7.4,37.3,7.4,37.3z M18.8,37.3C18.8,37.3,18.7,37.3,18.8,37.3
	C18.7,37.3,18.7,37.4,18.8,37.3c-0.1,0.1-0.1,0.1,0,0.1C18.8,37.4,18.8,37.4,18.8,37.3z M31.7,37.3c0.1,0,0.1,0,0.2,0c0,0,0,0,0,0
	C31.9,37.3,31.8,37.3,31.7,37.3C31.7,37.3,31.7,37.3,31.7,37.3z M2.8,37.5c0,0-0.1,0-0.1,0C2.7,37.5,2.7,37.6,2.8,37.5
	C2.8,37.6,2.8,37.5,2.8,37.5C2.8,37.5,2.8,37.5,2.8,37.5z M16.4,37.6c0-0.1,0-0.1,0-0.2c0,0,0,0,0,0C16.4,37.5,16.4,37.6,16.4,37.6
	C16.4,37.6,16.4,37.6,16.4,37.6z M31.6,37.5c0,0,0,0.1,0,0.1C31.6,37.6,31.6,37.6,31.6,37.5C31.6,37.6,31.6,37.5,31.6,37.5
	C31.6,37.5,31.6,37.5,31.6,37.5z M10.1,37.7c0,0,0,0.1,0,0.1C10.2,37.8,10.2,37.8,10.1,37.7C10.2,37.7,10.2,37.7,10.1,37.7
	C10.2,37.7,10.1,37.7,10.1,37.7z M0.8,38.1c0-0.1,0-0.1,0-0.2c0,0,0,0,0,0C0.7,38,0.7,38.1,0.8,38.1C0.8,38.1,0.8,38.1,0.8,38.1z
	 M6.6,37.9C6.6,37.9,6.6,38,6.6,37.9C6.6,38,6.7,38,6.6,37.9c0.1,0.1,0.1,0,0.1,0C6.7,37.9,6.7,37.9,6.6,37.9z M21.9,37.9
	C21.9,38,21.9,38,21.9,37.9c-0.1,0.1,0,0.1,0,0.2c0,0,0.1,0,0.1,0C21.9,38,21.9,38,21.9,37.9z M31,37.9c0,0-0.1,0.1-0.1,0.1
	c0.1,0,0.1,0,0.2,0C31.1,38,31,37.9,31,37.9z M18.7,38C18.7,38,18.7,38.1,18.7,38C18.7,38.1,18.8,38.1,18.7,38c0.1,0.1,0.1,0,0.1,0
	C18.8,38,18.8,38,18.7,38z M24.9,38c0,0-0.1,0.1-0.1,0.1c0.1,0,0.1,0,0.2,0C24.9,38,24.9,38,24.9,38z M22.3,38.1
	C22.3,38.2,22.2,38.2,22.3,38.1c0,0.1,0,0.1,0,0.2C22.3,38.3,22.3,38.2,22.3,38.1C22.3,38.2,22.3,38.1,22.3,38.1z M10.4,38.3
	c0.1,0,0.1,0,0.2,0c0,0,0,0,0,0C10.5,38.2,10.5,38.2,10.4,38.3C10.4,38.2,10.4,38.3,10.4,38.3z M23.8,38.4c0,0-0.1,0-0.1,0
	C23.7,38.4,23.7,38.5,23.8,38.4C23.7,38.5,23.8,38.5,23.8,38.4C23.8,38.4,23.8,38.4,23.8,38.4z M19.9,38.6c-0.1,0-0.1,0-0.2,0
	c0,0,0,0,0,0C19.8,38.6,19.8,38.6,19.9,38.6C19.9,38.6,19.9,38.6,19.9,38.6z M23.8,38.6c0,0.1,0,0.1,0,0.2c0,0,0,0,0,0
	C23.9,38.7,23.9,38.6,23.8,38.6C23.9,38.6,23.9,38.6,23.8,38.6z M39.3,38.8C39.3,38.7,39.2,38.7,39.3,38.8c-0.1-0.1-0.1,0-0.2,0
	C39.2,38.8,39.2,38.8,39.3,38.8z M33.1,38.9C33.1,38.9,33,38.9,33.1,38.9c0,0.1,0,0.1,0,0.2C33.1,39,33.1,39,33.1,38.9
	C33.1,38.9,33.1,38.9,33.1,38.9z M35.7,38.9C35.7,38.9,35.7,39,35.7,38.9c0.1,0,0.1,0,0.2,0C35.8,38.9,35.8,38.9,35.7,38.9
	C35.7,38.9,35.7,38.9,35.7,38.9z M34.5,39.1C34.5,39.1,34.5,39.1,34.5,39.1c-0.1-0.1-0.1,0-0.2,0c0,0,0,0.1,0,0.1
	C34.5,39.1,34.5,39.1,34.5,39.1z M21.1,39.2C21.1,39.2,21,39.3,21.1,39.2C21.1,39.3,21.1,39.3,21.1,39.2c0.1,0.1,0.1,0,0.1,0
	C21.2,39.2,21.1,39.2,21.1,39.2z M0.8,39.3c-0.1,0-0.1,0-0.2,0c0,0,0,0,0,0C0.7,39.4,0.7,39.4,0.8,39.3C0.8,39.4,0.8,39.4,0.8,39.3z
	 M39.8,39.8c0,0,0.1-0.1,0.1-0.1c-0.1,0-0.1,0-0.2,0C39.8,39.8,39.8,39.8,39.8,39.8z M25.8,40 M30.9,28.8
	C30.9,28.8,30.9,28.8,30.9,28.8C30.9,28.9,30.9,28.9,30.9,28.8C31,28.9,31,28.9,30.9,28.8C31,28.9,31,28.8,30.9,28.8z M28.7,19.7
	C28.7,19.7,28.6,19.7,28.7,19.7C28.6,19.6,28.6,19.7,28.7,19.7C28.6,19.7,28.6,19.7,28.7,19.7C28.6,19.7,28.6,19.7,28.7,19.7z
	 M12.8,6.3C12.8,6.3,12.8,6.3,12.8,6.3C12.8,6.3,12.7,6.3,12.8,6.3C12.8,6.3,12.8,6.3,12.8,6.3C12.8,6.3,12.8,6.3,12.8,6.3z
	 M12.4,6.2C12.4,6.2,12.4,6.2,12.4,6.2C12.4,6.2,12.4,6.2,12.4,6.2C12.4,6.2,12.4,6.2,12.4,6.2C12.4,6.2,12.4,6.2,12.4,6.2z
	 M14.7,6.2C14.7,6.1,14.8,6.1,14.7,6.2C14.8,6.1,14.7,6.1,14.7,6.2C14.7,6.1,14.7,6.1,14.7,6.2C14.7,6.1,14.7,6.1,14.7,6.2z
	 M13.2,6.1C13.1,6.1,13.1,6.1,13.2,6.1C13.1,6.1,13.1,6.1,13.2,6.1C13.2,6.1,13.2,6.1,13.2,6.1C13.2,6.1,13.2,6.1,13.2,6.1z
	 M15.6,19.7C15.6,19.8,15.7,19.8,15.6,19.7C15.7,19.8,15.7,19.8,15.6,19.7C15.7,19.8,15.7,19.7,15.6,19.7
	C15.7,19.7,15.6,19.7,15.6,19.7z M11.3,29.3C11.3,29.3,11.3,29.3,11.3,29.3C11.3,29.3,11.3,29.3,11.3,29.3
	C11.3,29.3,11.3,29.4,11.3,29.3C11.3,29.4,11.3,29.3,11.3,29.3z M32.9,29.4C32.8,29.4,32.8,29.3,32.9,29.4
	C32.8,29.3,32.8,29.3,32.9,29.4C32.8,29.3,32.8,29.4,32.9,29.4C32.8,29.4,32.8,29.4,32.9,29.4z M20.4,6C20.4,6,20.3,6,20.4,6
	C20.3,6,20.3,6,20.4,6C20.3,6,20.3,6,20.4,6C20.4,6,20.4,6,20.4,6z M28.7,19.7C28.7,19.7,28.7,19.7,28.7,19.7
	C28.7,19.8,28.7,19.8,28.7,19.7C28.7,19.8,28.7,19.8,28.7,19.7C28.7,19.8,28.7,19.7,28.7,19.7z M32.9,29.4
	C32.9,29.4,32.9,29.4,32.9,29.4C32.9,29.4,32.9,29.5,32.9,29.4C32.9,29.5,32.9,29.4,32.9,29.4C32.9,29.4,32.9,29.4,32.9,29.4z
	 M1,29.5C1,29.5,1,29.5,1,29.5C1,29.5,1,29.6,1,29.5C1.1,29.5,1.1,29.5,1,29.5C1.1,29.5,1.1,29.5,1,29.5z M13.7,29.6
	C13.7,29.5,13.7,29.5,13.7,29.6C13.7,29.5,13.7,29.5,13.7,29.6C13.7,29.5,13.7,29.5,13.7,29.6C13.7,29.5,13.7,29.6,13.7,29.6z
	 M21.9,29.5C21.9,29.5,21.9,29.5,21.9,29.5C21.9,29.6,21.9,29.5,21.9,29.5C21.9,29.5,21.9,29.5,21.9,29.5
	C21.9,29.5,21.9,29.5,21.9,29.5z M38.8,29.5C38.8,29.5,38.8,29.5,38.8,29.5C38.7,29.5,38.7,29.5,38.8,29.5
	C38.7,29.5,38.8,29.5,38.8,29.5C38.8,29.5,38.8,29.5,38.8,29.5z M40,29.5C40,29.5,39.9,29.5,40,29.5C40,29.5,40,29.5,40,29.5
	 M31.7,29.6C31.7,29.6,31.8,29.6,31.7,29.6C31.8,29.6,31.8,29.6,31.7,29.6C31.8,29.6,31.8,29.6,31.7,29.6
	C31.8,29.6,31.8,29.6,31.7,29.6z M33.1,29.7C33.1,29.7,33.1,29.7,33.1,29.7C33,29.7,33.1,29.7,33.1,29.7
	C33.1,29.7,33.1,29.7,33.1,29.7C33.1,29.7,33.1,29.7,33.1,29.7z M10.4,5.6C10.4,5.6,10.4,5.6,10.4,5.6C10.3,5.6,10.3,5.7,10.4,5.6
	C10.4,5.7,10.4,5.7,10.4,5.6C10.4,5.6,10.4,5.6,10.4,5.6z M10.4,5.6C10.4,5.6,10.4,5.6,10.4,5.6C10.5,5.6,10.5,5.6,10.4,5.6
	C10.5,5.5,10.5,5.5,10.4,5.6C10.4,5.5,10.4,5.5,10.4,5.6z M9.1,5.6C9.1,5.6,9.1,5.6,9.1,5.6C9.1,5.5,9.1,5.5,9.1,5.6
	C9,5.5,9,5.5,9.1,5.6C9,5.6,9,5.6,9.1,5.6z M9.4,30C9.4,30.1,9.4,30.1,9.4,30C9.4,30.1,9.4,30.1,9.4,30C9.4,30.1,9.4,30.1,9.4,30
	C9.4,30.1,9.4,30,9.4,30z M11.4,30.1C11.4,30.1,11.5,30.1,11.4,30.1C11.5,30.1,11.5,30.1,11.4,30.1C11.5,30.1,11.5,30.1,11.4,30.1
	C11.4,30.1,11.4,30.1,11.4,30.1z M20.4,30.2C20.4,30.2,20.3,30.1,20.4,30.2C20.3,30.1,20.3,30.2,20.4,30.2
	C20.3,30.2,20.3,30.2,20.4,30.2C20.3,30.2,20.4,30.2,20.4,30.2z M26.3,5.3C26.3,5.3,26.4,5.3,26.3,5.3C26.4,5.3,26.4,5.3,26.3,5.3
	C26.4,5.3,26.4,5.3,26.3,5.3C26.4,5.2,26.4,5.3,26.3,5.3z M9.3,30.3C9.3,30.3,9.3,30.3,9.3,30.3C9.4,30.3,9.4,30.3,9.3,30.3
	C9.4,30.3,9.3,30.2,9.3,30.3C9.3,30.2,9.3,30.3,9.3,30.3z M9.9,30.3C9.9,30.3,9.9,30.3,9.9,30.3C9.9,30.3,9.9,30.4,9.9,30.3
	C9.9,30.4,9.9,30.4,9.9,30.3C9.9,30.3,9.9,30.3,9.9,30.3z M12,30.4C12,30.4,12.1,30.4,12,30.4C12.1,30.3,12,30.3,12,30.4
	C12,30.3,12,30.3,12,30.4C12,30.4,12,30.4,12,30.4z M10.2,30.4C10.2,30.4,10.2,30.4,10.2,30.4C10.1,30.4,10.1,30.4,10.2,30.4
	C10.1,30.5,10.2,30.5,10.2,30.4C10.2,30.5,10.2,30.5,10.2,30.4z M5.7,30.5C5.7,30.6,5.7,30.6,5.7,30.5C5.7,30.6,5.7,30.6,5.7,30.5
	C5.7,30.5,5.7,30.5,5.7,30.5C5.7,30.5,5.7,30.5,5.7,30.5z M15.8,30.5C15.8,30.6,15.8,30.6,15.8,30.5C15.9,30.6,15.9,30.6,15.8,30.5
	C15.9,30.5,15.9,30.5,15.8,30.5C15.8,30.5,15.8,30.5,15.8,30.5z M14.3,30.6C14.3,30.6,14.2,30.6,14.3,30.6
	C14.2,30.6,14.3,30.7,14.3,30.6C14.3,30.7,14.3,30.7,14.3,30.6C14.3,30.6,14.3,30.6,14.3,30.6z M13.2,4.9
	C13.2,4.9,13.2,4.9,13.2,4.9C13.1,4.9,13.1,4.9,13.2,4.9C13.1,4.9,13.1,4.9,13.2,4.9C13.2,4.9,13.2,4.9,13.2,4.9z M19.7,30.8
	C19.7,30.8,19.6,30.8,19.7,30.8C19.6,30.8,19.7,30.9,19.7,30.8C19.7,30.8,19.7,30.8,19.7,30.8C19.7,30.8,19.7,30.8,19.7,30.8z
	 M18.9,20.2C18.9,20.2,18.9,20.3,18.9,20.2C18.9,20.3,19,20.3,18.9,20.2C19,20.2,18.9,20.2,18.9,20.2C18.9,20.2,18.9,20.2,18.9,20.2
	z M29.1,4.5C29.1,4.5,29.2,4.6,29.1,4.5C29.2,4.6,29.2,4.6,29.1,4.5C29.2,4.5,29.2,4.5,29.1,4.5C29.2,4.5,29.1,4.5,29.1,4.5z
	 M23.2,20.2C23.2,20.2,23.2,20.2,23.2,20.2C23.2,20.3,23.2,20.3,23.2,20.2C23.2,20.3,23.2,20.2,23.2,20.2
	C23.2,20.2,23.2,20.2,23.2,20.2z M24,31.1C24,31.1,23.9,31.1,24,31.1C23.9,31.1,23.9,31.1,24,31.1C24,31.1,24,31.1,24,31.1
	C24,31.1,24,31.1,24,31.1z M22.9,4.5C22.9,4.5,22.9,4.5,22.9,4.5C22.9,4.5,22.9,4.6,22.9,4.5C22.9,4.6,23,4.5,22.9,4.5
	C23,4.5,22.9,4.5,22.9,4.5z M19.6,4.5C19.6,4.5,19.6,4.5,19.6,4.5C19.5,4.6,19.6,4.6,19.6,4.5C19.6,4.6,19.6,4.5,19.6,4.5
	C19.6,4.5,19.6,4.5,19.6,4.5z M19,31.2C19,31.2,19,31.2,19,31.2C19,31.2,19,31.2,19,31.2C19,31.2,19,31.2,19,31.2
	C19.1,31.2,19,31.2,19,31.2z M7.5,4.5C7.5,4.5,7.4,4.5,7.5,4.5C7.4,4.5,7.5,4.6,7.5,4.5C7.5,4.6,7.5,4.6,7.5,4.5
	C7.5,4.5,7.5,4.5,7.5,4.5z M3.4,31.3C3.4,31.4,3.3,31.4,3.4,31.3C3.3,31.4,3.4,31.4,3.4,31.3C3.4,31.4,3.4,31.4,3.4,31.3
	C3.4,31.4,3.4,31.3,3.4,31.3z M20,31.3C19.9,31.4,19.9,31.4,20,31.3C19.9,31.4,19.9,31.4,20,31.3C20,31.4,20,31.4,20,31.3
	C20,31.4,20,31.3,20,31.3z M18.4,31.4C18.4,31.4,18.3,31.4,18.4,31.4C18.3,31.5,18.4,31.5,18.4,31.4C18.4,31.5,18.4,31.5,18.4,31.4
	C18.4,31.5,18.4,31.4,18.4,31.4z M13.9,31.6C13.9,31.6,13.9,31.6,13.9,31.6C13.9,31.7,13.9,31.7,13.9,31.6
	C13.9,31.7,13.9,31.7,13.9,31.6C13.9,31.6,13.9,31.6,13.9,31.6z M9.9,31.7C9.9,31.7,9.9,31.7,9.9,31.7C9.9,31.7,9.9,31.7,9.9,31.7
	C9.9,31.8,9.9,31.8,9.9,31.7C9.9,31.8,9.9,31.8,9.9,31.7z M18.6,31.7C18.6,31.8,18.6,31.8,18.6,31.7C18.7,31.8,18.7,31.8,18.6,31.7
	C18.7,31.7,18.7,31.7,18.6,31.7C18.6,31.7,18.6,31.7,18.6,31.7z M15.6,31.9C15.6,31.9,15.6,31.8,15.6,31.9
	C15.6,31.8,15.6,31.8,15.6,31.9C15.6,31.8,15.6,31.8,15.6,31.9C15.6,31.9,15.6,31.9,15.6,31.9z M5.3,4.3C5.3,4.3,5.3,4.3,5.3,4.3
	C5.3,4.3,5.4,4.3,5.3,4.3C5.4,4.2,5.3,4.2,5.3,4.3C5.3,4.2,5.3,4.2,5.3,4.3z M8,32C8,32,7.9,32,8,32C7.9,32,7.9,32,8,32
	C7.9,32,7.9,32,8,32C8,32,8,32,8,32z M14.4,32C14.4,32,14.4,32.1,14.4,32C14.5,32.1,14.5,32,14.4,32C14.5,32,14.5,32,14.4,32
	C14.4,32,14.4,32,14.4,32z M14.6,4.1C14.6,4.1,14.6,4.1,14.6,4.1C14.6,4.2,14.6,4.2,14.6,4.1C14.7,4.2,14.7,4.2,14.6,4.1
	C14.7,4.2,14.7,4.1,14.6,4.1z M14.4,32.1C14.4,32.1,14.4,32.1,14.4,32.1C14.3,32.1,14.3,32.1,14.4,32.1
	C14.4,32.1,14.4,32.1,14.4,32.1C14.4,32.1,14.4,32.1,14.4,32.1z M6.6,32.2C6.6,32.2,6.5,32.2,6.6,32.2C6.5,32.2,6.5,32.2,6.6,32.2
	C6.5,32.2,6.5,32.2,6.6,32.2C6.6,32.2,6.6,32.2,6.6,32.2z M15,4C14.9,4,14.9,4,15,4C14.9,4.1,14.9,4.1,15,4C14.9,4.1,15,4.1,15,4
	C15,4,15,4,15,4z M12,32.4C12,32.4,11.9,32.4,12,32.4C11.9,32.4,11.9,32.4,12,32.4C11.9,32.4,11.9,32.4,12,32.4
	C12,32.4,12,32.4,12,32.4z M1.3,32.5C1.3,32.5,1.3,32.5,1.3,32.5C1.3,32.5,1.4,32.5,1.3,32.5C1.3,32.5,1.3,32.5,1.3,32.5
	C1.3,32.5,1.3,32.5,1.3,32.5z M15,4C15,4,15,4,15,4C15,4,15,4,15,4C15.1,4,15,3.9,15,4C15,3.9,15,4,15,4z M13,13.5
	C13,13.5,12.9,13.5,13,13.5C12.9,13.6,12.9,13.6,13,13.5C13,13.6,13,13.6,13,13.5C13,13.5,13,13.5,13,13.5z M9.9,32.7
	C9.9,32.7,9.9,32.7,9.9,32.7C9.9,32.8,9.9,32.8,9.9,32.7C9.9,32.8,9.9,32.8,9.9,32.7C9.9,32.8,9.9,32.7,9.9,32.7z M24.2,15.9
	C24.2,15.9,24.2,15.9,24.2,15.9C24.2,15.9,24.3,15.9,24.2,15.9C24.3,15.8,24.3,15.8,24.2,15.9C24.2,15.8,24.2,15.9,24.2,15.9z
	 M6.4,32.9C6.4,32.9,6.4,32.8,6.4,32.9C6.3,32.8,6.3,32.9,6.4,32.9C6.3,32.9,6.3,32.9,6.4,32.9C6.4,32.9,6.4,32.9,6.4,32.9z
	 M3.5,3.7C3.5,3.7,3.5,3.7,3.5,3.7C3.6,3.7,3.6,3.7,3.5,3.7C3.6,3.7,3.6,3.7,3.5,3.7C3.6,3.7,3.5,3.7,3.5,3.7z M39.8,3.3
	C39.8,3.3,39.8,3.3,39.8,3.3C39.8,3.3,39.8,3.3,39.8,3.3C39.8,3.3,39.8,3.3,39.8,3.3C39.8,3.3,39.8,3.3,39.8,3.3z M14.2,13.3
	C14.2,13.3,14.1,13.3,14.2,13.3C14.2,13.4,14.2,13.4,14.2,13.3C14.2,13.4,14.2,13.4,14.2,13.3C14.2,13.3,14.2,13.3,14.2,13.3z
	 M9.8,3.2C9.8,3.2,9.8,3.3,9.8,3.2C9.8,3.3,9.8,3.2,9.8,3.2C9.8,3.2,9.8,3.2,9.8,3.2C9.8,3.2,9.8,3.2,9.8,3.2z M10.5,3.1
	C10.5,3.1,10.5,3.2,10.5,3.1C10.6,3.2,10.6,3.1,10.5,3.1C10.6,3.1,10.6,3.1,10.5,3.1C10.5,3.1,10.5,3.1,10.5,3.1z M19.9,2.9
	C19.9,2.9,19.9,2.9,19.9,2.9C19.8,2.9,19.8,2.9,19.9,2.9C19.8,3,19.9,3,19.9,2.9C19.9,3,19.9,3,19.9,2.9z M8.6,33.3
	C8.6,33.3,8.6,33.3,8.6,33.3C8.6,33.3,8.6,33.3,8.6,33.3C8.6,33.4,8.6,33.3,8.6,33.3C8.6,33.3,8.6,33.3,8.6,33.3z M22.5,13.3
	C22.5,13.3,22.5,13.2,22.5,13.3C22.4,13.2,22.4,13.3,22.5,13.3C22.4,13.3,22.5,13.3,22.5,13.3C22.5,13.3,22.5,13.3,22.5,13.3z
	 M19.6,2.8C19.6,2.8,19.5,2.8,19.6,2.8C19.6,2.9,19.6,2.9,19.6,2.8C19.6,2.9,19.6,2.9,19.6,2.8C19.6,2.9,19.6,2.8,19.6,2.8z
	 M0.1,33.4 M15.7,33.4C15.7,33.4,15.8,33.4,15.7,33.4C15.8,33.5,15.8,33.4,15.7,33.4C15.8,33.4,15.8,33.4,15.7,33.4
	C15.7,33.4,15.7,33.4,15.7,33.4z M29.5,33.4C29.5,33.4,29.5,33.4,29.5,33.4C29.5,33.4,29.5,33.4,29.5,33.4
	C29.6,33.5,29.6,33.4,29.5,33.4C29.6,33.4,29.6,33.4,29.5,33.4z M0.3,33.6C0.3,33.6,0.3,33.6,0.3,33.6C0.3,33.6,0.3,33.6,0.3,33.6
	C0.3,33.6,0.3,33.6,0.3,33.6C0.3,33.6,0.3,33.6,0.3,33.6z M4.9,2.8C4.9,2.8,4.9,2.8,4.9,2.8C5,2.8,5,2.8,4.9,2.8
	C5,2.8,5,2.7,4.9,2.8C4.9,2.7,4.9,2.8,4.9,2.8z M1.4,2.7C1.4,2.7,1.4,2.7,1.4,2.7C1.4,2.7,1.4,2.7,1.4,2.7C1.5,2.7,1.4,2.6,1.4,2.7
	C1.4,2.6,1.4,2.7,1.4,2.7z M14.5,13.2C14.5,13.2,14.4,13.3,14.5,13.2C14.4,13.3,14.4,13.3,14.5,13.2C14.5,13.3,14.5,13.3,14.5,13.2
	C14.5,13.3,14.5,13.2,14.5,13.2z M0.2,2.7 M10.1,2.6C10.1,2.6,10.1,2.6,10.1,2.6C10.1,2.5,10,2.6,10.1,2.6
	C10.1,2.6,10.1,2.6,10.1,2.6C10.1,2.6,10.1,2.6,10.1,2.6z M11.4,33.9C11.4,33.9,11.4,33.9,11.4,33.9C11.4,33.9,11.4,33.9,11.4,33.9
	C11.4,33.8,11.4,33.9,11.4,33.9C11.4,33.9,11.4,33.9,11.4,33.9z M30.4,33.9C30.4,33.9,30.4,33.9,30.4,33.9
	C30.4,33.9,30.4,33.9,30.4,33.9C30.4,33.9,30.4,33.9,30.4,33.9C30.4,33.9,30.4,33.9,30.4,33.9z M30.5,33.9
	C30.5,33.9,30.4,34,30.5,33.9C30.4,34,30.5,34,30.5,33.9C30.5,34,30.5,34,30.5,33.9C30.5,34,30.5,34,30.5,33.9z M2,2.4
	C2,2.5,1.9,2.5,2,2.4C1.9,2.5,2,2.5,2,2.4C2,2.5,2,2.5,2,2.4C2,2.5,2,2.5,2,2.4z M14.7,13.1C14.6,13.1,14.6,13.2,14.7,13.1
	C14.6,13.2,14.6,13.2,14.7,13.1C14.6,13.2,14.7,13.2,14.7,13.1C14.7,13.2,14.7,13.1,14.7,13.1z M7,34.2C7,34.2,7,34.2,7,34.2
	C7,34.2,7,34.1,7,34.2C7,34.1,7,34.1,7,34.2C7,34.2,7,34.2,7,34.2z M23.4,15.9C23.4,15.9,23.4,15.9,23.4,15.9
	C23.4,15.9,23.4,15.9,23.4,15.9C23.4,15.9,23.4,15.8,23.4,15.9C23.4,15.8,23.4,15.9,23.4,15.9z M24.3,2.4
	C24.3,2.4,24.3,2.4,24.3,2.4C24.3,2.4,24.2,2.4,24.3,2.4C24.2,2.4,24.2,2.4,24.3,2.4C24.3,2.4,24.3,2.4,24.3,2.4z M1.9,2.4
	C1.9,2.4,1.9,2.4,1.9,2.4C1.9,2.4,1.9,2.4,1.9,2.4C1.9,2.4,1.9,2.4,1.9,2.4C1.9,2.4,1.9,2.4,1.9,2.4z M11.5,34.2
	C11.5,34.2,11.4,34.2,11.5,34.2C11.5,34.3,11.5,34.3,11.5,34.2C11.5,34.3,11.5,34.3,11.5,34.2C11.5,34.3,11.5,34.2,11.5,34.2z
	 M13.7,34.3C13.7,34.2,13.6,34.2,13.7,34.3C13.6,34.2,13.6,34.2,13.7,34.3C13.6,34.3,13.6,34.3,13.7,34.3
	C13.6,34.3,13.6,34.3,13.7,34.3z M8,13.1C8,13.1,8,13.1,8,13.1C8,13.2,8,13.2,8,13.1C8,13.2,8.1,13.2,8,13.1C8.1,13.2,8,13.1,8,13.1
	z M0.6,34.4C0.6,34.3,0.6,34.3,0.6,34.4C0.6,34.3,0.5,34.3,0.6,34.4C0.6,34.4,0.6,34.4,0.6,34.4C0.6,34.4,0.6,34.4,0.6,34.4z
	 M31.9,17.7C31.9,17.7,31.9,17.7,31.9,17.7C31.9,17.7,31.8,17.7,31.9,17.7C31.8,17.7,31.8,17.7,31.9,17.7
	C31.9,17.7,31.9,17.7,31.9,17.7z M23.5,34.3C23.5,34.3,23.5,34.3,23.5,34.3C23.5,34.4,23.5,34.4,23.5,34.3
	C23.5,34.4,23.5,34.4,23.5,34.3C23.5,34.3,23.5,34.3,23.5,34.3z M5.7,2.2C5.8,2.2,5.8,2.2,5.7,2.2C5.8,2.2,5.8,2.2,5.7,2.2
	C5.8,2.2,5.8,2.2,5.7,2.2C5.8,2.2,5.8,2.2,5.7,2.2z M2.7,2.2C2.7,2.2,2.7,2.2,2.7,2.2C2.7,2.2,2.7,2.2,2.7,2.2
	C2.7,2.2,2.7,2.2,2.7,2.2C2.7,2.2,2.7,2.2,2.7,2.2z M36.2,2.1C36.1,2.1,36.1,2.1,36.2,2.1C36.1,2.1,36.1,2.1,36.2,2.1
	C36.2,2.2,36.2,2.1,36.2,2.1C36.2,2.1,36.2,2.1,36.2,2.1z M5.9,34.5C5.9,34.5,5.9,34.5,5.9,34.5C5.9,34.5,5.9,34.6,5.9,34.5
	C5.9,34.6,5.9,34.6,5.9,34.5C5.9,34.5,5.9,34.5,5.9,34.5z M22.8,34.5C22.8,34.5,22.8,34.6,22.8,34.5C22.8,34.6,22.9,34.5,22.8,34.5
	C22.9,34.5,22.9,34.5,22.8,34.5C22.8,34.5,22.8,34.5,22.8,34.5z M38.6,2C38.6,2,38.6,2,38.6,2C38.6,2.1,38.6,2,38.6,2
	C38.6,2,38.6,2,38.6,2C38.6,2,38.6,2,38.6,2z M38.2,2C38.2,2,38.1,2,38.2,2C38.1,2,38.1,2,38.2,2C38.1,2,38.1,2,38.2,2
	C38.1,2,38.1,2,38.2,2z M36.1,2.1C36.1,2,36.1,2,36.1,2.1C36.1,2,36,2,36.1,2.1C36,2,36.1,2,36.1,2.1C36.1,2.1,36.1,2.1,36.1,2.1z
	 M39.5,1.9C39.5,1.9,39.5,1.9,39.5,1.9C39.5,2,39.5,2,39.5,1.9C39.5,2,39.5,1.9,39.5,1.9C39.5,1.9,39.5,1.9,39.5,1.9z M15.4,13.1
	C15.4,13.1,15.4,13.1,15.4,13.1C15.4,13,15.4,13.1,15.4,13.1C15.4,13.1,15.4,13.1,15.4,13.1C15.4,13.1,15.4,13.1,15.4,13.1z M5,1.9
	C5,1.9,5,2,5,1.9C5.1,2,5.1,2,5,1.9C5.1,1.9,5.1,1.9,5,1.9C5,1.9,5,1.9,5,1.9z M4.5,1.9C4.5,1.9,4.5,1.9,4.5,1.9
	C4.5,2,4.5,2,4.5,1.9C4.5,2,4.5,1.9,4.5,1.9C4.5,1.9,4.5,1.9,4.5,1.9z M5.2,1.8C5.2,1.8,5.2,1.8,5.2,1.8C5.2,1.9,5.2,1.9,5.2,1.8
	C5.2,1.9,5.3,1.8,5.2,1.8C5.3,1.8,5.2,1.8,5.2,1.8z M23.7,1.7C23.7,1.8,23.7,1.8,23.7,1.7C23.8,1.8,23.8,1.8,23.7,1.7
	C23.8,1.7,23.8,1.7,23.7,1.7C23.8,1.7,23.7,1.7,23.7,1.7z M22.6,1.5C22.5,1.5,22.5,1.6,22.6,1.5C22.5,1.6,22.5,1.6,22.6,1.5
	C22.6,1.6,22.6,1.6,22.6,1.5C22.6,1.5,22.6,1.5,22.6,1.5z M26.3,35C26.3,35,26.3,35,26.3,35C26.3,35,26.3,35,26.3,35
	C26.3,35,26.3,35,26.3,35C26.3,35,26.3,35,26.3,35z M19.3,1.6C19.3,1.6,19.3,1.6,19.3,1.6C19.3,1.6,19.3,1.5,19.3,1.6
	C19.3,1.5,19.3,1.5,19.3,1.6C19.3,1.6,19.3,1.6,19.3,1.6z M3.1,1.6C3.1,1.6,3.1,1.6,3.1,1.6C3.1,1.6,3.1,1.5,3.1,1.6
	C3.1,1.5,3.1,1.5,3.1,1.6C3.1,1.6,3.1,1.6,3.1,1.6z M35.5,35.1C35.5,35.1,35.5,35.1,35.5,35.1C35.5,35.1,35.5,35.1,35.5,35.1
	C35.5,35.1,35.5,35.1,35.5,35.1C35.5,35.1,35.5,35.1,35.5,35.1z M0.8,15.8C0.8,15.8,0.8,15.8,0.8,15.8C0.8,15.7,0.7,15.8,0.8,15.8
	C0.7,15.8,0.8,15.8,0.8,15.8C0.8,15.8,0.8,15.8,0.8,15.8z M13.5,13C13.5,13,13.5,13.1,13.5,13C13.5,13.1,13.5,13.1,13.5,13
	C13.5,13.1,13.6,13.1,13.5,13C13.5,13.1,13.5,13,13.5,13z M4.8,35.3C4.8,35.3,4.8,35.3,4.8,35.3C4.9,35.3,4.9,35.3,4.8,35.3
	C4.9,35.3,4.9,35.3,4.8,35.3C4.9,35.3,4.8,35.3,4.8,35.3z M30.2,1.5C30.2,1.5,30.2,1.5,30.2,1.5C30.2,1.4,30.2,1.4,30.2,1.5
	C30.2,1.5,30.2,1.5,30.2,1.5C30.2,1.5,30.2,1.5,30.2,1.5z M24.8,15.6C24.8,15.7,24.8,15.7,24.8,15.6C24.8,15.7,24.8,15.7,24.8,15.6
	C24.8,15.7,24.8,15.7,24.8,15.6C24.8,15.7,24.8,15.6,24.8,15.6z M4.6,1.4C4.6,1.4,4.6,1.4,4.6,1.4C4.6,1.5,4.6,1.5,4.6,1.4
	C4.6,1.5,4.6,1.5,4.6,1.4C4.6,1.5,4.6,1.4,4.6,1.4z M2.8,1.4C2.8,1.4,2.8,1.5,2.8,1.4C2.8,1.5,2.8,1.5,2.8,1.4
	C2.8,1.5,2.8,1.5,2.8,1.4C2.8,1.5,2.8,1.4,2.8,1.4z M8.3,13.1C8.3,13.1,8.3,13.1,8.3,13.1C8.3,13.1,8.3,13.1,8.3,13.1
	C8.3,13.1,8.3,13.1,8.3,13.1C8.3,13,8.3,13.1,8.3,13.1z M10.1,35.4C10.1,35.4,10.1,35.5,10.1,35.4C10,35.5,10.1,35.5,10.1,35.4
	C10.1,35.5,10.1,35.5,10.1,35.4C10.1,35.5,10.1,35.4,10.1,35.4z M4.4,35.5C4.4,35.5,4.4,35.5,4.4,35.5C4.4,35.5,4.4,35.6,4.4,35.5
	C4.4,35.6,4.4,35.6,4.4,35.5C4.4,35.5,4.4,35.5,4.4,35.5z M8,13.1C8,13.1,8,13.1,8,13.1C7.9,13,7.9,13.1,8,13.1
	C7.9,13.1,7.9,13.1,8,13.1C8,13.1,8,13.1,8,13.1z M14.5,1.2C14.5,1.2,14.5,1.3,14.5,1.2C14.5,1.3,14.5,1.3,14.5,1.2
	C14.6,1.3,14.6,1.3,14.5,1.2C14.6,1.3,14.6,1.2,14.5,1.2z M17.7,12.9C17.7,12.9,17.7,13,17.7,12.9C17.7,13,17.7,13,17.7,12.9
	C17.7,13,17.7,13,17.7,12.9C17.7,13,17.7,13,17.7,12.9z M14.4,1.2C14.4,1.2,14.4,1.2,14.4,1.2C14.3,1.3,14.3,1.3,14.4,1.2
	C14.4,1.3,14.4,1.3,14.4,1.2C14.4,1.3,14.4,1.2,14.4,1.2z M21.3,1.1C21.3,1.2,21.3,1.2,21.3,1.1C21.3,1.2,21.3,1.2,21.3,1.1
	C21.4,1.2,21.4,1.2,21.3,1.1C21.4,1.2,21.4,1.2,21.3,1.1z M14.5,1.2C14.5,1.2,14.5,1.2,14.5,1.2C14.5,1.2,14.4,1.2,14.5,1.2
	C14.4,1.2,14.5,1.2,14.5,1.2z M13.9,35.8C13.9,35.8,13.9,35.9,13.9,35.8C13.9,35.9,13.9,35.9,13.9,35.8
	C13.9,35.8,13.9,35.8,13.9,35.8C13.9,35.8,13.9,35.8,13.9,35.8z M2.9,1.1C2.9,1.1,2.9,1.2,2.9,1.1C2.9,1.2,2.9,1.2,2.9,1.1
	C2.9,1.2,2.9,1.2,2.9,1.1C2.9,1.2,2.9,1.2,2.9,1.1z M40,35.9C40,35.9,40,35.9,40,35.9C39.9,35.9,40,36,40,35.9 M14.6,36.1
	C14.7,36.1,14.7,36,14.6,36.1C14.7,36,14.7,36,14.6,36.1C14.6,36,14.6,36,14.6,36.1C14.6,36,14.6,36,14.6,36.1z M3.1,1
	C3.1,1,3.1,1,3.1,1C3.1,1,3.1,1,3.1,1C3.1,1,3.1,1,3.1,1C3.1,1,3.1,1,3.1,1z M14.1,36.1C14.1,36.1,14.1,36.1,14.1,36.1
	C14.1,36.1,14.1,36.1,14.1,36.1C14,36.1,14.1,36.1,14.1,36.1C14.1,36.1,14.1,36.1,14.1,36.1z M4.4,36.2C4.4,36.2,4.4,36.2,4.4,36.2
	C4.4,36.2,4.4,36.2,4.4,36.2C4.4,36.2,4.4,36.2,4.4,36.2C4.4,36.2,4.4,36.2,4.4,36.2z M36,0.9C36,0.9,35.9,0.9,36,0.9
	C35.9,0.9,35.9,0.9,36,0.9C36,0.9,36,0.9,36,0.9C36,0.9,36,0.9,36,0.9z M19.9,36.3C19.9,36.2,19.9,36.2,19.9,36.3
	C19.9,36.2,19.9,36.2,19.9,36.3C19.8,36.2,19.8,36.2,19.9,36.3C19.8,36.2,19.8,36.2,19.9,36.3z M13.1,36.3
	C13.1,36.3,13.1,36.3,13.1,36.3C13,36.3,13,36.3,13.1,36.3C13,36.3,13.1,36.3,13.1,36.3C13.1,36.3,13.1,36.3,13.1,36.3z M3.3,0.8
	C3.3,0.8,3.3,0.8,3.3,0.8C3.2,0.8,3.3,0.8,3.3,0.8C3.3,0.8,3.3,0.8,3.3,0.8C3.3,0.8,3.3,0.8,3.3,0.8z M22.2,12.9
	C22.2,12.9,22.2,12.9,22.2,12.9C22.2,12.9,22.2,12.9,22.2,12.9C22.2,12.9,22.2,12.9,22.2,12.9C22.2,12.9,22.2,12.9,22.2,12.9z
	 M1.9,12.9C1.9,12.9,1.9,12.9,1.9,12.9C1.9,12.9,1.9,12.9,1.9,12.9C1.9,12.9,1.9,12.9,1.9,12.9C1.9,12.9,1.9,12.9,1.9,12.9z
	 M14.3,12.8C14.3,12.8,14.3,12.8,14.3,12.8C14.4,12.8,14.4,12.8,14.3,12.8C14.4,12.8,14.4,12.8,14.3,12.8
	C14.4,12.8,14.3,12.8,14.3,12.8z M3.8,36.5C3.8,36.5,3.9,36.5,3.8,36.5C3.9,36.5,3.8,36.5,3.8,36.5C3.8,36.5,3.8,36.5,3.8,36.5
	C3.8,36.5,3.8,36.5,3.8,36.5z M5.4,36.5C5.4,36.5,5.4,36.5,5.4,36.5C5.4,36.5,5.4,36.5,5.4,36.5C5.5,36.5,5.4,36.5,5.4,36.5
	C5.4,36.5,5.4,36.5,5.4,36.5z M13.3,36.5C13.3,36.5,13.3,36.5,13.3,36.5C13.3,36.5,13.4,36.5,13.3,36.5
	C13.4,36.5,13.3,36.5,13.3,36.5C13.3,36.5,13.3,36.5,13.3,36.5z M14.2,36.5C14.2,36.5,14.2,36.5,14.2,36.5
	C14.2,36.5,14.2,36.5,14.2,36.5C14.1,36.5,14.2,36.5,14.2,36.5C14.2,36.5,14.2,36.5,14.2,36.5z M12.7,12.8
	C12.7,12.8,12.7,12.8,12.7,12.8C12.7,12.8,12.7,12.8,12.7,12.8C12.7,12.8,12.7,12.8,12.7,12.8C12.7,12.8,12.7,12.8,12.7,12.8z
	 M1.9,0.8C1.9,0.8,1.9,0.8,1.9,0.8C1.9,0.8,1.9,0.8,1.9,0.8C1.9,0.8,1.9,0.8,1.9,0.8C1.9,0.8,1.9,0.8,1.9,0.8z M14.6,12.7
	C14.6,12.7,14.6,12.7,14.6,12.7C14.5,12.7,14.5,12.7,14.6,12.7C14.5,12.7,14.5,12.7,14.6,12.7C14.6,12.7,14.6,12.7,14.6,12.7z
	 M20.3,36.7C20.3,36.7,20.3,36.8,20.3,36.7C20.3,36.8,20.3,36.8,20.3,36.7C20.3,36.8,20.3,36.8,20.3,36.7
	C20.3,36.7,20.3,36.7,20.3,36.7z M0.9,36.8C0.8,36.8,0.8,36.8,0.9,36.8C0.8,36.9,0.8,36.9,0.9,36.8C0.9,36.9,0.9,36.9,0.9,36.8
	C0.9,36.9,0.9,36.8,0.9,36.8z M18.8,36.9C18.8,36.9,18.9,36.9,18.8,36.9C18.9,36.9,18.8,36.8,18.8,36.9
	C18.8,36.8,18.8,36.8,18.8,36.9C18.8,36.9,18.8,36.9,18.8,36.9z M19.2,36.9C19.2,36.9,19.2,36.9,19.2,36.9
	C19.2,36.9,19.2,36.9,19.2,36.9C19.2,36.8,19.2,36.8,19.2,36.9C19.2,36.8,19.2,36.8,19.2,36.9z M10.2,0.7
	C10.2,0.7,10.1,0.7,10.2,0.7C10.1,0.7,10.2,0.8,10.2,0.7C10.2,0.7,10.2,0.7,10.2,0.7C10.2,0.7,10.2,0.7,10.2,0.7z M5,37
	C5,37.1,5,37.1,5,37C5.1,37.1,5.1,37.1,5,37C5.1,37,5.1,37,5,37C5,37,5,37,5,37z M24.8,0.6C24.8,0.6,24.8,0.6,24.8,0.6
	C24.8,0.6,24.8,0.7,24.8,0.6C24.8,0.7,24.8,0.6,24.8,0.6C24.8,0.6,24.8,0.6,24.8,0.6z M22.7,37C22.7,37,22.7,37,22.7,37
	C22.7,37.1,22.7,37.1,22.7,37C22.8,37.1,22.8,37.1,22.7,37C22.8,37,22.8,37,22.7,37z M4.1,37.1C4.1,37.1,4.1,37.2,4.1,37.1
	C4.1,37.2,4.2,37.1,4.1,37.1C4.1,37.1,4.1,37.1,4.1,37.1C4.1,37.1,4.1,37.1,4.1,37.1z M19.3,37.1C19.3,37.1,19.3,37.2,19.3,37.1
	C19.3,37.2,19.3,37.1,19.3,37.1C19.3,37.1,19.3,37.1,19.3,37.1C19.3,37.1,19.3,37.1,19.3,37.1z M20.2,37.1
	C20.2,37.1,20.2,37.2,20.2,37.1C20.3,37.2,20.3,37.1,20.2,37.1C20.3,37.1,20.2,37.1,20.2,37.1C20.2,37.1,20.2,37.1,20.2,37.1z
	 M3.7,0.4C3.7,0.5,3.7,0.5,3.7,0.4C3.8,0.5,3.8,0.5,3.7,0.4C3.8,0.4,3.8,0.4,3.7,0.4C3.7,0.4,3.7,0.4,3.7,0.4z M15,15.3
	C14.9,15.3,14.9,15.3,15,15.3C14.9,15.3,14.9,15.3,15,15.3C14.9,15.3,14.9,15.3,15,15.3C14.9,15.3,15,15.3,15,15.3z M16.4,37.3
	C16.4,37.3,16.3,37.3,16.4,37.3C16.3,37.3,16.3,37.3,16.4,37.3C16.3,37.3,16.3,37.3,16.4,37.3C16.3,37.3,16.3,37.3,16.4,37.3z
	 M17.1,37.4C17.1,37.4,17.1,37.4,17.1,37.4C17,37.4,17,37.4,17.1,37.4C17,37.4,17.1,37.4,17.1,37.4C17.1,37.4,17.1,37.4,17.1,37.4z
	 M19.1,37.4C19.1,37.4,19,37.4,19.1,37.4C19,37.4,19,37.4,19.1,37.4C19,37.4,19,37.4,19.1,37.4C19,37.4,19,37.4,19.1,37.4z
	 M22.8,37.4C22.8,37.4,22.8,37.4,22.8,37.4C22.8,37.5,22.9,37.4,22.8,37.4C22.9,37.4,22.8,37.4,22.8,37.4
	C22.8,37.4,22.8,37.4,22.8,37.4z M3.9,12.6C3.9,12.6,3.9,12.6,3.9,12.6C3.9,12.6,4,12.6,3.9,12.6C4,12.6,4,12.6,3.9,12.6
	C3.9,12.6,3.9,12.6,3.9,12.6z M20.1,0.1C20.1,0.1,20.1,0.1,20.1,0.1C20.1,0.2,20.1,0.2,20.1,0.1C20.2,0.2,20.2,0.2,20.1,0.1
	C20.2,0.2,20.1,0.1,20.1,0.1z M15.3,37.6C15.3,37.6,15.3,37.6,15.3,37.6C15.3,37.6,15.3,37.6,15.3,37.6
	C15.3,37.6,15.3,37.6,15.3,37.6C15.3,37.6,15.3,37.6,15.3,37.6z M22.1,37.6C22.2,37.6,22.2,37.6,22.1,37.6
	C22.2,37.6,22.2,37.6,22.1,37.6C22.2,37.6,22.2,37.6,22.1,37.6C22.2,37.6,22.2,37.6,22.1,37.6z M24.3,37.6
	C24.3,37.6,24.4,37.6,24.3,37.6C24.4,37.6,24.3,37.6,24.3,37.6C24.3,37.6,24.3,37.6,24.3,37.6C24.3,37.6,24.3,37.6,24.3,37.6z
	 M9.9,0.2C9.9,0.2,9.9,0.2,9.9,0.2C9.9,0.1,9.9,0.1,9.9,0.2C9.9,0.2,9.9,0.2,9.9,0.2C9.9,0.2,9.9,0.2,9.9,0.2z M36.6,17.9
	C36.6,17.9,36.5,17.9,36.6,17.9C36.5,17.9,36.5,17.9,36.6,17.9C36.5,17.9,36.5,17.9,36.6,17.9C36.6,17.9,36.6,17.9,36.6,17.9z
	 M10.5,37.6C10.5,37.7,10.5,37.7,10.5,37.6C10.5,37.7,10.5,37.7,10.5,37.6C10.6,37.7,10.6,37.7,10.5,37.6
	C10.6,37.7,10.6,37.7,10.5,37.6z M7.7,0.1C7.7,0.1,7.7,0.1,7.7,0.1C7.7,0.2,7.7,0.2,7.7,0.1C7.8,0.2,7.8,0.2,7.7,0.1
	C7.8,0.2,7.8,0.1,7.7,0.1z M24.1,37.7C24.1,37.7,24.1,37.7,24.1,37.7C24.1,37.7,24.2,37.7,24.1,37.7C24.2,37.7,24.2,37.7,24.1,37.7
	C24.1,37.7,24.1,37.7,24.1,37.7z M2.6,37.8C2.6,37.8,2.7,37.8,2.6,37.8C2.7,37.8,2.6,37.8,2.6,37.8C2.6,37.8,2.6,37.8,2.6,37.8
	C2.6,37.8,2.6,37.8,2.6,37.8z M19.6,0.1C19.6,0.1,19.6,0,19.6,0.1C19.6,0,19.5,0.1,19.6,0.1C19.6,0.1,19.6,0.1,19.6,0.1
	C19.6,0.1,19.6,0.1,19.6,0.1z M4.9,0 M22.4,37.9C22.4,37.9,22.3,37.9,22.4,37.9C22.3,37.9,22.3,37.9,22.4,37.9
	C22.4,37.9,22.4,37.9,22.4,37.9C22.4,37.9,22.4,37.8,22.4,37.9z M13.2,12.5C13.2,12.5,13.2,12.5,13.2,12.5
	C13.3,12.5,13.3,12.5,13.2,12.5C13.3,12.5,13.3,12.5,13.2,12.5C13.2,12.5,13.2,12.5,13.2,12.5z M13.4,38C13.4,38,13.4,37.9,13.4,38
	C13.3,37.9,13.3,38,13.4,38C13.3,38,13.3,38,13.4,38C13.3,38,13.4,38,13.4,38z M1.2,38C1.2,38,1.2,38.1,1.2,38
	C1.2,38.1,1.2,38.1,1.2,38C1.2,38.1,1.3,38.1,1.2,38C1.3,38,1.2,38,1.2,38z M14.2,38.1C14.2,38.1,14.3,38.1,14.2,38.1
	C14.3,38.1,14.3,38.1,14.2,38.1C14.3,38.1,14.3,38,14.2,38.1C14.3,38,14.2,38,14.2,38.1z M8.7,15.2C8.7,15.2,8.7,15.2,8.7,15.2
	C8.7,15.2,8.7,15.2,8.7,15.2C8.7,15.2,8.7,15.2,8.7,15.2C8.7,15.2,8.7,15.2,8.7,15.2z M21,38.1C21,38.1,21,38,21,38.1
	C21,38,20.9,38.1,21,38.1C20.9,38.1,21,38.1,21,38.1C21,38.1,21,38.1,21,38.1z M30.9,38C30.9,38,30.8,38,30.9,38
	C30.8,38.1,30.8,38.1,30.9,38C30.9,38.1,30.9,38.1,30.9,38C30.9,38,30.9,38,30.9,38z M32,12.4C32,12.4,32,12.4,32,12.4
	C31.9,12.4,31.9,12.4,32,12.4C31.9,12.4,32,12.4,32,12.4C32,12.4,32,12.4,32,12.4z M14.2,38.2C14.2,38.2,14.2,38.2,14.2,38.2
	C14.1,38.3,14.2,38.3,14.2,38.2C14.2,38.3,14.2,38.3,14.2,38.2C14.2,38.2,14.2,38.2,14.2,38.2z M20.7,38.3
	C20.8,38.3,20.8,38.3,20.7,38.3C20.8,38.3,20.8,38.3,20.7,38.3C20.8,38.2,20.8,38.2,20.7,38.3C20.8,38.2,20.8,38.2,20.7,38.3z
	 M33.7,38.3C33.7,38.3,33.7,38.3,33.7,38.3C33.7,38.3,33.8,38.3,33.7,38.3C33.8,38.2,33.8,38.2,33.7,38.3
	C33.7,38.2,33.7,38.2,33.7,38.3z M20.7,38.3C20.7,38.3,20.7,38.3,20.7,38.3C20.7,38.3,20.7,38.4,20.7,38.3
	C20.7,38.4,20.7,38.4,20.7,38.3C20.7,38.3,20.7,38.3,20.7,38.3z M12.9,21.9C12.9,21.9,12.8,21.9,12.9,21.9
	C12.8,21.9,12.9,21.9,12.9,21.9C12.9,21.9,12.9,21.9,12.9,21.9C12.9,21.9,12.9,21.9,12.9,21.9z M11.1,16.4
	C11.1,16.4,11.1,16.4,11.1,16.4C11.1,16.4,11.1,16.4,11.1,16.4C11.1,16.4,11.1,16.4,11.1,16.4C11.1,16.4,11.1,16.4,11.1,16.4z
	 M14.7,12.3C14.7,12.3,14.6,12.3,14.7,12.3C14.6,12.3,14.6,12.3,14.7,12.3C14.6,12.3,14.6,12.4,14.7,12.3
	C14.7,12.4,14.7,12.3,14.7,12.3z M13.3,12.3C13.2,12.3,13.2,12.3,13.3,12.3C13.2,12.3,13.2,12.4,13.3,12.3
	C13.3,12.4,13.3,12.3,13.3,12.3C13.3,12.3,13.3,12.3,13.3,12.3z M19.3,38.7C19.4,38.7,19.4,38.7,19.3,38.7
	C19.4,38.7,19.4,38.7,19.3,38.7C19.4,38.7,19.4,38.7,19.3,38.7C19.4,38.7,19.4,38.7,19.3,38.7z M6.8,12.3
	C6.8,12.3,6.8,12.3,6.8,12.3C6.8,12.3,6.8,12.4,6.8,12.3C6.8,12.4,6.8,12.4,6.8,12.3C6.8,12.3,6.8,12.3,6.8,12.3z M37.3,38.8
	C37.3,38.8,37.4,38.8,37.3,38.8C37.4,38.8,37.4,38.8,37.3,38.8C37.4,38.8,37.4,38.8,37.3,38.8C37.4,38.8,37.3,38.8,37.3,38.8z
	 M39.3,38.8C39.3,38.8,39.3,38.8,39.3,38.8C39.3,38.8,39.3,38.8,39.3,38.8C39.3,38.8,39.4,38.8,39.3,38.8
	C39.4,38.8,39.3,38.8,39.3,38.8z M19.9,38.9C19.8,38.9,19.8,38.9,19.9,38.9C19.8,38.9,19.8,38.9,19.9,38.9
	C19.9,38.9,19.9,38.9,19.9,38.9C19.9,38.9,19.9,38.9,19.9,38.9z M0.8,21.9C0.8,22,0.7,22,0.8,21.9C0.7,22,0.8,22,0.8,21.9
	C0.8,22,0.8,22,0.8,21.9C0.8,22,0.8,22,0.8,21.9z M32.7,22C32.7,22,32.7,22,32.7,22C32.7,22,32.7,22,32.7,22
	C32.7,22,32.7,22,32.7,22C32.7,22,32.7,22,32.7,22z M37.6,38.9C37.6,38.9,37.6,38.9,37.6,38.9C37.7,38.9,37.7,38.9,37.6,38.9
	C37.7,38.9,37.7,38.9,37.6,38.9C37.6,38.9,37.6,38.9,37.6,38.9z M1.2,39C1.2,39,1.2,39,1.2,39C1.2,39,1.3,39,1.2,39
	C1.3,39,1.3,39,1.2,39C1.2,39,1.2,39,1.2,39z M11.4,39.2C11.4,39.2,11.5,39.2,11.4,39.2C11.5,39.2,11.5,39.2,11.4,39.2
	C11.5,39.2,11.5,39.2,11.4,39.2C11.4,39.2,11.4,39.2,11.4,39.2z M14.2,39.2C14.2,39.2,14.2,39.2,14.2,39.2
	C14.3,39.2,14.3,39.2,14.2,39.2C14.3,39.2,14.3,39.2,14.2,39.2C14.3,39.2,14.2,39.2,14.2,39.2z M12,39.3C12,39.3,12,39.3,12,39.3
	C12,39.3,12.1,39.3,12,39.3C12.1,39.3,12.1,39.3,12,39.3C12,39.3,12,39.3,12,39.3z M11.1,12.2C11.1,12.2,11.1,12.2,11.1,12.2
	C11.1,12.2,11.1,12.2,11.1,12.2C11.1,12.3,11.1,12.3,11.1,12.2C11.1,12.3,11.1,12.3,11.1,12.2z M8.4,12.2
	C8.4,12.3,8.4,12.3,8.4,12.2C8.4,12.3,8.4,12.3,8.4,12.2C8.4,12.2,8.4,12.2,8.4,12.2C8.4,12.2,8.4,12.2,8.4,12.2z M11.6,39.4
	C11.6,39.4,11.6,39.3,11.6,39.4C11.5,39.3,11.5,39.4,11.6,39.4C11.5,39.4,11.6,39.4,11.6,39.4C11.6,39.4,11.6,39.4,11.6,39.4z
	 M13.7,12.1C13.7,12.1,13.7,12.1,13.7,12.1C13.7,12.2,13.7,12.2,13.7,12.1C13.7,12.2,13.7,12.2,13.7,12.1
	C13.7,12.1,13.7,12.1,13.7,12.1z M1.8,39.4C1.8,39.4,1.8,39.4,1.8,39.4C1.8,39.5,1.8,39.5,1.8,39.4C1.8,39.5,1.8,39.5,1.8,39.4
	C1.8,39.5,1.8,39.4,1.8,39.4z M38,39.4C38,39.4,38,39.5,38,39.4C38,39.5,38,39.5,38,39.4C38,39.5,38,39.5,38,39.4
	C38,39.4,38,39.4,38,39.4z M13.2,12.1C13.2,12.1,13.2,12.1,13.2,12.1C13.2,12.2,13.2,12.2,13.2,12.1C13.3,12.2,13.3,12.2,13.2,12.1
	C13.3,12.1,13.3,12.1,13.2,12.1z M1.4,39.6C1.4,39.6,1.4,39.6,1.4,39.6C1.4,39.5,1.4,39.5,1.4,39.6C1.4,39.5,1.4,39.5,1.4,39.6
	C1.4,39.6,1.4,39.6,1.4,39.6z M16.3,39.6C16.3,39.5,16.2,39.5,16.3,39.6C16.2,39.5,16.2,39.5,16.3,39.6
	C16.2,39.6,16.2,39.6,16.3,39.6C16.2,39.6,16.3,39.6,16.3,39.6z M19.7,39.6C19.7,39.5,19.7,39.5,19.7,39.6
	C19.6,39.5,19.6,39.5,19.7,39.6C19.6,39.6,19.7,39.6,19.7,39.6C19.7,39.6,19.7,39.6,19.7,39.6z M34.6,39.6
	C34.6,39.5,34.6,39.5,34.6,39.6C34.6,39.5,34.5,39.5,34.6,39.6C34.5,39.6,34.6,39.6,34.6,39.6C34.6,39.6,34.6,39.6,34.6,39.6z
	 M36.6,39.6C36.6,39.5,36.5,39.5,36.6,39.6C36.5,39.5,36.5,39.5,36.6,39.6C36.5,39.6,36.5,39.6,36.6,39.6
	C36.6,39.6,36.6,39.6,36.6,39.6z M23.7,39.6C23.7,39.7,23.8,39.7,23.7,39.6C23.8,39.7,23.8,39.7,23.7,39.6
	C23.8,39.6,23.8,39.6,23.7,39.6C23.7,39.6,23.7,39.6,23.7,39.6z M7.3,12.1C7.3,12.1,7.3,12.1,7.3,12.1C7.3,12.2,7.3,12.2,7.3,12.1
	C7.3,12.2,7.3,12.2,7.3,12.1C7.3,12.1,7.3,12.1,7.3,12.1z M35.9,39.9C35.9,39.9,35.9,40,35.9,39.9C35.9,40,35.9,39.9,35.9,39.9
	C35.9,39.9,35.9,39.9,35.9,39.9C35.9,39.9,35.8,39.9,35.9,39.9z M26.9,22.5C26.9,22.5,26.9,22.5,26.9,22.5
	C26.9,22.5,27,22.5,26.9,22.5C27,22.4,27,22.4,26.9,22.5C26.9,22.4,26.9,22.4,26.9,22.5z M8.3,22.6C8.3,22.6,8.3,22.6,8.3,22.6
	C8.3,22.7,8.3,22.7,8.3,22.6C8.3,22.7,8.3,22.7,8.3,22.6C8.3,22.6,8.3,22.6,8.3,22.6z M12.9,22.6C12.9,22.6,12.9,22.6,12.9,22.6
	C12.8,22.6,12.8,22.6,12.9,22.6C12.8,22.7,12.9,22.7,12.9,22.6C12.9,22.7,12.9,22.7,12.9,22.6z M15,11.9C15,11.9,14.9,11.8,15,11.9
	C14.9,11.8,14.9,11.9,15,11.9C14.9,11.9,14.9,11.9,15,11.9C14.9,11.9,14.9,11.9,15,11.9z M7.9,11.9C7.9,11.9,7.8,11.8,7.9,11.9
	C7.8,11.8,7.8,11.9,7.9,11.9C7.8,11.9,7.8,11.9,7.9,11.9C7.9,11.9,7.9,11.9,7.9,11.9z M2.9,11.8C2.9,11.8,2.9,11.8,2.9,11.8
	C2.9,11.9,2.9,11.9,2.9,11.8C2.9,11.9,2.9,11.9,2.9,11.8C2.9,11.9,2.9,11.8,2.9,11.8z M17.3,11.8C17.3,11.8,17.3,11.8,17.3,11.8
	C17.3,11.8,17.3,11.7,17.3,11.8C17.2,11.7,17.2,11.7,17.3,11.8C17.2,11.8,17.2,11.8,17.3,11.8z M5.6,11.8
	C5.6,11.8,5.5,11.8,5.6,11.8C5.5,11.7,5.5,11.8,5.6,11.8C5.5,11.8,5.5,11.8,5.6,11.8C5.5,11.8,5.5,11.8,5.6,11.8z M8.7,22.9
	C8.7,22.9,8.7,22.9,8.7,22.9C8.7,22.9,8.7,22.9,8.7,22.9C8.7,23,8.7,22.9,8.7,22.9C8.7,22.9,8.7,22.9,8.7,22.9z M23.1,11.6
	C23,11.6,23,11.6,23.1,11.6C23,11.7,23,11.7,23.1,11.6C23,11.7,23.1,11.7,23.1,11.6C23.1,11.7,23.1,11.6,23.1,11.6z M12,11.7
	C12,11.7,11.9,11.7,12,11.7C11.9,11.7,11.9,11.7,12,11.7C11.9,11.7,11.9,11.7,12,11.7C12,11.7,12,11.7,12,11.7z M25,23
	C25.1,23,25.1,23,25,23C25.1,23.1,25.1,23,25,23C25.1,23,25.1,23,25,23C25.1,23,25,23,25,23z M34.5,23C34.5,23,34.6,23,34.5,23
	C34.6,23,34.6,23,34.5,23C34.6,23,34.6,23,34.5,23C34.6,23,34.5,23,34.5,23z M5.3,15C5.3,15,5.3,15.1,5.3,15
	C5.3,15.1,5.4,15.1,5.3,15C5.4,15,5.3,15,5.3,15C5.3,15,5.3,15,5.3,15z M8.4,11.6C8.4,11.6,8.4,11.6,8.4,11.6
	C8.4,11.6,8.4,11.6,8.4,11.6C8.4,11.6,8.4,11.6,8.4,11.6C8.4,11.6,8.4,11.6,8.4,11.6z M12.1,23.1C12.1,23.1,12,23.1,12.1,23.1
	C12,23.1,12,23.1,12.1,23.1C12,23.1,12.1,23.1,12.1,23.1C12.1,23.1,12.1,23.1,12.1,23.1z M30.3,23.2C30.3,23.1,30.3,23.1,30.3,23.2
	C30.3,23.1,30.3,23.1,30.3,23.2C30.3,23.1,30.3,23.1,30.3,23.2C30.3,23.1,30.3,23.1,30.3,23.2z M25.2,23.2
	C25.2,23.2,25.1,23.2,25.2,23.2C25.1,23.2,25.2,23.2,25.2,23.2C25.2,23.2,25.2,23.2,25.2,23.2C25.2,23.2,25.2,23.2,25.2,23.2z
	 M31.9,11.4C31.9,11.4,32,11.4,31.9,11.4C32,11.4,32,11.4,31.9,11.4C32,11.4,32,11.4,31.9,11.4C32,11.4,31.9,11.4,31.9,11.4z
	 M15.3,11.4C15.3,11.4,15.3,11.4,15.3,11.4C15.3,11.4,15.3,11.4,15.3,11.4C15.3,11.4,15.3,11.4,15.3,11.4
	C15.3,11.4,15.3,11.4,15.3,11.4z M3.7,11.4C3.6,11.4,3.6,11.4,3.7,11.4C3.6,11.4,3.6,11.4,3.7,11.4C3.7,11.4,3.7,11.4,3.7,11.4
	C3.7,11.4,3.7,11.4,3.7,11.4z M24.2,23.5C24.2,23.5,24.2,23.5,24.2,23.5C24.2,23.5,24.3,23.5,24.2,23.5
	C24.3,23.5,24.3,23.5,24.2,23.5C24.2,23.5,24.2,23.5,24.2,23.5z M34.3,11.3C34.3,11.3,34.3,11.3,34.3,11.3
	C34.3,11.3,34.3,11.3,34.3,11.3C34.3,11.3,34.3,11.3,34.3,11.3C34.3,11.3,34.3,11.3,34.3,11.3z M0.3,23.6
	C0.3,23.6,0.3,23.6,0.3,23.6C0.3,23.6,0.3,23.6,0.3,23.6C0.3,23.6,0.3,23.5,0.3,23.6C0.3,23.5,0.3,23.6,0.3,23.6z M11.6,14.9
	C11.6,14.9,11.6,15,11.6,14.9C11.7,15,11.7,14.9,11.6,14.9C11.7,14.9,11.7,14.9,11.6,14.9C11.7,14.9,11.6,14.9,11.6,14.9z M0.7,11.2
	C0.7,11.2,0.6,11.2,0.7,11.2C0.6,11.2,0.6,11.2,0.7,11.2C0.7,11.2,0.7,11.2,0.7,11.2C0.7,11.2,0.7,11.2,0.7,11.2z M26,10.9
	C26,10.9,26,10.9,26,10.9C26,10.9,26,11,26,10.9C26,11,26,10.9,26,10.9C26,10.9,26,10.9,26,10.9z M9.4,10.8
	C9.4,10.8,9.4,10.8,9.4,10.8C9.3,10.8,9.3,10.8,9.4,10.8C9.3,10.9,9.3,10.9,9.4,10.8C9.3,10.9,9.4,10.9,9.4,10.8z M7.9,24
	C7.9,24,7.9,24,7.9,24C7.9,24,8,24,7.9,24C8,23.9,8,23.9,7.9,24C7.9,23.9,7.9,23.9,7.9,24z M19.4,23.9C19.4,24,19.4,24,19.4,23.9
	C19.4,24,19.4,24,19.4,23.9C19.4,23.9,19.4,23.9,19.4,23.9C19.4,23.9,19.4,23.9,19.4,23.9z M10.5,10.8
	C10.5,10.7,10.5,10.7,10.5,10.8C10.4,10.7,10.4,10.7,10.5,10.8C10.4,10.8,10.4,10.8,10.5,10.8C10.5,10.8,10.5,10.8,10.5,10.8z
	 M7.9,24C7.9,24,7.8,24,7.9,24C7.8,24,7.8,24.1,7.9,24C7.9,24.1,7.9,24,7.9,24C7.9,24,7.9,24,7.9,24z M13.9,10.7
	C13.9,10.7,13.9,10.6,13.9,10.7C13.9,10.6,13.9,10.7,13.9,10.7C13.9,10.7,13.9,10.7,13.9,10.7C13.9,10.7,13.9,10.7,13.9,10.7z
	 M27,24.1C27,24.1,27,24.1,27,24.1C27,24.1,27,24.2,27,24.1C27,24.2,27.1,24.2,27,24.1C27.1,24.1,27,24.1,27,24.1z M37.5,24.1
	C37.5,24.1,37.5,24.2,37.5,24.1C37.6,24.2,37.6,24.1,37.5,24.1C37.6,24.1,37.6,24.1,37.5,24.1C37.6,24.1,37.5,24.1,37.5,24.1z
	 M16.1,10.5C16,10.5,16,10.6,16.1,10.5C16,10.6,16,10.6,16.1,10.5C16,10.6,16.1,10.6,16.1,10.5C16.1,10.6,16.1,10.5,16.1,10.5z
	 M19.5,24.3C19.5,24.2,19.5,24.2,19.5,24.3C19.5,24.2,19.5,24.2,19.5,24.3C19.5,24.2,19.5,24.2,19.5,24.3
	C19.5,24.2,19.5,24.3,19.5,24.3z M29.8,10C29.8,10,29.8,10,29.8,10C29.7,10,29.7,10,29.8,10C29.7,10,29.7,10,29.8,10
	C29.7,10,29.8,10,29.8,10z M1.3,24.3C1.3,24.3,1.3,24.3,1.3,24.3C1.3,24.4,1.4,24.3,1.3,24.3C1.3,24.3,1.3,24.3,1.3,24.3
	C1.3,24.3,1.3,24.3,1.3,24.3z M26.9,24.4C26.9,24.3,27,24.3,26.9,24.4C27,24.3,26.9,24.3,26.9,24.4C26.9,24.3,26.9,24.3,26.9,24.4
	C26.9,24.3,26.9,24.4,26.9,24.4z M18.7,10.1C18.8,10,18.8,10,18.7,10.1C18.8,10,18.8,10,18.7,10.1C18.7,10,18.7,10,18.7,10.1
	C18.7,10,18.7,10,18.7,10.1z M7.4,10C7.4,10,7.4,10,7.4,10C7.3,10,7.4,10,7.4,10C7.4,10,7.4,10,7.4,10C7.4,10,7.4,10,7.4,10z
	 M27.6,9.9C27.6,9.9,27.6,9.9,27.6,9.9C27.6,9.9,27.6,9.9,27.6,9.9C27.6,10,27.6,9.9,27.6,9.9C27.6,9.9,27.6,9.9,27.6,9.9z
	 M1.3,24.5C1.3,24.5,1.3,24.5,1.3,24.5C1.3,24.5,1.3,24.5,1.3,24.5C1.4,24.5,1.3,24.5,1.3,24.5C1.3,24.5,1.3,24.5,1.3,24.5z
	 M1.7,24.5C1.8,24.5,1.8,24.5,1.7,24.5C1.8,24.5,1.8,24.5,1.7,24.5C1.8,24.5,1.8,24.5,1.7,24.5C1.8,24.5,1.8,24.5,1.7,24.5z
	 M8.7,24.5C8.7,24.5,8.7,24.5,8.7,24.5C8.7,24.5,8.7,24.5,8.7,24.5C8.7,24.5,8.7,24.5,8.7,24.5C8.7,24.5,8.7,24.5,8.7,24.5z
	 M9.8,24.5C9.8,24.5,9.8,24.5,9.8,24.5C9.8,24.5,9.8,24.5,9.8,24.5C9.8,24.5,9.8,24.5,9.8,24.5C9.8,24.5,9.8,24.5,9.8,24.5z
	 M19.4,24.5C19.4,24.5,19.4,24.5,19.4,24.5C19.4,24.5,19.4,24.5,19.4,24.5C19.4,24.5,19.4,24.5,19.4,24.5
	C19.4,24.5,19.4,24.5,19.4,24.5z M8.2,17.2C8.2,17.2,8.2,17.2,8.2,17.2C8.2,17.2,8.2,17.2,8.2,17.2C8.3,17.2,8.2,17.1,8.2,17.2
	C8.2,17.1,8.2,17.2,8.2,17.2z M1,9.8C1,9.8,1,9.9,1,9.8C1,9.8,1.1,9.8,1,9.8C1.1,9.8,1.1,9.8,1,9.8C1,9.8,1,9.8,1,9.8z M9.4,24.6
	C9.4,24.6,9.5,24.6,9.4,24.6C9.5,24.6,9.4,24.6,9.4,24.6C9.4,24.6,9.4,24.6,9.4,24.6C9.4,24.6,9.4,24.6,9.4,24.6z M22.2,24.6
	C22.2,24.6,22.2,24.6,22.2,24.6C22.2,24.6,22.2,24.6,22.2,24.6C22.2,24.6,22.2,24.6,22.2,24.6C22.2,24.6,22.2,24.6,22.2,24.6z
	 M10.2,9.8C10.2,9.8,10.2,9.7,10.2,9.8C10.2,9.7,10.2,9.7,10.2,9.8C10.2,9.7,10.1,9.7,10.2,9.8C10.2,9.8,10.2,9.8,10.2,9.8z
	 M5.7,24.7C5.6,24.7,5.6,24.7,5.7,24.7C5.6,24.7,5.6,24.7,5.7,24.7C5.6,24.7,5.6,24.7,5.7,24.7C5.6,24.7,5.6,24.7,5.7,24.7z
	 M5.9,24.7C5.9,24.7,5.9,24.7,5.9,24.7C5.9,24.7,5.9,24.7,5.9,24.7C5.9,24.7,5.9,24.7,5.9,24.7C5.9,24.7,5.9,24.7,5.9,24.7z
	 M17.6,24.7C17.6,24.7,17.6,24.7,17.6,24.7C17.5,24.7,17.5,24.7,17.6,24.7C17.5,24.7,17.5,24.7,17.6,24.7
	C17.5,24.7,17.6,24.7,17.6,24.7z M22.3,24.6C22.3,24.7,22.2,24.7,22.3,24.6C22.3,24.7,22.3,24.7,22.3,24.6
	C22.3,24.7,22.3,24.7,22.3,24.6C22.3,24.7,22.3,24.7,22.3,24.6z M5.7,24.7C5.7,24.7,5.7,24.8,5.7,24.7C5.7,24.8,5.7,24.8,5.7,24.7
	C5.7,24.8,5.7,24.8,5.7,24.7C5.7,24.8,5.7,24.8,5.7,24.7z M24.6,9.6C24.6,9.6,24.6,9.6,24.6,9.6C24.6,9.6,24.6,9.7,24.6,9.6
	C24.6,9.7,24.6,9.7,24.6,9.6C24.6,9.6,24.6,9.6,24.6,9.6z M26.6,9.5C26.6,9.5,26.5,9.5,26.6,9.5C26.5,9.6,26.6,9.6,26.6,9.5
	C26.6,9.6,26.6,9.6,26.6,9.5C26.6,9.5,26.6,9.5,26.6,9.5z M15.9,24.9C15.8,24.9,15.8,25,15.9,24.9C15.8,25,15.8,25,15.9,24.9
	C15.9,25,15.9,25,15.9,24.9C15.9,24.9,15.9,24.9,15.9,24.9z M14.8,9.5C14.8,9.4,14.8,9.4,14.8,9.5C14.7,9.4,14.7,9.4,14.8,9.5
	C14.7,9.5,14.7,9.5,14.8,9.5C14.7,9.5,14.8,9.5,14.8,9.5z M14.7,9.2C14.6,9.2,14.6,9.3,14.7,9.2C14.6,9.3,14.6,9.3,14.7,9.2
	C14.6,9.3,14.7,9.3,14.7,9.2C14.7,9.3,14.7,9.2,14.7,9.2z M3,14.7C3,14.7,3,14.7,3,14.7C3,14.7,3,14.7,3,14.7C3,14.6,3,14.6,3,14.7
	C3,14.6,3,14.6,3,14.7z M20.7,9C20.7,9.1,20.7,9.1,20.7,9C20.7,9.1,20.7,9.1,20.7,9C20.7,9.1,20.7,9.1,20.7,9
	C20.7,9.1,20.7,9,20.7,9z M6,25.6C6,25.6,6.1,25.7,6,25.6C6.1,25.6,6.1,25.6,6,25.6C6.1,25.6,6.1,25.6,6,25.6
	C6.1,25.6,6,25.6,6,25.6z M3.4,9.1C3.4,9.1,3.4,9.1,3.4,9.1C3.3,9.1,3.3,9.1,3.4,9.1C3.3,9.1,3.4,9.1,3.4,9.1
	C3.4,9.1,3.4,9.1,3.4,9.1z M6,25.7C6,25.7,6,25.7,6,25.7C6,25.7,6,25.7,6,25.7C6,25.7,6,25.7,6,25.7C6,25.7,6,25.7,6,25.7z
	 M10.7,8.9C10.7,9,10.7,9,10.7,8.9C10.7,9,10.7,9,10.7,8.9C10.7,9,10.8,9,10.7,8.9C10.8,9,10.7,9,10.7,8.9z M34.9,25.8
	C34.9,25.8,34.9,25.8,34.9,25.8C34.9,25.8,34.9,25.8,34.9,25.8C34.8,25.8,34.8,25.8,34.9,25.8C34.8,25.8,34.8,25.8,34.9,25.8z
	 M11.1,8.9C11.1,8.9,11.1,8.9,11.1,8.9C11.1,8.9,11.1,8.9,11.1,8.9C11.1,8.9,11.1,8.9,11.1,8.9C11.1,8.9,11.1,8.9,11.1,8.9z
	 M9.6,8.7C9.6,8.7,9.6,8.7,9.6,8.7C9.6,8.7,9.6,8.7,9.6,8.7C9.7,8.7,9.6,8.7,9.6,8.7C9.6,8.7,9.6,8.7,9.6,8.7z M10.1,18.6
	C10.1,18.6,10.1,18.6,10.1,18.6C10.2,18.6,10.2,18.6,10.1,18.6C10.2,18.5,10.2,18.5,10.1,18.6C10.2,18.5,10.1,18.5,10.1,18.6z
	 M27.2,18.6C27.1,18.5,27.1,18.5,27.2,18.6C27.1,18.5,27.1,18.5,27.2,18.6C27.1,18.6,27.1,18.6,27.2,18.6
	C27.1,18.6,27.2,18.6,27.2,18.6z M11.6,8.5C11.6,8.5,11.5,8.5,11.6,8.5C11.5,8.5,11.6,8.5,11.6,8.5C11.6,8.6,11.6,8.5,11.6,8.5
	C11.6,8.5,11.6,8.5,11.6,8.5z M35.1,26.3C35,26.3,35,26.4,35.1,26.3C35,26.4,35,26.4,35.1,26.3C35,26.4,35.1,26.4,35.1,26.3
	C35.1,26.4,35.1,26.3,35.1,26.3z M39.2,26.3C39.1,26.3,39.1,26.4,39.2,26.3C39.1,26.4,39.1,26.4,39.2,26.3
	C39.1,26.4,39.2,26.4,39.2,26.3C39.2,26.4,39.2,26.3,39.2,26.3z M11.3,8.5C11.3,8.5,11.3,8.5,11.3,8.5C11.3,8.4,11.3,8.4,11.3,8.5
	C11.3,8.4,11.3,8.4,11.3,8.5C11.3,8.4,11.3,8.5,11.3,8.5z M0.8,26.5C0.8,26.5,0.8,26.5,0.8,26.5C0.9,26.5,0.9,26.5,0.8,26.5
	C0.9,26.4,0.9,26.4,0.8,26.5C0.8,26.4,0.8,26.4,0.8,26.5z M0.8,26.5C0.8,26.5,0.8,26.5,0.8,26.5C0.7,26.5,0.7,26.6,0.8,26.5
	C0.8,26.6,0.8,26.6,0.8,26.5C0.8,26.5,0.8,26.5,0.8,26.5z M36.8,18.6C36.8,18.6,36.8,18.6,36.8,18.6C36.8,18.5,36.8,18.5,36.8,18.6
	C36.8,18.5,36.8,18.6,36.8,18.6C36.8,18.6,36.8,18.6,36.8,18.6z M13.9,26.6C13.9,26.6,13.9,26.6,13.9,26.6
	C13.9,26.6,13.9,26.6,13.9,26.6C13.9,26.6,13.9,26.7,13.9,26.6C13.9,26.7,13.9,26.7,13.9,26.6z M34.6,8.3
	C34.6,8.3,34.5,8.3,34.6,8.3C34.5,8.3,34.6,8.4,34.6,8.3C34.6,8.4,34.6,8.4,34.6,8.3C34.6,8.3,34.6,8.3,34.6,8.3z M6.9,26.7
	C6.8,26.7,6.8,26.7,6.9,26.7C6.8,26.7,6.8,26.7,6.9,26.7C6.8,26.7,6.8,26.8,6.9,26.7C6.8,26.8,6.9,26.7,6.9,26.7z M16.7,26.7
	C16.7,26.7,16.8,26.8,16.7,26.7C16.8,26.8,16.8,26.7,16.7,26.7C16.8,26.7,16.8,26.7,16.7,26.7C16.8,26.7,16.8,26.7,16.7,26.7z
	 M0.8,14.4C0.8,14.4,0.7,14.4,0.8,14.4C0.7,14.5,0.8,14.5,0.8,14.4C0.8,14.5,0.8,14.5,0.8,14.4C0.8,14.5,0.8,14.4,0.8,14.4z
	 M31.5,8.3C31.5,8.3,31.5,8.4,31.5,8.3C31.5,8.4,31.5,8.3,31.5,8.3C31.5,8.3,31.5,8.3,31.5,8.3C31.5,8.3,31.5,8.3,31.5,8.3z
	 M34.5,8.3C34.5,8.3,34.5,8.2,34.5,8.3C34.5,8.2,34.5,8.2,34.5,8.3C34.5,8.3,34.5,8.3,34.5,8.3C34.5,8.3,34.5,8.3,34.5,8.3z
	 M22.4,27C22.4,27,22.4,27,22.4,27C22.4,27,22.4,27,22.4,27z M11.2,8.1C11.2,8.1,11.2,8.1,11.2,8.1C11.2,8.2,11.2,8.2,11.2,8.1
	C11.2,8.2,11.2,8.2,11.2,8.1C11.2,8.1,11.2,8.1,11.2,8.1z M22.3,27.1C22.3,27.1,22.3,27.1,22.3,27.1C22.3,27.1,22.3,27.1,22.3,27.1
	C22.3,27.1,22.3,27.1,22.3,27.1C22.3,27.1,22.3,27.1,22.3,27.1z M5.9,8.1C5.9,8.1,6,8.1,5.9,8.1C6,8.1,6,8.1,5.9,8.1
	C6,8,6,8,5.9,8.1C6,8,6,8,5.9,8.1z M7.9,27.2C7.9,27.2,7.8,27.2,7.9,27.2C7.8,27.2,7.8,27.2,7.9,27.2C7.8,27.2,7.8,27.2,7.9,27.2
	C7.9,27.2,7.9,27.2,7.9,27.2z M13.1,27.2C13.1,27.2,13.1,27.2,13.1,27.2C13.2,27.2,13.2,27.2,13.1,27.2
	C13.2,27.2,13.2,27.2,13.1,27.2C13.1,27.2,13.1,27.2,13.1,27.2z M8.7,8C8.7,8,8.7,7.9,8.7,8C8.7,7.9,8.6,8,8.7,8C8.7,8,8.7,8,8.7,8
	C8.7,8,8.7,8,8.7,8z M7.5,27.3C7.5,27.3,7.6,27.3,7.5,27.3C7.6,27.3,7.6,27.3,7.5,27.3C7.6,27.3,7.6,27.3,7.5,27.3
	C7.6,27.3,7.5,27.3,7.5,27.3z M13.1,27.2C13.1,27.3,13.1,27.3,13.1,27.2C13,27.3,13,27.3,13.1,27.2C13.1,27.3,13.1,27.3,13.1,27.2
	C13.1,27.3,13.1,27.3,13.1,27.2z M7.4,16.5C7.4,16.5,7.4,16.5,7.4,16.5C7.3,16.5,7.4,16.5,7.4,16.5C7.4,16.5,7.4,16.5,7.4,16.5
	C7.4,16.5,7.4,16.5,7.4,16.5z M25.4,27.4C25.4,27.4,25.4,27.4,25.4,27.4C25.5,27.4,25.5,27.4,25.4,27.4
	C25.5,27.4,25.5,27.4,25.4,27.4C25.4,27.4,25.4,27.4,25.4,27.4z M23.3,7.8C23.3,7.8,23.3,7.9,23.3,7.8C23.3,7.9,23.3,7.9,23.3,7.8
	C23.3,7.9,23.3,7.9,23.3,7.8C23.3,7.9,23.3,7.8,23.3,7.8z M32.5,7.7C32.5,7.7,32.5,7.7,32.5,7.7C32.5,7.7,32.5,7.7,32.5,7.7
	C32.5,7.7,32.6,7.7,32.5,7.7C32.6,7.7,32.5,7.7,32.5,7.7z M10,27.6C10,27.7,10,27.7,10,27.6C10,27.7,10,27.7,10,27.6
	C10,27.7,10,27.6,10,27.6C10,27.6,10,27.6,10,27.6z M24.6,19C24.5,19,24.5,19,24.6,19C24.5,19,24.5,19,24.6,19
	C24.5,19,24.5,19,24.6,19C24.5,19,24.6,19,24.6,19z M8,27.7C8,27.7,8,27.7,8,27.7C8,27.8,8,27.8,8,27.7C8,27.8,8.1,27.8,8,27.7
	C8.1,27.7,8.1,27.7,8,27.7z M37.2,14.2C37.3,14.2,37.3,14.2,37.2,14.2C37.3,14.2,37.3,14.2,37.2,14.2C37.3,14.2,37.3,14.2,37.2,14.2
	C37.3,14.2,37.2,14.2,37.2,14.2z M7,27.8C7,27.8,7,27.8,7,27.8C7,27.9,7,27.9,7,27.8C7,27.9,7,27.9,7,27.8C7,27.8,7,27.8,7,27.8z
	 M17.6,7.5C17.6,7.4,17.6,7.4,17.6,7.5C17.7,7.4,17.6,7.4,17.6,7.5C17.6,7.4,17.6,7.4,17.6,7.5C17.6,7.4,17.6,7.4,17.6,7.5z
	 M20.8,14.2C20.8,14.2,20.8,14.2,20.8,14.2C20.8,14.2,20.8,14.2,20.8,14.2C20.8,14.2,20.8,14.2,20.8,14.2
	C20.8,14.2,20.8,14.2,20.8,14.2z M5.4,7.1C5.4,7.1,5.4,7.1,5.4,7.1C5.4,7.1,5.4,7.2,5.4,7.1C5.4,7.2,5.4,7.2,5.4,7.1
	C5.4,7.1,5.4,7.1,5.4,7.1z M16.4,7C16.4,7,16.4,7.1,16.4,7C16.4,7.1,16.4,7,16.4,7C16.4,7,16.4,7,16.4,7C16.4,7,16.4,7,16.4,7z
	 M5.1,28C5.1,28,5.1,28,5.1,28C5,28,5,28,5.1,28C5,28,5,28.1,5.1,28C5.1,28.1,5.1,28,5.1,28z M14.8,14.2
	C14.8,14.2,14.9,14.2,14.8,14.2C14.9,14.2,14.8,14.2,14.8,14.2C14.8,14.2,14.8,14.2,14.8,14.2C14.8,14.2,14.8,14.2,14.8,14.2z
	 M4.5,28.2C4.5,28.2,4.5,28.2,4.5,28.2C4.5,28.2,4.5,28.2,4.5,28.2C4.5,28.3,4.5,28.2,4.5,28.2C4.5,28.2,4.5,28.2,4.5,28.2z
	 M26.8,6.9C26.7,6.9,26.7,6.9,26.8,6.9C26.7,7,26.7,7,26.8,6.9C26.8,7,26.8,7,26.8,6.9C26.8,6.9,26.8,6.9,26.8,6.9z M6,28.4
	C6,28.4,6,28.4,6,28.4C6.1,28.4,6.1,28.4,6,28.4C6.1,28.4,6.1,28.4,6,28.4C6.1,28.4,6,28.4,6,28.4z M23.4,19.5
	C23.4,19.5,23.4,19.5,23.4,19.5C23.4,19.5,23.4,19.5,23.4,19.5C23.4,19.5,23.4,19.5,23.4,19.5C23.4,19.5,23.4,19.5,23.4,19.5z
	 M0.9,28.5C0.9,28.5,0.9,28.5,0.9,28.5C1,28.5,1,28.5,0.9,28.5C1,28.5,1,28.5,0.9,28.5C0.9,28.5,0.9,28.5,0.9,28.5z M7.1,28.5
	C7.1,28.5,7.1,28.5,7.1,28.5C7.1,28.5,7.1,28.5,7.1,28.5C7.1,28.5,7.1,28.5,7.1,28.5C7.1,28.5,7.1,28.5,7.1,28.5z M12.1,28.5
	C12.1,28.5,12.2,28.5,12.1,28.5C12.2,28.5,12.1,28.5,12.1,28.5C12.1,28.5,12.1,28.5,12.1,28.5C12.1,28.5,12.1,28.5,12.1,28.5z
	 M16.7,28.5C16.7,28.5,16.7,28.5,16.7,28.5C16.7,28.5,16.7,28.5,16.7,28.5C16.7,28.5,16.7,28.5,16.7,28.5
	C16.7,28.5,16.7,28.5,16.7,28.5z M0.9,28.5C0.9,28.6,0.9,28.6,0.9,28.5C0.8,28.6,0.8,28.6,0.9,28.5C0.9,28.6,0.9,28.6,0.9,28.5
	C0.9,28.6,0.9,28.6,0.9,28.5z M25.3,28.6C25.3,28.6,25.3,28.6,25.3,28.6C25.3,28.6,25.3,28.6,25.3,28.6
	C25.2,28.6,25.2,28.6,25.3,28.6C25.2,28.6,25.3,28.6,25.3,28.6z M24.2,19.6C24.2,19.6,24.2,19.7,24.2,19.6
	C24.2,19.7,24.2,19.7,24.2,19.6C24.2,19.7,24.3,19.7,24.2,19.6C24.3,19.7,24.2,19.6,24.2,19.6z"/>
</svg>
