<?xml version="1.0" encoding="utf-8"?>
<!-- Generator: Adobe Illustrator 21.0.0, SVG Export Plug-In . SVG Version: 6.00 Build 0)  -->
<svg version="1.1" id="OBJECTS" xmlns="http://www.w3.org/2000/svg" xmlns:xlink="http://www.w3.org/1999/xlink" x="0px" y="0px"
	 viewBox="0 0 100 100" style="enable-background:new 0 0 100 100;" xml:space="preserve" height="40" width="40">
<style type="text/css">
	.st0{fill:#525D65;}
	.st1{fill:#3B464E;}
	.st2{fill:#7C8B96;}
	.st3{fill:#B71D1D;}
	.st4{fill:#D32F2F;}
	.st5{fill:#222B32;}
	.st6{fill:#151A1E;}
	.st7{fill:#E4EDF1;}
	.st8{fill:#9E1515;}
</style>
<g>
	<g>
		
			<rect x="58.1" y="31.7" transform="matrix(0.7071 0.7071 -0.7071 0.7071 44.9873 -30.5085)" class="st0" width="2.5" height="14.7"/>
		
			<rect x="58.1" y="53.6" transform="matrix(0.7071 -0.7071 0.7071 0.7071 -25.7235 59.7965)" class="st0" width="2.5" height="14.7"/>
	</g>
	<path class="st1" d="M62.5,58.4V41.6c0-1.3,1.1-2.4,2.4-2.4h1.5c1.3,0,2.4,1.1,2.4,2.4v16.9c0,1.3-1.1,2.4-2.4,2.4h-1.5
		C63.6,60.9,62.5,59.8,62.5,58.4z"/>
	<path class="st1" d="M10.7,59.9V40.1c0-1.3,1.1-2.4,2.4-2.4h1.5c1.3,0,2.4,1.1,2.4,2.4v19.8c0,1.3-1.1,2.4-2.4,2.4h-1.5
		C11.8,62.3,10.7,61.2,10.7,59.9z"/>
	
		<rect x="47.3" y="48.3" transform="matrix(-1.836970e-16 1 -1 -1.836970e-16 115.9925 -15.9925)" class="st2" width="37.3" height="3.4"/>
	<g>
		
			<rect x="15.8" y="31.7" transform="matrix(-0.7071 0.7071 -0.7071 -0.7071 56.7843 54.5793)" class="st0" width="2.5" height="14.7"/>
		
			<rect x="15.8" y="53.6" transform="matrix(-0.7071 -0.7071 0.7071 -0.7071 -13.9256 116.1318)" class="st0" width="2.5" height="14.7"/>
	</g>
	<path class="st3" d="M84.6,64.8V35.2c0-1.5,1.5-2.5,2.9-2l2.5,1c1.6,0.6,2.6,2.2,2.6,3.9v23.8c0,1.7-1,3.2-2.6,3.9l-2.5,1
		C86,67.3,84.6,66.3,84.6,64.8z"/>
	<path class="st2" d="M69.7,57.4V42.6c0-0.7,0.5-1.2,1.2-1.2l0,0c0.7,0,1.2,0.5,1.2,1.2v14.8c0,0.7-0.5,1.2-1.2,1.2l0,0
		C70.2,58.6,69.7,58,69.7,57.4z"/>
	<path class="st4" d="M46.8,67.5H36c-0.1,0-0.3,0-0.4,0c-0.8,0-1.6-0.1-2.3-0.2c-4.8-0.8-8.9-3.5-11.6-7.3
		c-2.5-3.6-6.5-5.7-10.8-5.7h-0.4v-8.5h0.4c4.3,0,8.3-2.2,10.8-5.7c2.7-3.8,6.8-6.5,11.6-7.3c0.8-0.1,1.5-0.2,2.3-0.2
		c0.1,0,0.3,0,0.4,0h10.9c3.6,0,6.6,2.9,6.6,6.6v0c0,2.1,1.6,3.9,3.7,4l15.3,1.2l2.3,0.2l1.5,0.1l2.3,0.2l1.5,0.1l2.3,0.2L94.5,46
		c1.1,0,2,0.4,2.7,1.2c0.7,0.7,1.1,1.7,1.1,2.8c0,2.2-1.7,4-3.8,4l-12.1,0.9L80,55.1l-1.5,0.1l-2.3,0.2l-1.5,0.1l-2.3,0.2l-15.3,1.2
		c-2.1,0.2-3.7,1.9-3.7,4C53.4,64.5,50.5,67.5,46.8,67.5z"/>
	<path class="st3" d="M21.2,50L21.2,50c0-8.1,6.6-14.7,14.7-14.7h9.2c3.1,0,5.6,2.5,5.6,5.6v18.3c0,3.1-2.5,5.6-5.6,5.6H36
		C27.8,64.7,21.2,58.1,21.2,50z"/>
	<path class="st5" d="M21.2,50L21.2,50c0-3.5,2.8-6.3,6.3-6.3h23.3c3.5,0,6.3,2.8,6.3,6.3l0,0c0,3.5-2.8,6.3-6.3,6.3H27.6
		C24.1,56.3,21.2,53.5,21.2,50z"/>
	<path class="st6" d="M25.3,50L25.3,50c0-2.3,1.9-4.2,4.2-4.2H49c2.3,0,4.2,1.9,4.2,4.2l0,0c0,2.3-1.9,4.2-4.2,4.2H29.5
		C27.2,54.2,25.3,52.3,25.3,50z"/>
	
		<rect x="-8.2" y="48.3" transform="matrix(-1.836970e-16 1 -1 -1.836970e-16 60.4165 39.5835)" class="st2" width="37.3" height="3.4"/>
	<g>
		<path class="st5" d="M1.7,30.4v-2.3c0-2,1.7-3.7,3.7-3.7h10.1c2,0,3.7,1.7,3.7,3.7v2.3c0,2-1.7,3.7-3.7,3.7H5.4
			C3.3,34.1,1.7,32.5,1.7,30.4z"/>
		<path class="st6" d="M1.7,30.4v-2.3c0-2,1.7-3.7,3.7-3.7h6v9.7h-6C3.3,34.1,1.7,32.5,1.7,30.4z"/>
		<path class="st5" d="M1.7,71.9v-2.3c0-2,1.7-3.7,3.7-3.7h10.1c2,0,3.7,1.7,3.7,3.7v2.3c0,2-1.7,3.7-3.7,3.7H5.4
			C3.3,75.6,1.7,73.9,1.7,71.9z"/>
		<path class="st6" d="M1.7,71.9v-2.3c0-2,1.7-3.7,3.7-3.7h6v9.7h-6C3.3,75.6,1.7,73.9,1.7,71.9z"/>
	</g>
	<g>
		<path class="st5" d="M57.2,30.4v-2.3c0-2,1.7-3.7,3.7-3.7H71c2,0,3.7,1.7,3.7,3.7v2.3c0,2-1.7,3.7-3.7,3.7H60.9
			C58.9,34.1,57.2,32.5,57.2,30.4z"/>
		<path class="st6" d="M57.2,30.4v-2.3c0-2,1.7-3.7,3.7-3.7h6v9.7h-6C58.9,34.1,57.2,32.5,57.2,30.4z"/>
		<path class="st5" d="M57.2,71.9v-2.3c0-2,1.7-3.7,3.7-3.7H71c2,0,3.7,1.7,3.7,3.7v2.3c0,2-1.7,3.7-3.7,3.7H60.9
			C58.9,75.6,57.2,73.9,57.2,71.9z"/>
		<path class="st6" d="M57.2,71.9v-2.3c0-2,1.7-3.7,3.7-3.7h6v9.7h-6C58.9,75.6,57.2,73.9,57.2,71.9z"/>
	</g>
	<g>
		<g>
			<polygon class="st7" points="82.4,47.8 80,47.8 80,44.9 82.4,45.1 			"/>
			<polygon class="st7" points="78.6,47.8 76.2,47.8 76.2,44.6 78.6,44.8 			"/>
			<polygon class="st7" points="74.7,47.8 72.4,47.8 72.4,44.3 74.7,44.5 			"/>
		</g>
		<g>
			<polygon class="st7" points="80,55.1 80,52.2 82.4,52.2 82.4,54.9 			"/>
			<polygon class="st7" points="76.2,55.4 76.2,52.2 78.6,52.2 78.6,55.2 			"/>
			<polygon class="st7" points="72.4,55.7 72.4,52.2 74.7,52.2 74.7,55.5 			"/>
		</g>
	</g>
	<g>
		<g>
			<g>
				<rect x="40.9" y="32.5" class="st7" width="2.3" height="1.8"/>
				<rect x="37" y="32.5" class="st7" width="2.3" height="1.8"/>
				<path class="st7" d="M35.6,34.3h-2.3v-1.6c0.8-0.1,1.5-0.2,2.3-0.2V34.3z"/>
			</g>
		</g>
		<g>
			<g>
				<rect x="40.9" y="65.9" class="st7" width="2.3" height="1.6"/>
				<rect x="37" y="65.9" class="st7" width="2.3" height="1.6"/>
				<path class="st7" d="M35.6,67.4c-0.8,0-1.6-0.1-2.3-0.2v-1.4h2.3V67.4z"/>
			</g>
		</g>
	</g>
	<path class="st2" d="M46.7,54.6v-9.2c0-0.6,0.5-1.1,1.1-1.1l0,0c0.6,0,1.1,0.5,1.1,1.1v9.2c0,0.6-0.5,1.1-1.1,1.1l0,0
		C47.2,55.7,46.7,55.2,46.7,54.6z"/>
	<g>
		<ellipse class="st8" cx="38.2" cy="40.2" rx="5.8" ry="1.1"/>
		<ellipse class="st8" cx="38.2" cy="59.8" rx="5.8" ry="1.1"/>
	</g>
</g>
</svg>
