<?xml version="1.0" encoding="utf-8"?>
<!-- Generator: Adobe Illustrator 21.0.0, SVG Export Plug-In . SVG Version: 6.00 Build 0)  -->
<svg version="1.1" id="Layer_1" xmlns="http://www.w3.org/2000/svg" xmlns:xlink="http://www.w3.org/1999/xlink" x="0px" y="0px"
	 viewBox="0 0 100 52.5" style="enable-background:new 0 0 100 52.5;" xml:space="preserve" height="40" width="40">
<style type="text/css">
	.st0{fill:url(#SVGID_1_);}
	.st1{fill:url(#SVGID_2_);}
	.st2{fill:url(#SVGID_3_);}
	.st3{fill:url(#SVGID_4_);}
	.st4{fill:url(#SVGID_5_);}
	.st5{fill:url(#SVGID_6_);}
	.st6{fill:url(#SVGID_7_);}
	.st7{fill:url(#SVGID_8_);}
	.st8{fill:url(#SVGID_9_);}
	.st9{fill:url(#SVGID_10_);}
	.st10{fill:url(#SVGID_11_);}
	.st11{fill:url(#SVGID_12_);}
	.st12{fill:url(#SVGID_13_);}
	.st13{fill:url(#SVGID_14_);}
	.st14{fill:#93091A;}
	.st15{fill:url(#SVGID_15_);}
	.st16{fill:url(#SVGID_16_);}
	.st17{fill:url(#SVGID_17_);}
	.st18{fill:url(#SVGID_18_);}
	.st19{fill:url(#SVGID_19_);}
	.st20{fill:url(#SVGID_20_);}
	.st21{fill:url(#SVGID_21_);}
	.st22{fill:url(#SVGID_22_);}
	.st23{fill:url(#SVGID_23_);}
	.st24{fill:url(#SVGID_24_);}
	.st25{fill:url(#SVGID_25_);}
	.st26{fill:url(#SVGID_26_);}
	.st27{fill:url(#SVGID_27_);}
	.st28{fill:#595959;}
	.st29{fill:#9E9E9E;}
	.st30{fill:url(#SVGID_28_);}
	.st31{fill:url(#SVGID_29_);}
</style>
<g>
	
		<radialGradient id="SVGID_1_" cx="47.6998" cy="4139.1392" r="27.6499" gradientTransform="matrix(6.123234e-17 1 2.0828 -1.275347e-16 -8571.7002 -21.5129)" gradientUnits="userSpaceOnUse">
		<stop  offset="0" style="stop-color:#F7F7F7"/>
		<stop  offset="1" style="stop-color:#A8ABAA"/>
	</radialGradient>
	<path class="st0" d="M83.4,48.1c4.4-0.5,6.6-1.3,8.4-2.7c-0.1-0.6,0-1.2,0.4-1.8l3.8-5.1c0.4-0.5,1-0.9,1.6-1
		c0.1-0.2,0.2-0.5,0.2-0.7h-4.8V15.6h4.8c-0.1-0.2-0.2-0.5-0.2-0.7c-0.6-0.1-1.2-0.4-1.6-1l-3.8-5.2c-0.4-0.5-0.5-1.2-0.4-1.8
		c-1.8-1.4-4.1-2.2-8.4-2.7c-11.5-1.3-29.6,0.9-34,0.9C25.6,4.8,11.1,4.6,6.1,6.2c-1,0.3-1.7,1-2.4,2.1c0.1,0.2,0.2,0.5,0.2,0.8
		c0,1.8-1.2,2.7-0.9,4.8c0.2,1.3-0.9,1.8-1.7,2C1.2,17,1.1,18.2,1,19.4c0.3,0.2,0.4,0.5,0.4,0.8v12c0,0.3-0.2,0.7-0.4,0.8
		c0.1,0.9,0.2,1.7,0.3,2.7c0.8,0.1,2,0.5,1.8,2c-0.3,2,0.9,2.9,0.9,4.8c0,0.6-0.2,1-0.5,1.2c0.7,1.3,1.6,2.2,2.7,2.6
		c5,1.6,19.5,1.4,43.2,1.1C53.9,47.2,72,49.5,83.4,48.1z"/>
	
		<linearGradient id="SVGID_2_" gradientUnits="userSpaceOnUse" x1="37.1315" y1="75.3128" x2="58.2911" y2="75.3128" gradientTransform="matrix(6.123234e-17 1 1 -6.123234e-17 20.8967 -21.5129)">
		<stop  offset="0" style="stop-color:#525956"/>
		<stop  offset="1" style="stop-color:#2C2E2E"/>
	</linearGradient>
	<path class="st1" d="M93.1,36.8h4.8c1.9-6,1.9-15.1,0-21.2h-4.8L93.1,36.8L93.1,36.8z"/>
	
		<radialGradient id="SVGID_3_" cx="47.7" cy="6039.4106" r="22.1076" gradientTransform="matrix(6.123234e-17 1 3.8388 -2.350587e-16 -23133.5352 -21.5129)" gradientUnits="userSpaceOnUse">
		<stop  offset="0" style="stop-color:#FFFFFF"/>
		<stop  offset="1" style="stop-color:#D2D6D5"/>
	</radialGradient>
	<path class="st2" d="M82.7,46.8c7.2-0.8,8.4-2.5,11.8-6.5c4.6-5.5,4.6-22.7,0-28.2C91.2,8,90,6.4,82.7,5.5
		C71.7,4.3,54.3,6.4,50,6.4c-22.9-0.3-36.8-0.5-41.6,1C2.8,9.1,3.1,26.2,3.1,26.2S2.8,43.3,8.4,45c4.8,1.5,18.8,1.3,41.6,1
		C54.3,46,71.7,48.1,82.7,46.8z"/>
	
		<linearGradient id="SVGID_4_" gradientUnits="userSpaceOnUse" x1="32.2102" y1="36.4268" x2="63.1898" y2="36.4268" gradientTransform="matrix(6.123234e-17 1 1 -6.123234e-17 20.8967 -21.5129)">
		<stop  offset="0" style="stop-color:#000000"/>
		<stop  offset="1" style="stop-color:#1B1C1C"/>
	</linearGradient>
	<path class="st3" d="M58.9,17.8c-0.5-3.6-1.5-6.1-1.9-7.1L55.4,11c0,0,1.4,2.8,2.1,7.2c0.5,3.8,0.5,12.3,0,16.1
		c-0.6,4.4-2.1,7.2-2.1,7.2l1.6,0.3c0.4-1,1.4-3.5,1.9-7.1C59.4,30.7,59.4,21.7,58.9,17.8z"/>
	
		<linearGradient id="SVGID_5_" gradientUnits="userSpaceOnUse" x1="29.7534" y1="51.9733" x2="65.6239" y2="51.9733" gradientTransform="matrix(6.123234e-17 1 1 -6.123234e-17 20.8967 -21.5129)">
		<stop  offset="0" style="stop-color:#000000"/>
		<stop  offset="1" style="stop-color:#1B1C1C"/>
	</linearGradient>
	<path class="st4" d="M70.7,9.6c0.6,1.4,1.6,3.8,2.4,7.6c1.2,5.4,1.2,12.6,0,18c-0.8,3.8-1.8,6.2-2.4,7.6c-0.3,0.6-0.5,1-0.7,1.2h0
		c0,0,1.1,0.2,1.5,0.1c0.3-0.1,0.5-0.6,0.8-1.3c0.6-1.4,1.6-3.8,2.4-7.6c1.2-5.4,1.2-12.6,0-18C74,13.4,73,11,72.4,9.6
		c-0.3-0.7-0.6-1.2-0.8-1.3c-0.3-0.2-1.5,0.1-1.5,0.1h0C70.3,8.6,70.5,9,70.7,9.6z"/>
	
		<linearGradient id="SVGID_6_" gradientUnits="userSpaceOnUse" x1="29.9423" y1="44.6139" x2="65.516" y2="44.6139" gradientTransform="matrix(6.123234e-17 1 1 -6.123234e-17 20.8967 -21.5129)">
		<stop  offset="0" style="stop-color:#363B39"/>
		<stop  offset="1" style="stop-color:#1B1C1C"/>
	</linearGradient>
	<path class="st5" d="M58.9,17.8c0.5,3.9,0.5,12.9,0,16.8c-0.5,3.6-1.5,6.1-1.9,7.1L70,44c0.2-0.2,0.4-0.6,0.7-1.2
		c0.6-1.4,1.6-3.8,2.4-7.6c1.2-5.4,1.2-12.6,0-18c-0.8-3.8-1.8-6.2-2.4-7.6c-0.3-0.6-0.5-1-0.7-1.2L57,10.7
		C57.4,11.6,58.4,14.2,58.9,17.8z"/>
	
		<linearGradient id="SVGID_7_" gradientUnits="userSpaceOnUse" x1="32.6322" y1="58.5849" x2="62.7337" y2="58.5849" gradientTransform="matrix(6.123234e-17 1 -1 6.123234e-17 73.9493 -21.5129)">
		<stop  offset="0" style="stop-color:#000000"/>
		<stop  offset="1" style="stop-color:#1B1C1C"/>
	</linearGradient>
	<path class="st6" d="M21.1,40.5c0.6-0.1,1.1-0.2,1.7-0.4c0,0-0.1-0.2-0.3-0.6c-0.6-1.5-2-5.8-2-13.3c0-6.9,1.5-11.7,2-13.3
		c0.1-0.4,0.2-0.6,0.2-0.6c-0.5-0.2-1.1-0.3-1.7-0.4c-5.4-1.1-10.5-0.6-10.5-0.6s-1.4,3-2.2,7.4c-0.6,3.3-0.6,11.7,0,15.1
		c0.8,4.3,2.2,7.4,2.2,7.4S15.7,41.7,21.1,40.5z M12,40.1c0,0-1.4-2.8-2.2-6.9c-0.6-3.1-0.6-10.9,0-14c0.8-4,2.2-6.9,2.2-6.9
		s4.2-0.4,8.9,0.3c-0.7,2.5-1.6,7.3-1.6,13.6c0,6.8,0.9,11.2,1.5,13.6C16.1,40.5,12,40.1,12,40.1z"/>
	
		<linearGradient id="SVGID_8_" gradientUnits="userSpaceOnUse" x1="33.7216" y1="-5.7477" x2="61.7464" y2="-5.7477" gradientTransform="matrix(6.123234e-17 1 1 -6.123234e-17 20.8967 -21.5129)">
		<stop  offset="0" style="stop-color:#363B39"/>
		<stop  offset="1" style="stop-color:#1B1C1C"/>
	</linearGradient>
	<path class="st7" d="M20.9,12.6c-4.8-0.7-8.9-0.3-8.9-0.3s-1.4,2.8-2.2,6.9c-0.6,3.1-0.6,10.9,0,14c0.8,4,2.2,6.9,2.2,6.9
		s4.1,0.4,8.9-0.3c-0.7-2.4-1.5-6.8-1.5-13.6C19.3,19.9,20.2,15.1,20.9,12.6z"/>
	<g>
		
			<linearGradient id="SVGID_9_" gradientUnits="userSpaceOnUse" x1="28.5504" y1="34.8279" x2="32.0569" y2="34.8279" gradientTransform="matrix(6.123234e-17 1 1 -6.123234e-17 20.8967 -21.5129)">
			<stop  offset="0" style="stop-color:#363B39"/>
			<stop  offset="1" style="stop-color:#1B1C1C"/>
		</linearGradient>
		<path class="st8" d="M42,7.5l-1,3L54.5,10l16-2.9c0,0-4.1-0.2-10,0c-3.7,0.2-8.9,0.6-12.2,0.6C45.2,7.7,43.1,7.6,42,7.5z"/>
		
			<linearGradient id="SVGID_10_" gradientUnits="userSpaceOnUse" x1="63.3641" y1="34.8279" x2="66.871" y2="34.8279" gradientTransform="matrix(6.123234e-17 1 1 -6.123234e-17 20.8967 -21.5129)">
			<stop  offset="0" style="stop-color:#363B39"/>
			<stop  offset="1" style="stop-color:#1B1C1C"/>
		</linearGradient>
		<path class="st9" d="M42,44.9l-1-3l13.5,0.5l16,2.9c0,0-4.1,0.2-10,0c-3.7-0.2-8.9-0.6-12.2-0.6C45.2,44.6,43,44.8,42,44.9z"/>
	</g>
	<g>
		
			<linearGradient id="SVGID_11_" gradientUnits="userSpaceOnUse" x1="28.8" y1="9.9603" x2="32.4256" y2="9.9603" gradientTransform="matrix(6.123234e-17 1 1 -6.123234e-17 20.8967 -21.5129)">
			<stop  offset="0" style="stop-color:#363B39"/>
			<stop  offset="1" style="stop-color:#1B1C1C"/>
		</linearGradient>
		<path class="st10" d="M40.7,7.4l-1.3,3.1l-11.3,0.3c0,0-1.4-0.3-3.7-1.4c-2.7-1.3-3.4-2-3.4-2S36.5,7.1,40.7,7.4z"/>
		
			<linearGradient id="SVGID_12_" gradientUnits="userSpaceOnUse" x1="62.9962" y1="9.9603" x2="66.6212" y2="9.9603" gradientTransform="matrix(6.123234e-17 1 1 -6.123234e-17 20.8967 -21.5129)">
			<stop  offset="0" style="stop-color:#363B39"/>
			<stop  offset="1" style="stop-color:#1B1C1C"/>
		</linearGradient>
		<path class="st11" d="M40.7,45l-1.3-3.1l-11.3-0.3c0,0-1.4,0.3-3.7,1.4c-2.7,1.3-3.4,2-3.4,2S36.5,45.3,40.7,45z"/>
	</g>
	<g>
		
			<radialGradient id="SVGID_13_" cx="32.437" cy="75.8607" r="3.4134" gradientTransform="matrix(6.123234e-17 1 1.0473 -6.412863e-17 15.2909 -21.5129)" gradientUnits="userSpaceOnUse">
			<stop  offset="0" style="stop-color:#FFFFFF"/>
			<stop  offset="1" style="stop-color:#D2D6D5"/>
		</radialGradient>
		<path class="st12" d="M92.2,8.7l3.8,5.2c0.4,0.5,1,0.9,1.6,1c-0.5-1.5-1.2-2.7-1.9-3.7C94.3,9.4,93.2,8,91.9,7
			C91.8,7.6,91.9,8.2,92.2,8.7z"/>
		
			<radialGradient id="SVGID_14_" cx="62.9826" cy="75.8607" r="3.4124" gradientTransform="matrix(6.123234e-17 1 1.0473 -6.412863e-17 15.2909 -21.5129)" gradientUnits="userSpaceOnUse">
			<stop  offset="0" style="stop-color:#FFFFFF"/>
			<stop  offset="1" style="stop-color:#D2D6D5"/>
		</radialGradient>
		<path class="st13" d="M96,38.5l-3.8,5.1c-0.4,0.5-0.5,1.2-0.4,1.8c1.3-1,2.4-2.4,3.9-4.2c0.8-0.9,1.4-2.2,1.9-3.7
			C97,37.6,96.4,37.9,96,38.5z"/>
	</g>
	<path class="st14" d="M3.1,13.9C2.8,11.8,4,10.9,4,9.1c0-0.3-0.1-0.6-0.2-0.8c-1.2,1.9-1.9,4.7-2.4,7.6C2.2,15.7,3.3,15.2,3.1,13.9
		z"/>
	<path class="st14" d="M3.1,37.6c0.2-1.4-1-1.9-1.8-2c0.4,2.9,1.1,5.9,2.2,8C3.8,43.4,4,43,4,42.4C4,40.5,2.8,39.7,3.1,37.6z"/>
	
		<linearGradient id="SVGID_15_" gradientUnits="userSpaceOnUse" x1="33.98" y1="56.9664" x2="38.9652" y2="72.6014" gradientTransform="matrix(6.123234e-17 1 1 -6.123234e-17 20.8967 -21.5129)">
		<stop  offset="0" style="stop-color:#D2DBDA"/>
		<stop  offset="1" style="stop-color:#B5B5B5"/>
	</linearGradient>
	<path class="st15" d="M75.7,11.9c0,0,6.4,3.5,8.7,4c1.8,0.4,7.4-0.2,7.4-0.2s-5.3-0.4-7.1-0.7C82.4,14.3,75.7,11.9,75.7,11.9z"/>
	
		<linearGradient id="SVGID_16_" gradientUnits="userSpaceOnUse" x1="61.0475" y1="56.0421" x2="57.0796" y2="71.8008" gradientTransform="matrix(6.123234e-17 1 1 -6.123234e-17 20.8967 -21.5129)">
		<stop  offset="0" style="stop-color:#D2DBDA"/>
		<stop  offset="1" style="stop-color:#B5B5B5"/>
	</linearGradient>
	<path class="st16" d="M75.7,40.6c0,0,6.4-3.5,8.7-4c1.8-0.4,7.4,0.2,7.4,0.2s-5.3,0.4-7.1,0.7C82.4,38.1,75.7,40.6,75.7,40.6z"/>
	
		<linearGradient id="SVGID_17_" gradientUnits="userSpaceOnUse" x1="47.6384" y1="48.1721" x2="57.5998" y2="41.0889" gradientTransform="matrix(6.123234e-17 1 1 -6.123234e-17 20.8967 -21.5129)">
		<stop  offset="0" style="stop-color:#363B39"/>
		<stop  offset="1" style="stop-color:#000000"/>
	</linearGradient>
	<path class="st17" d="M70.7,42.8c0.6-1.4,1.6-3.8,2.4-7.6c0.3-1.3,0.5-2.7,0.7-4.2c-4.1-3.8-11.5-8.3-14.7-10.2
		c0.2,4.4,0.2,10.7-0.3,13.8c-0.5,3.6-1.5,6.1-1.9,7.1L70,44C70.3,43.8,70.5,43.4,70.7,42.8z"/>
	
		<linearGradient id="SVGID_18_" gradientUnits="userSpaceOnUse" x1="37.7167" y1="36.1741" x2="76.3921" y2="-27.3069" gradientTransform="matrix(6.123234e-17 1 1 -6.123234e-17 20.8967 -21.5129)">
		<stop  offset="0" style="stop-color:#F7F7F7"/>
		<stop  offset="1" style="stop-color:#DBDBDB"/>
	</linearGradient>
	<path class="st18" d="M56.4,26.2c0.2-11-1.8-14.8-1.8-14.8s-26.8,0.1-29.4,1c-1.8,0.6-2.6,7.5-2.9,12V28c0.3,4.4,1.1,11.4,2.9,12
		c2.7,0.8,29.4,1,29.4,1S56.7,37.3,56.4,26.2z"/>
	
		<linearGradient id="SVGID_19_" gradientUnits="userSpaceOnUse" x1="42.5351" y1="-5.0577" x2="60.9617" y2="-35.3027" gradientTransform="matrix(6.123234e-17 1 1 -6.123234e-17 20.8967 -21.5129)">
		<stop  offset="0" style="stop-color:#F7F7F7"/>
		<stop  offset="1" style="stop-color:#DBDBDB"/>
	</linearGradient>
	<path class="st19" d="M4,28.1c0.3,10.7,3.4,15.5,3.4,15.5l2.6-2.1c-3.7-6.7-3-15.3-3-15.3l0,0c0,0-0.8-8.6,3-15.3L7.4,8.8
		c0,0-3,4.7-3.4,15.5c0,0.6,0,1.9,0,1.9l0,0C4,26.9,4,27.6,4,28.1z"/>
	
		<linearGradient id="SVGID_20_" gradientUnits="userSpaceOnUse" x1="24.4149" y1="83.2926" x2="33.913" y2="55.9425" gradientTransform="matrix(6.123234e-17 1 1 -6.123234e-17 20.8967 -21.5129)">
		<stop  offset="0" style="stop-color:#F7F7F7"/>
		<stop  offset="1" style="stop-color:#DBDBDB"/>
	</linearGradient>
	<path class="st20" d="M95.2,13.9c0,0-3.4-6.6-10.8-7.4c-7.6-0.7-11.5-0.6-11.5-0.6S91.1,8.2,95.2,13.9z"/>
	
		<linearGradient id="SVGID_21_" gradientUnits="userSpaceOnUse" x1="-289.3287" y1="83.2967" x2="-279.8307" y2="55.9467" gradientTransform="matrix(-6.123234e-17 -1 1 -6.123234e-17 20.8967 -239.8098)">
		<stop  offset="0" style="stop-color:#F7F7F7"/>
		<stop  offset="1" style="stop-color:#DBDBDB"/>
	</linearGradient>
	<path class="st21" d="M95.2,38.5c0,0-3.4,6.6-10.8,7.4c-7.6,0.7-11.5,0.6-11.5,0.6S91.1,44.2,95.2,38.5z"/>
	<g>
		
			<linearGradient id="SVGID_22_" gradientUnits="userSpaceOnUse" x1="66.2393" y1="48.007" x2="70.0652" y2="40.5993" gradientTransform="matrix(6.123234e-17 1 1 -6.123234e-17 20.8967 -21.5129)">
			<stop  offset="0" style="stop-color:#363B39"/>
			<stop  offset="1" style="stop-color:#1B1C1C"/>
		</linearGradient>
		<path class="st22" d="M69.5,45.1c0,0-0.3,1.7-1.8,1.8c-1.5,0-4.5-1.7-2.6-1.8C67,45.1,68.9,45,69.5,45.1z"/>
		
			<linearGradient id="SVGID_23_" gradientUnits="userSpaceOnUse" x1="67.7419" y1="45.7608" x2="72.8032" y2="45.7608" gradientTransform="matrix(6.123234e-17 1 1 -6.123234e-17 20.8967 -21.5129)">
			<stop  offset="0" style="stop-color:#FFFFFF"/>
			<stop  offset="1" style="stop-color:#D2D6D5"/>
		</linearGradient>
		<path class="st23" d="M66.3,51.1c0.5-0.4,1.6-3.9,1.6-3.9c0.2-0.7-0.4-0.9-0.9-1l-1.5,5C65.7,51.3,66,51.3,66.3,51.1z"/>
		
			<linearGradient id="SVGID_24_" gradientUnits="userSpaceOnUse" x1="67.7424" y1="45.1355" x2="72.8035" y2="45.1355" gradientTransform="matrix(6.123234e-17 1 1 -6.123234e-17 20.8967 -21.5129)">
			<stop  offset="0" style="stop-color:#363B39"/>
			<stop  offset="1" style="stop-color:#1B1C1C"/>
		</linearGradient>
		<path class="st24" d="M67,46.3c-0.3,0-0.6,0-0.6,0l-1.2,4.9c0,0,0.1,0.1,0.3,0.1L67,46.3z"/>
	</g>
	<g>
		
			<linearGradient id="SVGID_25_" gradientUnits="userSpaceOnUse" x1="27.8641" y1="47.3493" x2="31.2015" y2="40.0233" gradientTransform="matrix(6.123234e-17 1 1 -6.123234e-17 20.8967 -21.5129)">
			<stop  offset="0" style="stop-color:#363B39"/>
			<stop  offset="1" style="stop-color:#1B1C1C"/>
		</linearGradient>
		<path class="st25" d="M69.6,7.3c0,0-0.3-1.8-1.8-1.9s-4.5,1.8-2.6,1.9C67.1,7.3,69,7.4,69.6,7.3z"/>
		
			<linearGradient id="SVGID_26_" gradientUnits="userSpaceOnUse" x1="22.6069" y1="45.8503" x2="27.6679" y2="45.8503" gradientTransform="matrix(6.123234e-17 1 1 -6.123234e-17 20.8967 -21.5129)">
			<stop  offset="0" style="stop-color:#D2D6D5"/>
			<stop  offset="1" style="stop-color:#FFFFFF"/>
		</linearGradient>
		<path class="st26" d="M68,5.1c0,0-1.1-3.5-1.6-3.9c-0.3-0.2-0.7-0.2-0.9-0.1l1.5,5C67.5,6,68.2,5.8,68,5.1z"/>
		
			<linearGradient id="SVGID_27_" gradientUnits="userSpaceOnUse" x1="22.6027" y1="45.1922" x2="27.6635" y2="45.1922" gradientTransform="matrix(6.123234e-17 1 1 -6.123234e-17 20.8967 -21.5129)">
			<stop  offset="0" style="stop-color:#363B39"/>
			<stop  offset="1" style="stop-color:#1B1C1C"/>
		</linearGradient>
		<path class="st27" d="M65.5,1.1c-0.2,0-0.3,0.1-0.3,0.1l1.2,4.9c0,0,0.3,0,0.6,0L65.5,1.1z"/>
	</g>
	<path class="st28" d="M50.1,5.2c0-0.2-0.2-0.5-0.5-0.5h-3.8c-0.2,0-0.5,0.2-0.5,0.5H50.1z"/>
	<path class="st28" d="M31.1,4.9c0-0.2-0.2-0.5-0.5-0.5h-3.8c-0.2,0-0.5,0.2-0.5,0.5H31.1z"/>
	<path class="st28" d="M50.1,47.2c0,0.2-0.2,0.5-0.5,0.5h-3.8c-0.2,0-0.5-0.2-0.5-0.5H50.1z"/>
	<path class="st28" d="M31.1,47.5c0,0.2-0.2,0.5-0.5,0.5h-3.8c-0.2,0-0.5-0.2-0.5-0.5H31.1z"/>
	<g>
		<g>
			<g>
				<path class="st29" d="M77.1,16.2c0.1,0.7,0.5,1.1,0.5,1.8c0,0.1,0,0.1,0.1,0.1c0.1,0,0.1,0,0.1-0.1c-0.1-0.7-0.5-1.1-0.5-1.8
					c0-0.1,0-0.1-0.1-0.1C77.1,16.1,77.1,16.1,77.1,16.2z"/>
				<path class="st29" d="M77.4,18c-0.1-0.7-0.5-1.1-0.5-1.8c0-0.1,0-0.1-0.1-0.1c-0.1,0-0.1,0-0.1,0.1c0.1,0.7,0.5,1.1,0.5,1.8
					c0,0.1,0,0.1,0.1,0.1S77.4,18.1,77.4,18z"/>
				<path class="st29" d="M77,18c-0.1-0.7-0.5-1.1-0.5-1.8c0-0.1,0-0.1-0.1-0.1c-0.1,0-0.1,0-0.1,0.1c0.1,0.7,0.5,1.1,0.5,1.8
					c0,0.1,0,0.1,0.1,0.1C76.9,18.2,77,18.1,77,18z"/>
			</g>
		</g>
		<g>
			<g>
				<path class="st29" d="M77.1,36.2c0.1-0.7,0.5-1.1,0.5-1.8c0-0.1,0-0.1,0.1-0.1c0.1,0,0.1,0,0.1,0.1c-0.1,0.7-0.5,1.1-0.5,1.8
					c0,0.1,0,0.1-0.1,0.1C77.1,36.3,77.1,36.2,77.1,36.2z"/>
				<path class="st29" d="M77.4,34.3c-0.1,0.7-0.5,1.1-0.5,1.8c0,0.1,0,0.1-0.1,0.1c-0.1,0-0.1,0-0.1-0.1c0.1-0.7,0.5-1.1,0.5-1.8
					c0-0.1,0-0.1,0.1-0.1S77.4,34.3,77.4,34.3z"/>
				<path class="st29" d="M77,34.3c-0.1,0.7-0.5,1.1-0.5,1.8c0,0.1,0,0.1-0.1,0.1c-0.1,0-0.1,0-0.1-0.1c0.1-0.7,0.5-1.1,0.5-1.8
					c0-0.1,0-0.1,0.1-0.1C76.9,34.2,77,34.3,77,34.3z"/>
			</g>
		</g>
	</g>
	
		<linearGradient id="SVGID_28_" gradientUnits="userSpaceOnUse" x1="40.8963" y1="-19.8409" x2="54.5037" y2="-19.8409" gradientTransform="matrix(6.123234e-17 1 1 -6.123234e-17 20.8967 -21.5129)">
		<stop  offset="0" style="stop-color:#363B39"/>
		<stop  offset="1" style="stop-color:#1B1C1C"/>
	</linearGradient>
	<path class="st30" d="M1.4,32.2V20.2c0-0.3-0.2-0.7-0.4-0.8c-0.3,3.7-0.3,6.8-0.3,6.8s0,3.1,0.3,6.8C1.3,32.8,1.4,32.5,1.4,32.2z"
		/>
	
		<linearGradient id="SVGID_29_" gradientUnits="userSpaceOnUse" x1="40.884" y1="7.5965" x2="48.267" y2="-3.7249" gradientTransform="matrix(6.123234e-17 1 1 -6.123234e-17 20.8967 -21.5129)">
		<stop  offset="0" style="stop-color:#363B39"/>
		<stop  offset="1" style="stop-color:#000000"/>
	</linearGradient>
	<path class="st31" d="M20.8,39.8c-0.7-2.4-1.5-6.8-1.5-13.6c0-1.4,0-2.7,0.1-3.9c-1.7-3.9-7.3-6.2-8.7-6.8c-0.3,1-0.7,2.3-1,3.7
		c-0.6,3.1-0.6,10.9,0,14c0.8,4,2.2,6.9,2.2,6.9S16.1,40.5,20.8,39.8z"/>
</g>
</svg>
